  0
SECTION
  2
HEADER
  9
$ANGBASE
  50
0.0
  9
$ANGDIR
  70
1
  9
$MEASUREMENT
  70
0
  0
ENDSEC
  0
SECTION
  2
TABLES
  0
TABLE
  2
LTYPE
  70
4
  0
LTYPE
  5
40F
  2
CONTINUOUS
  70
0
  3
Solid line
  72
65
  73
0
  40
0.0
  0
LTYPE
  5
410
  2
DASHDOT
 70
0
  3
Dash Dot ____ _ ____ _
 72
65
 73
4
 40
2.0
 49
1.25
 49
-0.25
 49
0.25
 49
-0.25
  0
LTYPE
  5
411
  2
DASHED
 70
0
  3
Dashed __ __ __ __ __
 72
65
 73
2
 40
0.75
 49
0.5
 49
-0.25
  0
LTYPE
  5
43B
  2
DOTTED
 70
0
  3
Dotted .  .  .  .
 72
65
 73
2
 40
0.2
 49
0.0
 49
-0.2
  0
ENDTAB
  0
TABLE
  2
STYLE
  70
4
  0
STYLE
  2
KICAD
  70
0
  40
0
  41
1
  42
1
  50
0
  71
0
  3
isocp.shx
  0
STYLE
  2
KICADB
  70
0
  40
0
  41
1
  42
1
  50
0
  71
0
  3
isocp.shx
  0
STYLE
  2
KICADI
  70
0
  40
0
  41
1
  42
1
  50
15
  71
0
  3
isocp.shx
  0
STYLE
  2
KICADBI
  70
0
  40
0
  41
1
  42
1
  50
15
  71
0
  3
isocp.shx
  0
ENDTAB
  0
TABLE
  2
LAYER
  70
1
  0
LAYER
  2
BLACK
  70
0
  62
7
  6
CONTINUOUS
  0
ENDTAB
  0
ENDSEC
  0
SECTION
  2
ENTITIES
0
LINE
8
BLACK
6
CONTINUOUS
10
7.83042
20
-3.828
11
7.83118
21
-3.82813
0
LINE
8
BLACK
6
CONTINUOUS
10
7.83118
20
-3.82813
11
8.3017
21
-4.09978
0
LINE
8
BLACK
6
CONTINUOUS
10
8.3017
20
-4.09978
11
8.30199
21
-4.10003
0
LINE
8
BLACK
6
CONTINUOUS
10
8.30199
20
-4.10003
11
8.30212
21
-4.10008
0
LINE
8
BLACK
6
CONTINUOUS
10
8.30212
20
-4.10008
11
8.30218
21
-4.10019
0
LINE
8
BLACK
6
CONTINUOUS
10
8.30218
20
-4.10019
11
8.30248
21
-4.10044
0
LINE
8
BLACK
6
CONTINUOUS
10
8.30248
20
-4.10044
11
8.30274
21
-4.10116
0
LINE
8
BLACK
6
CONTINUOUS
10
8.30274
20
-4.10116
11
8.30313
21
-4.10183
0
LINE
8
BLACK
6
CONTINUOUS
10
8.30313
20
-4.10183
11
8.30308
21
-4.10209
0
LINE
8
BLACK
6
CONTINUOUS
10
8.30308
20
-4.10209
11
8.30317
21
-4.10234
0
LINE
8
BLACK
6
CONTINUOUS
10
8.30317
20
-4.10234
11
8.30291
21
-4.10306
0
LINE
8
BLACK
6
CONTINUOUS
10
8.30291
20
-4.10306
11
8.30278
21
-4.10382
0
LINE
8
BLACK
6
CONTINUOUS
10
8.30278
20
-4.10382
11
8.03112
21
-4.57433
0
LINE
8
BLACK
6
CONTINUOUS
10
8.03112
20
-4.57433
11
8.03087
21
-4.57463
0
LINE
8
BLACK
6
CONTINUOUS
10
8.03087
20
-4.57463
11
8.03083
21
-4.57476
0
LINE
8
BLACK
6
CONTINUOUS
10
8.03083
20
-4.57476
11
8.03071
21
-4.57482
0
LINE
8
BLACK
6
CONTINUOUS
10
8.03071
20
-4.57482
11
8.03046
21
-4.57512
0
LINE
8
BLACK
6
CONTINUOUS
10
8.03046
20
-4.57512
11
8.02974
21
-4.57538
0
LINE
8
BLACK
6
CONTINUOUS
10
8.02974
20
-4.57538
11
8.02908
21
-4.57577
0
LINE
8
BLACK
6
CONTINUOUS
10
8.02908
20
-4.57577
11
8.02882
21
-4.57572
0
LINE
8
BLACK
6
CONTINUOUS
10
8.02882
20
-4.57572
11
8.02857
21
-4.57581
0
LINE
8
BLACK
6
CONTINUOUS
10
8.02857
20
-4.57581
11
8.02785
21
-4.57555
0
LINE
8
BLACK
6
CONTINUOUS
10
8.02785
20
-4.57555
11
8.02709
21
-4.57541
0
LINE
8
BLACK
6
CONTINUOUS
10
8.02709
20
-4.57541
11
7.55657
21
-4.30376
0
LINE
8
BLACK
6
CONTINUOUS
10
7.55657
20
-4.30376
11
7.55627
21
-4.30351
0
LINE
8
BLACK
6
CONTINUOUS
10
7.55627
20
-4.30351
11
7.55615
21
-4.30347
0
LINE
8
BLACK
6
CONTINUOUS
10
7.55615
20
-4.30347
11
7.55608
21
-4.30335
0
LINE
8
BLACK
6
CONTINUOUS
10
7.55608
20
-4.30335
11
7.55579
21
-4.3031
0
LINE
8
BLACK
6
CONTINUOUS
10
7.55579
20
-4.3031
11
7.55552
21
-4.30238
0
LINE
8
BLACK
6
CONTINUOUS
10
7.55552
20
-4.30238
11
7.55514
21
-4.30172
0
LINE
8
BLACK
6
CONTINUOUS
10
7.55514
20
-4.30172
11
7.55519
21
-4.30145
0
LINE
8
BLACK
6
CONTINUOUS
10
7.55519
20
-4.30145
11
7.5551
21
-4.3012
0
LINE
8
BLACK
6
CONTINUOUS
10
7.5551
20
-4.3012
11
7.55536
21
-4.30048
0
LINE
8
BLACK
6
CONTINUOUS
10
7.55536
20
-4.30048
11
7.55549
21
-4.29973
0
LINE
8
BLACK
6
CONTINUOUS
10
7.55549
20
-4.29973
11
7.82714
21
-3.82921
0
LINE
8
BLACK
6
CONTINUOUS
10
7.82714
20
-3.82921
11
7.82739
21
-3.82891
0
LINE
8
BLACK
6
CONTINUOUS
10
7.82739
20
-3.82891
11
7.82744
21
-3.82879
0
LINE
8
BLACK
6
CONTINUOUS
10
7.82744
20
-3.82879
11
7.82755
21
-3.82872
0
LINE
8
BLACK
6
CONTINUOUS
10
7.82755
20
-3.82872
11
7.8278
21
-3.82842
0
LINE
8
BLACK
6
CONTINUOUS
10
7.8278
20
-3.82842
11
7.82852
21
-3.82816
0
LINE
8
BLACK
6
CONTINUOUS
10
7.82852
20
-3.82816
11
7.82919
21
-3.82778
0
LINE
8
BLACK
6
CONTINUOUS
10
7.82919
20
-3.82778
11
7.82945
21
-3.82782
0
LINE
8
BLACK
6
CONTINUOUS
10
7.82945
20
-3.82782
11
7.8297
21
-3.82773
0
LINE
8
BLACK
6
CONTINUOUS
10
7.8297
20
-3.82773
11
7.83042
21
-3.828
0
LINE
8
BLACK
6
CONTINUOUS
10
7.56208
20
-4.30012
11
8.02749
21
-4.56882
0
LINE
8
BLACK
6
CONTINUOUS
10
8.02749
20
-4.56882
11
8.29619
21
-4.10342
0
LINE
8
BLACK
6
CONTINUOUS
10
8.29619
20
-4.10342
11
7.83078
21
-3.83472
0
LINE
8
BLACK
6
CONTINUOUS
10
7.83078
20
-3.83472
11
7.56208
21
-4.30012
0
LINE
8
BLACK
6
CONTINUOUS
10
6.96146
20
-3.53951
11
6.96222
21
-3.53944
0
LINE
8
BLACK
6
CONTINUOUS
10
6.96222
20
-3.53944
11
7.48701
21
-3.68006
0
LINE
8
BLACK
6
CONTINUOUS
10
7.48701
20
-3.68006
11
7.48737
21
-3.68022
0
LINE
8
BLACK
6
CONTINUOUS
10
7.48737
20
-3.68022
11
7.4875
21
-3.68024
0
LINE
8
BLACK
6
CONTINUOUS
10
7.4875
20
-3.68024
11
7.48759
21
-3.68033
0
LINE
8
BLACK
6
CONTINUOUS
10
7.48759
20
-3.68033
11
7.48794
21
-3.68049
0
LINE
8
BLACK
6
CONTINUOUS
10
7.48794
20
-3.68049
11
7.48838
21
-3.68112
0
LINE
8
BLACK
6
CONTINUOUS
10
7.48838
20
-3.68112
11
7.48893
21
-3.68166
0
LINE
8
BLACK
6
CONTINUOUS
10
7.48893
20
-3.68166
11
7.48895
21
-3.68193
0
LINE
8
BLACK
6
CONTINUOUS
10
7.48895
20
-3.68193
11
7.4891
21
-3.68215
0
LINE
8
BLACK
6
CONTINUOUS
10
7.4891
20
-3.68215
11
7.48903
21
-3.68291
0
LINE
8
BLACK
6
CONTINUOUS
10
7.48903
20
-3.68291
11
7.4891
21
-3.68368
0
LINE
8
BLACK
6
CONTINUOUS
10
7.4891
20
-3.68368
11
7.34848
21
-4.20847
0
LINE
8
BLACK
6
CONTINUOUS
10
7.34848
20
-4.20847
11
7.34832
21
-4.20882
0
LINE
8
BLACK
6
CONTINUOUS
10
7.34832
20
-4.20882
11
7.34831
21
-4.20895
0
LINE
8
BLACK
6
CONTINUOUS
10
7.34831
20
-4.20895
11
7.34821
21
-4.20905
0
LINE
8
BLACK
6
CONTINUOUS
10
7.34821
20
-4.20905
11
7.34805
21
-4.2094
0
LINE
8
BLACK
6
CONTINUOUS
10
7.34805
20
-4.2094
11
7.34742
21
-4.20984
0
LINE
8
BLACK
6
CONTINUOUS
10
7.34742
20
-4.20984
11
7.34688
21
-4.21038
0
LINE
8
BLACK
6
CONTINUOUS
10
7.34688
20
-4.21038
11
7.34661
21
-4.21041
0
LINE
8
BLACK
6
CONTINUOUS
10
7.34661
20
-4.21041
11
7.3464
21
-4.21056
0
LINE
8
BLACK
6
CONTINUOUS
10
7.3464
20
-4.21056
11
7.34563
21
-4.21049
0
LINE
8
BLACK
6
CONTINUOUS
10
7.34563
20
-4.21049
11
7.34487
21
-4.21056
0
LINE
8
BLACK
6
CONTINUOUS
10
7.34487
20
-4.21056
11
6.82007
21
-4.06994
0
LINE
8
BLACK
6
CONTINUOUS
10
6.82007
20
-4.06994
11
6.81972
21
-4.06978
0
LINE
8
BLACK
6
CONTINUOUS
10
6.81972
20
-4.06978
11
6.81959
21
-4.06976
0
LINE
8
BLACK
6
CONTINUOUS
10
6.81959
20
-4.06976
11
6.8195
21
-4.06967
0
LINE
8
BLACK
6
CONTINUOUS
10
6.8195
20
-4.06967
11
6.81914
21
-4.06951
0
LINE
8
BLACK
6
CONTINUOUS
10
6.81914
20
-4.06951
11
6.8187
21
-4.06888
0
LINE
8
BLACK
6
CONTINUOUS
10
6.8187
20
-4.06888
11
6.81816
21
-4.06834
0
LINE
8
BLACK
6
CONTINUOUS
10
6.81816
20
-4.06834
11
6.81814
21
-4.06807
0
LINE
8
BLACK
6
CONTINUOUS
10
6.81814
20
-4.06807
11
6.81798
21
-4.06785
0
LINE
8
BLACK
6
CONTINUOUS
10
6.81798
20
-4.06785
11
6.81805
21
-4.06709
0
LINE
8
BLACK
6
CONTINUOUS
10
6.81805
20
-4.06709
11
6.81798
21
-4.06632
0
LINE
8
BLACK
6
CONTINUOUS
10
6.81798
20
-4.06632
11
6.9586
21
-3.54153
0
LINE
8
BLACK
6
CONTINUOUS
10
6.9586
20
-3.54153
11
6.95877
21
-3.54118
0
LINE
8
BLACK
6
CONTINUOUS
10
6.95877
20
-3.54118
11
6.95878
21
-3.54105
0
LINE
8
BLACK
6
CONTINUOUS
10
6.95878
20
-3.54105
11
6.95887
21
-3.54095
0
LINE
8
BLACK
6
CONTINUOUS
10
6.95887
20
-3.54095
11
6.95904
21
-3.5406
0
LINE
8
BLACK
6
CONTINUOUS
10
6.95904
20
-3.5406
11
6.95966
21
-3.54016
0
LINE
8
BLACK
6
CONTINUOUS
10
6.95966
20
-3.54016
11
6.96021
21
-3.53962
0
LINE
8
BLACK
6
CONTINUOUS
10
6.96021
20
-3.53962
11
6.96047
21
-3.53959
0
LINE
8
BLACK
6
CONTINUOUS
10
6.96047
20
-3.53959
11
6.96069
21
-3.53944
0
LINE
8
BLACK
6
CONTINUOUS
10
6.96069
20
-3.53944
11
6.96146
21
-3.53951
0
LINE
8
BLACK
6
CONTINUOUS
10
6.82445
20
-4.065
11
7.34354
21
-4.20409
0
LINE
8
BLACK
6
CONTINUOUS
10
7.34354
20
-4.20409
11
7.48263
21
-3.685
0
LINE
8
BLACK
6
CONTINUOUS
10
7.48263
20
-3.685
11
6.96354
21
-3.54591
0
LINE
8
BLACK
6
CONTINUOUS
10
6.96354
20
-3.54591
11
6.82445
21
-4.065
0
LINE
8
BLACK
6
CONTINUOUS
10
4.81633
20
-3.23629
11
4.81646
21
-3.23627
0
LINE
8
BLACK
6
CONTINUOUS
10
4.81646
20
-3.23627
11
4.81657
21
-3.23633
0
LINE
8
BLACK
6
CONTINUOUS
10
4.81657
20
-3.23633
11
4.81695
21
-3.2364
0
LINE
8
BLACK
6
CONTINUOUS
10
4.81695
20
-3.2364
11
4.81754
21
-3.23689
0
LINE
8
BLACK
6
CONTINUOUS
10
4.81754
20
-3.23689
11
4.81821
21
-3.23728
0
LINE
8
BLACK
6
CONTINUOUS
10
4.81821
20
-3.23728
11
4.8183
21
-3.23753
0
LINE
8
BLACK
6
CONTINUOUS
10
4.8183
20
-3.23753
11
4.8185
21
-3.2377
0
LINE
8
BLACK
6
CONTINUOUS
10
4.8185
20
-3.2377
11
4.81864
21
-3.23845
0
LINE
8
BLACK
6
CONTINUOUS
10
4.81864
20
-3.23845
11
4.8189
21
-3.23917
0
LINE
8
BLACK
6
CONTINUOUS
10
4.8189
20
-3.23917
11
4.8189
21
-3.78248
0
LINE
8
BLACK
6
CONTINUOUS
10
4.8189
20
-3.78248
11
4.81883
21
-3.78286
0
LINE
8
BLACK
6
CONTINUOUS
10
4.81883
20
-3.78286
11
4.81885
21
-3.78299
0
LINE
8
BLACK
6
CONTINUOUS
10
4.81885
20
-3.78299
11
4.81879
21
-3.78311
0
LINE
8
BLACK
6
CONTINUOUS
10
4.81879
20
-3.78311
11
4.81872
21
-3.78349
0
LINE
8
BLACK
6
CONTINUOUS
10
4.81872
20
-3.78349
11
4.81823
21
-3.78408
0
LINE
8
BLACK
6
CONTINUOUS
10
4.81823
20
-3.78408
11
4.81784
21
-3.78474
0
LINE
8
BLACK
6
CONTINUOUS
10
4.81784
20
-3.78474
11
4.81759
21
-3.78483
0
LINE
8
BLACK
6
CONTINUOUS
10
4.81759
20
-3.78483
11
4.81742
21
-3.78504
0
LINE
8
BLACK
6
CONTINUOUS
10
4.81742
20
-3.78504
11
4.81667
21
-3.78517
0
LINE
8
BLACK
6
CONTINUOUS
10
4.81667
20
-3.78517
11
4.81594
21
-3.78543
0
LINE
8
BLACK
6
CONTINUOUS
10
4.81594
20
-3.78543
11
4.27264
21
-3.78543
0
LINE
8
BLACK
6
CONTINUOUS
10
4.27264
20
-3.78543
11
4.27225
21
-3.78537
0
LINE
8
BLACK
6
CONTINUOUS
10
4.27225
20
-3.78537
11
4.27213
21
-3.78539
0
LINE
8
BLACK
6
CONTINUOUS
10
4.27213
20
-3.78539
11
4.27201
21
-3.78532
0
LINE
8
BLACK
6
CONTINUOUS
10
4.27201
20
-3.78532
11
4.27163
21
-3.78525
0
LINE
8
BLACK
6
CONTINUOUS
10
4.27163
20
-3.78525
11
4.27104
21
-3.78476
0
LINE
8
BLACK
6
CONTINUOUS
10
4.27104
20
-3.78476
11
4.27038
21
-3.78438
0
LINE
8
BLACK
6
CONTINUOUS
10
4.27038
20
-3.78438
11
4.27028
21
-3.78413
0
LINE
8
BLACK
6
CONTINUOUS
10
4.27028
20
-3.78413
11
4.27008
21
-3.78396
0
LINE
8
BLACK
6
CONTINUOUS
10
4.27008
20
-3.78396
11
4.26995
21
-3.7832
0
LINE
8
BLACK
6
CONTINUOUS
10
4.26995
20
-3.7832
11
4.26969
21
-3.78248
0
LINE
8
BLACK
6
CONTINUOUS
10
4.26969
20
-3.78248
11
4.26969
21
-3.23917
0
LINE
8
BLACK
6
CONTINUOUS
10
4.26969
20
-3.23917
11
4.26975
21
-3.23879
0
LINE
8
BLACK
6
CONTINUOUS
10
4.26975
20
-3.23879
11
4.26973
21
-3.23866
0
LINE
8
BLACK
6
CONTINUOUS
10
4.26973
20
-3.23866
11
4.2698
21
-3.23855
0
LINE
8
BLACK
6
CONTINUOUS
10
4.2698
20
-3.23855
11
4.26986
21
-3.23816
0
LINE
8
BLACK
6
CONTINUOUS
10
4.26986
20
-3.23816
11
4.27036
21
-3.23758
0
LINE
8
BLACK
6
CONTINUOUS
10
4.27036
20
-3.23758
11
4.27074
21
-3.23691
0
LINE
8
BLACK
6
CONTINUOUS
10
4.27074
20
-3.23691
11
4.27099
21
-3.23682
0
LINE
8
BLACK
6
CONTINUOUS
10
4.27099
20
-3.23682
11
4.27116
21
-3.23662
0
LINE
8
BLACK
6
CONTINUOUS
10
4.27116
20
-3.23662
11
4.27192
21
-3.23648
0
LINE
8
BLACK
6
CONTINUOUS
10
4.27192
20
-3.23648
11
4.27264
21
-3.23622
0
LINE
8
BLACK
6
CONTINUOUS
10
4.27264
20
-3.23622
11
4.81594
21
-3.23622
0
LINE
8
BLACK
6
CONTINUOUS
10
4.81594
20
-3.23622
11
4.81633
21
-3.23629
0
LINE
8
BLACK
6
CONTINUOUS
10
4.27559
20
-3.24213
11
4.27559
21
-3.77953
0
LINE
8
BLACK
6
CONTINUOUS
10
4.27559
20
-3.77953
11
4.81299
21
-3.77953
0
LINE
8
BLACK
6
CONTINUOUS
10
4.81299
20
-3.77953
11
4.81299
21
-3.24213
0
LINE
8
BLACK
6
CONTINUOUS
10
4.81299
20
-3.24213
11
4.27559
21
-3.24213
0
LINE
8
BLACK
6
CONTINUOUS
10
9.7303
20
-1.30164
11
9.73043
21
-1.30162
0
LINE
8
BLACK
6
CONTINUOUS
10
9.73043
20
-1.30162
11
9.73055
21
-1.30169
0
LINE
8
BLACK
6
CONTINUOUS
10
9.73055
20
-1.30169
11
9.73093
21
-1.30175
0
LINE
8
BLACK
6
CONTINUOUS
10
9.73093
20
-1.30175
11
9.73152
21
-1.30225
0
LINE
8
BLACK
6
CONTINUOUS
10
9.73152
20
-1.30225
11
9.73218
21
-1.30263
0
LINE
8
BLACK
6
CONTINUOUS
10
9.73218
20
-1.30263
11
9.73227
21
-1.30288
0
LINE
8
BLACK
6
CONTINUOUS
10
9.73227
20
-1.30288
11
9.73248
21
-1.30305
0
LINE
8
BLACK
6
CONTINUOUS
10
9.73248
20
-1.30305
11
9.73261
21
-1.30381
0
LINE
8
BLACK
6
CONTINUOUS
10
9.73261
20
-1.30381
11
9.73287
21
-1.30453
0
LINE
8
BLACK
6
CONTINUOUS
10
9.73287
20
-1.30453
11
9.73287
21
-3.77146
0
LINE
8
BLACK
6
CONTINUOUS
10
9.73287
20
-3.77146
11
9.73281
21
-3.77184
0
LINE
8
BLACK
6
CONTINUOUS
10
9.73281
20
-3.77184
11
9.73283
21
-3.77197
0
LINE
8
BLACK
6
CONTINUOUS
10
9.73283
20
-3.77197
11
9.73276
21
-3.77208
0
LINE
8
BLACK
6
CONTINUOUS
10
9.73276
20
-3.77208
11
9.7327
21
-3.77247
0
LINE
8
BLACK
6
CONTINUOUS
10
9.7327
20
-3.77247
11
9.7322
21
-3.77305
0
LINE
8
BLACK
6
CONTINUOUS
10
9.7322
20
-3.77305
11
9.73182
21
-3.77372
0
LINE
8
BLACK
6
CONTINUOUS
10
9.73182
20
-3.77372
11
9.73157
21
-3.77381
0
LINE
8
BLACK
6
CONTINUOUS
10
9.73157
20
-3.77381
11
9.7314
21
-3.77401
0
LINE
8
BLACK
6
CONTINUOUS
10
9.7314
20
-3.77401
11
9.73064
21
-3.77415
0
LINE
8
BLACK
6
CONTINUOUS
10
9.73064
20
-3.77415
11
9.72992
21
-3.77441
0
LINE
8
BLACK
6
CONTINUOUS
10
9.72992
20
-3.77441
11
8.0122
21
-3.77441
0
LINE
8
BLACK
6
CONTINUOUS
10
8.0122
20
-3.77441
11
8.01182
21
-3.77434
0
LINE
8
BLACK
6
CONTINUOUS
10
8.01182
20
-3.77434
11
8.01169
21
-3.77436
0
LINE
8
BLACK
6
CONTINUOUS
10
8.01169
20
-3.77436
11
8.01158
21
-3.7743
0
LINE
8
BLACK
6
CONTINUOUS
10
8.01158
20
-3.7743
11
8.01119
21
-3.77423
0
LINE
8
BLACK
6
CONTINUOUS
10
8.01119
20
-3.77423
11
8.01061
21
-3.77374
0
LINE
8
BLACK
6
CONTINUOUS
10
8.01061
20
-3.77374
11
8.00994
21
-3.77335
0
LINE
8
BLACK
6
CONTINUOUS
10
8.00994
20
-3.77335
11
8.00985
21
-3.7731
0
LINE
8
BLACK
6
CONTINUOUS
10
8.00985
20
-3.7731
11
8.00965
21
-3.77293
0
LINE
8
BLACK
6
CONTINUOUS
10
8.00965
20
-3.77293
11
8.00951
21
-3.77218
0
LINE
8
BLACK
6
CONTINUOUS
10
8.00951
20
-3.77218
11
8.00925
21
-3.77146
0
LINE
8
BLACK
6
CONTINUOUS
10
8.00925
20
-3.77146
11
8.00925
21
-1.30453
0
LINE
8
BLACK
6
CONTINUOUS
10
8.00925
20
-1.30453
11
8.00932
21
-1.30414
0
LINE
8
BLACK
6
CONTINUOUS
10
8.00932
20
-1.30414
11
8.0093
21
-1.30401
0
LINE
8
BLACK
6
CONTINUOUS
10
8.0093
20
-1.30401
11
8.00936
21
-1.3039
0
LINE
8
BLACK
6
CONTINUOUS
10
8.00936
20
-1.3039
11
8.00943
21
-1.30352
0
LINE
8
BLACK
6
CONTINUOUS
10
8.00943
20
-1.30352
11
8.00992
21
-1.30293
0
LINE
8
BLACK
6
CONTINUOUS
10
8.00992
20
-1.30293
11
8.01031
21
-1.30227
0
LINE
8
BLACK
6
CONTINUOUS
10
8.01031
20
-1.30227
11
8.01056
21
-1.30217
0
LINE
8
BLACK
6
CONTINUOUS
10
8.01056
20
-1.30217
11
8.01073
21
-1.30197
0
LINE
8
BLACK
6
CONTINUOUS
10
8.01073
20
-1.30197
11
8.01148
21
-1.30184
0
LINE
8
BLACK
6
CONTINUOUS
10
8.01148
20
-1.30184
11
8.0122
21
-1.30157
0
LINE
8
BLACK
6
CONTINUOUS
10
8.0122
20
-1.30157
11
9.72992
21
-1.30157
0
LINE
8
BLACK
6
CONTINUOUS
10
9.72992
20
-1.30157
11
9.7303
21
-1.30164
0
LINE
8
BLACK
6
CONTINUOUS
10
8.01516
20
-1.30748
11
8.01516
21
-3.7685
0
LINE
8
BLACK
6
CONTINUOUS
10
8.01516
20
-3.7685
11
9.72697
21
-3.7685
0
LINE
8
BLACK
6
CONTINUOUS
10
9.72697
20
-3.7685
11
9.72697
21
-1.30748
0
LINE
8
BLACK
6
CONTINUOUS
10
9.72697
20
-1.30748
11
8.01516
21
-1.30748
0
LINE
8
BLACK
6
CONTINUOUS
10
7.80845
20
-2.80322
11
7.80858
21
-2.80319
0
LINE
8
BLACK
6
CONTINUOUS
10
7.80858
20
-2.80319
11
7.8087
21
-2.80326
0
LINE
8
BLACK
6
CONTINUOUS
10
7.8087
20
-2.80326
11
7.80908
21
-2.80333
0
LINE
8
BLACK
6
CONTINUOUS
10
7.80908
20
-2.80333
11
7.80967
21
-2.80382
0
LINE
8
BLACK
6
CONTINUOUS
10
7.80967
20
-2.80382
11
7.81033
21
-2.8042
0
LINE
8
BLACK
6
CONTINUOUS
10
7.81033
20
-2.8042
11
7.81042
21
-2.80445
0
LINE
8
BLACK
6
CONTINUOUS
10
7.81042
20
-2.80445
11
7.81063
21
-2.80463
0
LINE
8
BLACK
6
CONTINUOUS
10
7.81063
20
-2.80463
11
7.81076
21
-2.80538
0
LINE
8
BLACK
6
CONTINUOUS
10
7.81076
20
-2.80538
11
7.81102
21
-2.8061
0
LINE
8
BLACK
6
CONTINUOUS
10
7.81102
20
-2.8061
11
7.81102
21
-3.34941
0
LINE
8
BLACK
6
CONTINUOUS
10
7.81102
20
-3.34941
11
7.81096
21
-3.34979
0
LINE
8
BLACK
6
CONTINUOUS
10
7.81096
20
-3.34979
11
7.81098
21
-3.34992
0
LINE
8
BLACK
6
CONTINUOUS
10
7.81098
20
-3.34992
11
7.81091
21
-3.35004
0
LINE
8
BLACK
6
CONTINUOUS
10
7.81091
20
-3.35004
11
7.81085
21
-3.35042
0
LINE
8
BLACK
6
CONTINUOUS
10
7.81085
20
-3.35042
11
7.81035
21
-3.35101
0
LINE
8
BLACK
6
CONTINUOUS
10
7.81035
20
-3.35101
11
7.80997
21
-3.35167
0
LINE
8
BLACK
6
CONTINUOUS
10
7.80997
20
-3.35167
11
7.80972
21
-3.35176
0
LINE
8
BLACK
6
CONTINUOUS
10
7.80972
20
-3.35176
11
7.80955
21
-3.35197
0
LINE
8
BLACK
6
CONTINUOUS
10
7.80955
20
-3.35197
11
7.80879
21
-3.3521
0
LINE
8
BLACK
6
CONTINUOUS
10
7.80879
20
-3.3521
11
7.80807
21
-3.35236
0
LINE
8
BLACK
6
CONTINUOUS
10
7.80807
20
-3.35236
11
7.26476
21
-3.35236
0
LINE
8
BLACK
6
CONTINUOUS
10
7.26476
20
-3.35236
11
7.26438
21
-3.35229
0
LINE
8
BLACK
6
CONTINUOUS
10
7.26438
20
-3.35229
11
7.26425
21
-3.35232
0
LINE
8
BLACK
6
CONTINUOUS
10
7.26425
20
-3.35232
11
7.26414
21
-3.35225
0
LINE
8
BLACK
6
CONTINUOUS
10
7.26414
20
-3.35225
11
7.26375
21
-3.35218
0
LINE
8
BLACK
6
CONTINUOUS
10
7.26375
20
-3.35218
11
7.26317
21
-3.35169
0
LINE
8
BLACK
6
CONTINUOUS
10
7.26317
20
-3.35169
11
7.2625
21
-3.35131
0
LINE
8
BLACK
6
CONTINUOUS
10
7.2625
20
-3.35131
11
7.26241
21
-3.35106
0
LINE
8
BLACK
6
CONTINUOUS
10
7.26241
20
-3.35106
11
7.26221
21
-3.35089
0
LINE
8
BLACK
6
CONTINUOUS
10
7.26221
20
-3.35089
11
7.26207
21
-3.35013
0
LINE
8
BLACK
6
CONTINUOUS
10
7.26207
20
-3.35013
11
7.26181
21
-3.34941
0
LINE
8
BLACK
6
CONTINUOUS
10
7.26181
20
-3.34941
11
7.26181
21
-2.8061
0
LINE
8
BLACK
6
CONTINUOUS
10
7.26181
20
-2.8061
11
7.26188
21
-2.80572
0
LINE
8
BLACK
6
CONTINUOUS
10
7.26188
20
-2.80572
11
7.26186
21
-2.80559
0
LINE
8
BLACK
6
CONTINUOUS
10
7.26186
20
-2.80559
11
7.26192
21
-2.80548
0
LINE
8
BLACK
6
CONTINUOUS
10
7.26192
20
-2.80548
11
7.26199
21
-2.80509
0
LINE
8
BLACK
6
CONTINUOUS
10
7.26199
20
-2.80509
11
7.26248
21
-2.8045
0
LINE
8
BLACK
6
CONTINUOUS
10
7.26248
20
-2.8045
11
7.26287
21
-2.80384
0
LINE
8
BLACK
6
CONTINUOUS
10
7.26287
20
-2.80384
11
7.26312
21
-2.80375
0
LINE
8
BLACK
6
CONTINUOUS
10
7.26312
20
-2.80375
11
7.26329
21
-2.80355
0
LINE
8
BLACK
6
CONTINUOUS
10
7.26329
20
-2.80355
11
7.26404
21
-2.80341
0
LINE
8
BLACK
6
CONTINUOUS
10
7.26404
20
-2.80341
11
7.26476
21
-2.80315
0
LINE
8
BLACK
6
CONTINUOUS
10
7.26476
20
-2.80315
11
7.80807
21
-2.80315
0
LINE
8
BLACK
6
CONTINUOUS
10
7.80807
20
-2.80315
11
7.80845
21
-2.80322
0
LINE
8
BLACK
6
CONTINUOUS
10
7.26772
20
-2.80906
11
7.26772
21
-3.34646
0
LINE
8
BLACK
6
CONTINUOUS
10
7.26772
20
-3.34646
11
7.80512
21
-3.34646
0
LINE
8
BLACK
6
CONTINUOUS
10
7.80512
20
-3.34646
11
7.80512
21
-2.80906
0
LINE
8
BLACK
6
CONTINUOUS
10
7.80512
20
-2.80906
11
7.26772
21
-2.80906
0
LINE
8
BLACK
6
CONTINUOUS
10
5.56436
20
-2.76483
11
5.56449
21
-2.76481
0
LINE
8
BLACK
6
CONTINUOUS
10
5.56449
20
-2.76481
11
5.5646
21
-2.76487
0
LINE
8
BLACK
6
CONTINUOUS
10
5.5646
20
-2.76487
11
5.56499
21
-2.76494
0
LINE
8
BLACK
6
CONTINUOUS
10
5.56499
20
-2.76494
11
5.56557
21
-2.76544
0
LINE
8
BLACK
6
CONTINUOUS
10
5.56557
20
-2.76544
11
5.56624
21
-2.76582
0
LINE
8
BLACK
6
CONTINUOUS
10
5.56624
20
-2.76582
11
5.56633
21
-2.76607
0
LINE
8
BLACK
6
CONTINUOUS
10
5.56633
20
-2.76607
11
5.56653
21
-2.76624
0
LINE
8
BLACK
6
CONTINUOUS
10
5.56653
20
-2.76624
11
5.56667
21
-2.767
0
LINE
8
BLACK
6
CONTINUOUS
10
5.56667
20
-2.767
11
5.56693
21
-2.76772
0
LINE
8
BLACK
6
CONTINUOUS
10
5.56693
20
-2.76772
11
5.56693
21
-3.31102
0
LINE
8
BLACK
6
CONTINUOUS
10
5.56693
20
-3.31102
11
5.56686
21
-3.31141
0
LINE
8
BLACK
6
CONTINUOUS
10
5.56686
20
-3.31141
11
5.56688
21
-3.31154
0
LINE
8
BLACK
6
CONTINUOUS
10
5.56688
20
-3.31154
11
5.56682
21
-3.31165
0
LINE
8
BLACK
6
CONTINUOUS
10
5.56682
20
-3.31165
11
5.56675
21
-3.31203
0
LINE
8
BLACK
6
CONTINUOUS
10
5.56675
20
-3.31203
11
5.56626
21
-3.31262
0
LINE
8
BLACK
6
CONTINUOUS
10
5.56626
20
-3.31262
11
5.56587
21
-3.31329
0
LINE
8
BLACK
6
CONTINUOUS
10
5.56587
20
-3.31329
11
5.56562
21
-3.31338
0
LINE
8
BLACK
6
CONTINUOUS
10
5.56562
20
-3.31338
11
5.56545
21
-3.31358
0
LINE
8
BLACK
6
CONTINUOUS
10
5.56545
20
-3.31358
11
5.5647
21
-3.31371
0
LINE
8
BLACK
6
CONTINUOUS
10
5.5647
20
-3.31371
11
5.56398
21
-3.31398
0
LINE
8
BLACK
6
CONTINUOUS
10
5.56398
20
-3.31398
11
5.02067
21
-3.31398
0
LINE
8
BLACK
6
CONTINUOUS
10
5.02067
20
-3.31398
11
5.02029
21
-3.31391
0
LINE
8
BLACK
6
CONTINUOUS
10
5.02029
20
-3.31391
11
5.02016
21
-3.31393
0
LINE
8
BLACK
6
CONTINUOUS
10
5.02016
20
-3.31393
11
5.02004
21
-3.31387
0
LINE
8
BLACK
6
CONTINUOUS
10
5.02004
20
-3.31387
11
5.01966
21
-3.3138
0
LINE
8
BLACK
6
CONTINUOUS
10
5.01966
20
-3.3138
11
5.01907
21
-3.31331
0
LINE
8
BLACK
6
CONTINUOUS
10
5.01907
20
-3.31331
11
5.01841
21
-3.31292
0
LINE
8
BLACK
6
CONTINUOUS
10
5.01841
20
-3.31292
11
5.01832
21
-3.31267
0
LINE
8
BLACK
6
CONTINUOUS
10
5.01832
20
-3.31267
11
5.01811
21
-3.3125
0
LINE
8
BLACK
6
CONTINUOUS
10
5.01811
20
-3.3125
11
5.01798
21
-3.31174
0
LINE
8
BLACK
6
CONTINUOUS
10
5.01798
20
-3.31174
11
5.01772
21
-3.31102
0
LINE
8
BLACK
6
CONTINUOUS
10
5.01772
20
-3.31102
11
5.01772
21
-2.76772
0
LINE
8
BLACK
6
CONTINUOUS
10
5.01772
20
-2.76772
11
5.01778
21
-2.76733
0
LINE
8
BLACK
6
CONTINUOUS
10
5.01778
20
-2.76733
11
5.01776
21
-2.7672
0
LINE
8
BLACK
6
CONTINUOUS
10
5.01776
20
-2.7672
11
5.01783
21
-2.76709
0
LINE
8
BLACK
6
CONTINUOUS
10
5.01783
20
-2.76709
11
5.01789
21
-2.76671
0
LINE
8
BLACK
6
CONTINUOUS
10
5.01789
20
-2.76671
11
5.01839
21
-2.76612
0
LINE
8
BLACK
6
CONTINUOUS
10
5.01839
20
-2.76612
11
5.01877
21
-2.76545
0
LINE
8
BLACK
6
CONTINUOUS
10
5.01877
20
-2.76545
11
5.01902
21
-2.76536
0
LINE
8
BLACK
6
CONTINUOUS
10
5.01902
20
-2.76536
11
5.01919
21
-2.76516
0
LINE
8
BLACK
6
CONTINUOUS
10
5.01919
20
-2.76516
11
5.01995
21
-2.76503
0
LINE
8
BLACK
6
CONTINUOUS
10
5.01995
20
-2.76503
11
5.02067
21
-2.76476
0
LINE
8
BLACK
6
CONTINUOUS
10
5.02067
20
-2.76476
11
5.56398
21
-2.76476
0
LINE
8
BLACK
6
CONTINUOUS
10
5.56398
20
-2.76476
11
5.56436
21
-2.76483
0
LINE
8
BLACK
6
CONTINUOUS
10
5.02362
20
-2.77067
11
5.02362
21
-3.30807
0
LINE
8
BLACK
6
CONTINUOUS
10
5.02362
20
-3.30807
11
5.56102
21
-3.30807
0
LINE
8
BLACK
6
CONTINUOUS
10
5.56102
20
-3.30807
11
5.56102
21
-2.77067
0
LINE
8
BLACK
6
CONTINUOUS
10
5.56102
20
-2.77067
11
5.02362
21
-2.77067
0
LINE
8
BLACK
6
CONTINUOUS
10
7.06042
20
-2.70381
11
7.06055
21
-2.70378
0
LINE
8
BLACK
6
CONTINUOUS
10
7.06055
20
-2.70378
11
7.06067
21
-2.70385
0
LINE
8
BLACK
6
CONTINUOUS
10
7.06067
20
-2.70385
11
7.06105
21
-2.70392
0
LINE
8
BLACK
6
CONTINUOUS
10
7.06105
20
-2.70392
11
7.06164
21
-2.70441
0
LINE
8
BLACK
6
CONTINUOUS
10
7.06164
20
-2.70441
11
7.0623
21
-2.70479
0
LINE
8
BLACK
6
CONTINUOUS
10
7.0623
20
-2.70479
11
7.06239
21
-2.70505
0
LINE
8
BLACK
6
CONTINUOUS
10
7.06239
20
-2.70505
11
7.0626
21
-2.70522
0
LINE
8
BLACK
6
CONTINUOUS
10
7.0626
20
-2.70522
11
7.06273
21
-2.70597
0
LINE
8
BLACK
6
CONTINUOUS
10
7.06273
20
-2.70597
11
7.06299
21
-2.70669
0
LINE
8
BLACK
6
CONTINUOUS
10
7.06299
20
-2.70669
11
7.06299
21
-3.25
0
LINE
8
BLACK
6
CONTINUOUS
10
7.06299
20
-3.25
11
7.06292
21
-3.25038
0
LINE
8
BLACK
6
CONTINUOUS
10
7.06292
20
-3.25038
11
7.06295
21
-3.25051
0
LINE
8
BLACK
6
CONTINUOUS
10
7.06295
20
-3.25051
11
7.06288
21
-3.25063
0
LINE
8
BLACK
6
CONTINUOUS
10
7.06288
20
-3.25063
11
7.06281
21
-3.25101
0
LINE
8
BLACK
6
CONTINUOUS
10
7.06281
20
-3.25101
11
7.06232
21
-3.2516
0
LINE
8
BLACK
6
CONTINUOUS
10
7.06232
20
-3.2516
11
7.06194
21
-3.25226
0
LINE
8
BLACK
6
CONTINUOUS
10
7.06194
20
-3.25226
11
7.06169
21
-3.25235
0
LINE
8
BLACK
6
CONTINUOUS
10
7.06169
20
-3.25235
11
7.06152
21
-3.25256
0
LINE
8
BLACK
6
CONTINUOUS
10
7.06152
20
-3.25256
11
7.06076
21
-3.25269
0
LINE
8
BLACK
6
CONTINUOUS
10
7.06076
20
-3.25269
11
7.06004
21
-3.25295
0
LINE
8
BLACK
6
CONTINUOUS
10
7.06004
20
-3.25295
11
6.51673
21
-3.25295
0
LINE
8
BLACK
6
CONTINUOUS
10
6.51673
20
-3.25295
11
6.51635
21
-3.25289
0
LINE
8
BLACK
6
CONTINUOUS
10
6.51635
20
-3.25289
11
6.51622
21
-3.25291
0
LINE
8
BLACK
6
CONTINUOUS
10
6.51622
20
-3.25291
11
6.51611
21
-3.25284
0
LINE
8
BLACK
6
CONTINUOUS
10
6.51611
20
-3.25284
11
6.51572
21
-3.25277
0
LINE
8
BLACK
6
CONTINUOUS
10
6.51572
20
-3.25277
11
6.51513
21
-3.25228
0
LINE
8
BLACK
6
CONTINUOUS
10
6.51513
20
-3.25228
11
6.51447
21
-3.2519
0
LINE
8
BLACK
6
CONTINUOUS
10
6.51447
20
-3.2519
11
6.51438
21
-3.25165
0
LINE
8
BLACK
6
CONTINUOUS
10
6.51438
20
-3.25165
11
6.51418
21
-3.25148
0
LINE
8
BLACK
6
CONTINUOUS
10
6.51418
20
-3.25148
11
6.51404
21
-3.25072
0
LINE
8
BLACK
6
CONTINUOUS
10
6.51404
20
-3.25072
11
6.51378
21
-3.25
0
LINE
8
BLACK
6
CONTINUOUS
10
6.51378
20
-3.25
11
6.51378
21
-2.70669
0
LINE
8
BLACK
6
CONTINUOUS
10
6.51378
20
-2.70669
11
6.51385
21
-2.70631
0
LINE
8
BLACK
6
CONTINUOUS
10
6.51385
20
-2.70631
11
6.51382
21
-2.70618
0
LINE
8
BLACK
6
CONTINUOUS
10
6.51382
20
-2.70618
11
6.51389
21
-2.70607
0
LINE
8
BLACK
6
CONTINUOUS
10
6.51389
20
-2.70607
11
6.51396
21
-2.70568
0
LINE
8
BLACK
6
CONTINUOUS
10
6.51396
20
-2.70568
11
6.51445
21
-2.7051
0
LINE
8
BLACK
6
CONTINUOUS
10
6.51445
20
-2.7051
11
6.51483
21
-2.70443
0
LINE
8
BLACK
6
CONTINUOUS
10
6.51483
20
-2.70443
11
6.51508
21
-2.70434
0
LINE
8
BLACK
6
CONTINUOUS
10
6.51508
20
-2.70434
11
6.51526
21
-2.70414
0
LINE
8
BLACK
6
CONTINUOUS
10
6.51526
20
-2.70414
11
6.51601
21
-2.704
0
LINE
8
BLACK
6
CONTINUOUS
10
6.51601
20
-2.704
11
6.51673
21
-2.70374
0
LINE
8
BLACK
6
CONTINUOUS
10
6.51673
20
-2.70374
11
7.06004
21
-2.70374
0
LINE
8
BLACK
6
CONTINUOUS
10
7.06004
20
-2.70374
11
7.06042
21
-2.70381
0
LINE
8
BLACK
6
CONTINUOUS
10
6.51969
20
-2.70965
11
6.51969
21
-3.24705
0
LINE
8
BLACK
6
CONTINUOUS
10
6.51969
20
-3.24705
11
7.05709
21
-3.24705
0
LINE
8
BLACK
6
CONTINUOUS
10
7.05709
20
-3.24705
11
7.05709
21
-2.70965
0
LINE
8
BLACK
6
CONTINUOUS
10
7.05709
20
-2.70965
11
6.51969
21
-2.70965
0
LINE
8
BLACK
6
CONTINUOUS
10
6.31338
20
-2.52369
11
6.3135
21
-2.52367
0
LINE
8
BLACK
6
CONTINUOUS
10
6.3135
20
-2.52367
11
6.31362
21
-2.52373
0
LINE
8
BLACK
6
CONTINUOUS
10
6.31362
20
-2.52373
11
6.314
21
-2.5238
0
LINE
8
BLACK
6
CONTINUOUS
10
6.314
20
-2.5238
11
6.31459
21
-2.52429
0
LINE
8
BLACK
6
CONTINUOUS
10
6.31459
20
-2.52429
11
6.31525
21
-2.52468
0
LINE
8
BLACK
6
CONTINUOUS
10
6.31525
20
-2.52468
11
6.31535
21
-2.52493
0
LINE
8
BLACK
6
CONTINUOUS
10
6.31535
20
-2.52493
11
6.31555
21
-2.5251
0
LINE
8
BLACK
6
CONTINUOUS
10
6.31555
20
-2.5251
11
6.31568
21
-2.52585
0
LINE
8
BLACK
6
CONTINUOUS
10
6.31568
20
-2.52585
11
6.31594
21
-2.52657
0
LINE
8
BLACK
6
CONTINUOUS
10
6.31594
20
-2.52657
11
6.31594
21
-3.06988
0
LINE
8
BLACK
6
CONTINUOUS
10
6.31594
20
-3.06988
11
6.31588
21
-3.07027
0
LINE
8
BLACK
6
CONTINUOUS
10
6.31588
20
-3.07027
11
6.3159
21
-3.07039
0
LINE
8
BLACK
6
CONTINUOUS
10
6.3159
20
-3.07039
11
6.31583
21
-3.07051
0
LINE
8
BLACK
6
CONTINUOUS
10
6.31583
20
-3.07051
11
6.31577
21
-3.07089
0
LINE
8
BLACK
6
CONTINUOUS
10
6.31577
20
-3.07089
11
6.31527
21
-3.07148
0
LINE
8
BLACK
6
CONTINUOUS
10
6.31527
20
-3.07148
11
6.31489
21
-3.07214
0
LINE
8
BLACK
6
CONTINUOUS
10
6.31489
20
-3.07214
11
6.31464
21
-3.07223
0
LINE
8
BLACK
6
CONTINUOUS
10
6.31464
20
-3.07223
11
6.31447
21
-3.07244
0
LINE
8
BLACK
6
CONTINUOUS
10
6.31447
20
-3.07244
11
6.31371
21
-3.07257
0
LINE
8
BLACK
6
CONTINUOUS
10
6.31371
20
-3.07257
11
6.31299
21
-3.07283
0
LINE
8
BLACK
6
CONTINUOUS
10
6.31299
20
-3.07283
11
5.76969
21
-3.07283
0
LINE
8
BLACK
6
CONTINUOUS
10
5.76969
20
-3.07283
11
5.7693
21
-3.07277
0
LINE
8
BLACK
6
CONTINUOUS
10
5.7693
20
-3.07277
11
5.76917
21
-3.07279
0
LINE
8
BLACK
6
CONTINUOUS
10
5.76917
20
-3.07279
11
5.76906
21
-3.07272
0
LINE
8
BLACK
6
CONTINUOUS
10
5.76906
20
-3.07272
11
5.76868
21
-3.07266
0
LINE
8
BLACK
6
CONTINUOUS
10
5.76868
20
-3.07266
11
5.76809
21
-3.07216
0
LINE
8
BLACK
6
CONTINUOUS
10
5.76809
20
-3.07216
11
5.76742
21
-3.07178
0
LINE
8
BLACK
6
CONTINUOUS
10
5.76742
20
-3.07178
11
5.76733
21
-3.07153
0
LINE
8
BLACK
6
CONTINUOUS
10
5.76733
20
-3.07153
11
5.76713
21
-3.07136
0
LINE
8
BLACK
6
CONTINUOUS
10
5.76713
20
-3.07136
11
5.76699
21
-3.0706
0
LINE
8
BLACK
6
CONTINUOUS
10
5.76699
20
-3.0706
11
5.76673
21
-3.06988
0
LINE
8
BLACK
6
CONTINUOUS
10
5.76673
20
-3.06988
11
5.76673
21
-2.52657
0
LINE
8
BLACK
6
CONTINUOUS
10
5.76673
20
-2.52657
11
5.7668
21
-2.52619
0
LINE
8
BLACK
6
CONTINUOUS
10
5.7668
20
-2.52619
11
5.76678
21
-2.52606
0
LINE
8
BLACK
6
CONTINUOUS
10
5.76678
20
-2.52606
11
5.76684
21
-2.52595
0
LINE
8
BLACK
6
CONTINUOUS
10
5.76684
20
-2.52595
11
5.76691
21
-2.52556
0
LINE
8
BLACK
6
CONTINUOUS
10
5.76691
20
-2.52556
11
5.7674
21
-2.52498
0
LINE
8
BLACK
6
CONTINUOUS
10
5.7674
20
-2.52498
11
5.76779
21
-2.52431
0
LINE
8
BLACK
6
CONTINUOUS
10
5.76779
20
-2.52431
11
5.76804
21
-2.52422
0
LINE
8
BLACK
6
CONTINUOUS
10
5.76804
20
-2.52422
11
5.76821
21
-2.52402
0
LINE
8
BLACK
6
CONTINUOUS
10
5.76821
20
-2.52402
11
5.76896
21
-2.52388
0
LINE
8
BLACK
6
CONTINUOUS
10
5.76896
20
-2.52388
11
5.76969
21
-2.52362
0
LINE
8
BLACK
6
CONTINUOUS
10
5.76969
20
-2.52362
11
6.31299
21
-2.52362
0
LINE
8
BLACK
6
CONTINUOUS
10
6.31299
20
-2.52362
11
6.31338
21
-2.52369
0
LINE
8
BLACK
6
CONTINUOUS
10
5.77264
20
-2.52953
11
5.77264
21
-3.06693
0
LINE
8
BLACK
6
CONTINUOUS
10
5.77264
20
-3.06693
11
6.31004
21
-3.06693
0
LINE
8
BLACK
6
CONTINUOUS
10
6.31004
20
-3.06693
11
6.31004
21
-2.52953
0
LINE
8
BLACK
6
CONTINUOUS
10
6.31004
20
-2.52953
11
5.77264
21
-2.52953
0
LINE
8
BLACK
6
CONTINUOUS
10
4.81633
20
-2.48826
11
4.81646
21
-2.48823
0
LINE
8
BLACK
6
CONTINUOUS
10
4.81646
20
-2.48823
11
4.81657
21
-2.4883
0
LINE
8
BLACK
6
CONTINUOUS
10
4.81657
20
-2.4883
11
4.81695
21
-2.48837
0
LINE
8
BLACK
6
CONTINUOUS
10
4.81695
20
-2.48837
11
4.81754
21
-2.48886
0
LINE
8
BLACK
6
CONTINUOUS
10
4.81754
20
-2.48886
11
4.81821
21
-2.48924
0
LINE
8
BLACK
6
CONTINUOUS
10
4.81821
20
-2.48924
11
4.8183
21
-2.48949
0
LINE
8
BLACK
6
CONTINUOUS
10
4.8183
20
-2.48949
11
4.8185
21
-2.48967
0
LINE
8
BLACK
6
CONTINUOUS
10
4.8185
20
-2.48967
11
4.81864
21
-2.49042
0
LINE
8
BLACK
6
CONTINUOUS
10
4.81864
20
-2.49042
11
4.8189
21
-2.49114
0
LINE
8
BLACK
6
CONTINUOUS
10
4.8189
20
-2.49114
11
4.8189
21
-3.03445
0
LINE
8
BLACK
6
CONTINUOUS
10
4.8189
20
-3.03445
11
4.81883
21
-3.03483
0
LINE
8
BLACK
6
CONTINUOUS
10
4.81883
20
-3.03483
11
4.81885
21
-3.03496
0
LINE
8
BLACK
6
CONTINUOUS
10
4.81885
20
-3.03496
11
4.81879
21
-3.03508
0
LINE
8
BLACK
6
CONTINUOUS
10
4.81879
20
-3.03508
11
4.81872
21
-3.03546
0
LINE
8
BLACK
6
CONTINUOUS
10
4.81872
20
-3.03546
11
4.81823
21
-3.03605
0
LINE
8
BLACK
6
CONTINUOUS
10
4.81823
20
-3.03605
11
4.81784
21
-3.03671
0
LINE
8
BLACK
6
CONTINUOUS
10
4.81784
20
-3.03671
11
4.81759
21
-3.0368
0
LINE
8
BLACK
6
CONTINUOUS
10
4.81759
20
-3.0368
11
4.81742
21
-3.03701
0
LINE
8
BLACK
6
CONTINUOUS
10
4.81742
20
-3.03701
11
4.81667
21
-3.03714
0
LINE
8
BLACK
6
CONTINUOUS
10
4.81667
20
-3.03714
11
4.81594
21
-3.0374
0
LINE
8
BLACK
6
CONTINUOUS
10
4.81594
20
-3.0374
11
4.27264
21
-3.0374
0
LINE
8
BLACK
6
CONTINUOUS
10
4.27264
20
-3.0374
11
4.27225
21
-3.03733
0
LINE
8
BLACK
6
CONTINUOUS
10
4.27225
20
-3.03733
11
4.27213
21
-3.03736
0
LINE
8
BLACK
6
CONTINUOUS
10
4.27213
20
-3.03736
11
4.27201
21
-3.03729
0
LINE
8
BLACK
6
CONTINUOUS
10
4.27201
20
-3.03729
11
4.27163
21
-3.03722
0
LINE
8
BLACK
6
CONTINUOUS
10
4.27163
20
-3.03722
11
4.27104
21
-3.03673
0
LINE
8
BLACK
6
CONTINUOUS
10
4.27104
20
-3.03673
11
4.27038
21
-3.03635
0
LINE
8
BLACK
6
CONTINUOUS
10
4.27038
20
-3.03635
11
4.27028
21
-3.0361
0
LINE
8
BLACK
6
CONTINUOUS
10
4.27028
20
-3.0361
11
4.27008
21
-3.03593
0
LINE
8
BLACK
6
CONTINUOUS
10
4.27008
20
-3.03593
11
4.26995
21
-3.03517
0
LINE
8
BLACK
6
CONTINUOUS
10
4.26995
20
-3.03517
11
4.26969
21
-3.03445
0
LINE
8
BLACK
6
CONTINUOUS
10
4.26969
20
-3.03445
11
4.26969
21
-2.49114
0
LINE
8
BLACK
6
CONTINUOUS
10
4.26969
20
-2.49114
11
4.26975
21
-2.49076
0
LINE
8
BLACK
6
CONTINUOUS
10
4.26975
20
-2.49076
11
4.26973
21
-2.49063
0
LINE
8
BLACK
6
CONTINUOUS
10
4.26973
20
-2.49063
11
4.2698
21
-2.49052
0
LINE
8
BLACK
6
CONTINUOUS
10
4.2698
20
-2.49052
11
4.26986
21
-2.49013
0
LINE
8
BLACK
6
CONTINUOUS
10
4.26986
20
-2.49013
11
4.27036
21
-2.48954
0
LINE
8
BLACK
6
CONTINUOUS
10
4.27036
20
-2.48954
11
4.27074
21
-2.48888
0
LINE
8
BLACK
6
CONTINUOUS
10
4.27074
20
-2.48888
11
4.27099
21
-2.48879
0
LINE
8
BLACK
6
CONTINUOUS
10
4.27099
20
-2.48879
11
4.27116
21
-2.48858
0
LINE
8
BLACK
6
CONTINUOUS
10
4.27116
20
-2.48858
11
4.27192
21
-2.48845
0
LINE
8
BLACK
6
CONTINUOUS
10
4.27192
20
-2.48845
11
4.27264
21
-2.48819
0
LINE
8
BLACK
6
CONTINUOUS
10
4.27264
20
-2.48819
11
4.81594
21
-2.48819
0
LINE
8
BLACK
6
CONTINUOUS
10
4.81594
20
-2.48819
11
4.81633
21
-2.48826
0
LINE
8
BLACK
6
CONTINUOUS
10
4.27559
20
-2.49409
11
4.27559
21
-3.0315
0
LINE
8
BLACK
6
CONTINUOUS
10
4.27559
20
-3.0315
11
4.81299
21
-3.0315
0
LINE
8
BLACK
6
CONTINUOUS
10
4.81299
20
-3.0315
11
4.81299
21
-2.49409
0
LINE
8
BLACK
6
CONTINUOUS
10
4.81299
20
-2.49409
11
4.27559
21
-2.49409
0
LINE
8
BLACK
6
CONTINUOUS
10
7.80845
20
-2.05519
11
7.80858
21
-2.05516
0
LINE
8
BLACK
6
CONTINUOUS
10
7.80858
20
-2.05516
11
7.8087
21
-2.05523
0
LINE
8
BLACK
6
CONTINUOUS
10
7.8087
20
-2.05523
11
7.80908
21
-2.0553
0
LINE
8
BLACK
6
CONTINUOUS
10
7.80908
20
-2.0553
11
7.80967
21
-2.05579
0
LINE
8
BLACK
6
CONTINUOUS
10
7.80967
20
-2.05579
11
7.81033
21
-2.05617
0
LINE
8
BLACK
6
CONTINUOUS
10
7.81033
20
-2.05617
11
7.81042
21
-2.05642
0
LINE
8
BLACK
6
CONTINUOUS
10
7.81042
20
-2.05642
11
7.81063
21
-2.05659
0
LINE
8
BLACK
6
CONTINUOUS
10
7.81063
20
-2.05659
11
7.81076
21
-2.05735
0
LINE
8
BLACK
6
CONTINUOUS
10
7.81076
20
-2.05735
11
7.81102
21
-2.05807
0
LINE
8
BLACK
6
CONTINUOUS
10
7.81102
20
-2.05807
11
7.81102
21
-2.60138
0
LINE
8
BLACK
6
CONTINUOUS
10
7.81102
20
-2.60138
11
7.81096
21
-2.60176
0
LINE
8
BLACK
6
CONTINUOUS
10
7.81096
20
-2.60176
11
7.81098
21
-2.60189
0
LINE
8
BLACK
6
CONTINUOUS
10
7.81098
20
-2.60189
11
7.81091
21
-2.602
0
LINE
8
BLACK
6
CONTINUOUS
10
7.81091
20
-2.602
11
7.81085
21
-2.60239
0
LINE
8
BLACK
6
CONTINUOUS
10
7.81085
20
-2.60239
11
7.81035
21
-2.60298
0
LINE
8
BLACK
6
CONTINUOUS
10
7.81035
20
-2.60298
11
7.80997
21
-2.60364
0
LINE
8
BLACK
6
CONTINUOUS
10
7.80997
20
-2.60364
11
7.80972
21
-2.60373
0
LINE
8
BLACK
6
CONTINUOUS
10
7.80972
20
-2.60373
11
7.80955
21
-2.60394
0
LINE
8
BLACK
6
CONTINUOUS
10
7.80955
20
-2.60394
11
7.80879
21
-2.60407
0
LINE
8
BLACK
6
CONTINUOUS
10
7.80879
20
-2.60407
11
7.80807
21
-2.60433
0
LINE
8
BLACK
6
CONTINUOUS
10
7.80807
20
-2.60433
11
7.26476
21
-2.60433
0
LINE
8
BLACK
6
CONTINUOUS
10
7.26476
20
-2.60433
11
7.26438
21
-2.60426
0
LINE
8
BLACK
6
CONTINUOUS
10
7.26438
20
-2.60426
11
7.26425
21
-2.60429
0
LINE
8
BLACK
6
CONTINUOUS
10
7.26425
20
-2.60429
11
7.26414
21
-2.60422
0
LINE
8
BLACK
6
CONTINUOUS
10
7.26414
20
-2.60422
11
7.26375
21
-2.60415
0
LINE
8
BLACK
6
CONTINUOUS
10
7.26375
20
-2.60415
11
7.26317
21
-2.60366
0
LINE
8
BLACK
6
CONTINUOUS
10
7.26317
20
-2.60366
11
7.2625
21
-2.60328
0
LINE
8
BLACK
6
CONTINUOUS
10
7.2625
20
-2.60328
11
7.26241
21
-2.60303
0
LINE
8
BLACK
6
CONTINUOUS
10
7.26241
20
-2.60303
11
7.26221
21
-2.60285
0
LINE
8
BLACK
6
CONTINUOUS
10
7.26221
20
-2.60285
11
7.26207
21
-2.6021
0
LINE
8
BLACK
6
CONTINUOUS
10
7.26207
20
-2.6021
11
7.26181
21
-2.60138
0
LINE
8
BLACK
6
CONTINUOUS
10
7.26181
20
-2.60138
11
7.26181
21
-2.05807
0
LINE
8
BLACK
6
CONTINUOUS
10
7.26181
20
-2.05807
11
7.26188
21
-2.05769
0
LINE
8
BLACK
6
CONTINUOUS
10
7.26188
20
-2.05769
11
7.26186
21
-2.05756
0
LINE
8
BLACK
6
CONTINUOUS
10
7.26186
20
-2.05756
11
7.26192
21
-2.05744
0
LINE
8
BLACK
6
CONTINUOUS
10
7.26192
20
-2.05744
11
7.26199
21
-2.05706
0
LINE
8
BLACK
6
CONTINUOUS
10
7.26199
20
-2.05706
11
7.26248
21
-2.05647
0
LINE
8
BLACK
6
CONTINUOUS
10
7.26248
20
-2.05647
11
7.26287
21
-2.05581
0
LINE
8
BLACK
6
CONTINUOUS
10
7.26287
20
-2.05581
11
7.26312
21
-2.05572
0
LINE
8
BLACK
6
CONTINUOUS
10
7.26312
20
-2.05572
11
7.26329
21
-2.05551
0
LINE
8
BLACK
6
CONTINUOUS
10
7.26329
20
-2.05551
11
7.26404
21
-2.05538
0
LINE
8
BLACK
6
CONTINUOUS
10
7.26404
20
-2.05538
11
7.26476
21
-2.05512
0
LINE
8
BLACK
6
CONTINUOUS
10
7.26476
20
-2.05512
11
7.80807
21
-2.05512
0
LINE
8
BLACK
6
CONTINUOUS
10
7.80807
20
-2.05512
11
7.80845
21
-2.05519
0
LINE
8
BLACK
6
CONTINUOUS
10
7.26772
20
-2.06102
11
7.26772
21
-2.59843
0
LINE
8
BLACK
6
CONTINUOUS
10
7.26772
20
-2.59843
11
7.80512
21
-2.59843
0
LINE
8
BLACK
6
CONTINUOUS
10
7.80512
20
-2.59843
11
7.80512
21
-2.06102
0
LINE
8
BLACK
6
CONTINUOUS
10
7.80512
20
-2.06102
11
7.26772
21
-2.06102
0
LINE
8
BLACK
6
CONTINUOUS
10
5.56436
20
-2.0168
11
5.56449
21
-2.01678
0
LINE
8
BLACK
6
CONTINUOUS
10
5.56449
20
-2.01678
11
5.5646
21
-2.01684
0
LINE
8
BLACK
6
CONTINUOUS
10
5.5646
20
-2.01684
11
5.56499
21
-2.01691
0
LINE
8
BLACK
6
CONTINUOUS
10
5.56499
20
-2.01691
11
5.56557
21
-2.0174
0
LINE
8
BLACK
6
CONTINUOUS
10
5.56557
20
-2.0174
11
5.56624
21
-2.01779
0
LINE
8
BLACK
6
CONTINUOUS
10
5.56624
20
-2.01779
11
5.56633
21
-2.01804
0
LINE
8
BLACK
6
CONTINUOUS
10
5.56633
20
-2.01804
11
5.56653
21
-2.01821
0
LINE
8
BLACK
6
CONTINUOUS
10
5.56653
20
-2.01821
11
5.56667
21
-2.01896
0
LINE
8
BLACK
6
CONTINUOUS
10
5.56667
20
-2.01896
11
5.56693
21
-2.01969
0
LINE
8
BLACK
6
CONTINUOUS
10
5.56693
20
-2.01969
11
5.56693
21
-2.56299
0
LINE
8
BLACK
6
CONTINUOUS
10
5.56693
20
-2.56299
11
5.56686
21
-2.56338
0
LINE
8
BLACK
6
CONTINUOUS
10
5.56686
20
-2.56338
11
5.56688
21
-2.5635
0
LINE
8
BLACK
6
CONTINUOUS
10
5.56688
20
-2.5635
11
5.56682
21
-2.56362
0
LINE
8
BLACK
6
CONTINUOUS
10
5.56682
20
-2.56362
11
5.56675
21
-2.564
0
LINE
8
BLACK
6
CONTINUOUS
10
5.56675
20
-2.564
11
5.56626
21
-2.56459
0
LINE
8
BLACK
6
CONTINUOUS
10
5.56626
20
-2.56459
11
5.56587
21
-2.56525
0
LINE
8
BLACK
6
CONTINUOUS
10
5.56587
20
-2.56525
11
5.56562
21
-2.56535
0
LINE
8
BLACK
6
CONTINUOUS
10
5.56562
20
-2.56535
11
5.56545
21
-2.56555
0
LINE
8
BLACK
6
CONTINUOUS
10
5.56545
20
-2.56555
11
5.5647
21
-2.56568
0
LINE
8
BLACK
6
CONTINUOUS
10
5.5647
20
-2.56568
11
5.56398
21
-2.56594
0
LINE
8
BLACK
6
CONTINUOUS
10
5.56398
20
-2.56594
11
5.02067
21
-2.56594
0
LINE
8
BLACK
6
CONTINUOUS
10
5.02067
20
-2.56594
11
5.02029
21
-2.56588
0
LINE
8
BLACK
6
CONTINUOUS
10
5.02029
20
-2.56588
11
5.02016
21
-2.5659
0
LINE
8
BLACK
6
CONTINUOUS
10
5.02016
20
-2.5659
11
5.02004
21
-2.56583
0
LINE
8
BLACK
6
CONTINUOUS
10
5.02004
20
-2.56583
11
5.01966
21
-2.56577
0
LINE
8
BLACK
6
CONTINUOUS
10
5.01966
20
-2.56577
11
5.01907
21
-2.56527
0
LINE
8
BLACK
6
CONTINUOUS
10
5.01907
20
-2.56527
11
5.01841
21
-2.56489
0
LINE
8
BLACK
6
CONTINUOUS
10
5.01841
20
-2.56489
11
5.01832
21
-2.56464
0
LINE
8
BLACK
6
CONTINUOUS
10
5.01832
20
-2.56464
11
5.01811
21
-2.56447
0
LINE
8
BLACK
6
CONTINUOUS
10
5.01811
20
-2.56447
11
5.01798
21
-2.56371
0
LINE
8
BLACK
6
CONTINUOUS
10
5.01798
20
-2.56371
11
5.01772
21
-2.56299
0
LINE
8
BLACK
6
CONTINUOUS
10
5.01772
20
-2.56299
11
5.01772
21
-2.01969
0
LINE
8
BLACK
6
CONTINUOUS
10
5.01772
20
-2.01969
11
5.01778
21
-2.0193
0
LINE
8
BLACK
6
CONTINUOUS
10
5.01778
20
-2.0193
11
5.01776
21
-2.01917
0
LINE
8
BLACK
6
CONTINUOUS
10
5.01776
20
-2.01917
11
5.01783
21
-2.01906
0
LINE
8
BLACK
6
CONTINUOUS
10
5.01783
20
-2.01906
11
5.01789
21
-2.01868
0
LINE
8
BLACK
6
CONTINUOUS
10
5.01789
20
-2.01868
11
5.01839
21
-2.01809
0
LINE
8
BLACK
6
CONTINUOUS
10
5.01839
20
-2.01809
11
5.01877
21
-2.01742
0
LINE
8
BLACK
6
CONTINUOUS
10
5.01877
20
-2.01742
11
5.01902
21
-2.01733
0
LINE
8
BLACK
6
CONTINUOUS
10
5.01902
20
-2.01733
11
5.01919
21
-2.01713
0
LINE
8
BLACK
6
CONTINUOUS
10
5.01919
20
-2.01713
11
5.01995
21
-2.01699
0
LINE
8
BLACK
6
CONTINUOUS
10
5.01995
20
-2.01699
11
5.02067
21
-2.01673
0
LINE
8
BLACK
6
CONTINUOUS
10
5.02067
20
-2.01673
11
5.56398
21
-2.01673
0
LINE
8
BLACK
6
CONTINUOUS
10
5.56398
20
-2.01673
11
5.56436
21
-2.0168
0
LINE
8
BLACK
6
CONTINUOUS
10
5.02362
20
-2.02264
11
5.02362
21
-2.56004
0
LINE
8
BLACK
6
CONTINUOUS
10
5.02362
20
-2.56004
11
5.56102
21
-2.56004
0
LINE
8
BLACK
6
CONTINUOUS
10
5.56102
20
-2.56004
11
5.56102
21
-2.02264
0
LINE
8
BLACK
6
CONTINUOUS
10
5.56102
20
-2.02264
11
5.02362
21
-2.02264
0
LINE
8
BLACK
6
CONTINUOUS
10
7.06042
20
-1.95578
11
7.06055
21
-1.95575
0
LINE
8
BLACK
6
CONTINUOUS
10
7.06055
20
-1.95575
11
7.06067
21
-1.95582
0
LINE
8
BLACK
6
CONTINUOUS
10
7.06067
20
-1.95582
11
7.06105
21
-1.95589
0
LINE
8
BLACK
6
CONTINUOUS
10
7.06105
20
-1.95589
11
7.06164
21
-1.95638
0
LINE
8
BLACK
6
CONTINUOUS
10
7.06164
20
-1.95638
11
7.0623
21
-1.95676
0
LINE
8
BLACK
6
CONTINUOUS
10
7.0623
20
-1.95676
11
7.06239
21
-1.95701
0
LINE
8
BLACK
6
CONTINUOUS
10
7.06239
20
-1.95701
11
7.0626
21
-1.95719
0
LINE
8
BLACK
6
CONTINUOUS
10
7.0626
20
-1.95719
11
7.06273
21
-1.95794
0
LINE
8
BLACK
6
CONTINUOUS
10
7.06273
20
-1.95794
11
7.06299
21
-1.95866
0
LINE
8
BLACK
6
CONTINUOUS
10
7.06299
20
-1.95866
11
7.06299
21
-2.50197
0
LINE
8
BLACK
6
CONTINUOUS
10
7.06299
20
-2.50197
11
7.06292
21
-2.50235
0
LINE
8
BLACK
6
CONTINUOUS
10
7.06292
20
-2.50235
11
7.06295
21
-2.50248
0
LINE
8
BLACK
6
CONTINUOUS
10
7.06295
20
-2.50248
11
7.06288
21
-2.50259
0
LINE
8
BLACK
6
CONTINUOUS
10
7.06288
20
-2.50259
11
7.06281
21
-2.50298
0
LINE
8
BLACK
6
CONTINUOUS
10
7.06281
20
-2.50298
11
7.06232
21
-2.50357
0
LINE
8
BLACK
6
CONTINUOUS
10
7.06232
20
-2.50357
11
7.06194
21
-2.50423
0
LINE
8
BLACK
6
CONTINUOUS
10
7.06194
20
-2.50423
11
7.06169
21
-2.50432
0
LINE
8
BLACK
6
CONTINUOUS
10
7.06169
20
-2.50432
11
7.06152
21
-2.50453
0
LINE
8
BLACK
6
CONTINUOUS
10
7.06152
20
-2.50453
11
7.06076
21
-2.50466
0
LINE
8
BLACK
6
CONTINUOUS
10
7.06076
20
-2.50466
11
7.06004
21
-2.50492
0
LINE
8
BLACK
6
CONTINUOUS
10
7.06004
20
-2.50492
11
6.51673
21
-2.50492
0
LINE
8
BLACK
6
CONTINUOUS
10
6.51673
20
-2.50492
11
6.51635
21
-2.50485
0
LINE
8
BLACK
6
CONTINUOUS
10
6.51635
20
-2.50485
11
6.51622
21
-2.50488
0
LINE
8
BLACK
6
CONTINUOUS
10
6.51622
20
-2.50488
11
6.51611
21
-2.50481
0
LINE
8
BLACK
6
CONTINUOUS
10
6.51611
20
-2.50481
11
6.51572
21
-2.50474
0
LINE
8
BLACK
6
CONTINUOUS
10
6.51572
20
-2.50474
11
6.51513
21
-2.50425
0
LINE
8
BLACK
6
CONTINUOUS
10
6.51513
20
-2.50425
11
6.51447
21
-2.50387
0
LINE
8
BLACK
6
CONTINUOUS
10
6.51447
20
-2.50387
11
6.51438
21
-2.50362
0
LINE
8
BLACK
6
CONTINUOUS
10
6.51438
20
-2.50362
11
6.51418
21
-2.50344
0
LINE
8
BLACK
6
CONTINUOUS
10
6.51418
20
-2.50344
11
6.51404
21
-2.50269
0
LINE
8
BLACK
6
CONTINUOUS
10
6.51404
20
-2.50269
11
6.51378
21
-2.50197
0
LINE
8
BLACK
6
CONTINUOUS
10
6.51378
20
-2.50197
11
6.51378
21
-1.95866
0
LINE
8
BLACK
6
CONTINUOUS
10
6.51378
20
-1.95866
11
6.51385
21
-1.95828
0
LINE
8
BLACK
6
CONTINUOUS
10
6.51385
20
-1.95828
11
6.51382
21
-1.95815
0
LINE
8
BLACK
6
CONTINUOUS
10
6.51382
20
-1.95815
11
6.51389
21
-1.95804
0
LINE
8
BLACK
6
CONTINUOUS
10
6.51389
20
-1.95804
11
6.51396
21
-1.95765
0
LINE
8
BLACK
6
CONTINUOUS
10
6.51396
20
-1.95765
11
6.51445
21
-1.95706
0
LINE
8
BLACK
6
CONTINUOUS
10
6.51445
20
-1.95706
11
6.51483
21
-1.9564
0
LINE
8
BLACK
6
CONTINUOUS
10
6.51483
20
-1.9564
11
6.51508
21
-1.95631
0
LINE
8
BLACK
6
CONTINUOUS
10
6.51508
20
-1.95631
11
6.51526
21
-1.9561
0
LINE
8
BLACK
6
CONTINUOUS
10
6.51526
20
-1.9561
11
6.51601
21
-1.95597
0
LINE
8
BLACK
6
CONTINUOUS
10
6.51601
20
-1.95597
11
6.51673
21
-1.95571
0
LINE
8
BLACK
6
CONTINUOUS
10
6.51673
20
-1.95571
11
7.06004
21
-1.95571
0
LINE
8
BLACK
6
CONTINUOUS
10
7.06004
20
-1.95571
11
7.06042
21
-1.95578
0
LINE
8
BLACK
6
CONTINUOUS
10
6.51969
20
-1.96161
11
6.51969
21
-2.49902
0
LINE
8
BLACK
6
CONTINUOUS
10
6.51969
20
-2.49902
11
7.05709
21
-2.49902
0
LINE
8
BLACK
6
CONTINUOUS
10
7.05709
20
-2.49902
11
7.05709
21
-1.96161
0
LINE
8
BLACK
6
CONTINUOUS
10
7.05709
20
-1.96161
11
6.51969
21
-1.96161
0
LINE
8
BLACK
6
CONTINUOUS
10
6.31338
20
-1.77566
11
6.3135
21
-1.77564
0
LINE
8
BLACK
6
CONTINUOUS
10
6.3135
20
-1.77564
11
6.31362
21
-1.7757
0
LINE
8
BLACK
6
CONTINUOUS
10
6.31362
20
-1.7757
11
6.314
21
-1.77577
0
LINE
8
BLACK
6
CONTINUOUS
10
6.314
20
-1.77577
11
6.31459
21
-1.77626
0
LINE
8
BLACK
6
CONTINUOUS
10
6.31459
20
-1.77626
11
6.31525
21
-1.77665
0
LINE
8
BLACK
6
CONTINUOUS
10
6.31525
20
-1.77665
11
6.31535
21
-1.7769
0
LINE
8
BLACK
6
CONTINUOUS
10
6.31535
20
-1.7769
11
6.31555
21
-1.77707
0
LINE
8
BLACK
6
CONTINUOUS
10
6.31555
20
-1.77707
11
6.31568
21
-1.77782
0
LINE
8
BLACK
6
CONTINUOUS
10
6.31568
20
-1.77782
11
6.31594
21
-1.77854
0
LINE
8
BLACK
6
CONTINUOUS
10
6.31594
20
-1.77854
11
6.31594
21
-2.32185
0
LINE
8
BLACK
6
CONTINUOUS
10
6.31594
20
-2.32185
11
6.31588
21
-2.32223
0
LINE
8
BLACK
6
CONTINUOUS
10
6.31588
20
-2.32223
11
6.3159
21
-2.32236
0
LINE
8
BLACK
6
CONTINUOUS
10
6.3159
20
-2.32236
11
6.31583
21
-2.32248
0
LINE
8
BLACK
6
CONTINUOUS
10
6.31583
20
-2.32248
11
6.31577
21
-2.32286
0
LINE
8
BLACK
6
CONTINUOUS
10
6.31577
20
-2.32286
11
6.31527
21
-2.32345
0
LINE
8
BLACK
6
CONTINUOUS
10
6.31527
20
-2.32345
11
6.31489
21
-2.32411
0
LINE
8
BLACK
6
CONTINUOUS
10
6.31489
20
-2.32411
11
6.31464
21
-2.3242
0
LINE
8
BLACK
6
CONTINUOUS
10
6.31464
20
-2.3242
11
6.31447
21
-2.32441
0
LINE
8
BLACK
6
CONTINUOUS
10
6.31447
20
-2.32441
11
6.31371
21
-2.32454
0
LINE
8
BLACK
6
CONTINUOUS
10
6.31371
20
-2.32454
11
6.31299
21
-2.3248
0
LINE
8
BLACK
6
CONTINUOUS
10
6.31299
20
-2.3248
11
5.76969
21
-2.3248
0
LINE
8
BLACK
6
CONTINUOUS
10
5.76969
20
-2.3248
11
5.7693
21
-2.32474
0
LINE
8
BLACK
6
CONTINUOUS
10
5.7693
20
-2.32474
11
5.76917
21
-2.32476
0
LINE
8
BLACK
6
CONTINUOUS
10
5.76917
20
-2.32476
11
5.76906
21
-2.32469
0
LINE
8
BLACK
6
CONTINUOUS
10
5.76906
20
-2.32469
11
5.76868
21
-2.32463
0
LINE
8
BLACK
6
CONTINUOUS
10
5.76868
20
-2.32463
11
5.76809
21
-2.32413
0
LINE
8
BLACK
6
CONTINUOUS
10
5.76809
20
-2.32413
11
5.76742
21
-2.32375
0
LINE
8
BLACK
6
CONTINUOUS
10
5.76742
20
-2.32375
11
5.76733
21
-2.3235
0
LINE
8
BLACK
6
CONTINUOUS
10
5.76733
20
-2.3235
11
5.76713
21
-2.32333
0
LINE
8
BLACK
6
CONTINUOUS
10
5.76713
20
-2.32333
11
5.76699
21
-2.32257
0
LINE
8
BLACK
6
CONTINUOUS
10
5.76699
20
-2.32257
11
5.76673
21
-2.32185
0
LINE
8
BLACK
6
CONTINUOUS
10
5.76673
20
-2.32185
11
5.76673
21
-1.77854
0
LINE
8
BLACK
6
CONTINUOUS
10
5.76673
20
-1.77854
11
5.7668
21
-1.77816
0
LINE
8
BLACK
6
CONTINUOUS
10
5.7668
20
-1.77816
11
5.76678
21
-1.77803
0
LINE
8
BLACK
6
CONTINUOUS
10
5.76678
20
-1.77803
11
5.76684
21
-1.77792
0
LINE
8
BLACK
6
CONTINUOUS
10
5.76684
20
-1.77792
11
5.76691
21
-1.77753
0
LINE
8
BLACK
6
CONTINUOUS
10
5.76691
20
-1.77753
11
5.7674
21
-1.77695
0
LINE
8
BLACK
6
CONTINUOUS
10
5.7674
20
-1.77695
11
5.76779
21
-1.77628
0
LINE
8
BLACK
6
CONTINUOUS
10
5.76779
20
-1.77628
11
5.76804
21
-1.77619
0
LINE
8
BLACK
6
CONTINUOUS
10
5.76804
20
-1.77619
11
5.76821
21
-1.77599
0
LINE
8
BLACK
6
CONTINUOUS
10
5.76821
20
-1.77599
11
5.76896
21
-1.77585
0
LINE
8
BLACK
6
CONTINUOUS
10
5.76896
20
-1.77585
11
5.76969
21
-1.77559
0
LINE
8
BLACK
6
CONTINUOUS
10
5.76969
20
-1.77559
11
6.31299
21
-1.77559
0
LINE
8
BLACK
6
CONTINUOUS
10
6.31299
20
-1.77559
11
6.31338
21
-1.77566
0
LINE
8
BLACK
6
CONTINUOUS
10
5.77264
20
-1.7815
11
5.77264
21
-2.3189
0
LINE
8
BLACK
6
CONTINUOUS
10
5.77264
20
-2.3189
11
6.31004
21
-2.3189
0
LINE
8
BLACK
6
CONTINUOUS
10
6.31004
20
-2.3189
11
6.31004
21
-1.7815
0
LINE
8
BLACK
6
CONTINUOUS
10
6.31004
20
-1.7815
11
5.77264
21
-1.7815
0
LINE
8
BLACK
6
CONTINUOUS
10
4.81633
20
-1.74023
11
4.81646
21
-1.7402
0
LINE
8
BLACK
6
CONTINUOUS
10
4.81646
20
-1.7402
11
4.81657
21
-1.74027
0
LINE
8
BLACK
6
CONTINUOUS
10
4.81657
20
-1.74027
11
4.81695
21
-1.74034
0
LINE
8
BLACK
6
CONTINUOUS
10
4.81695
20
-1.74034
11
4.81754
21
-1.74083
0
LINE
8
BLACK
6
CONTINUOUS
10
4.81754
20
-1.74083
11
4.81821
21
-1.74121
0
LINE
8
BLACK
6
CONTINUOUS
10
4.81821
20
-1.74121
11
4.8183
21
-1.74146
0
LINE
8
BLACK
6
CONTINUOUS
10
4.8183
20
-1.74146
11
4.8185
21
-1.74163
0
LINE
8
BLACK
6
CONTINUOUS
10
4.8185
20
-1.74163
11
4.81864
21
-1.74239
0
LINE
8
BLACK
6
CONTINUOUS
10
4.81864
20
-1.74239
11
4.8189
21
-1.74311
0
LINE
8
BLACK
6
CONTINUOUS
10
4.8189
20
-1.74311
11
4.8189
21
-2.28642
0
LINE
8
BLACK
6
CONTINUOUS
10
4.8189
20
-2.28642
11
4.81883
21
-2.2868
0
LINE
8
BLACK
6
CONTINUOUS
10
4.81883
20
-2.2868
11
4.81885
21
-2.28693
0
LINE
8
BLACK
6
CONTINUOUS
10
4.81885
20
-2.28693
11
4.81879
21
-2.28704
0
LINE
8
BLACK
6
CONTINUOUS
10
4.81879
20
-2.28704
11
4.81872
21
-2.28743
0
LINE
8
BLACK
6
CONTINUOUS
10
4.81872
20
-2.28743
11
4.81823
21
-2.28801
0
LINE
8
BLACK
6
CONTINUOUS
10
4.81823
20
-2.28801
11
4.81784
21
-2.28868
0
LINE
8
BLACK
6
CONTINUOUS
10
4.81784
20
-2.28868
11
4.81759
21
-2.28877
0
LINE
8
BLACK
6
CONTINUOUS
10
4.81759
20
-2.28877
11
4.81742
21
-2.28897
0
LINE
8
BLACK
6
CONTINUOUS
10
4.81742
20
-2.28897
11
4.81667
21
-2.28911
0
LINE
8
BLACK
6
CONTINUOUS
10
4.81667
20
-2.28911
11
4.81594
21
-2.28937
0
LINE
8
BLACK
6
CONTINUOUS
10
4.81594
20
-2.28937
11
4.27264
21
-2.28937
0
LINE
8
BLACK
6
CONTINUOUS
10
4.27264
20
-2.28937
11
4.27225
21
-2.2893
0
LINE
8
BLACK
6
CONTINUOUS
10
4.27225
20
-2.2893
11
4.27213
21
-2.28933
0
LINE
8
BLACK
6
CONTINUOUS
10
4.27213
20
-2.28933
11
4.27201
21
-2.28926
0
LINE
8
BLACK
6
CONTINUOUS
10
4.27201
20
-2.28926
11
4.27163
21
-2.28919
0
LINE
8
BLACK
6
CONTINUOUS
10
4.27163
20
-2.28919
11
4.27104
21
-2.2887
0
LINE
8
BLACK
6
CONTINUOUS
10
4.27104
20
-2.2887
11
4.27038
21
-2.28832
0
LINE
8
BLACK
6
CONTINUOUS
10
4.27038
20
-2.28832
11
4.27028
21
-2.28806
0
LINE
8
BLACK
6
CONTINUOUS
10
4.27028
20
-2.28806
11
4.27008
21
-2.28789
0
LINE
8
BLACK
6
CONTINUOUS
10
4.27008
20
-2.28789
11
4.26995
21
-2.28714
0
LINE
8
BLACK
6
CONTINUOUS
10
4.26995
20
-2.28714
11
4.26969
21
-2.28642
0
LINE
8
BLACK
6
CONTINUOUS
10
4.26969
20
-2.28642
11
4.26969
21
-1.74311
0
LINE
8
BLACK
6
CONTINUOUS
10
4.26969
20
-1.74311
11
4.26975
21
-1.74273
0
LINE
8
BLACK
6
CONTINUOUS
10
4.26975
20
-1.74273
11
4.26973
21
-1.7426
0
LINE
8
BLACK
6
CONTINUOUS
10
4.26973
20
-1.7426
11
4.2698
21
-1.74248
0
LINE
8
BLACK
6
CONTINUOUS
10
4.2698
20
-1.74248
11
4.26986
21
-1.7421
0
LINE
8
BLACK
6
CONTINUOUS
10
4.26986
20
-1.7421
11
4.27036
21
-1.74151
0
LINE
8
BLACK
6
CONTINUOUS
10
4.27036
20
-1.74151
11
4.27074
21
-1.74085
0
LINE
8
BLACK
6
CONTINUOUS
10
4.27074
20
-1.74085
11
4.27099
21
-1.74076
0
LINE
8
BLACK
6
CONTINUOUS
10
4.27099
20
-1.74076
11
4.27116
21
-1.74055
0
LINE
8
BLACK
6
CONTINUOUS
10
4.27116
20
-1.74055
11
4.27192
21
-1.74042
0
LINE
8
BLACK
6
CONTINUOUS
10
4.27192
20
-1.74042
11
4.27264
21
-1.74016
0
LINE
8
BLACK
6
CONTINUOUS
10
4.27264
20
-1.74016
11
4.81594
21
-1.74016
0
LINE
8
BLACK
6
CONTINUOUS
10
4.81594
20
-1.74016
11
4.81633
21
-1.74023
0
LINE
8
BLACK
6
CONTINUOUS
10
4.27559
20
-1.74606
11
4.27559
21
-2.28346
0
LINE
8
BLACK
6
CONTINUOUS
10
4.27559
20
-2.28346
11
4.81299
21
-2.28346
0
LINE
8
BLACK
6
CONTINUOUS
10
4.81299
20
-2.28346
11
4.81299
21
-1.74606
0
LINE
8
BLACK
6
CONTINUOUS
10
4.81299
20
-1.74606
11
4.27559
21
-1.74606
0
LINE
8
BLACK
6
CONTINUOUS
10
7.80845
20
-1.30715
11
7.80858
21
-1.30713
0
LINE
8
BLACK
6
CONTINUOUS
10
7.80858
20
-1.30713
11
7.8087
21
-1.3072
0
LINE
8
BLACK
6
CONTINUOUS
10
7.8087
20
-1.3072
11
7.80908
21
-1.30726
0
LINE
8
BLACK
6
CONTINUOUS
10
7.80908
20
-1.30726
11
7.80967
21
-1.30776
0
LINE
8
BLACK
6
CONTINUOUS
10
7.80967
20
-1.30776
11
7.81033
21
-1.30814
0
LINE
8
BLACK
6
CONTINUOUS
10
7.81033
20
-1.30814
11
7.81042
21
-1.30839
0
LINE
8
BLACK
6
CONTINUOUS
10
7.81042
20
-1.30839
11
7.81063
21
-1.30856
0
LINE
8
BLACK
6
CONTINUOUS
10
7.81063
20
-1.30856
11
7.81076
21
-1.30932
0
LINE
8
BLACK
6
CONTINUOUS
10
7.81076
20
-1.30932
11
7.81102
21
-1.31004
0
LINE
8
BLACK
6
CONTINUOUS
10
7.81102
20
-1.31004
11
7.81102
21
-1.85335
0
LINE
8
BLACK
6
CONTINUOUS
10
7.81102
20
-1.85335
11
7.81096
21
-1.85373
0
LINE
8
BLACK
6
CONTINUOUS
10
7.81096
20
-1.85373
11
7.81098
21
-1.85386
0
LINE
8
BLACK
6
CONTINUOUS
10
7.81098
20
-1.85386
11
7.81091
21
-1.85397
0
LINE
8
BLACK
6
CONTINUOUS
10
7.81091
20
-1.85397
11
7.81085
21
-1.85436
0
LINE
8
BLACK
6
CONTINUOUS
10
7.81085
20
-1.85436
11
7.81035
21
-1.85494
0
LINE
8
BLACK
6
CONTINUOUS
10
7.81035
20
-1.85494
11
7.80997
21
-1.85561
0
LINE
8
BLACK
6
CONTINUOUS
10
7.80997
20
-1.85561
11
7.80972
21
-1.8557
0
LINE
8
BLACK
6
CONTINUOUS
10
7.80972
20
-1.8557
11
7.80955
21
-1.8559
0
LINE
8
BLACK
6
CONTINUOUS
10
7.80955
20
-1.8559
11
7.80879
21
-1.85604
0
LINE
8
BLACK
6
CONTINUOUS
10
7.80879
20
-1.85604
11
7.80807
21
-1.8563
0
LINE
8
BLACK
6
CONTINUOUS
10
7.80807
20
-1.8563
11
7.26476
21
-1.8563
0
LINE
8
BLACK
6
CONTINUOUS
10
7.26476
20
-1.8563
11
7.26438
21
-1.85623
0
LINE
8
BLACK
6
CONTINUOUS
10
7.26438
20
-1.85623
11
7.26425
21
-1.85625
0
LINE
8
BLACK
6
CONTINUOUS
10
7.26425
20
-1.85625
11
7.26414
21
-1.85619
0
LINE
8
BLACK
6
CONTINUOUS
10
7.26414
20
-1.85619
11
7.26375
21
-1.85612
0
LINE
8
BLACK
6
CONTINUOUS
10
7.26375
20
-1.85612
11
7.26317
21
-1.85563
0
LINE
8
BLACK
6
CONTINUOUS
10
7.26317
20
-1.85563
11
7.2625
21
-1.85524
0
LINE
8
BLACK
6
CONTINUOUS
10
7.2625
20
-1.85524
11
7.26241
21
-1.85499
0
LINE
8
BLACK
6
CONTINUOUS
10
7.26241
20
-1.85499
11
7.26221
21
-1.85482
0
LINE
8
BLACK
6
CONTINUOUS
10
7.26221
20
-1.85482
11
7.26207
21
-1.85407
0
LINE
8
BLACK
6
CONTINUOUS
10
7.26207
20
-1.85407
11
7.26181
21
-1.85335
0
LINE
8
BLACK
6
CONTINUOUS
10
7.26181
20
-1.85335
11
7.26181
21
-1.31004
0
LINE
8
BLACK
6
CONTINUOUS
10
7.26181
20
-1.31004
11
7.26188
21
-1.30966
0
LINE
8
BLACK
6
CONTINUOUS
10
7.26188
20
-1.30966
11
7.26186
21
-1.30953
0
LINE
8
BLACK
6
CONTINUOUS
10
7.26186
20
-1.30953
11
7.26192
21
-1.30941
0
LINE
8
BLACK
6
CONTINUOUS
10
7.26192
20
-1.30941
11
7.26199
21
-1.30903
0
LINE
8
BLACK
6
CONTINUOUS
10
7.26199
20
-1.30903
11
7.26248
21
-1.30844
0
LINE
8
BLACK
6
CONTINUOUS
10
7.26248
20
-1.30844
11
7.26287
21
-1.30778
0
LINE
8
BLACK
6
CONTINUOUS
10
7.26287
20
-1.30778
11
7.26312
21
-1.30769
0
LINE
8
BLACK
6
CONTINUOUS
10
7.26312
20
-1.30769
11
7.26329
21
-1.30748
0
LINE
8
BLACK
6
CONTINUOUS
10
7.26329
20
-1.30748
11
7.26404
21
-1.30735
0
LINE
8
BLACK
6
CONTINUOUS
10
7.26404
20
-1.30735
11
7.26476
21
-1.30709
0
LINE
8
BLACK
6
CONTINUOUS
10
7.26476
20
-1.30709
11
7.80807
21
-1.30709
0
LINE
8
BLACK
6
CONTINUOUS
10
7.80807
20
-1.30709
11
7.80845
21
-1.30715
0
LINE
8
BLACK
6
CONTINUOUS
10
7.26772
20
-1.31299
11
7.26772
21
-1.85039
0
LINE
8
BLACK
6
CONTINUOUS
10
7.26772
20
-1.85039
11
7.80512
21
-1.85039
0
LINE
8
BLACK
6
CONTINUOUS
10
7.80512
20
-1.85039
11
7.80512
21
-1.31299
0
LINE
8
BLACK
6
CONTINUOUS
10
7.80512
20
-1.31299
11
7.26772
21
-1.31299
0
LINE
8
BLACK
6
CONTINUOUS
10
5.56436
20
-1.26877
11
5.56449
21
-1.26875
0
LINE
8
BLACK
6
CONTINUOUS
10
5.56449
20
-1.26875
11
5.5646
21
-1.26881
0
LINE
8
BLACK
6
CONTINUOUS
10
5.5646
20
-1.26881
11
5.56499
21
-1.26888
0
LINE
8
BLACK
6
CONTINUOUS
10
5.56499
20
-1.26888
11
5.56557
21
-1.26937
0
LINE
8
BLACK
6
CONTINUOUS
10
5.56557
20
-1.26937
11
5.56624
21
-1.26976
0
LINE
8
BLACK
6
CONTINUOUS
10
5.56624
20
-1.26976
11
5.56633
21
-1.27001
0
LINE
8
BLACK
6
CONTINUOUS
10
5.56633
20
-1.27001
11
5.56653
21
-1.27018
0
LINE
8
BLACK
6
CONTINUOUS
10
5.56653
20
-1.27018
11
5.56667
21
-1.27093
0
LINE
8
BLACK
6
CONTINUOUS
10
5.56667
20
-1.27093
11
5.56693
21
-1.27165
0
LINE
8
BLACK
6
CONTINUOUS
10
5.56693
20
-1.27165
11
5.56693
21
-1.81496
0
LINE
8
BLACK
6
CONTINUOUS
10
5.56693
20
-1.81496
11
5.56686
21
-1.81534
0
LINE
8
BLACK
6
CONTINUOUS
10
5.56686
20
-1.81534
11
5.56688
21
-1.81547
0
LINE
8
BLACK
6
CONTINUOUS
10
5.56688
20
-1.81547
11
5.56682
21
-1.81559
0
LINE
8
BLACK
6
CONTINUOUS
10
5.56682
20
-1.81559
11
5.56675
21
-1.81597
0
LINE
8
BLACK
6
CONTINUOUS
10
5.56675
20
-1.81597
11
5.56626
21
-1.81656
0
LINE
8
BLACK
6
CONTINUOUS
10
5.56626
20
-1.81656
11
5.56587
21
-1.81722
0
LINE
8
BLACK
6
CONTINUOUS
10
5.56587
20
-1.81722
11
5.56562
21
-1.81731
0
LINE
8
BLACK
6
CONTINUOUS
10
5.56562
20
-1.81731
11
5.56545
21
-1.81752
0
LINE
8
BLACK
6
CONTINUOUS
10
5.56545
20
-1.81752
11
5.5647
21
-1.81765
0
LINE
8
BLACK
6
CONTINUOUS
10
5.5647
20
-1.81765
11
5.56398
21
-1.81791
0
LINE
8
BLACK
6
CONTINUOUS
10
5.56398
20
-1.81791
11
5.02067
21
-1.81791
0
LINE
8
BLACK
6
CONTINUOUS
10
5.02067
20
-1.81791
11
5.02029
21
-1.81785
0
LINE
8
BLACK
6
CONTINUOUS
10
5.02029
20
-1.81785
11
5.02016
21
-1.81787
0
LINE
8
BLACK
6
CONTINUOUS
10
5.02016
20
-1.81787
11
5.02004
21
-1.8178
0
LINE
8
BLACK
6
CONTINUOUS
10
5.02004
20
-1.8178
11
5.01966
21
-1.81774
0
LINE
8
BLACK
6
CONTINUOUS
10
5.01966
20
-1.81774
11
5.01907
21
-1.81724
0
LINE
8
BLACK
6
CONTINUOUS
10
5.01907
20
-1.81724
11
5.01841
21
-1.81686
0
LINE
8
BLACK
6
CONTINUOUS
10
5.01841
20
-1.81686
11
5.01832
21
-1.81661
0
LINE
8
BLACK
6
CONTINUOUS
10
5.01832
20
-1.81661
11
5.01811
21
-1.81644
0
LINE
8
BLACK
6
CONTINUOUS
10
5.01811
20
-1.81644
11
5.01798
21
-1.81568
0
LINE
8
BLACK
6
CONTINUOUS
10
5.01798
20
-1.81568
11
5.01772
21
-1.81496
0
LINE
8
BLACK
6
CONTINUOUS
10
5.01772
20
-1.81496
11
5.01772
21
-1.27165
0
LINE
8
BLACK
6
CONTINUOUS
10
5.01772
20
-1.27165
11
5.01778
21
-1.27127
0
LINE
8
BLACK
6
CONTINUOUS
10
5.01778
20
-1.27127
11
5.01776
21
-1.27114
0
LINE
8
BLACK
6
CONTINUOUS
10
5.01776
20
-1.27114
11
5.01783
21
-1.27103
0
LINE
8
BLACK
6
CONTINUOUS
10
5.01783
20
-1.27103
11
5.01789
21
-1.27064
0
LINE
8
BLACK
6
CONTINUOUS
10
5.01789
20
-1.27064
11
5.01839
21
-1.27006
0
LINE
8
BLACK
6
CONTINUOUS
10
5.01839
20
-1.27006
11
5.01877
21
-1.26939
0
LINE
8
BLACK
6
CONTINUOUS
10
5.01877
20
-1.26939
11
5.01902
21
-1.2693
0
LINE
8
BLACK
6
CONTINUOUS
10
5.01902
20
-1.2693
11
5.01919
21
-1.2691
0
LINE
8
BLACK
6
CONTINUOUS
10
5.01919
20
-1.2691
11
5.01995
21
-1.26896
0
LINE
8
BLACK
6
CONTINUOUS
10
5.01995
20
-1.26896
11
5.02067
21
-1.2687
0
LINE
8
BLACK
6
CONTINUOUS
10
5.02067
20
-1.2687
11
5.56398
21
-1.2687
0
LINE
8
BLACK
6
CONTINUOUS
10
5.56398
20
-1.2687
11
5.56436
21
-1.26877
0
LINE
8
BLACK
6
CONTINUOUS
10
5.02362
20
-1.27461
11
5.02362
21
-1.81201
0
LINE
8
BLACK
6
CONTINUOUS
10
5.02362
20
-1.81201
11
5.56102
21
-1.81201
0
LINE
8
BLACK
6
CONTINUOUS
10
5.56102
20
-1.81201
11
5.56102
21
-1.27461
0
LINE
8
BLACK
6
CONTINUOUS
10
5.56102
20
-1.27461
11
5.02362
21
-1.27461
0
LINE
8
BLACK
6
CONTINUOUS
10
7.06042
20
-1.20774
11
7.06055
21
-1.20772
0
LINE
8
BLACK
6
CONTINUOUS
10
7.06055
20
-1.20772
11
7.06067
21
-1.20779
0
LINE
8
BLACK
6
CONTINUOUS
10
7.06067
20
-1.20779
11
7.06105
21
-1.20786
0
LINE
8
BLACK
6
CONTINUOUS
10
7.06105
20
-1.20786
11
7.06164
21
-1.20835
0
LINE
8
BLACK
6
CONTINUOUS
10
7.06164
20
-1.20835
11
7.0623
21
-1.20873
0
LINE
8
BLACK
6
CONTINUOUS
10
7.0623
20
-1.20873
11
7.06239
21
-1.20898
0
LINE
8
BLACK
6
CONTINUOUS
10
7.06239
20
-1.20898
11
7.0626
21
-1.20915
0
LINE
8
BLACK
6
CONTINUOUS
10
7.0626
20
-1.20915
11
7.06273
21
-1.20991
0
LINE
8
BLACK
6
CONTINUOUS
10
7.06273
20
-1.20991
11
7.06299
21
-1.21063
0
LINE
8
BLACK
6
CONTINUOUS
10
7.06299
20
-1.21063
11
7.06299
21
-1.75394
0
LINE
8
BLACK
6
CONTINUOUS
10
7.06299
20
-1.75394
11
7.06292
21
-1.75432
0
LINE
8
BLACK
6
CONTINUOUS
10
7.06292
20
-1.75432
11
7.06295
21
-1.75445
0
LINE
8
BLACK
6
CONTINUOUS
10
7.06295
20
-1.75445
11
7.06288
21
-1.75456
0
LINE
8
BLACK
6
CONTINUOUS
10
7.06288
20
-1.75456
11
7.06281
21
-1.75495
0
LINE
8
BLACK
6
CONTINUOUS
10
7.06281
20
-1.75495
11
7.06232
21
-1.75553
0
LINE
8
BLACK
6
CONTINUOUS
10
7.06232
20
-1.75553
11
7.06194
21
-1.7562
0
LINE
8
BLACK
6
CONTINUOUS
10
7.06194
20
-1.7562
11
7.06169
21
-1.75629
0
LINE
8
BLACK
6
CONTINUOUS
10
7.06169
20
-1.75629
11
7.06152
21
-1.75649
0
LINE
8
BLACK
6
CONTINUOUS
10
7.06152
20
-1.75649
11
7.06076
21
-1.75663
0
LINE
8
BLACK
6
CONTINUOUS
10
7.06076
20
-1.75663
11
7.06004
21
-1.75689
0
LINE
8
BLACK
6
CONTINUOUS
10
7.06004
20
-1.75689
11
6.51673
21
-1.75689
0
LINE
8
BLACK
6
CONTINUOUS
10
6.51673
20
-1.75689
11
6.51635
21
-1.75682
0
LINE
8
BLACK
6
CONTINUOUS
10
6.51635
20
-1.75682
11
6.51622
21
-1.75684
0
LINE
8
BLACK
6
CONTINUOUS
10
6.51622
20
-1.75684
11
6.51611
21
-1.75678
0
LINE
8
BLACK
6
CONTINUOUS
10
6.51611
20
-1.75678
11
6.51572
21
-1.75671
0
LINE
8
BLACK
6
CONTINUOUS
10
6.51572
20
-1.75671
11
6.51513
21
-1.75622
0
LINE
8
BLACK
6
CONTINUOUS
10
6.51513
20
-1.75622
11
6.51447
21
-1.75584
0
LINE
8
BLACK
6
CONTINUOUS
10
6.51447
20
-1.75584
11
6.51438
21
-1.75558
0
LINE
8
BLACK
6
CONTINUOUS
10
6.51438
20
-1.75558
11
6.51418
21
-1.75541
0
LINE
8
BLACK
6
CONTINUOUS
10
6.51418
20
-1.75541
11
6.51404
21
-1.75466
0
LINE
8
BLACK
6
CONTINUOUS
10
6.51404
20
-1.75466
11
6.51378
21
-1.75394
0
LINE
8
BLACK
6
CONTINUOUS
10
6.51378
20
-1.75394
11
6.51378
21
-1.21063
0
LINE
8
BLACK
6
CONTINUOUS
10
6.51378
20
-1.21063
11
6.51385
21
-1.21025
0
LINE
8
BLACK
6
CONTINUOUS
10
6.51385
20
-1.21025
11
6.51382
21
-1.21012
0
LINE
8
BLACK
6
CONTINUOUS
10
6.51382
20
-1.21012
11
6.51389
21
-1.21
0
LINE
8
BLACK
6
CONTINUOUS
10
6.51389
20
-1.21
11
6.51396
21
-1.20962
0
LINE
8
BLACK
6
CONTINUOUS
10
6.51396
20
-1.20962
11
6.51445
21
-1.20903
0
LINE
8
BLACK
6
CONTINUOUS
10
6.51445
20
-1.20903
11
6.51483
21
-1.20837
0
LINE
8
BLACK
6
CONTINUOUS
10
6.51483
20
-1.20837
11
6.51508
21
-1.20828
0
LINE
8
BLACK
6
CONTINUOUS
10
6.51508
20
-1.20828
11
6.51526
21
-1.20807
0
LINE
8
BLACK
6
CONTINUOUS
10
6.51526
20
-1.20807
11
6.51601
21
-1.20794
0
LINE
8
BLACK
6
CONTINUOUS
10
6.51601
20
-1.20794
11
6.51673
21
-1.20768
0
LINE
8
BLACK
6
CONTINUOUS
10
6.51673
20
-1.20768
11
7.06004
21
-1.20768
0
LINE
8
BLACK
6
CONTINUOUS
10
7.06004
20
-1.20768
11
7.06042
21
-1.20774
0
LINE
8
BLACK
6
CONTINUOUS
10
6.51969
20
-1.21358
11
6.51969
21
-1.75098
0
LINE
8
BLACK
6
CONTINUOUS
10
6.51969
20
-1.75098
11
7.05709
21
-1.75098
0
LINE
8
BLACK
6
CONTINUOUS
10
7.05709
20
-1.75098
11
7.05709
21
-1.21358
0
LINE
8
BLACK
6
CONTINUOUS
10
7.05709
20
-1.21358
11
6.51969
21
-1.21358
0
LINE
8
BLACK
6
CONTINUOUS
10
6.31338
20
-1.02763
11
6.3135
21
-1.0276
0
LINE
8
BLACK
6
CONTINUOUS
10
6.3135
20
-1.0276
11
6.31362
21
-1.02767
0
LINE
8
BLACK
6
CONTINUOUS
10
6.31362
20
-1.02767
11
6.314
21
-1.02774
0
LINE
8
BLACK
6
CONTINUOUS
10
6.314
20
-1.02774
11
6.31459
21
-1.02823
0
LINE
8
BLACK
6
CONTINUOUS
10
6.31459
20
-1.02823
11
6.31525
21
-1.02861
0
LINE
8
BLACK
6
CONTINUOUS
10
6.31525
20
-1.02861
11
6.31535
21
-1.02886
0
LINE
8
BLACK
6
CONTINUOUS
10
6.31535
20
-1.02886
11
6.31555
21
-1.02904
0
LINE
8
BLACK
6
CONTINUOUS
10
6.31555
20
-1.02904
11
6.31568
21
-1.02979
0
LINE
8
BLACK
6
CONTINUOUS
10
6.31568
20
-1.02979
11
6.31594
21
-1.03051
0
LINE
8
BLACK
6
CONTINUOUS
10
6.31594
20
-1.03051
11
6.31594
21
-1.57382
0
LINE
8
BLACK
6
CONTINUOUS
10
6.31594
20
-1.57382
11
6.31588
21
-1.5742
0
LINE
8
BLACK
6
CONTINUOUS
10
6.31588
20
-1.5742
11
6.3159
21
-1.57433
0
LINE
8
BLACK
6
CONTINUOUS
10
6.3159
20
-1.57433
11
6.31583
21
-1.57445
0
LINE
8
BLACK
6
CONTINUOUS
10
6.31583
20
-1.57445
11
6.31577
21
-1.57483
0
LINE
8
BLACK
6
CONTINUOUS
10
6.31577
20
-1.57483
11
6.31527
21
-1.57542
0
LINE
8
BLACK
6
CONTINUOUS
10
6.31527
20
-1.57542
11
6.31489
21
-1.57608
0
LINE
8
BLACK
6
CONTINUOUS
10
6.31489
20
-1.57608
11
6.31464
21
-1.57617
0
LINE
8
BLACK
6
CONTINUOUS
10
6.31464
20
-1.57617
11
6.31447
21
-1.57638
0
LINE
8
BLACK
6
CONTINUOUS
10
6.31447
20
-1.57638
11
6.31371
21
-1.57651
0
LINE
8
BLACK
6
CONTINUOUS
10
6.31371
20
-1.57651
11
6.31299
21
-1.57677
0
LINE
8
BLACK
6
CONTINUOUS
10
6.31299
20
-1.57677
11
5.76969
21
-1.57677
0
LINE
8
BLACK
6
CONTINUOUS
10
5.76969
20
-1.57677
11
5.7693
21
-1.5767
0
LINE
8
BLACK
6
CONTINUOUS
10
5.7693
20
-1.5767
11
5.76917
21
-1.57673
0
LINE
8
BLACK
6
CONTINUOUS
10
5.76917
20
-1.57673
11
5.76906
21
-1.57666
0
LINE
8
BLACK
6
CONTINUOUS
10
5.76906
20
-1.57666
11
5.76868
21
-1.57659
0
LINE
8
BLACK
6
CONTINUOUS
10
5.76868
20
-1.57659
11
5.76809
21
-1.5761
0
LINE
8
BLACK
6
CONTINUOUS
10
5.76809
20
-1.5761
11
5.76742
21
-1.57572
0
LINE
8
BLACK
6
CONTINUOUS
10
5.76742
20
-1.57572
11
5.76733
21
-1.57547
0
LINE
8
BLACK
6
CONTINUOUS
10
5.76733
20
-1.57547
11
5.76713
21
-1.5753
0
LINE
8
BLACK
6
CONTINUOUS
10
5.76713
20
-1.5753
11
5.76699
21
-1.57454
0
LINE
8
BLACK
6
CONTINUOUS
10
5.76699
20
-1.57454
11
5.76673
21
-1.57382
0
LINE
8
BLACK
6
CONTINUOUS
10
5.76673
20
-1.57382
11
5.76673
21
-1.03051
0
LINE
8
BLACK
6
CONTINUOUS
10
5.76673
20
-1.03051
11
5.7668
21
-1.03013
0
LINE
8
BLACK
6
CONTINUOUS
10
5.7668
20
-1.03013
11
5.76678
21
-1.03
0
LINE
8
BLACK
6
CONTINUOUS
10
5.76678
20
-1.03
11
5.76684
21
-1.02989
0
LINE
8
BLACK
6
CONTINUOUS
10
5.76684
20
-1.02989
11
5.76691
21
-1.0295
0
LINE
8
BLACK
6
CONTINUOUS
10
5.76691
20
-1.0295
11
5.7674
21
-1.02891
0
LINE
8
BLACK
6
CONTINUOUS
10
5.7674
20
-1.02891
11
5.76779
21
-1.02825
0
LINE
8
BLACK
6
CONTINUOUS
10
5.76779
20
-1.02825
11
5.76804
21
-1.02816
0
LINE
8
BLACK
6
CONTINUOUS
10
5.76804
20
-1.02816
11
5.76821
21
-1.02795
0
LINE
8
BLACK
6
CONTINUOUS
10
5.76821
20
-1.02795
11
5.76896
21
-1.02782
0
LINE
8
BLACK
6
CONTINUOUS
10
5.76896
20
-1.02782
11
5.76969
21
-1.02756
0
LINE
8
BLACK
6
CONTINUOUS
10
5.76969
20
-1.02756
11
6.31299
21
-1.02756
0
LINE
8
BLACK
6
CONTINUOUS
10
6.31299
20
-1.02756
11
6.31338
21
-1.02763
0
LINE
8
BLACK
6
CONTINUOUS
10
5.77264
20
-1.03346
11
5.77264
21
-1.57087
0
LINE
8
BLACK
6
CONTINUOUS
10
5.77264
20
-1.57087
11
6.31004
21
-1.57087
0
LINE
8
BLACK
6
CONTINUOUS
10
6.31004
20
-1.57087
11
6.31004
21
-1.03346
0
LINE
8
BLACK
6
CONTINUOUS
10
6.31004
20
-1.03346
11
5.77264
21
-1.03346
  0
ENDSEC
  0
EOF
