0
SECTION
2
HEADER
9
$INSUNITS
70
4
9
$ACADVER
1
AC1014
9
$HANDSEED
5
FFFF
0
ENDSEC
0
SECTION
2
TABLES
0
TABLE
2
VPORT
5
8
100
AcDbSymbolTable
0
ENDTAB
0
TABLE
2
LTYPE
5
5
100
AcDbSymbolTable
0
LTYPE
5
14
100
AcDbSymbolTableRecord
100
AcDbLinetypeTableRecord
2
BYBLOCK
70
0
0
LTYPE
5
15
100
AcDbSymbolTableRecord
100
AcDbLinetypeTableRecord
2
BYLAYER
70
0
0
ENDTAB
0
TABLE
2
LAYER
5
2
100
AcDbSymbolTable
70
2
0
LAYER
5
50
100
AcDbSymbolTableRecord
100
AcDbLayerTableRecord
2
0
70
0
6
CONTINUOUS
0
ENDTAB
0
TABLE
2
STYLE
5
3
100
AcDbSymbolTable
70
1
0
STYLE
5
11
100
AcDbSymbolTableRecord
100
AcDbTextStyleTableRecord
2
STANDARD
70
0
0
ENDTAB
0
TABLE
2
VIEW
5
6
100
AcDbSymbolTable
70
0
0
ENDTAB
0
TABLE
2
UCS
5
7
100
AcDbSymbolTable
70
0
0
ENDTAB
0
TABLE
2
APPID
5
9
100
AcDbSymbolTable
70
2
0
APPID
5
12
100
AcDbSymbolTableRecord
100
AcDbRegAppTableRecord
2
ACAD
70
0
0
ENDTAB
0
TABLE
2
DIMSTYLE
5
A
100
AcDbSymbolTable
70
1
0
ENDTAB
0
TABLE
2
BLOCK_RECORD
5
1
100
AcDbSymbolTable
70
1
0
BLOCK_RECORD
5
1F
100
AcDbSymbolTableRecord
100
AcDbBlockTableRecord
2
*MODEL_SPACE
0
BLOCK_RECORD
5
1B
100
AcDbSymbolTableRecord
100
AcDbBlockTableRecord
2
*PAPER_SPACE
0
ENDTAB
0
ENDSEC
0
SECTION
2
BLOCKS
0
BLOCK
5
20
100
AcDbEntity
100
AcDbBlockBegin
2
*MODEL_SPACE
0
ENDBLK
5
21
100
AcDbEntity
100
AcDbBlockEnd
0
BLOCK
5
1C
100
AcDbEntity
100
AcDbBlockBegin
2
*PAPER_SPACE
0
ENDBLK
5
1D
100
AcDbEntity
100
AcDbBlockEnd
0
ENDSEC
0
SECTION
2
ENTITIES
0
LINE
5
100
100
AcDbEntity
8
0
100
AcDbLine
10
61.266139590419463
20
-25.858161770589639
30
0
11
78.386854711965469
21
-25.858161770589632
31
0
0
LINE
5
101
100
AcDbEntity
8
0
100
AcDbLine
10
29.129549151070641
20
-54.20998319977496
30
0
11
41.064825093036006
21
-61.100695309852398
31
0
0
SPLINE
5
102
100
AcDbEntity
8
0
100
AcDbSpline
70
0
71
3
72
14
73
10
74
0
42
0.000000001
43
0.0000000001
44
0.0000000001
40
0
40
0
40
0
40
0
40
0.36681963961014408
40
0.36681963961014408
40
0.36681963961014408
40
0.78386341854905495
40
0.78386341854905495
40
0.78386341854905495
40
1
40
1
40
1
40
1
10
41.064825093036006
20
-61.100695309852398
30
0
10
41.86246501250303
20
-61.561204713198705
30
0
10
42.802180058003138
20
-61.761559298905667
30
0
10
43.643706585521997
20
-61.703472443939347
30
0
10
44.600453076758946
20
-61.637432464379984
30
0
10
45.496827810728163
20
-61.307659601899466
30
0
10
46.278720358360431
20
-60.66007772978309
30
0
10
46.683943001261824
20
-60.324462767716142
30
0
10
47.042880700938071
20
-59.896174996122191
30
0
10
47.31423210896768
20
-59.426199472334737
30
0
0
LINE
5
103
100
AcDbEntity
8
0
100
AcDbLine
10
47.31423210896768
20
-59.42619947233473
30
0
11
54.233713475913049
21
-47.441788904208565
31
0
0
LINE
5
104
100
AcDbEntity
8
0
100
AcDbLine
10
54.233713475913049
20
-47.441788904208565
30
0
11
54.535799330148919
21
-46.868535284532051
31
0
0
LINE
5
105
100
AcDbEntity
8
0
100
AcDbLine
10
54.535799330148919
20
-46.868535284532051
30
0
11
54.825195556305168
21
-46.216476909756594
31
0
0
LINE
5
106
100
AcDbEntity
8
0
100
AcDbLine
10
54.825195556305168
20
-46.216476909756594
30
0
11
55.087844647365493
21
-45.523309464677276
31
0
0
LINE
5
107
100
AcDbEntity
8
0
100
AcDbLine
10
55.087844647365493
20
-45.523309464677276
30
0
11
55.328350197548062
21
-44.789352022235036
31
0
0
LINE
5
108
100
AcDbEntity
8
0
100
AcDbLine
10
55.328350197548062
20
-44.789352022235036
30
0
11
55.55043299166995
21
-44.015475517917281
31
0
0
LINE
5
109
100
AcDbEntity
8
0
100
AcDbLine
10
55.55043299166995
20
-44.015475517917281
30
0
11
55.759601643781991
21
-43.193753973031896
31
0
0
LINE
5
110
100
AcDbEntity
8
0
100
AcDbLine
10
55.759601643781991
20
-43.193753973031896
30
0
11
56.134241948425576
21
-41.478572720501589
31
0
0
LINE
5
111
100
AcDbEntity
8
0
100
AcDbLine
10
56.134241948425576
20
-41.478572720501589
30
0
11
56.479114401760199
21
-39.635461795769217
31
0
0
LINE
5
112
100
AcDbEntity
8
0
100
AcDbLine
10
56.479114401760199
20
-39.635461795769217
30
0
11
56.806873196014926
21
-37.72180095491062
31
0
0
LINE
5
113
100
AcDbEntity
8
0
100
AcDbLine
10
56.806873196014926
20
-37.72180095491062
30
0
11
57.481789837527216
21
-33.837961994275346
31
0
0
LINE
5
114
100
AcDbEntity
8
0
100
AcDbLine
10
57.481789837527216
20
-33.837961994275346
30
0
11
57.856590909690269
21
-31.996135232778297
31
0
0
LINE
5
115
100
AcDbEntity
8
0
100
AcDbLine
10
57.856590909690269
20
-31.996135232778297
30
0
11
58.281197775674045
21
-30.271985238122628
31
0
0
LINE
5
116
100
AcDbEntity
8
0
100
AcDbLine
10
58.281197775674045
20
-30.271985238122628
30
0
11
58.507016493923786
21
-29.504130615784799
31
0
0
LINE
5
117
100
AcDbEntity
8
0
100
AcDbLine
10
58.507016493923786
20
-29.504130615784799
30
0
11
58.749611941240502
21
-28.784430310369959
31
0
0
LINE
5
118
100
AcDbEntity
8
0
100
AcDbLine
10
58.749611941240502
20
-28.784430310369959
30
0
11
59.004233970451345
21
-28.134262473934434
31
0
0
LINE
5
119
100
AcDbEntity
8
0
100
AcDbLine
10
59.004233970451345
20
-28.134262473934434
30
0
11
59.268208971144595
21
-27.562473001010559
31
0
0
LINE
5
120
100
AcDbEntity
8
0
100
AcDbLine
10
59.268208971144595
20
-27.562473001010559
30
0
11
59.536754644804347
21
-27.077087725560425
31
0
0
LINE
5
121
100
AcDbEntity
8
0
100
AcDbLine
10
59.536754644804347
20
-27.077087725560425
30
0
11
59.802634708605552
21
-26.683940174380684
31
0
0
LINE
5
122
100
AcDbEntity
8
0
100
AcDbLine
10
59.802634708605552
20
-26.683940174380684
30
0
11
60.056714527946944
21
-26.384274112838089
31
0
0
LINE
5
123
100
AcDbEntity
8
0
100
AcDbLine
10
60.056714527946944
20
-26.384274112838089
30
0
11
60.290665815772968
21
-26.171684756866483
31
0
0
LINE
5
124
100
AcDbEntity
8
0
100
AcDbLine
10
60.290665815772968
20
-26.171684756866483
30
0
11
60.502791149940329
21
-26.030618399368713
31
0
0
LINE
5
125
100
AcDbEntity
8
0
100
AcDbLine
10
60.502791149940329
20
-26.030618399368713
30
0
11
60.704945806565703
21
-25.940318064219014
31
0
0
LINE
5
126
100
AcDbEntity
8
0
100
AcDbLine
10
60.704945806565703
20
-25.940318064219014
30
0
11
60.923868426372692
21
-25.885166456210019
31
0
0
LINE
5
127
100
AcDbEntity
8
0
100
AcDbLine
10
60.923868426372692
20
-25.885166456210019
30
0
11
61.266139590419463
21
-25.858161770589639
31
0
0
LINE
5
128
100
AcDbEntity
8
0
100
AcDbLine
10
61.266139590419463
20
-25.858161770589639
30
0
11
78.386854711965469
21
-25.858161770589632
31
0
0
ARC
5
129
100
AcDbEntity
8
0
100
AcDbCircle
10
78.386854711965483
20
-22.858163672529503
30
0
40
2.9999980980601304
210
0
220
0
230
1
100
AcDbArc
50
269.99999999999972
51
359.99887620099935
0
LINE
5
130
100
AcDbEntity
8
0
100
AcDbLine
10
81.386852809448555
20
-22.858222514472718
30
0
11
81.387746017574926
21
22.681107648567981
31
0
0
ARC
5
131
100
AcDbEntity
8
0
100
AcDbCircle
10
74.887281098164323
20
22.447307327470504
30
0
40
6.5046680744395688
210
0
220
-0
230
1
100
AcDbArc
50
2.059852644084903
51
90.004802076355986
0
LINE
5
132
100
AcDbEntity
8
0
100
AcDbLine
10
74.886735928642366
20
28.951975379064187
30
0
11
43.015457619040774
21
28.951975379064194
31
0
0
LINE
5
133
100
AcDbEntity
8
0
100
AcDbLine
10
43.015457619040774
20
28.951975379064194
30
0
11
42.566118482212204
21
28.987470414437198
31
0
0
LINE
5
134
100
AcDbEntity
8
0
100
AcDbLine
10
42.566118482212204
20
28.987470414437198
30
0
11
42.188495174815131
21
29.073948530954237
31
0
0
LINE
5
135
100
AcDbEntity
8
0
100
AcDbLine
10
42.188495174815131
20
29.073948530954237
30
0
11
41.084192060844501
21
29.49027850189097
31
0
0
SPLINE
5
136
100
AcDbEntity
8
0
100
AcDbSpline
70
0
71
3
72
11
73
7
74
0
42
0.000000001
43
0.0000000001
44
0.0000000001
40
-0.49324351738496663
40
-0.49324351738496663
40
-0.49324351738496663
40
-0.49324351738496663
40
-0.36480504183951701
40
-0.36480504183951701
40
-0.36480504183951701
40
0
40
0
40
0
40
0
10
41.084192060844501
20
29.49027850189097
30
0
10
40.867405804782742
20
29.581259131614527
30
0
10
40.632473234525214
20
29.679748775697
30
0
10
40.377409142357024
20
29.777159631237971
30
0
10
39.652948139374715
20
30.053836624485783
30
0
10
38.726619548926116
20
30.311765578890647
30
0
10
37.751689209638364
20
30.311765578890643
30
0
0
LINE
5
137
100
AcDbEntity
8
0
100
AcDbLine
10
37.751689209638364
20
30.311765578890636
30
0
11
24.017788395510671
21
30.311765578890633
31
0
0
LINE
5
138
100
AcDbEntity
8
0
100
AcDbLine
10
24.017788395510671
20
30.311765578890633
30
0
11
23.842400787387604
21
30.323384749379745
31
0
0
LINE
5
139
100
AcDbEntity
8
0
100
AcDbLine
10
23.842400787387604
20
30.323384749379745
30
0
11
23.806891607011046
21
30.330693832241185
31
0
0
LINE
5
140
100
AcDbEntity
8
0
100
AcDbLine
10
23.806891607011046
20
30.330693832241185
30
0
11
23.498316281799774
21
30.459434064961801
31
0
0
LINE
5
141
100
AcDbEntity
8
0
100
AcDbLine
10
23.498316281799774
20
30.459434064961801
30
0
11
23.126640193264691
21
30.707361287245405
31
0
0
LINE
5
142
100
AcDbEntity
8
0
100
AcDbLine
10
23.126640193264691
20
30.707361287245405
30
0
11
22.628126689938757
21
31.114046023537565
31
0
0
SPLINE
5
143
100
AcDbEntity
8
0
100
AcDbSpline
70
0
71
3
72
11
73
7
74
0
42
0.000000001
43
0.0000000001
44
0.0000000001
40
-0.49741186752331074
40
-0.49741186752331074
40
-0.49741186752331074
40
-0.49741186752331074
40
-0.24343269681469407
40
-0.24343269681469407
40
-0.24343269681469407
40
0
40
0
40
0
40
0
10
22.628126689938757
20
31.114046023537561
30
0
10
22.232864960859171
20
31.446988636861409
30
0
10
21.742811125906773
20
31.874394221880618
30
0
10
21.07298155271236
20
32.237250099158857
30
0
10
20.430966623086402
20
32.585038402091158
30
0
10
19.592541906680161
20
32.836778529995783
30
0
10
18.751725740062096
20
32.836778529995783
30
0
0
LINE
5
144
100
AcDbEntity
8
0
100
AcDbLine
10
18.751725740062096
20
32.836778529995783
30
0
11
5.0448808454845917
21
32.83677852999574
31
0
0
LINE
5
145
100
AcDbEntity
8
0
100
AcDbLine
10
5.0448808454845917
20
32.83677852999574
30
0
11
4.8626781140006692
21
32.853802259311173
31
0
0
LINE
5
146
100
AcDbEntity
8
0
100
AcDbLine
10
4.8626781140006692
20
32.853802259311173
30
0
11
4.8512830611296565
21
32.85737857553368
31
0
0
LINE
5
147
100
AcDbEntity
8
0
100
AcDbLine
10
4.8512830611296565
20
32.85737857553368
30
0
11
4.8481813548903752
21
32.859180120730201
31
0
0
LINE
5
148
100
AcDbEntity
8
0
100
AcDbLine
10
4.8481813548903752
20
32.859180120730201
30
0
11
4.7969908250396465
21
32.904804188265985
31
0
0
LINE
5
149
100
AcDbEntity
8
0
100
AcDbLine
10
4.7969908250396465
20
32.904804188265985
30
0
11
4.6885693162481523
21
33.038261597656003
31
0
0
LINE
5
150
100
AcDbEntity
8
0
100
AcDbLine
10
4.6885693162481523
20
33.038261597656003
30
0
11
4.5471625975798791
21
33.259896013389572
31
0
0
LINE
5
151
100
AcDbEntity
8
0
100
AcDbLine
10
4.5471625975798791
20
33.259896013389572
30
0
11
4.1496728656393245
21
34.025651806251048
31
0
0
SPLINE
5
152
100
AcDbEntity
8
0
100
AcDbSpline
70
0
71
3
72
14
73
10
74
0
42
0.000000001
43
0.0000000001
44
0.0000000001
40
-0.4971415872734562
40
-0.4971415872734562
40
-0.4971415872734562
40
-0.4971415872734562
40
-0.38543933736415675
40
-0.38543933736415675
40
-0.38543933736415675
40
-0.17356515820368781
40
-0.17356515820368781
40
-0.17356515820368781
40
0
40
0
40
0
40
0
10
4.1496728656393245
20
34.025651806251048
30
0
10
4.0193721554647883
20
34.291175635755231
30
0
10
3.8743448877216204
20
34.588267533260975
30
0
10
3.6961244562095965
20
34.903773736143378
30
0
10
3.3580801673354186
20
35.502218421098483
30
0
10
2.88669424455132
20
36.207009909540467
30
0
10
2.0884848213756539
20
36.737518309879043
30
0
10
1.4345998347193489
20
37.172105359598838
30
0
10
0.58179109008226493
20
37.411826438236552
30
0
10
-0.22334488712771561
20
37.411826438236552
30
0
0
LINE
5
153
100
AcDbEntity
8
0
100
AcDbLine
10
-0.22334488712771564
20
37.41182643823656
30
0
11
-32.115571491470185
21
37.41182643823656
31
0
0
SPLINE
5
154
100
AcDbEntity
8
0
100
AcDbSpline
70
0
71
3
72
17
73
13
74
0
42
0.000000001
43
0.0000000001
44
0.0000000001
40
-1
40
-1
40
-1
40
-1
40
-0.95225311905491172
40
-0.95225311905491172
40
-0.95225311905491172
40
-0.8632715481419635
40
-0.8632715481419635
40
-0.8632715481419635
40
-0.7265430962839271
40
-0.7265430962839271
40
-0.7265430962839271
40
-0.50000000042296866
40
-0.50000000042296866
40
-0.50000000042296866
40
-0.50000000042296866
10
-32.115571491470185
20
37.411826438236552
30
0
10
-32.548420079294559
20
37.411826438236552
30
0
10
-32.998186475982443
20
37.335616628655508
30
0
10
-33.41574673009778
20
37.178119419207448
30
0
10
-34.193916248745985
20
36.884606024537526
30
0
10
-34.807970734578554
20
36.329578531277775
30
0
10
-35.235507992008344
20
35.737351824642325
30
0
10
-35.892458714728164
20
34.827340460306374
30
0
10
-36.227550359952211
20
33.80625163621157
30
0
10
-36.495044037602497
20
32.688374427922383
30
0
10
-36.938249859321658
20
30.836182290025718
30
0
10
-37.137533656788463
20
28.669172280780629
30
0
10
-37.333156189795019
20
26.545237744464227
30
0
0
LINE
5
155
100
AcDbEntity
8
0
100
AcDbLine
10
-37.333156189795019
20
26.545237744464227
30
0
11
-37.494464444911614
21
24.819464477653153
31
0
0
LINE
5
156
100
AcDbEntity
8
0
100
AcDbLine
10
-37.494464444911614
20
24.819464477653153
30
0
11
-37.669908368538486
21
23.186578317723132
31
0
0
LINE
5
157
100
AcDbEntity
8
0
100
AcDbLine
10
-37.669908368538486
20
23.186578317723132
30
0
11
-37.879293267075965
21
21.704778083323824
31
0
0
LINE
5
158
100
AcDbEntity
8
0
100
AcDbLine
10
-37.879293267075965
20
21.704778083323824
30
0
11
-37.995852067680985
21
21.071480861397653
31
0
0
LINE
5
159
100
AcDbEntity
8
0
100
AcDbLine
10
-37.995852067680985
20
21.071480861397653
30
0
11
-38.12453135310902
21
20.500181369530939
31
0
0
LINE
5
160
100
AcDbEntity
8
0
100
AcDbLine
10
-38.12453135310902
20
20.500181369530939
30
0
11
-38.260642680286452
21
20.014862957601292
31
0
0
LINE
5
161
100
AcDbEntity
8
0
100
AcDbLine
10
-38.260642680286452
20
20.014862957601292
30
0
11
-38.397770219289612
21
19.629539629078316
31
0
0
LINE
5
162
100
AcDbEntity
8
0
100
AcDbLine
10
-38.397770219289612
20
19.629539629078316
30
0
11
-38.522951672782696
21
19.358747559404517
31
0
0
LINE
5
163
100
AcDbEntity
8
0
100
AcDbLine
10
-38.522951672782696
20
19.358747559404517
30
0
11
-38.55207376433286
21
19.311786422820489
31
0
0
LINE
5
164
100
AcDbEntity
8
0
100
AcDbLine
10
-38.55207376433286
20
19.311786422820489
30
0
11
-52.048234901835684
21
19.311786422820525
31
0
0
SPLINE
5
165
100
AcDbEntity
8
0
100
AcDbSpline
70
0
71
3
72
14
73
10
74
0
42
0.000000001
43
0.0000000001
44
0.0000000001
40
-1
40
-1
40
-1
40
-1
40
-0.78385658629536703
40
-0.78385658629536703
40
-0.78385658629536703
40
-0.36681648646438042
40
-0.36681648646438042
40
-0.36681648646438042
40
0
40
0
40
0
40
0
10
-52.048234901835684
20
19.311786422820521
30
0
10
-52.590947181959706
20
19.311786422820521
30
0
10
-53.141352388223375
20
19.215081066671623
30
0
10
-53.634637147977656
20
19.031946890687571
30
0
10
-54.586410426316604
20
18.678596799070984
30
0
10
-55.320191701575389
20
18.067194808359272
30
0
10
-55.855756692309875
20
17.271640758324299
30
0
10
-56.326824266517178
20
16.571894279401523
30
0
10
-56.623164901835693
20
15.65789217562849
30
0
10
-56.623164901835693
20
14.736856422820523
30
0
0
LINE
5
166
100
AcDbEntity
8
0
100
AcDbLine
10
-56.623164901835693
20
14.736856422820527
30
0
11
-56.623164901835679
21
-37.063141672529454
31
0
0
SPLINE
5
167
100
AcDbEntity
8
0
100
AcDbSpline
70
0
71
3
72
14
73
10
74
0
42
0.000000001
43
0.0000000001
44
0.0000000001
40
0
40
0
40
0
40
0
40
0.36681648646529869
40
0.36681648646529869
40
0.36681648646529869
40
0.78385658629394173
40
0.78385658629394173
40
0.78385658629394173
40
1
40
1
40
1
40
1
10
-56.623164901835693
20
-37.063141672529454
30
0
10
-56.623164901835693
20
-37.984177425338849
30
0
10
-56.326824266517292
20
-38.898179529114074
30
0
10
-55.855756692307345
20
-39.597926008039231
30
0
10
-55.320191701574196
20
-40.393480058070438
30
0
10
-54.586410426319183
20
-41.004882048777922
30
0
10
-53.634637147986652
20
-41.358232140393781
30
0
10
-53.14135238822967
20
-41.541366316379694
30
0
10
-52.590947181962839
20
-41.638071672529463
30
0
10
-52.048234901835684
20
-41.638071672529463
30
0
0
LINE
5
168
100
AcDbEntity
8
0
100
AcDbLine
10
-52.048234901835684
20
-41.638071672529463
30
0
11
-38.248414901835652
21
-41.638071672529463
31
0
0
SPLINE
5
169
100
AcDbEntity
8
0
100
AcDbSpline
70
0
71
3
72
17
73
13
74
0
42
0.000000001
43
0.0000000001
44
0.0000000001
40
0
40
0
40
0
40
0
40
0.10578295448134356
40
0.10578295448134356
40
0.10578295448134356
40
0.22775791249421251
40
0.22775791249421251
40
0.22775791249421251
40
0.4284304221412179
40
0.4284304221412179
40
0.4284304221412179
40
0.49938484952750917
40
0.49938484952750917
40
0.49938484952750917
40
0.49938484952750917
10
-38.248414901835652
20
-41.638071672529463
30
0
10
-37.458694379176563
20
-41.638071672529463
30
0
10
-36.613507681867382
20
-41.407639894881136
30
0
10
-35.945112405294964
20
-40.944565991243813
30
0
10
-35.17440708518312
20
-40.410610211411822
30
0
10
-34.689036622842522
20
-39.658865410769707
30
0
10
-34.37611889179162
20
-38.922410625652205
30
0
10
-33.86130841408351
20
-37.710799386929885
30
0
10
-33.706939939808457
20
-36.434906292427549
30
0
10
-33.587737491047875
20
-35.153343178339171
30
0
10
-33.545589508198965
20
-34.700203996098971
30
0
10
-33.511925288530527
20
-34.248196509061572
30
0
10
-33.480026438776818
20
-33.805955930390368
30
0
0
LINE
5
170
100
AcDbEntity
8
0
100
AcDbLine
10
-33.480026438776818
20
-33.805955930390368
30
0
11
-33.29644715841566
21
-31.611716124400861
31
0
0
LINE
5
171
100
AcDbEntity
8
0
100
AcDbLine
10
-33.29644715841566
20
-31.611716124400861
30
0
11
-33.170020288126203
21
-30.727141332482152
31
0
0
LINE
5
172
100
AcDbEntity
8
0
100
AcDbLine
10
-33.170020288126203
20
-30.727141332482152
30
0
11
-33.011311564943178
21
-30.048596787632
31
0
0
LINE
5
173
100
AcDbEntity
8
0
100
AcDbLine
10
-33.011311564943178
20
-30.048596787632
30
0
11
-32.858249518122697
21
-29.663241672529502
31
0
0
LINE
5
174
100
AcDbEntity
8
0
100
AcDbLine
10
-32.858249518122697
20
-29.663241672529502
30
0
11
-13.11556852492985
21
-29.663241672529459
31
0
0
SPLINE
5
175
100
AcDbEntity
8
0
100
AcDbSpline
70
0
71
3
72
14
73
10
74
0
42
0.000000001
43
0.0000000001
44
0.0000000001
40
-1
40
-1
40
-1
40
-1
40
-0.71620156968718063
40
-0.71620156968718063
40
-0.71620156968718063
40
-0.37657120804009803
40
-0.37657120804009803
40
-0.37657120804009803
40
0
40
0
40
0
40
0
10
-13.11556852492985
20
-29.663241672529459
30
0
10
-12.782616839352023
20
-29.663241672529459
30
0
10
-12.684374681854653
20
-29.713723663895586
30
0
10
-12.520789833744224
20
-29.827738014765572
30
0
10
-12.325022785059392
20
-29.964182515801916
30
0
10
-12.059945557545554
20
-30.275142330769278
30
0
10
-11.86003356250713
20
-30.692856978925356
30
0
10
-11.638377580078945
20
-31.156005529335676
30
0
10
-11.509070750344934
20
-31.682219598629004
30
0
10
-11.509070750344934
20
-32.233154513067369
30
0
0
LINE
5
176
100
AcDbEntity
8
0
100
AcDbLine
10
-11.509070750344936
20
-32.233154513067369
30
0
11
-11.509070750344899
21
-42.385467037886599
31
0
0
SPLINE
5
177
100
AcDbEntity
8
0
100
AcDbSpline
70
0
71
3
72
14
73
10
74
0
42
0.000000001
43
0.0000000001
44
0.0000000001
40
-1
40
-1
40
-1
40
-1
40
-0.78339299450493849
40
-0.78339299450493849
40
-0.78339299450493849
40
-0.44403774290613346
40
-0.44403774290613346
40
-0.44403774290613346
40
0
40
0
40
0
40
0
10
-11.509070750344899
20
-42.385467037886599
30
0
10
-11.509070750344897
20
-43.118644786443056
30
0
10
-11.363315301116586
20
-43.853654599707852
30
0
10
-11.080479356730887
20
-44.495121911119469
30
0
10
-10.63736412669101
20
-45.500100029712513
30
0
10
-9.9150989104565834
20
-46.243122896913817
30
0
10
-9.1182654972097144
20
-46.774635259758846
30
0
10
-8.0756291784158893
20
-47.470105710893705
30
0
10
-6.8180474510939328
20
-47.853490386860138
30
0
10
-5.4853936982546561
20
-47.853490386860138
30
0
0
LINE
5
178
100
AcDbEntity
8
0
100
AcDbLine
10
-5.4853936982546561
20
-47.853490386860145
30
0
11
5.3844317495958549
21
-47.853490386860116
31
0
0
SPLINE
5
179
100
AcDbEntity
8
0
100
AcDbSpline
70
0
71
3
72
11
73
7
74
0
42
0.000000001
43
0.0000000001
44
0.0000000001
40
0
40
0
40
0
40
0
40
0.63973645502945742
40
0.63973645502945742
40
0.63973645502945742
40
1
40
1
40
1
40
1
10
5.3844317495958558
20
-47.853490386860116
30
0
10
7.4764482536036656
20
-47.853490386860116
30
0
10
9.5671969560683507
20
-48.209869000973669
30
0
10
11.730940219284211
20
-48.693933912979375
30
0
10
12.949438574792779
20
-48.966532011499488
30
0
10
14.17890233256766
20
-49.276013794486609
30
0
10
15.403703035583158
20
-49.604198752359864
30
0
0
LINE
5
180
100
AcDbEntity
8
0
100
AcDbLine
10
15.403703035583158
20
-49.604198752359878
30
0
11
24.724226042792456
21
-52.101629461680901
31
0
0
LINE
5
181
100
AcDbEntity
8
0
100
AcDbLine
10
24.724226042792456
20
-52.101629461680901
30
0
11
25.825236512698879
21
-52.475969451023275
31
0
0
LINE
5
182
100
AcDbEntity
8
0
100
AcDbLine
10
25.825236512698879
20
-52.475969451023275
30
0
11
26.871022546734267
21
-52.960865315519221
31
0
0
LINE
5
183
100
AcDbEntity
8
0
100
AcDbLine
10
26.871022546734267
20
-52.960865315519221
30
0
11
29.129549151070641
21
-54.20998319977496
31
0
0
CIRCLE
5
184
100
AcDbEntity
8
0
100
AcDbCircle
10
45.884879098164348
20
22.958979327470498
30
0
40
1.5000000000000036
210
0
220
0
230
1
0
CIRCLE
5
185
100
AcDbEntity
8
0
100
AcDbCircle
10
-9.1569999018356718
20
-24.797311672529503
30
0
40
1.5000000000000002
210
0
220
0
230
1
0
CIRCLE
5
186
100
AcDbEntity
8
0
100
AcDbCircle
10
-29.545108901835668
20
30.9782973274705
30
0
40
1.4999999999999991
210
0
220
0
230
1
0
CIRCLE
5
187
100
AcDbEntity
8
0
100
AcDbCircle
10
52.204891098164339
20
-28.591702672529493
30
0
40
1.5000000000000036
210
0
220
0
230
1
0
CIRCLE
5
188
100
AcDbEntity
8
0
100
AcDbCircle
10
73.884881098164328
20
22.958978327470501
30
0
40
1.5000000000000036
210
0
220
0
230
1
0
ENDSEC
0
SECTION
2
OBJECTS
0
DICTIONARY
5
C
100
AcDbDictionary
3
ACAD_GROUP
350
D
3
ACAD_MLINESTYLE
350
17
0
DICTIONARY
5
D
100
AcDbDictionary
0
DICTIONARY
5
1A
330
C
100
AcDbDictionary
0
DICTIONARY
5
17
100
AcDbDictionary
0
ENDSEC
0
EOF
