0
SECTION
2
HEADER
9
$INSUNITS
70
4
9
$ACADVER
1
AC1014
9
$HANDSEED
5
FFFF
0
ENDSEC
0
SECTION
2
TABLES
0
TABLE
2
VPORT
5
8
100
AcDbSymbolTable
0
ENDTAB
0
TABLE
2
LTYPE
5
5
100
AcDbSymbolTable
0
LTYPE
5
14
100
AcDbSymbolTableRecord
100
AcDbLinetypeTableRecord
2
BYBLOCK
70
0
0
LTYPE
5
15
100
AcDbSymbolTableRecord
100
AcDbLinetypeTableRecord
2
BYLAYER
70
0
0
ENDTAB
0
TABLE
2
LAYER
5
2
100
AcDbSymbolTable
70
2
0
LAYER
5
50
100
AcDbSymbolTableRecord
100
AcDbLayerTableRecord
2
0
70
0
6
CONTINUOUS
0
ENDTAB
0
TABLE
2
STYLE
5
3
100
AcDbSymbolTable
70
1
0
STYLE
5
11
100
AcDbSymbolTableRecord
100
AcDbTextStyleTableRecord
2
STANDARD
70
0
0
ENDTAB
0
TABLE
2
VIEW
5
6
100
AcDbSymbolTable
70
0
0
ENDTAB
0
TABLE
2
UCS
5
7
100
AcDbSymbolTable
70
0
0
ENDTAB
0
TABLE
2
APPID
5
9
100
AcDbSymbolTable
70
2
0
APPID
5
12
100
AcDbSymbolTableRecord
100
AcDbRegAppTableRecord
2
ACAD
70
0
0
ENDTAB
0
TABLE
2
DIMSTYLE
5
A
100
AcDbSymbolTable
70
1
0
ENDTAB
0
TABLE
2
BLOCK_RECORD
5
1
100
AcDbSymbolTable
70
1
0
BLOCK_RECORD
5
1F
100
AcDbSymbolTableRecord
100
AcDbBlockTableRecord
2
*MODEL_SPACE
0
BLOCK_RECORD
5
1B
100
AcDbSymbolTableRecord
100
AcDbBlockTableRecord
2
*PAPER_SPACE
0
ENDTAB
0
ENDSEC
0
SECTION
2
BLOCKS
0
BLOCK
5
20
100
AcDbEntity
100
AcDbBlockBegin
2
*MODEL_SPACE
0
ENDBLK
5
21
100
AcDbEntity
100
AcDbBlockEnd
0
BLOCK
5
1C
100
AcDbEntity
100
AcDbBlockBegin
2
*PAPER_SPACE
0
ENDBLK
5
1D
100
AcDbEntity
100
AcDbBlockEnd
0
ENDSEC
0
SECTION
2
ENTITIES
0
LINE
5
100
100
AcDbEntity
8
0
100
AcDbLine
10
32.226014525917456
20
-29.615296086649202
30
0
11
32.388862525917446
21
-27.873051086649202
31
3.0814879110195774e-32
0
LINE
5
101
100
AcDbEntity
8
0
100
AcDbLine
10
32.388862525917446
20
-27.873051086649202
30
3.0814879110195774e-32
11
32.569346525917453
21
-26.193256086649207
31
-3.3896367021215351e-31
0
LINE
5
102
100
AcDbEntity
8
0
100
AcDbLine
10
32.569346525917453
20
-26.193256086649207
30
-3.3896367021215351e-31
11
32.789223525917457
21
-24.637204086649206
31
-1.5407439555097887e-32
0
LINE
5
103
100
AcDbEntity
8
0
100
AcDbLine
10
32.789223525917457
20
-24.637204086649206
30
-1.5407439555097887e-32
11
32.920476525917451
21
-23.924069086649201
31
0
0
LINE
5
104
100
AcDbEntity
8
0
100
AcDbLine
10
32.920476525917451
20
-23.924069086649201
30
0
11
33.069247525917461
21
-23.263568086649208
31
-1.1555579666323415e-32
0
LINE
5
105
100
AcDbEntity
8
0
100
AcDbLine
10
33.069247525917461
20
-23.263568086649208
30
-1.1555579666323415e-32
11
33.237870525917458
21
-22.662326086649212
31
-1.1555579666323415e-32
0
LINE
5
106
100
AcDbEntity
8
0
100
AcDbLine
10
33.237870525917458
20
-22.662326086649212
30
-1.1555579666323415e-32
11
33.428533525917452
21
-22.12657008664921
31
-7.7037197775489434e-33
0
LINE
5
107
100
AcDbEntity
8
0
100
AcDbLine
10
33.428533525917452
20
-22.12657008664921
30
-7.7037197775489434e-33
11
33.643262525917457
21
-21.662069086649204
31
0
0
LINE
5
108
100
AcDbEntity
8
0
100
AcDbLine
10
33.643262525917457
20
-21.662069086649204
30
0
11
33.883888525917456
21
-21.274045086649206
31
-1.1555579666323415e-32
0
LINE
5
109
100
AcDbEntity
8
0
100
AcDbLine
10
33.883888525917456
20
-21.274045086649206
30
-1.1555579666323415e-32
11
34.152007525917455
21
-20.967055086649204
31
0
0
LINE
5
110
100
AcDbEntity
8
0
100
AcDbLine
10
34.152007525917455
20
-20.967055086649204
30
0
11
34.448935525917449
21
-20.744866086649211
31
0
0
LINE
5
111
100
AcDbEntity
8
0
100
AcDbLine
10
34.448935525917449
20
-20.744866086649211
30
0
11
34.775670525917455
21
-20.610334086649203
31
-5.7777898331617076e-33
0
LINE
5
112
100
AcDbEntity
8
0
100
AcDbLine
10
34.775670525917455
20
-20.610334086649203
30
-5.7777898331617076e-33
11
35.132846525917444
21
-20.565276086649206
31
0
0
LINE
5
113
100
AcDbEntity
8
0
100
AcDbLine
10
35.132846525917444
20
-20.565276086649206
30
0
11
48.932666525917455
21
-20.565276086649206
31
0
0
LWPOLYLINE
5
114
100
AcDbEntity
8
0
100
AcDbPolyline
90
7
43
0.0
10
48.93266652591745
20
-20.565276086649238
10
49.46689985608798
20
-20.51250251027931
10
49.94817457277194
20
-20.360011065866573
10
50.750909140979864
20
-19.80858870171086
10
51.30233150513541
20
-19.005854133503444
10
51.45482294954773
20
-18.524579416819687
10
51.50759652591746
20
-17.990346086649236
0
LINE
5
115
100
AcDbEntity
8
0
100
AcDbLine
10
51.507596525917457
20
-17.99034608664924
30
0
11
51.50759652591745
21
33.809651913350805
31
0
0
LWPOLYLINE
5
116
100
AcDbEntity
8
0
100
AcDbPolyline
90
7
43
0.0
10
51.50759652591745
20
33.809651913350756
10
51.454822949547854
20
34.343885243521854
10
51.302331505135776
20
34.82515996020611
10
50.7509091409807
20
35.62789452841353
10
49.948174572772785
20
36.17931689256853
10
49.466899856088524
20
36.33180833698095
10
48.93266652591743
20
36.38458191335076
0
LINE
5
117
100
AcDbEntity
8
0
100
AcDbLine
10
48.93266652591744
20
36.384581913350758
30
0
11
35.132846525917444
21
36.3845819133508
31
0
0
LWPOLYLINE
5
118
100
AcDbEntity
8
0
100
AcDbPolyline
90
8
43
0.0
10
35.13284652591741
20
36.38458191335076
10
34.39534911061788
20
36.26576654317006
10
33.80016123217573
20
35.91566652110411
10
33.336873966428584
20
35.35164308599575
10
32.99010278172557
20
34.59941523606231
10
32.7409709618662
20
33.6906296437887
10
32.56814663003039
20
32.66115925323395
10
32.35845256634904
20
30.397166910436244
0
LINE
5
119
100
AcDbEntity
8
0
100
AcDbLine
10
32.35845252591745
20
30.397166913350794
30
0
11
32.169037525917446
21
28.1331749133508
31
-1.5407439555097887e-32
0
LINE
5
120
100
AcDbEntity
8
0
100
AcDbLine
10
32.169037525917446
20
28.1331749133508
30
-1.5407439555097887e-32
11
32.021901525917457
21
27.103703913350799
31
3.0814879110195774e-32
0
LINE
5
121
100
AcDbEntity
8
0
100
AcDbLine
10
32.021901525917457
20
27.103703913350799
30
3.0814879110195774e-32
11
31.809340525917456
21
26.194918913350797
31
-7.7037197775489434e-33
0
LINE
5
122
100
AcDbEntity
8
0
100
AcDbLine
10
31.809340525917456
20
26.194918913350797
30
-7.7037197775489434e-33
11
31.510557525917456
21
25.442690913350798
31
-1.5407439555097887e-32
0
LINE
5
123
100
AcDbEntity
8
0
100
AcDbLine
10
31.510557525917456
20
25.442690913350798
30
-1.5407439555097887e-32
11
31.322996525917446
21
25.135380913350794
31
0
0
LINE
5
124
100
AcDbEntity
8
0
100
AcDbLine
10
31.322996525917446
20
25.135380913350794
30
0
11
31.107263525917446
21
24.878666913350791
31
0
0
LINE
5
125
100
AcDbEntity
8
0
100
AcDbLine
10
31.107263525917446
20
24.878666913350791
30
0
11
30.861622525917454
21
24.675564913350794
31
9.6296497219361793e-33
0
LINE
5
126
100
AcDbEntity
8
0
100
AcDbLine
10
30.861622525917454
20
24.675564913350794
30
9.6296497219361793e-33
11
30.584639525917446
21
24.528566913350794
31
0
0
LINE
5
127
100
AcDbEntity
8
0
100
AcDbLine
10
30.584639525917446
20
24.528566913350794
30
0
11
30.275229525917453
21
24.439561913350794
31
0
0
LINE
5
128
100
AcDbEntity
8
0
100
AcDbLine
10
30.275229525917453
20
24.439561913350794
30
0
11
29.932704525917451
21
24.409751913350803
31
0
0
LINE
5
129
100
AcDbEntity
8
0
100
AcDbLine
10
29.932704525917451
20
24.409751913350803
30
0
11
10.000000149011612
21
24.409751913350757
31
2.760222319956478e-32
0
LINE
5
130
100
AcDbEntity
8
0
100
AcDbLine
10
3.8168359368373039
20
42.000000625848777
30
0
11
-8.5000001266598701
21
42.00000062584877
31
0
0
LWPOLYLINE
5
131
100
AcDbEntity
8
0
100
AcDbPolyline
90
4
43
0.0
10
-8.50000012665987
20
42.00000062584877
10
-10.21459755831269
20
42.12864289912359
10
-11.887017829897825
20
42.46498735149503
10
-15.19125555889208
20
43.38407887022854
0
LINE
5
132
100
AcDbEntity
8
0
100
AcDbLine
10
-15.191255558892081
20
43.384078870228542
30
0
11
-15.23625947408255
21
43.400473913350794
31
5.9703828276004311e-32
0
LINE
5
133
100
AcDbEntity
8
0
100
AcDbLine
10
-15.23625947408255
20
43.400473913350794
30
5.9703828276004311e-32
11
-28.42114547408255
21
46.933359913350799
31
3.0814879110195774e-32
0
LINE
5
134
100
AcDbEntity
8
0
100
AcDbLine
10
-28.42114547408255
20
46.933359913350799
30
3.0814879110195774e-32
11
-29.68546047408255
21
47.36322291335081
31
-7.7037197775489434e-33
0
LINE
5
135
100
AcDbEntity
8
0
100
AcDbLine
10
-29.68546047408255
20
47.36322291335081
30
-7.7037197775489434e-33
11
-30.892360474082547
21
47.922821913350788
31
0
0
LINE
5
136
100
AcDbEntity
8
0
100
AcDbLine
10
-30.892360474082547
20
47.922821913350788
30
0
11
-33.229172474082553
21
49.215236913350793
31
7.7037197775489434e-33
0
LINE
5
137
100
AcDbEntity
8
0
100
AcDbLine
10
-33.229172474082553
20
49.215236913350793
30
7.7037197775489434e-33
11
-45.180380474082547
21
56.115146913350806
31
1.8488927466117464e-31
0
LWPOLYLINE
5
138
100
AcDbEntity
8
0
100
AcDbPolyline
90
7
43
0.0
10
-45.180380207258274
20
56.115147083629125
10
-45.669420706294964
20
56.33655388914059
10
-46.16245610436273
20
56.44512629820497
10
-47.13334295145007
20
56.36894894990442
10
-48.012247338239334
20
55.94948226628579
10
-48.38494518882347
20
55.60894082738775
10
-48.69776721547846
20
55.172679615987484
0
LINE
5
139
100
AcDbEntity
8
0
100
AcDbLine
10
-48.697767474082553
20
55.172679913350812
30
0
11
-55.597931474082543
21
43.221725913350795
31
0
0
LINE
5
140
100
AcDbEntity
8
0
100
AcDbLine
10
-55.597931474082543
20
43.221725913350795
30
0
11
-55.850626474082546
21
42.742198913350798
31
0
0
LINE
5
141
100
AcDbEntity
8
0
100
AcDbLine
10
-55.850626474082546
20
42.742198913350798
30
0
11
-56.090194474082551
21
42.202411913350801
31
-3.8518598887744717e-33
0
LINE
5
142
100
AcDbEntity
8
0
100
AcDbLine
10
-56.090194474082551
20
42.202411913350801
30
-3.8518598887744717e-33
11
-56.317032474082545
21
41.603754913350805
31
-1.1555579666323415e-32
0
LINE
5
143
100
AcDbEntity
8
0
100
AcDbLine
10
-56.317032474082545
20
41.603754913350805
30
-1.1555579666323415e-32
11
-56.531772474082551
21
40.948426913350801
31
0
0
LINE
5
144
100
AcDbEntity
8
0
100
AcDbLine
10
-56.531772474082551
20
40.948426913350801
30
0
11
-56.735261474082549
21
40.239342913350804
31
0
0
LINE
5
145
100
AcDbEntity
8
0
100
AcDbLine
10
-56.735261474082549
20
40.239342913350804
30
0
11
-56.928538474082551
21
39.480051913350792
31
-1.5407439555097887e-32
0
LINE
5
146
100
AcDbEntity
8
0
100
AcDbLine
10
-56.928538474082551
20
39.480051913350792
30
-1.5407439555097887e-32
11
-57.289460474082546
21
37.827675913350795
31
1.5407439555097887e-32
0
LINE
5
147
100
AcDbEntity
8
0
100
AcDbLine
10
-57.289460474082546
20
37.827675913350795
30
1.5407439555097887e-32
11
-57.625978474082551
21
36.029213913350794
31
0
0
LINE
5
148
100
AcDbEntity
8
0
100
AcDbLine
10
-57.625978474082551
20
36.029213913350794
30
0
11
-57.951556474082551
21
34.128285913350794
31
-3.0814879110195774e-32
0
LINE
5
149
100
AcDbEntity
8
0
100
AcDbLine
10
-57.951556474082551
20
34.128285913350794
30
-3.0814879110195774e-32
11
-58.631802474082555
21
30.213778913350797
31
-3.0814879110195774e-32
0
LINE
5
150
100
AcDbEntity
8
0
100
AcDbLine
10
-58.631802474082555
20
30.213778913350797
30
-3.0814879110195774e-32
11
-59.02044547408255
21
28.303930913350797
31
-1.5407439555097887e-32
0
LINE
5
151
100
AcDbEntity
8
0
100
AcDbLine
10
-59.02044547408255
20
28.303930913350797
30
-1.5407439555097887e-32
11
-59.465446474082555
21
26.496968913350798
31
3.0814879110195774e-32
0
LINE
5
152
100
AcDbEntity
8
0
100
AcDbLine
10
-59.465446474082555
20
26.496968913350798
30
3.0814879110195774e-32
11
-59.714870474082545
21
25.648848913350797
31
0
0
LINE
5
153
100
AcDbEntity
8
0
100
AcDbLine
10
-59.714870474082545
20
25.648848913350797
30
0
11
-59.985336474082551
21
24.846465913350791
31
7.7037197775489434e-33
0
LINE
5
154
100
AcDbEntity
8
0
100
AcDbLine
10
-59.985336474082551
20
24.846465913350791
30
7.7037197775489434e-33
11
-60.27913047408255
21
24.096273913350792
31
0
0
LINE
5
155
100
AcDbEntity
8
0
100
AcDbLine
10
-60.27913047408255
20
24.096273913350792
30
0
11
-60.598487474082546
21
23.404522913350796
31
7.7037197775489434e-33
0
LINE
5
156
100
AcDbEntity
8
0
100
AcDbLine
10
-60.598487474082546
20
23.404522913350796
30
7.7037197775489434e-33
11
-60.945561474082552
21
22.777200913350796
31
-1.1555579666323415e-32
0
LINE
5
157
100
AcDbEntity
8
0
100
AcDbLine
10
-60.945561474082552
20
22.777200913350796
30
-1.1555579666323415e-32
11
-61.322407474082546
21
22.219971913350793
31
-1.5407439555097887e-32
0
LINE
5
158
100
AcDbEntity
8
0
100
AcDbLine
10
-61.322407474082546
20
22.219971913350793
30
-1.5407439555097887e-32
11
-61.730958474082556
21
21.738119913350793
31
0
0
LINE
5
159
100
AcDbEntity
8
0
100
AcDbLine
10
-61.730958474082556
20
21.738119913350793
30
0
11
-62.172983474082542
21
21.33645591335079
31
0
0
LINE
5
160
100
AcDbEntity
8
0
100
AcDbLine
10
-62.172983474082542
20
21.33645591335079
30
0
11
-62.650045474082546
21
21.019202913350796
31
0
0
LINE
5
161
100
AcDbEntity
8
0
100
AcDbLine
10
-62.650045474082546
20
21.019202913350796
30
0
11
-63.163451474082557
21
20.789869913350792
31
0
0
LINE
5
162
100
AcDbEntity
8
0
100
AcDbLine
10
-63.163451474082557
20
20.789869913350792
30
0
11
-63.714199474082555
21
20.651123913350801
31
0
0
LINE
5
163
100
AcDbEntity
8
0
100
AcDbLine
10
-63.714199474082555
20
20.651123913350801
30
0
11
-64.302930474082544
21
20.604673913350801
31
-6.2592723192585165e-33
0
LINE
5
164
100
AcDbEntity
8
0
100
AcDbLine
10
-64.302930474082544
20
20.604673913350801
30
-6.2592723192585165e-33
11
-81.502423087883713
21
20.604673913350801
31
0
0
LINE
5
165
100
AcDbEntity
8
0
100
AcDbLine
10
-82.502423087691369
20
19.60469352734431
30
0
11
-82.503315525577563
21
-25.8953666904982
31
0
0
ARC
5
166
100
AcDbEntity
8
0
100
AcDbCircle
10
-78.002849474082552
20
-25.700797086649203
30
0
40
4.5046700224767955
210
0
220
0
230
1
100
AcDbArc
50
182.47553901033916
51
270.00567277440422
0
LINE
5
167
100
AcDbEntity
8
0
100
AcDbLine
10
-78.002403473051089
20
-30.205467087047015
30
0
11
-46.052157474082549
21
-30.205462086649209
31
0
0
LINE
5
168
100
AcDbEntity
8
0
100
AcDbLine
10
-46.052157474082549
20
-30.205462086649209
30
0
11
-45.37809247408255
21
-30.258709086649201
31
0
0
LINE
5
169
100
AcDbEntity
8
0
100
AcDbLine
10
-45.37809247408255
20
-30.258709086649201
30
0
11
-44.725420474082547
21
-30.408175086649202
31
1.9259299443872359e-33
0
LINE
5
170
100
AcDbEntity
8
0
100
AcDbLine
10
-44.725420474082547
20
-30.408175086649202
30
1.9259299443872359e-33
11
-43.459706474082552
21
-30.885358086649205
31
0
0
LWPOLYLINE
5
171
100
AcDbEntity
8
0
100
AcDbPolyline
90
3
43
0.0
10
-43.45970647408265
20
-30.885358086649507
10
-42.19399289215314
20
-31.36254094875817
10
-40.86725547408251
20
-31.565254086649215
0
LINE
5
172
100
AcDbEntity
8
0
100
AcDbLine
10
-40.867255474082512
20
-31.565254086649219
30
0
11
-27.067181474082549
21
-31.565254086649208
31
0
0
LINE
5
173
100
AcDbEntity
8
0
100
AcDbLine
10
-27.067181474082549
20
-31.565254086649208
30
0
11
-26.688999474082557
21
-31.590308086649213
31
0
0
LINE
5
174
100
AcDbEntity
8
0
100
AcDbLine
10
-26.688999474082557
20
-31.590308086649213
30
0
11
-26.330355474082552
21
-31.664130086649216
31
0
0
LINE
5
175
100
AcDbEntity
8
0
100
AcDbLine
10
-26.330355474082552
20
-31.664130086649216
30
0
11
-25.665112474082548
21
-31.941675086649219
31
0
0
LINE
5
176
100
AcDbEntity
8
0
100
AcDbLine
10
-25.665112474082548
20
-31.941675086649219
30
0
11
-25.052416474082548
21
-32.350375086649201
31
3.8518598887744717e-33
0
LINE
5
177
100
AcDbEntity
8
0
100
AcDbLine
10
-25.052416474082548
20
-32.350375086649201
30
3.8518598887744717e-33
11
-24.467237474082548
21
-32.827761086649204
31
7.7037197775489434e-33
0
LWPOLYLINE
5
178
100
AcDbEntity
8
0
100
AcDbPolyline
90
4
43
0.0
10
-24.46723747408248
20
-32.827761086649154
10
-23.26936302121644
20
-33.7138476406108
10
-22.604119722171372
20
-33.99139253438604
10
-21.86729347408247
20
-34.09026808664921
0
LINE
5
179
100
AcDbEntity
8
0
100
AcDbLine
10
-21.867293474082473
20
-34.090268086649218
30
0
11
-8.0672194740825489
21
-34.090268086649203
31
0
0
LINE
5
180
100
AcDbEntity
8
0
100
AcDbLine
10
-8.0672194740825489
20
-34.090268086649203
30
0
11
-7.5813734740825467
21
-34.135662086649212
31
0
0
LINE
5
181
100
AcDbEntity
8
0
100
AcDbLine
10
-7.5813734740825467
20
-34.135662086649212
30
0
11
-7.1551864740825488
21
-34.26942008664922
31
0
0
LINE
5
182
100
AcDbEntity
8
0
100
AcDbLine
10
-7.1551864740825488
20
-34.26942008664922
30
0
11
-6.7841824740825496
21
-34.484908086649213
31
9.6296497219361793e-33
0
LINE
5
183
100
AcDbEntity
8
0
100
AcDbLine
10
-6.7841824740825496
20
-34.484908086649213
30
9.6296497219361793e-33
11
-6.4617254740825469
21
-34.772301086649207
31
0
0
LINE
5
184
100
AcDbEntity
8
0
100
AcDbLine
10
-6.4617254740825469
20
-34.772301086649207
30
0
11
-6.1796534740825493
21
-35.119507086649207
31
0
0
LINE
5
185
100
AcDbEntity
8
0
100
AcDbLine
10
-6.1796534740825493
20
-35.119507086649207
30
0
11
-5.9287114740825508
21
-35.512822086649209
31
-3.8518598887744717e-33
0
LINE
5
186
100
AcDbEntity
8
0
100
AcDbLine
10
-5.9287114740825508
20
-35.512822086649209
30
-3.8518598887744717e-33
11
-5.4797214740825506
21
-36.377792086649201
31
-7.7037197775489434e-33
0
LWPOLYLINE
5
187
100
AcDbEntity
8
0
100
AcDbPolyline
90
6
43
0.0
10
-5.479721474082755
20
-36.377792086649436
10
-5.030731834039229
20
-37.24276249841209
10
-4.497717879910101
20
-37.98328358750021
10
-3.804256630118784
20
-38.48616444724042
10
-3.378070210173132
20
-38.61992203751664
10
-2.892223474082538
20
-38.66531608664921
0
LINE
5
188
100
AcDbEntity
8
0
100
AcDbLine
10
-2.8922234740825381
20
-38.665316086649213
30
0
11
28.999999525917453
21
-38.665316086649213
31
0
0
LWPOLYLINE
5
189
100
AcDbEntity
8
0
100
AcDbPolyline
90
8
43
0.0
10
29.000000432133675
20
-38.66531608664921
10
29.762242540965577
20
-38.485725817065514
10
30.39372044857104
20
-37.95654716576002
10
30.903999544750153
20
-37.10402176757189
10
31.307217728283348
20
-35.967024069530176
10
31.620722291709527
20
-34.59338824009451
10
31.864116996127017
20
-33.03733648699527
10
32.22601465461608
20
-29.615296098510793
0
LWPOLYLINE
5
190
100
AcDbEntity
8
0
100
AcDbPolyline
90
9
43
0.0
10
10.000000149011612
20
24.409751913350757
10
9.154296570711333
20
24.516018863508553
10
8.435640957771922
20
24.8208988094982
10
7.83230656612772
20
25.292100267884607
10
7.333994269847913
20
25.891929437883626
10
6.936047831250168
20
26.58514712070688
10
6.640845142927803
20
27.34305924138229
10
6.456613098188753
20
28.14521010604005
10
6.393502374426696
20
28.979664753888663
0
LINE
5
191
100
AcDbEntity
8
0
100
AcDbLine
10
6.3935023744266957
20
28.979664753888663
30
0
11
6.3935023744266939
21
39.131977276875233
31
0
0
LWPOLYLINE
5
192
100
AcDbEntity
8
0
100
AcDbPolyline
90
8
43
0.0
10
6.3935023744266966
20
39.131977276875226
10
6.343241085810576
20
39.68615753428301
10
6.197567813233567
20
40.203522733516884
10
5.664445597556512
20
41.10713937925418
10
5.29627392506645
20
41.471298973879044
10
4.866517573748463
20
41.75453250896904
10
4.37440780222701
20
41.93668913228626
10
3.816835936837301
20
42.00000062584878
0
ARC
5
193
100
AcDbEntity
8
0
100
AcDbCircle
10
-81.502423087883713
20
19.604673913350783
30
8.7239040137409266e-47
40
1.0000000000000164
210
1.2088056778989492e-37
220
8.7239040137407837e-47
230
1
100
AcDbArc
50
90
51
179.99887620099932
0
ENDSEC
0
SECTION
2
OBJECTS
0
DICTIONARY
5
C
100
AcDbDictionary
3
ACAD_GROUP
350
D
3
ACAD_MLINESTYLE
350
17
0
DICTIONARY
5
D
100
AcDbDictionary
0
DICTIONARY
5
1A
330
C
100
AcDbDictionary
0
DICTIONARY
5
17
100
AcDbDictionary
0
ENDSEC
0
EOF
