0
SECTION
2
HEADER
9
$INSUNITS
70
4
9
$ACADVER
1
AC1014
9
$HANDSEED
5
FFFF
0
ENDSEC
0
SECTION
2
TABLES
0
TABLE
2
VPORT
5
8
100
AcDbSymbolTable
0
ENDTAB
0
TABLE
2
LTYPE
5
5
100
AcDbSymbolTable
0
LTYPE
5
14
100
AcDbSymbolTableRecord
100
AcDbLinetypeTableRecord
2
BYBLOCK
70
0
0
LTYPE
5
15
100
AcDbSymbolTableRecord
100
AcDbLinetypeTableRecord
2
BYLAYER
70
0
0
ENDTAB
0
TABLE
2
LAYER
5
2
100
AcDbSymbolTable
70
2
0
LAYER
5
50
100
AcDbSymbolTableRecord
100
AcDbLayerTableRecord
2
0
70
0
6
CONTINUOUS
0
ENDTAB
0
TABLE
2
STYLE
5
3
100
AcDbSymbolTable
70
1
0
STYLE
5
11
100
AcDbSymbolTableRecord
100
AcDbTextStyleTableRecord
2
STANDARD
70
0
0
ENDTAB
0
TABLE
2
VIEW
5
6
100
AcDbSymbolTable
70
0
0
ENDTAB
0
TABLE
2
UCS
5
7
100
AcDbSymbolTable
70
0
0
ENDTAB
0
TABLE
2
APPID
5
9
100
AcDbSymbolTable
70
2
0
APPID
5
12
100
AcDbSymbolTableRecord
100
AcDbRegAppTableRecord
2
ACAD
70
0
0
ENDTAB
0
TABLE
2
DIMSTYLE
5
A
100
AcDbSymbolTable
70
1
0
ENDTAB
0
TABLE
2
BLOCK_RECORD
5
1
100
AcDbSymbolTable
70
1
0
BLOCK_RECORD
5
1F
100
AcDbSymbolTableRecord
100
AcDbBlockTableRecord
2
*MODEL_SPACE
0
BLOCK_RECORD
5
1B
100
AcDbSymbolTableRecord
100
AcDbBlockTableRecord
2
*PAPER_SPACE
0
ENDTAB
0
ENDSEC
0
SECTION
2
BLOCKS
0
BLOCK
5
20
100
AcDbEntity
100
AcDbBlockBegin
2
*MODEL_SPACE
0
ENDBLK
5
21
100
AcDbEntity
100
AcDbBlockEnd
0
BLOCK
5
1C
100
AcDbEntity
100
AcDbBlockBegin
2
*PAPER_SPACE
0
ENDBLK
5
1D
100
AcDbEntity
100
AcDbBlockEnd
0
ENDSEC
0
SECTION
2
ENTITIES
0
LWPOLYLINE
5
100
100
AcDbEntity
8
0
100
AcDbPolyline
90
5
43
0.0
10
-10.000000149011612
20
-22.409751913350753
10
-7.415703029214627
20
-22.956291344686573
10
-5.368252340101641
20
-24.349774051969497
10
-3.951167718332058
20
-26.37880869954233
10
-3.3935023744266957
20
-28.979664753888663
0
LINE
5
101
100
AcDbEntity
8
0
100
AcDbLine
10
-3.3935023744266957
20
-28.979664753888663
30
0
11
-3.3935023744266957
21
-38.259329710161325
31
0
0
LWPOLYLINE
5
102
100
AcDbEntity
8
0
100
AcDbPolyline
90
3
43
0.0
10
-3.393502374426696
20
-38.259329710161325
10
-2.8814333328489017
20
-39.50171057480771
10
-2.0000000298023224
20
-40.00000062584876
0
LINE
5
103
100
AcDbEntity
8
0
100
AcDbLine
10
-2.0000000298023224
20
-40.00000062584877
30
0
11
8.5000001266598701
21
-40.00000062584877
31
0
0
LWPOLYLINE
5
104
100
AcDbEntity
8
0
100
AcDbPolyline
90
3
43
0.0
10
8.50000012665987
20
-40.00000062584876
10
12.76713282887365
20
-40.62498382419392
10
16.464109743992065
20
-41.65892384985039
0
LINE
5
105
100
AcDbEntity
8
0
100
AcDbLine
10
16.464109743992065
20
-41.658923849850389
30
0
11
28.93878373129909
21
-45.001508767484182
31
0
0
LWPOLYLINE
5
106
100
AcDbEntity
8
0
100
AcDbPolyline
90
3
43
0.0
10
28.93878373129909
20
-45.00150876748418
10
31.797565998754756
20
-46.139442605140324
10
34.22915882071766
20
-47.48317854740639
0
LINE
5
107
100
AcDbEntity
8
0
100
AcDbLine
10
34.229158820717657
20
-47.483178547406396
30
0
11
46.180366820717637
21
-54.383088547406388
31
0
0
LWPOLYLINE
5
108
100
AcDbEntity
8
0
100
AcDbPolyline
90
2
43
0.0
10
46.18036682071763
20
-54.38308854740638
10
46.96573382236173
20
-54.172649453878115
0
LINE
5
109
100
AcDbEntity
8
0
100
AcDbLine
10
46.965733822361734
20
-54.172649453878122
30
0
11
53.86589782236171
21
-42.22169545387807
31
0
0
LWPOLYLINE
5
110
100
AcDbEntity
8
0
100
AcDbPolyline
90
9
43
0.0
10
53.8658978223617
20
-42.22169545387807
10
54.61201277869964
20
-40.35826586594366
10
55.32768277262211
20
-37.43521762636808
10
56.664133458607516
20
-29.84369615842516
10
57.53237913676406
20
-25.966344217018957
10
58.81030059216068
20
-22.504507653503197
10
60.944946229908595
20
-19.75837511570499
10
62.50829357815551
20
-18.90175773362178
10
64.30292991203922
20
-18.604673913350744
0
LINE
5
111
100
AcDbEntity
8
0
100
AcDbLine
10
64.302929912039218
20
-18.604673913350748
30
0
11
86.726376492167503
21
-18.604673913350748
31
0
0
LWPOLYLINE
5
112
100
AcDbEntity
8
0
100
AcDbPolyline
90
3
43
0.0
10
86.72637649216749
20
-18.604673913350744
10
88.20531903410955
20
-18.05350276644153
10
88.7571754740825
20
-16.91818260349392
0
LINE
5
113
100
AcDbEntity
8
0
100
AcDbLine
10
88.757175474082501
20
-16.918182603493925
30
0
11
88.757175474082402
21
25.846951514269119
31
0
0
LWPOLYLINE
5
114
100
AcDbEntity
8
0
100
AcDbPolyline
90
3
43
0.0
10
88.75717547408239
20
25.84695151426912
10
87.50339792319359
20
27.71863186356083
10
86.40546901123773
20
28.20546208664922
0
LINE
5
115
100
AcDbEntity
8
0
100
AcDbLine
10
86.405469011237727
20
28.20546208664922
30
0
11
46.052157474082506
21
28.20546208664922
31
0
0
LWPOLYLINE
5
116
100
AcDbEntity
8
0
100
AcDbPolyline
90
5
43
0.0
10
46.0521574740825
20
28.20546208664922
10
44.16560707677208
20
28.491880176527015
10
42.68576494791511
20
29.03584967583167
10
41.62832847081192
20
29.44338163536918
10
40.86725547408251
20
29.56525408664922
0
LINE
5
117
100
AcDbEntity
8
0
100
AcDbLine
10
40.867255474082512
20
29.565254086649219
30
0
11
27.067181474082549
21
29.565254086649226
31
0
0
LWPOLYLINE
5
118
100
AcDbEntity
8
0
100
AcDbPolyline
90
5
43
0.0
10
27.06718147408255
20
29.56525408664922
10
24.694312091586355
20
30.193039526720103
10
23.175792083243046
20
31.294258333933918
10
22.30431475671699
20
31.96010257145142
10
21.867293474082476
20
32.09026808664922
0
LINE
5
119
100
AcDbEntity
8
0
100
AcDbLine
10
21.867293474082476
20
32.090268086649218
30
0
11
8.0672194740825454
21
32.090268086649225
31
0
0
LWPOLYLINE
5
120
100
AcDbEntity
8
0
100
AcDbPolyline
90
6
43
0.0
10
8.067219474082545
20
32.09026808664922
10
6.658239420151609
20
32.32504562297045
10
5.4465019162231885
20
32.99102901836606
10
4.054271429661293
20
34.76286216575678
10
3.348054343219881
20
36.15526429931462
10
2.9934691668432394
20
36.65717566956678
0
LWPOLYLINE
5
121
100
AcDbEntity
8
0
100
AcDbPolyline
90
2
43
0.0
10
2.993469166843171
20
36.65717566956696
10
2.892223474082538
20
36.665316086649206
0
LINE
5
122
100
AcDbEntity
8
0
100
AcDbLine
10
2.8922234740825381
20
36.665316086649213
30
0
11
-28.865125105422024
21
36.665316086649199
31
0
0
LWPOLYLINE
5
123
100
AcDbEntity
8
0
100
AcDbPolyline
90
8
43
0.0
10
-28.865125105422024
20
36.6653160866492
10
-29.33787250351426
20
35.57017784646275
10
-29.788985474710124
20
33.393045217845646
10
-30.406972328884038
20
27.575806885514595
10
-31.33673000047209
20
22.02064837111416
10
-32.527125922675864
20
19.769156175835537
10
-33.65929054819188
20
18.90371284456905
10
-35.13284652591743
20
18.565276086649238
0
LINE
5
124
100
AcDbEntity
8
0
100
AcDbLine
10
-35.132846525917429
20
18.565276086649238
30
0
11
-48.932666525917448
21
18.565276086649234
31
0
0
LWPOLYLINE
5
125
100
AcDbEntity
8
0
100
AcDbPolyline
90
2
43
0.0
10
-48.93266652591745
20
18.565276086649238
10
-49.50759652591744
20
17.990346086649232
0
LINE
5
126
100
AcDbEntity
8
0
100
AcDbLine
10
-49.50759652591745
20
17.990346086649232
30
0
11
-49.50759652591745
21
-33.809651913350756
31
0
0
LWPOLYLINE
5
127
100
AcDbEntity
8
0
100
AcDbPolyline
90
2
43
0.0
10
-49.50759652591744
20
-33.809651913350756
10
-48.932666525917455
20
-34.38458191335075
0
LINE
5
128
100
AcDbEntity
8
0
100
AcDbLine
10
-48.932666525917455
20
-34.384581913350758
30
0
11
-35.132846525917415
21
-34.384581913350758
31
0
0
LWPOLYLINE
5
129
100
AcDbEntity
8
0
100
AcDbPolyline
90
2
43
0.0
10
-35.13284652591741
20
-34.38458191335075
10
-35.09357134902146
20
-34.38339872788969
0
LWPOLYLINE
5
130
100
AcDbEntity
8
0
100
AcDbPolyline
90
8
43
0.0
10
-35.09357134902146
20
-34.3833987278897
10
-34.82751885508587
20
-33.78574486821707
10
-34.56609202727803
20
-32.46007625068878
10
-34.24169409957139
20
-28.744936855345376
10
-33.47049243542844
20
-24.893172216519357
10
-32.17364664417491
20
-23.166375546503026
10
-31.11027026210181
20
-22.592870528463695
10
-29.932704525917444
20
-22.409751913350753
0
LINE
5
131
100
AcDbEntity
8
0
100
AcDbLine
10
-29.932704525917444
20
-22.409751913350753
30
0
11
-10.000000149011612
21
-22.409751913350753
31
0
0
LWPOLYLINE
5
132
100
AcDbEntity
8
0
100
AcDbPolyline
90
5
43
0.0
10
86.72637649216749
20
-20.604673913350744
10
88.25423805362627
20
-20.324504891625843
10
89.52071138169195
20
-19.562068597944656
10
90.41837493656247
20
-18.420545691210492
10
90.7571754740825
20
-16.91818260349392
0
LWPOLYLINE
5
133
100
AcDbEntity
8
0
100
AcDbPolyline
90
5
43
0.0
10
-48.93266652591745
20
20.565276086649238
10
-49.94817457277194
20
20.360011065866573
10
-50.750909140979864
20
19.80858870171086
10
-51.30233150513541
20
19.005854133503444
10
-51.50759652591746
20
17.990346086649236
0
ENDSEC
0
SECTION
2
OBJECTS
0
DICTIONARY
5
C
100
AcDbDictionary
3
ACAD_GROUP
350
D
3
ACAD_MLINESTYLE
350
17
0
DICTIONARY
5
D
100
AcDbDictionary
0
DICTIONARY
5
1A
330
C
100
AcDbDictionary
0
DICTIONARY
5
17
100
AcDbDictionary
0
ENDSEC
0
EOF
