0
SECTION
2
HEADER
9
$INSUNITS
70
4
9
$ACADVER
1
AC1014
9
$HANDSEED
5
FFFF
0
ENDSEC
0
SECTION
2
TABLES
0
TABLE
2
VPORT
5
8
100
AcDbSymbolTable
0
ENDTAB
0
TABLE
2
LTYPE
5
5
100
AcDbSymbolTable
0
LTYPE
5
14
100
AcDbSymbolTableRecord
100
AcDbLinetypeTableRecord
2
BYBLOCK
70
0
0
LTYPE
5
15
100
AcDbSymbolTableRecord
100
AcDbLinetypeTableRecord
2
BYLAYER
70
0
0
ENDTAB
0
TABLE
2
LAYER
5
2
100
AcDbSymbolTable
70
2
0
LAYER
5
50
100
AcDbSymbolTableRecord
100
AcDbLayerTableRecord
2
0
70
0
6
CONTINUOUS
0
ENDTAB
0
TABLE
2
STYLE
5
3
100
AcDbSymbolTable
70
1
0
STYLE
5
11
100
AcDbSymbolTableRecord
100
AcDbTextStyleTableRecord
2
STANDARD
70
0
0
ENDTAB
0
TABLE
2
VIEW
5
6
100
AcDbSymbolTable
70
0
0
ENDTAB
0
TABLE
2
UCS
5
7
100
AcDbSymbolTable
70
0
0
ENDTAB
0
TABLE
2
APPID
5
9
100
AcDbSymbolTable
70
2
0
APPID
5
12
100
AcDbSymbolTableRecord
100
AcDbRegAppTableRecord
2
ACAD
70
0
0
ENDTAB
0
TABLE
2
DIMSTYLE
5
A
100
AcDbSymbolTable
70
1
0
ENDTAB
0
TABLE
2
BLOCK_RECORD
5
1
100
AcDbSymbolTable
70
1
0
BLOCK_RECORD
5
1F
100
AcDbSymbolTableRecord
100
AcDbBlockTableRecord
2
*MODEL_SPACE
0
BLOCK_RECORD
5
1B
100
AcDbSymbolTableRecord
100
AcDbBlockTableRecord
2
*PAPER_SPACE
0
ENDTAB
0
ENDSEC
0
SECTION
2
BLOCKS
0
BLOCK
5
20
100
AcDbEntity
100
AcDbBlockBegin
2
*MODEL_SPACE
0
ENDBLK
5
21
100
AcDbEntity
100
AcDbBlockEnd
0
BLOCK
5
1C
100
AcDbEntity
100
AcDbBlockBegin
2
*PAPER_SPACE
0
ENDBLK
5
1D
100
AcDbEntity
100
AcDbBlockEnd
0
ENDSEC
0
SECTION
2
ENTITIES
0
LINE
5
100
100
AcDbEntity
8
0
100
AcDbLine
10
-78.002502638148727
20
-28.205467085111824
30
0
11
-45.973286612816928
21
-28.205462074305441
31
0
0
LINE
5
101
100
AcDbEntity
8
0
100
AcDbLine
10
-45.973286612816928
20
-28.205462074305441
30
0
11
-45.074494784546502
21
-28.276461115169312
31
0
0
LINE
5
102
100
AcDbEntity
8
0
100
AcDbLine
10
-45.074494784546502
20
-28.276461115169312
30
0
11
-44.14677529576187
21
-28.4889147229703
31
0
0
LINE
5
103
100
AcDbEntity
8
0
100
AcDbLine
10
-44.14677529576187
20
-28.4889147229703
30
0
11
-42.719629086677784
21
-29.026958790974
31
0
0
LWPOLYLINE
5
104
100
AcDbEntity
8
0
100
AcDbPolyline
90
3
43
0.0
10
-42.719629086677784
20
-29.026958790973996
10
-41.64570488516279
20
-29.43567587463822
10
-40.867255474082505
20
-29.56525408664922
0
LINE
5
105
100
AcDbEntity
8
0
100
AcDbLine
10
-40.867255474082505
20
-29.565254086649219
30
0
11
-27.001005478160643
21
-29.565254086649205
31
0
0
LINE
5
106
100
AcDbEntity
8
0
100
AcDbLine
10
-27.001005478160643
20
-29.565254086649205
30
0
11
-26.420028742698001
21
-29.603742938922146
31
0
0
LINE
5
107
100
AcDbEntity
8
0
100
AcDbLine
10
-26.420028742698001
20
-29.603742938922146
30
0
11
-25.738249999250506
21
-29.744077840380925
31
0
0
LINE
5
108
100
AcDbEntity
8
0
100
AcDbLine
10
-25.738249999250506
20
-29.744077840380925
30
0
11
-24.716339746526124
21
-30.170427431571497
31
0
0
LINE
5
109
100
AcDbEntity
8
0
100
AcDbLine
10
-24.716339746526124
20
-30.170427431571497
30
0
11
-23.862624423302332
21
-30.739899816900515
31
0
0
LINE
5
110
100
AcDbEntity
8
0
100
AcDbLine
10
-23.862624423302332
20
-30.739899816900515
30
0
11
-23.190775291363217
21
-31.287990862033372
31
0
0
LWPOLYLINE
5
111
100
AcDbEntity
8
0
100
AcDbPolyline
90
3
43
0.0
10
-23.19077529136321
20
-31.28799086203337
10
-22.302981087528284
20
-31.95986899681437
10
-21.867293474082476
20
-32.09026808664922
0
LINE
5
112
100
AcDbEntity
8
0
100
AcDbLine
10
-21.867293474082476
20
-32.090268086649218
30
0
11
-7.9739896008253197
21
-32.090268086649203
31
0
0
LINE
5
113
100
AcDbEntity
8
0
100
AcDbLine
10
-7.9739896008253197
20
-32.090268086649203
30
0
11
-7.1845002682737125
21
-32.164032363316814
31
0
0
LINE
5
114
100
AcDbEntity
8
0
100
AcDbLine
10
-7.1845002682737125
20
-32.164032363316814
30
0
11
-6.343521400283203
21
-32.427972022256853
31
0
0
LINE
5
115
100
AcDbEntity
8
0
100
AcDbLine
10
-6.343521400283203
20
-32.427972022256853
30
0
11
-5.6046151765769903
21
-32.857146436370996
31
0
0
LINE
5
116
100
AcDbEntity
8
0
100
AcDbLine
10
-5.6046151765769903
20
-32.857146436370996
30
0
11
-5.0108917548201326
21
-33.386308325704967
31
0
0
LINE
5
117
100
AcDbEntity
8
0
100
AcDbLine
10
-5.0108917548201326
20
-33.386308325704967
30
0
11
-4.5551692919081876
21
-33.947262881484363
31
0
0
LINE
5
118
100
AcDbEntity
8
0
100
AcDbLine
10
-4.5551692919081876
20
-33.947262881484363
30
0
11
-4.1946920242237073
21
-34.512258444360732
31
7.7037197775489434e-33
0
LINE
5
119
100
AcDbEntity
8
0
100
AcDbLine
10
-4.1946920242237073
20
-34.512258444360732
30
7.7037197775489434e-33
11
-3.694196308115858
21
-35.476453147053178
31
0
0
LWPOLYLINE
5
120
100
AcDbEntity
8
0
100
AcDbPolyline
90
3
43
0.0
10
-3.6941963081158593
20
-35.47645314705317
10
-3.223601002561588
20
-36.35754086493447
10
-2.9934691668429934
20
-36.65717566956697
0
LWPOLYLINE
5
121
100
AcDbEntity
8
0
100
AcDbPolyline
90
2
43
0.0
10
-2.993469166843039
20
-36.65717566956698
10
-2.892223474082538
20
-36.665316086649206
0
LINE
5
122
100
AcDbEntity
8
0
100
AcDbLine
10
-2.8922234740825381
20
-36.665316086649213
30
0
11
28.86512510542201
21
-36.66531608664922
31
5.4738221262688167e-47
0
LWPOLYLINE
5
123
100
AcDbEntity
8
0
100
AcDbPolyline
90
4
43
0.0
10
28.86512510542201
20
-36.66531608664922
10
29.25989354977392
20
-35.82021438980034
10
29.662818724644556
20
-34.14609522379403
10
30.234444178773664
20
-29.431864804144734
0
LINE
5
124
100
AcDbEntity
8
0
100
AcDbLine
10
30.234444178773664
20
-29.431864804144734
30
0
11
30.39882985046156
21
-27.673147767076976
31
0
0
LINE
5
125
100
AcDbEntity
8
0
100
AcDbLine
10
30.39882985046156
20
-27.673147767076976
30
0
11
30.584353938136999
21
-25.946443821814675
31
0
0
LINE
5
126
100
AcDbEntity
8
0
100
AcDbLine
10
30.584353938136999
20
-25.946443821814675
30
0
11
30.814723038814591
21
-24.316140061768984
31
0
0
LINE
5
127
100
AcDbEntity
8
0
100
AcDbLine
10
30.814723038814591
20
-24.316140061768984
30
0
11
30.960670216818677
21
-23.52316739991781
31
0
0
LINE
5
128
100
AcDbEntity
8
0
100
AcDbLine
10
30.960670216818677
20
-23.52316739991781
30
0
11
31.129532927141497
21
-22.773464910649537
31
0
0
LINE
5
129
100
AcDbEntity
8
0
100
AcDbLine
10
31.129532927141497
20
-22.773464910649537
30
0
11
31.330667587442782
21
-22.056299367225094
31
0
0
LINE
5
130
100
AcDbEntity
8
0
100
AcDbLine
10
31.330667587442782
20
-22.056299367225094
30
0
11
31.574866019227478
21
-21.370110777833066
31
0
0
LINE
5
131
100
AcDbEntity
8
0
100
AcDbLine
10
31.574866019227478
20
-21.370110777833066
30
0
11
31.879142502408058
21
-20.711900984494203
31
0
0
LINE
5
132
100
AcDbEntity
8
0
100
AcDbLine
10
31.879142502408058
20
-20.711900984494203
30
0
11
32.270183519714777
21
-20.081323658272506
31
1.9259299443872359e-32
0
LINE
5
133
100
AcDbEntity
8
0
100
AcDbLine
10
32.270183519714777
20
-20.081323658272506
30
1.9259299443872359e-32
11
32.784613607606026
21
-19.492313208876023
31
0
0
LINE
5
134
100
AcDbEntity
8
0
100
AcDbLine
10
32.784613607606026
20
-19.492313208876023
30
0
11
33.453376209336618
21
-18.991883159450182
31
0
0
LINE
5
135
100
AcDbEntity
8
0
100
AcDbLine
10
33.453376209336618
20
-18.991883159450182
30
0
11
34.260782645143657
21
-18.659436367334258
31
0
0
LINE
5
136
100
AcDbEntity
8
0
100
AcDbLine
10
34.260782645143657
20
-18.659436367334258
30
0
11
35.007193768894524
21
-18.565276086649206
31
0
0
LINE
5
137
100
AcDbEntity
8
0
100
AcDbLine
10
35.007193768894524
20
-18.565276086649206
30
0
11
48.932666525917455
21
-18.565276086649238
31
0
0
LWPOLYLINE
5
138
100
AcDbEntity
8
0
100
AcDbPolyline
90
2
43
0.0
10
48.93266652591745
20
-18.565276086649238
10
49.50759652591744
20
-17.990346086649232
0
LINE
5
139
100
AcDbEntity
8
0
100
AcDbLine
10
49.50759652591745
20
-17.990346086649232
30
0
11
49.50759652591745
21
33.809651913350756
31
0
0
LWPOLYLINE
5
140
100
AcDbEntity
8
0
100
AcDbPolyline
90
2
43
0.0
10
49.50759652591744
20
33.809651913350756
10
48.932666525917455
20
34.38458191335075
0
LINE
5
141
100
AcDbEntity
8
0
100
AcDbLine
10
48.932666525917455
20
34.384581913350758
30
0
11
35.132846525917401
21
34.384581913350758
31
7.6193521853625809e-65
0
LWPOLYLINE
5
142
100
AcDbEntity
8
0
100
AcDbPolyline
90
2
43
0.0
10
35.13284652591741
20
34.38458191335075
10
35.09357134902141
20
34.38339872788969
0
LWPOLYLINE
5
143
100
AcDbEntity
8
0
100
AcDbPolyline
90
4
43
0.0
10
35.09357134902144
20
34.383398727889684
10
34.88710945086172
20
33.96410359354763
10
34.656139674661425
20
33.03570633445975
10
34.35244887894497
20
30.24188927307533
0
LINE
5
144
100
AcDbEntity
8
0
100
AcDbLine
10
34.352448878944969
20
30.24188927307533
30
0
11
34.157196269337476
21
27.908123461479448
31
0
0
LINE
5
145
100
AcDbEntity
8
0
100
AcDbLine
10
34.157196269337476
20
27.908123461479448
30
0
11
33.98935113962694
21
26.733756253398155
31
0
0
LINE
5
146
100
AcDbEntity
8
0
100
AcDbLine
10
33.98935113962694
20
26.733756253398155
30
0
11
33.722937862809992
21
25.5947307982483
31
0
0
LINE
5
147
100
AcDbEntity
8
0
100
AcDbLine
10
33.722937862809992
20
25.5947307982483
30
0
11
33.306435262167049
21
24.546127235540816
31
0
0
LINE
5
148
100
AcDbEntity
8
0
100
AcDbLine
10
33.306435262167049
20
24.546127235540816
30
0
11
32.951393497953411
21
23.964407770617456
31
0
0
LINE
5
149
100
AcDbEntity
8
0
100
AcDbLine
10
32.951393497953411
20
23.964407770617456
30
0
11
32.521607872379079
21
23.452979351767816
31
0
0
LINE
5
150
100
AcDbEntity
8
0
100
AcDbLine
10
32.521607872379079
20
23.452979351767816
30
0
11
31.9790955683889
21
23.004416880661545
31
0
0
LINE
5
151
100
AcDbEntity
8
0
100
AcDbLine
10
31.9790955683889
20
23.004416880661545
30
0
11
31.337977822522156
21
22.664168466834997
31
0
0
LINE
5
152
100
AcDbEntity
8
0
100
AcDbLine
10
31.337977822522156
20
22.664168466834997
30
0
11
30.641794771347335
21
22.463904181679979
31
0
0
LINE
5
153
100
AcDbEntity
8
0
100
AcDbLine
10
30.641794771347335
20
22.463904181679979
30
0
11
30.019570493941885
21
22.409751913350799
31
0
0
LINE
5
154
100
AcDbEntity
8
0
100
AcDbLine
10
30.019570493941885
20
22.409751913350799
30
0
11
10.000000149011621
21
22.409751913350753
31
0
0
LWPOLYLINE
5
155
100
AcDbEntity
8
0
100
AcDbPolyline
90
5
43
0.0
10
10.000000149011612
20
22.409751913350753
10
7.415703029214627
20
22.956291344686573
10
5.368252340101641
20
24.349774051969497
10
3.951167718332058
20
26.37880869954233
10
3.3935023744266957
20
28.979664753888663
0
LINE
5
156
100
AcDbEntity
8
0
100
AcDbLine
10
3.3935023744266957
20
28.979664753888663
30
0
11
3.3935023744267045
21
38.259329710161332
31
0
0
LWPOLYLINE
5
157
100
AcDbEntity
8
0
100
AcDbPolyline
90
3
43
0.0
10
3.393502374426696
20
38.259329710161325
10
2.8814333328489017
20
39.50171057480771
10
2.0000000298023224
20
40.00000062584876
0
LINE
5
158
100
AcDbEntity
8
0
100
AcDbLine
10
2.0000000298023224
20
40.00000062584877
30
0
11
-8.5000001266598701
21
40.00000062584877
31
5.7974088892788015e-65
0
LWPOLYLINE
5
159
100
AcDbEntity
8
0
100
AcDbPolyline
90
3
43
0.0
10
-8.50000012665987
20
40.00000062584876
10
-12.403343823298258
20
40.53290163633471
10
-15.803304116452024
20
41.47846676322709
0
LINE
5
160
100
AcDbEntity
8
0
100
AcDbLine
10
-15.803304116452024
20
41.47846676322709
30
0
11
-15.838528452539569
21
41.491299080296933
31
0
0
LINE
5
161
100
AcDbEntity
8
0
100
AcDbLine
10
-15.838528452539569
20
41.491299080296933
30
0
11
-29.002496571341272
21
45.018580140699044
31
0
0
LINE
5
162
100
AcDbEntity
8
0
100
AcDbLine
10
-29.002496571341272
20
45.018580140699044
30
0
11
-30.430116056662044
21
45.503966136134082
31
-7.7037197775489434e-33
0
LINE
5
163
100
AcDbEntity
8
0
100
AcDbLine
10
-30.430116056662044
20
45.503966136134082
30
-7.7037197775489434e-33
11
-31.798130022797608
21
46.138268271717379
31
0
0
LINE
5
164
100
AcDbEntity
8
0
100
AcDbLine
10
-31.798130022797608
20
46.138268271717379
30
0
11
-34.213227401643749
21
47.473980378160448
31
0
0
LINE
5
165
100
AcDbEntity
8
0
100
AcDbLine
10
-34.213227401643749
20
47.473980378160448
30
0
11
-46.180366947105689
21
54.383088620375233
31
0
0
LWPOLYLINE
5
166
100
AcDbEntity
8
0
100
AcDbPolyline
90
2
43
0.0
10
-46.18036694710569
20
54.38308862037523
10
-46.96573382236173
20
54.172649453878115
0
LINE
5
167
100
AcDbEntity
8
0
100
AcDbLine
10
-46.965733822361734
20
54.172649453878122
30
0
11
-53.846580963034981
21
42.255152633339804
31
0
0
LINE
5
168
100
AcDbEntity
8
0
100
AcDbLine
10
-53.846580963034981
20
42.255152633339804
30
0
11
-54.049885088840782
21
41.869352290890305
31
0
0
LINE
5
169
100
AcDbEntity
8
0
100
AcDbLine
10
-54.049885088840782
20
41.869352290890305
30
0
11
-54.239624856669963
21
41.441836679217595
31
0
0
LINE
5
170
100
AcDbEntity
8
0
100
AcDbLine
10
-54.239624856669963
20
41.441836679217595
30
0
11
-54.430651762229097
21
40.937690133218602
31
0
0
LINE
5
171
100
AcDbEntity
8
0
100
AcDbLine
10
-54.430651762229097
20
40.937690133218602
30
0
11
-54.619626210349537
21
40.360991580839595
31
0
0
LINE
5
172
100
AcDbEntity
8
0
100
AcDbLine
10
-54.619626210349537
20
40.360991580839595
30
0
11
-54.804521415602508
21
39.716700087335767
31
0
0
LINE
5
173
100
AcDbEntity
8
0
100
AcDbLine
10
-54.804521415602508
20
39.716700087335767
30
0
11
-54.981906757619321
21
39.019839655285992
31
0
0
LINE
5
174
100
AcDbEntity
8
0
100
AcDbLine
10
-54.981906757619321
20
39.019839655285992
30
0
11
-55.329110451946455
21
37.430268912528526
31
0
0
LINE
5
175
100
AcDbEntity
8
0
100
AcDbLine
10
-55.329110451946455
20
37.430268912528526
30
0
11
-55.657274004276687
21
35.676455806986112
31
0
0
LINE
5
176
100
AcDbEntity
8
0
100
AcDbLine
10
-55.657274004276687
20
35.676455806986112
30
0
11
-55.980671218959166
21
33.788260595663651
31
0
0
LINE
5
177
100
AcDbEntity
8
0
100
AcDbLine
10
-55.980671218959166
20
33.788260595663651
30
0
11
-56.666246594366029
21
29.843085458936997
31
0
0
LINE
5
178
100
AcDbEntity
8
0
100
AcDbLine
10
-56.666246594366029
20
29.843085458936997
30
0
11
-57.068731534725821
21
27.865216158894821
31
0
0
LINE
5
179
100
AcDbEntity
8
0
100
AcDbLine
10
-57.068731534725821
20
27.865216158894821
30
0
11
-57.534126677774694
21
25.975442116872731
31
0
0
LINE
5
180
100
AcDbEntity
8
0
100
AcDbLine
10
-57.534126677774694
20
25.975442116872731
30
0
11
-57.807155958936328
21
25.047056741211993
31
0
0
LINE
5
181
100
AcDbEntity
8
0
100
AcDbLine
10
-57.807155958936328
20
25.047056741211993
30
0
11
-58.105492533467981
21
24.161990981809982
31
0
0
LINE
5
182
100
AcDbEntity
8
0
100
AcDbLine
10
-58.105492533467981
20
24.161990981809982
30
0
11
-58.438458537138452
21
23.311774734284274
31
-7.7037197775489434e-33
0
LINE
5
183
100
AcDbEntity
8
0
100
AcDbLine
10
-58.438458537138452
20
23.311774734284274
30
-7.7037197775489434e-33
11
-58.813197586806851
21
22.500062098121106
31
0
0
LINE
5
184
100
AcDbEntity
8
0
100
AcDbLine
10
-58.813197586806851
20
22.500062098121106
30
0
11
-59.23879999145808
21
21.73080323202737
31
0
0
LINE
5
185
100
AcDbEntity
8
0
100
AcDbLine
10
-59.23879999145808
20
21.73080323202737
30
0
11
-59.726612050438717
21
21.009492601653879
31
0
0
LINE
5
186
100
AcDbEntity
8
0
100
AcDbLine
10
-59.726612050438717
20
21.009492601653879
30
0
11
-60.289634422437175
21
20.345454437527035
31
0
0
LINE
5
187
100
AcDbEntity
8
0
100
AcDbLine
10
-60.289634422437175
20
20.345454437527035
30
0
11
-60.939733424589676
21
19.754715529997835
31
0
0
LINE
5
188
100
AcDbEntity
8
0
100
AcDbLine
10
-60.939733424589676
20
19.754715529997835
30
0
11
-61.68173250460309
21
19.261275612059514
31
0
0
LINE
5
189
100
AcDbEntity
8
0
100
AcDbLine
10
-61.68173250460309
20
19.261275612059514
30
0
11
-62.506390385286096
21
18.892909707199273
31
0
0
LINE
5
190
100
AcDbEntity
8
0
100
AcDbLine
10
-62.506390385286096
20
18.892909707199273
30
0
11
-63.388964378192185
21
18.670569160851862
31
0
0
LINE
5
191
100
AcDbEntity
8
0
100
AcDbLine
10
-63.388964378192185
20
18.670569160851862
30
0
11
-64.224154366492499
21
18.604673913350798
31
0
0
LINE
5
192
100
AcDbEntity
8
0
100
AcDbLine
10
-64.224154366492499
20
18.604673913350798
30
0
11
-80.502442701684885
21
18.604673913350798
31
8.9877992467082722e-65
0
LINE
5
193
100
AcDbEntity
8
0
100
AcDbLine
10
-80.502442701684885
20
18.604673913350798
30
8.9877992467082722e-65
11
-80.503314554375464
21
-25.84587052918647
31
0
0
ARC
5
194
100
AcDbEntity
8
0
100
AcDbCircle
10
-78.002849474082552
20
-25.700797086649203
30
0
40
2.5046700224767893
210
0
220
0
230
1
100
AcDbArc
50
183.3204975465971
51
270.00793407318201
0
ENDSEC
0
SECTION
2
OBJECTS
0
DICTIONARY
5
C
100
AcDbDictionary
3
ACAD_GROUP
350
D
3
ACAD_MLINESTYLE
350
17
0
DICTIONARY
5
D
100
AcDbDictionary
0
DICTIONARY
5
1A
330
C
100
AcDbDictionary
0
DICTIONARY
5
17
100
AcDbDictionary
0
ENDSEC
0
EOF
