0
SECTION
2
HEADER
9
$INSUNITS
70
4
9
$ACADVER
1
AC1014
9
$HANDSEED
5
FFFF
0
ENDSEC
0
SECTION
2
TABLES
0
TABLE
2
VPORT
5
8
100
AcDbSymbolTable
0
ENDTAB
0
TABLE
2
LTYPE
5
5
100
AcDbSymbolTable
0
LTYPE
5
14
100
AcDbSymbolTableRecord
100
AcDbLinetypeTableRecord
2
BYBLOCK
70
0
0
LTYPE
5
15
100
AcDbSymbolTableRecord
100
AcDbLinetypeTableRecord
2
BYLAYER
70
0
0
ENDTAB
0
TABLE
2
LAYER
5
2
100
AcDbSymbolTable
70
2
0
LAYER
5
50
100
AcDbSymbolTableRecord
100
AcDbLayerTableRecord
2
0
70
0
6
CONTINUOUS
0
ENDTAB
0
TABLE
2
STYLE
5
3
100
AcDbSymbolTable
70
1
0
STYLE
5
11
100
AcDbSymbolTableRecord
100
AcDbTextStyleTableRecord
2
STANDARD
70
0
0
ENDTAB
0
TABLE
2
VIEW
5
6
100
AcDbSymbolTable
70
0
0
ENDTAB
0
TABLE
2
UCS
5
7
100
AcDbSymbolTable
70
0
0
ENDTAB
0
TABLE
2
APPID
5
9
100
AcDbSymbolTable
70
2
0
APPID
5
12
100
AcDbSymbolTableRecord
100
AcDbRegAppTableRecord
2
ACAD
70
0
0
ENDTAB
0
TABLE
2
DIMSTYLE
5
A
100
AcDbSymbolTable
70
1
0
ENDTAB
0
TABLE
2
BLOCK_RECORD
5
1
100
AcDbSymbolTable
70
1
0
BLOCK_RECORD
5
1F
100
AcDbSymbolTableRecord
100
AcDbBlockTableRecord
2
*MODEL_SPACE
0
BLOCK_RECORD
5
1B
100
AcDbSymbolTableRecord
100
AcDbBlockTableRecord
2
*PAPER_SPACE
0
ENDTAB
0
ENDSEC
0
SECTION
2
BLOCKS
0
BLOCK
5
20
100
AcDbEntity
100
AcDbBlockBegin
2
*MODEL_SPACE
0
ENDBLK
5
21
100
AcDbEntity
100
AcDbBlockEnd
0
BLOCK
5
1C
100
AcDbEntity
100
AcDbBlockBegin
2
*PAPER_SPACE
0
ENDBLK
5
1D
100
AcDbEntity
100
AcDbBlockEnd
0
ENDSEC
0
SECTION
2
ENTITIES
0
LINE
5
100
100
AcDbEntity
8
0
100
AcDbLine
10
-16.132630525917442
20
-24.409751913350757
30
0
11
-29.932704525917444
21
-24.409751913350757
31
0
0
LWPOLYLINE
5
101
100
AcDbEntity
8
0
100
AcDbPolyline
90
5
43
0.0
10
86.72637649216749
20
-20.604673913350744
10
88.25423805362627
20
-20.324504891625843
10
89.52071138169195
20
-19.562068597944656
10
90.41837493656247
20
-18.420545691210492
10
90.7571754740825
20
-16.91818260349392
0
LINE
5
102
100
AcDbEntity
8
0
100
AcDbLine
10
-35.132846525917415
20
-36.384581913350758
30
0
11
-48.932666525917448
21
-36.384581913350758
31
0
0
LWPOLYLINE
5
103
100
AcDbEntity
8
0
100
AcDbPolyline
90
4
43
0.0
10
90.75717547408249
20
26.313999623176485
10
89.06869931294686
20
28.975030912095228
10
87.92498613862108
20
29.866021259291692
10
86.40546901123773
20
30.205462086649217
0
LINE
5
104
100
AcDbEntity
8
0
100
AcDbLine
10
-51.50759652591745
20
-33.809651913350756
30
0
11
-51.50759652591745
21
-20.009577913350736
31
0
0
LINE
5
105
100
AcDbEntity
8
0
100
AcDbLine
10
-51.50759652591745
20
-20.009577913350736
30
0
11
-51.50759652591745
21
4.1902720866492338
31
0
0
LINE
5
106
100
AcDbEntity
8
0
100
AcDbLine
10
-51.50759652591745
20
4.1902720866492338
30
0
11
-51.50759652591745
21
17.990346086649236
31
0
0
LWPOLYLINE
5
107
100
AcDbEntity
8
0
100
AcDbPolyline
90
8
43
0.0
10
55.59793121547845
20
-43.22172561598745
10
56.53177162014022
20
-40.94842652657338
10
57.28946020851405
20
-37.827675615854076
10
58.63180165734415
20
-30.21377933472034
10
59.4654458581252
20
-26.496969143427542
10
60.598486573934785
20
-23.404523418480736
10
62.17298264336973
20
-21.33645633252648
10
64.30292991203923
20
-20.604673913350744
0
LINE
5
108
100
AcDbEntity
8
0
100
AcDbLine
10
-48.932666525917448
20
20.565276086649238
30
0
11
-35.132846525917429
21
20.565276086649238
31
0
0
LINE
5
109
100
AcDbEntity
8
0
100
AcDbLine
10
-10.907596525917462
20
38.665316086649213
30
0
11
2.8922234740825381
21
38.665316086649213
31
0
0
LWPOLYLINE
5
110
100
AcDbEntity
8
0
100
AcDbPolyline
90
7
43
0.0
10
-35.13284652591741
20
-36.38458191335076
10
-33.800161232506944
20
-35.91566652139367
10
-32.99010278209582
20
-34.59941523711333
10
-32.35845256655916
20
-30.397166913351214
10
-31.80934066064579
20
-26.194918589588724
10
-31.107264294224937
20
-24.878667305308
10
-29.932704525917444
20
-24.409751913350757
0
LINE
5
111
100
AcDbEntity
8
0
100
AcDbLine
10
8.0672194740825454
20
34.090268086649218
30
0
11
21.867293474082476
21
34.090268086649218
31
0
0
LWPOLYLINE
5
112
100
AcDbEntity
8
0
100
AcDbPolyline
90
5
43
0.0
10
-51.50759652591745
20
-33.809651913350756
10
-51.302331505135776
20
-34.82515996020611
10
-50.7509091409807
20
-35.62789452841353
10
-49.948174572772785
20
-36.17931689256853
10
-48.93266652591743
20
-36.38458191335076
0
LWPOLYLINE
5
113
100
AcDbEntity
8
0
100
AcDbPolyline
90
5
43
0.0
10
-51.50759652591745
20
17.990346086649236
10
-51.30233150513541
20
19.005854133503444
10
-50.750909140979864
20
19.808588701710857
10
-49.94817457277194
20
20.360011065866576
10
-48.93266652591743
20
20.565276086649238
0
LINE
5
114
100
AcDbEntity
8
0
100
AcDbLine
10
27.067181474082549
20
31.565254086649222
30
0
11
40.867255474082512
21
31.565254086649222
31
0
0
LINE
5
115
100
AcDbEntity
8
0
100
AcDbLine
10
55.597931215478447
20
-43.221725615987452
30
0
11
48.697767215478471
21
-55.172679615987484
31
0
0
LWPOLYLINE
5
116
100
AcDbEntity
8
0
100
AcDbPolyline
90
5
43
0.0
10
2.892223474082538
20
38.66531608664921
10
4.4977178799099615
20
37.98328358750036
10
5.479721474082552
20
36.377792086649855
10
6.461725068255135
20
34.772300585798796
10
8.067219474082545
20
34.09026808664922
0
LINE
5
117
100
AcDbEntity
8
0
100
AcDbLine
10
45.180380207258281
20
-56.115147083629125
30
0
11
33.229172207258301
21
-49.215237083629134
31
0
0
LWPOLYLINE
5
118
100
AcDbEntity
8
0
100
AcDbPolyline
90
5
43
0.0
10
21.867293474082476
20
34.09026808664922
10
23.269363021216407
20
33.71384764061082
10
24.467237474082417
20
32.82776108664921
10
25.665111926948512
20
31.94167453268759
10
27.06718147408255
20
31.56525408664922
0
LINE
5
119
100
AcDbEntity
8
0
100
AcDbLine
10
-16.000000238418579
20
38.665316086649213
30
0
11
-29.000000432133675
21
38.665316086649213
31
0
0
LINE
5
120
100
AcDbEntity
8
0
100
AcDbLine
10
-16.000000238418579
20
38.665316086649213
30
0
11
-10.907596525917462
21
38.665316086649213
31
0
0
LWPOLYLINE
5
121
100
AcDbEntity
8
0
100
AcDbPolyline
90
2
43
0.0
10
40.86725547408251
20
31.56525408664922
10
46.05215747408249
20
30.20546208664922
0
LWPOLYLINE
5
122
100
AcDbEntity
8
0
100
AcDbPolyline
90
5
43
0.0
10
45.180380207258274
20
-56.115147083629125
10
46.16245610436273
20
-56.44512629820497
10
47.13334295145007
20
-56.36894894990442
10
48.012247338239334
20
-55.94948226628579
10
48.69776721547846
20
-55.172679615987484
0
LWPOLYLINE
5
123
100
AcDbEntity
8
0
100
AcDbPolyline
90
2
43
0.0
10
28.421144760165618
20
-46.933360184018035
10
33.229172207258294
20
-49.21523708362914
0
LWPOLYLINE
5
124
100
AcDbEntity
8
0
100
AcDbPolyline
90
9
43
0.0
10
-35.13284652591743
20
20.565276086649238
10
-33.88388907282734
20
21.27404500871675
10
-33.06924846619107
20
23.26356810804522
10
-32.56934682533178
20
26.193255694566602
10
-32.22601465570857
20
29.615296086649465
10
-31.864116997219778
20
33.037336478732264
10
-31.307217729485455
20
35.96702406525349
10
-30.39372044953347
20
37.95654716458178
10
-29.000000432133675
20
38.665316086649206
0
LINE
5
125
100
AcDbEntity
8
0
100
AcDbLine
10
86.405469011237727
20
30.20546208664922
30
0
11
46.052157474082492
21
30.20546208664922
31
0
0
LINE
5
126
100
AcDbEntity
8
0
100
AcDbLine
10
90.757175474082487
20
26.313999623176485
30
0
11
90.757175474082487
21
-16.918182603493925
31
0
0
LINE
5
127
100
AcDbEntity
8
0
100
AcDbLine
10
64.302929912039218
20
-20.604673913350744
30
0
11
86.726376492167503
21
-20.604673913350744
31
0
0
LINE
5
128
100
AcDbEntity
8
0
100
AcDbLine
10
8.5000001266598701
20
-42.00000062584877
30
0
11
-2.0000000298023224
21
-42.00000062584877
31
0
0
LWPOLYLINE
5
129
100
AcDbEntity
8
0
100
AcDbPolyline
90
5
43
0.0
10
-5.393502374426696
20
-38.259329710161325
10
-5.12363137152022
20
-39.62706880307638
10
-4.398189073734809
20
-40.81039275459382
10
-3.340630476165797
20
-41.67140629721318
10
-2.000000029802323
20
-42.00000062584877
0
LINE
5
130
100
AcDbEntity
8
0
100
AcDbLine
10
-5.3935023744266966
20
-28.979664753888667
30
0
11
-5.3935023744266966
21
-38.259329710161325
31
0
0
LWPOLYLINE
5
131
100
AcDbEntity
8
0
100
AcDbPolyline
90
5
43
0.0
10
-10.000000149011612
20
-24.409751913350757
10
-8.223518383535096
20
-24.7821325584793
10
-6.7810161966409375
20
-25.776718716705844
10
-5.772095590811452
20
-27.205953939581388
10
-5.393502374426695
20
-28.979664753888667
0
LINE
5
132
100
AcDbEntity
8
0
100
AcDbLine
10
-16.132630525917442
20
-24.409751913350757
30
0
11
-10.000000149011612
21
-24.409751913350757
31
0
0
LINE
5
133
100
AcDbEntity
8
0
100
AcDbLine
10
15.236258760165597
20
-43.400474184018051
30
0
11
28.421144760165618
21
-46.933360184018042
31
0
0
LWPOLYLINE
5
134
100
AcDbEntity
8
0
100
AcDbPolyline
90
3
43
0.0
10
8.50000012665987
20
-42.00000062584877
10
12.263574164780286
20
-42.560463821816704
10
15.946470772858557
20
-43.590775266384234
0
ENDSEC
0
SECTION
2
OBJECTS
0
DICTIONARY
5
C
100
AcDbDictionary
3
ACAD_GROUP
350
D
3
ACAD_MLINESTYLE
350
17
0
DICTIONARY
5
D
100
AcDbDictionary
0
DICTIONARY
5
1A
330
C
100
AcDbDictionary
0
DICTIONARY
5
17
100
AcDbDictionary
0
ENDSEC
0
EOF
