0
SECTION
2
HEADER
9
$INSUNITS
70
4
9
$ACADVER
1
AC1014
9
$HANDSEED
5
FFFF
0
ENDSEC
0
SECTION
2
TABLES
0
TABLE
2
VPORT
5
8
100
AcDbSymbolTable
0
ENDTAB
0
TABLE
2
LTYPE
5
5
100
AcDbSymbolTable
0
LTYPE
5
14
100
AcDbSymbolTableRecord
100
AcDbLinetypeTableRecord
2
BYBLOCK
70
0
0
LTYPE
5
15
100
AcDbSymbolTableRecord
100
AcDbLinetypeTableRecord
2
BYLAYER
70
0
0
ENDTAB
0
TABLE
2
LAYER
5
2
100
AcDbSymbolTable
70
2
0
LAYER
5
50
100
AcDbSymbolTableRecord
100
AcDbLayerTableRecord
2
0
70
0
6
CONTINUOUS
0
ENDTAB
0
TABLE
2
STYLE
5
3
100
AcDbSymbolTable
70
1
0
STYLE
5
11
100
AcDbSymbolTableRecord
100
AcDbTextStyleTableRecord
2
STANDARD
70
0
0
ENDTAB
0
TABLE
2
VIEW
5
6
100
AcDbSymbolTable
70
0
0
ENDTAB
0
TABLE
2
UCS
5
7
100
AcDbSymbolTable
70
0
0
ENDTAB
0
TABLE
2
APPID
5
9
100
AcDbSymbolTable
70
2
0
APPID
5
12
100
AcDbSymbolTableRecord
100
AcDbRegAppTableRecord
2
ACAD
70
0
0
ENDTAB
0
TABLE
2
DIMSTYLE
5
A
100
AcDbSymbolTable
70
1
0
ENDTAB
0
TABLE
2
BLOCK_RECORD
5
1
100
AcDbSymbolTable
70
1
0
BLOCK_RECORD
5
1F
100
AcDbSymbolTableRecord
100
AcDbBlockTableRecord
2
*MODEL_SPACE
0
BLOCK_RECORD
5
1B
100
AcDbSymbolTableRecord
100
AcDbBlockTableRecord
2
*PAPER_SPACE
0
ENDTAB
0
ENDSEC
0
SECTION
2
BLOCKS
0
BLOCK
5
20
100
AcDbEntity
100
AcDbBlockBegin
2
*MODEL_SPACE
0
ENDBLK
5
21
100
AcDbEntity
100
AcDbBlockEnd
0
BLOCK
5
1C
100
AcDbEntity
100
AcDbBlockBegin
2
*PAPER_SPACE
0
ENDBLK
5
1D
100
AcDbEntity
100
AcDbBlockEnd
0
ENDSEC
0
SECTION
2
ENTITIES
0
LINE
5
100
100
AcDbEntity
8
0
100
AcDbLine
10
-41.117954406012331
20
58.821978184981432
30
0
11
-42.064811831340037
21
59.368636842807831
31
0
0
LWPOLYLINE
5
101
100
AcDbEntity
8
0
100
AcDbPolyline
90
7
43
0.0
10
-42.06481183134004
20
59.368636842807824
10
-42.55385233037673
20
59.59004364831929
10
-43.04688772844449
20
59.69861605738367
10
-44.017774575531824
20
59.62243870908312
10
-44.8966789623211
20
59.20297202546449
10
-45.269376812905236
20
58.86243058656645
10
-45.58219883956022
20
58.42616937516618
0
LINE
5
102
100
AcDbEntity
8
0
100
AcDbLine
10
-45.58219883956022
20
58.426169375166182
30
0
11
-50.697148150925614
21
49.567174122228877
31
0
0
LINE
5
103
100
AcDbEntity
8
0
100
AcDbLine
10
-33.931423977842762
20
-28.311764327470517
30
0
11
-31.564110642087741
21
-28.311764327470517
31
0
0
ARC
5
104
100
AcDbEntity
8
0
100
AcDbCircle
10
-32.000000536441803
20
-27.411764327470515
30
0
40
1.0000000000000004
210
-0
220
0
230
1
100
AcDbArc
50
-64.158067236833205
51
0
0
LINE
5
105
100
AcDbEntity
8
0
100
AcDbLine
10
-31.000000536441803
20
-27.411764327470515
30
0
11
-31.000000536441807
21
-27.311764327470502
31
0
0
ARC
5
106
100
AcDbEntity
8
0
100
AcDbCircle
10
-30.000000536441803
20
-27.311764327470517
30
0
40
1.0000000000000053
210
0
220
-0
230
1
100
AcDbArc
50
90
51
180
0
LINE
5
107
100
AcDbEntity
8
0
100
AcDbLine
10
-30.000000536441803
20
-26.31176432747051
30
0
11
-27.000000536441799
21
-26.311764327470506
31
0
0
ARC
5
108
100
AcDbEntity
8
0
100
AcDbCircle
10
-27.000000536441803
20
-27.311764327470506
30
0
40
1.0000000000000009
210
0
220
0
230
1
100
AcDbArc
50
0
51
89.999999999999801
0
LINE
5
109
100
AcDbEntity
8
0
100
AcDbLine
10
-26.000000536441803
20
-27.311764327470506
30
0
11
-26.000000536441803
21
-28.311764327470517
31
0
0
LINE
5
110
100
AcDbEntity
8
0
100
AcDbLine
10
-26.000000536441803
20
-28.311764327470517
30
0
11
-23.951613098164309
21
-28.311764327470517
31
0
0
LINE
5
111
100
AcDbEntity
8
0
100
AcDbLine
10
-23.951613098164309
20
-28.311764327470517
30
0
11
-23.573431098164313
21
-28.336818327470503
31
0
0
LINE
5
112
100
AcDbEntity
8
0
100
AcDbLine
10
-23.573431098164313
20
-28.336818327470503
30
0
11
-23.214787098164315
21
-28.410640327470507
31
0
0
LINE
5
113
100
AcDbEntity
8
0
100
AcDbLine
10
-23.214787098164315
20
-28.410640327470507
30
0
11
-22.549544098164311
21
-28.68818532747051
31
0
0
LINE
5
114
100
AcDbEntity
8
0
100
AcDbLine
10
-22.549544098164311
20
-28.68818532747051
30
0
11
-21.936848098164312
21
-29.096885327470492
31
0
0
LINE
5
115
100
AcDbEntity
8
0
100
AcDbLine
10
-21.936848098164312
20
-29.096885327470492
30
0
11
-21.351669098164248
21
-29.574271327470445
31
0
0
LWPOLYLINE
5
116
100
AcDbEntity
8
0
100
AcDbPolyline
90
4
43
0.0
10
-21.351669098164248
20
-29.57427132747045
10
-20.153794645298206
20
-30.460357881432103
10
-19.488551346253136
20
-30.737902775207342
10
-18.751725098164236
20
-30.836778327470515
0
LINE
5
117
100
AcDbEntity
8
0
100
AcDbLine
10
-18.751725098164236
20
-30.836778327470515
30
0
11
-4.9516510981643114
21
-30.836778327470515
31
0
0
LINE
5
118
100
AcDbEntity
8
0
100
AcDbLine
10
-4.9516510981643114
20
-30.836778327470515
30
0
11
-4.4658050981643083
21
-30.882172327470503
31
0
0
LINE
5
119
100
AcDbEntity
8
0
100
AcDbLine
10
-4.4658050981643083
20
-30.882172327470503
30
0
11
-4.0396180981643104
21
-31.015930327470507
31
0
0
LINE
5
120
100
AcDbEntity
8
0
100
AcDbLine
10
-4.0396180981643104
20
-31.015930327470507
30
0
11
-3.6686140981643112
21
-31.231418327470504
31
0
0
LINE
5
121
100
AcDbEntity
8
0
100
AcDbLine
10
-3.6686140981643112
20
-31.231418327470504
30
0
11
-3.3461570981643085
21
-31.51881132747052
31
0
0
LINE
5
122
100
AcDbEntity
8
0
100
AcDbLine
10
-3.3461570981643085
20
-31.51881132747052
30
0
11
-3.0640850981643108
21
-31.866017327470519
31
0
0
LINE
5
123
100
AcDbEntity
8
0
100
AcDbLine
10
-3.0640850981643108
20
-31.866017327470519
30
0
11
-3.0442456539520801
21
-31.897112763867508
31
0
0
ARC
5
124
100
AcDbEntity
8
0
100
AcDbCircle
10
-3.3571252139840482
20
-30.947319954401035
30
0
40
1.000000000000006
210
-0
220
0
230
1
100
AcDbArc
50
288.23285212840187
51
328.65246529919477
0
LINE
5
125
100
AcDbEntity
8
0
100
AcDbLine
10
-2.5030976901599327
20
-31.467547778100275
30
0
11
-2.3237310699862901
21
-31.173092111745611
31
0
0
ARC
5
126
100
AcDbEntity
8
0
100
AcDbCircle
10
-1.4697035461621732
20
-31.693319935444848
30
0
40
0.99999999999999745
210
0
220
-0
230
1
100
AcDbArc
50
88.274985746416931
51
148.652465299195
0
LINE
5
127
100
AcDbEntity
8
0
100
AcDbLine
10
-1.4396009159899568
20
-30.693773122305657
30
0
11
-1.0791236483053002
21
-31.258768685182297
31
0
0
LINE
5
128
100
AcDbEntity
8
0
100
AcDbLine
10
-1.0791236483053002
20
-31.258768685182297
30
0
11
-0.57862793219285003
21
-32.222963387884178
31
0
0
LWPOLYLINE
5
129
100
AcDbEntity
8
0
100
AcDbPolyline
90
5
43
0.0
10
-0.5786279321928508
20
-32.22296338788418
10
-0.32521884921598393
20
-32.72868348154168
10
-0.11217071668843001
20
-33.106398134512816
10
0.04364268836258419
20
-33.323070919034784
10
0.12209920907563927
20
-33.40368591038855
0
LWPOLYLINE
5
130
100
AcDbEntity
8
0
100
AcDbPolyline
90
2
43
0.0
10
0.12209920907569782
20
-33.403685910388404
10
0.22334490183570033
20
-33.41182632747051
0
LINE
5
131
100
AcDbEntity
8
0
100
AcDbLine
10
0.22334490183570035
20
-33.411826327470507
30
0
11
4.5389312895710265
21
-33.411826327470507
31
0
0
ARC
5
132
100
AcDbEntity
8
0
100
AcDbCircle
10
4.5389312895710212
20
-34.411826327470514
30
0
40
1.0000000000000075
210
0
220
-0
230
1
100
AcDbArc
50
0
51
89.999999999999702
0
LINE
5
133
100
AcDbEntity
8
0
100
AcDbLine
10
5.5389312895710283
20
-34.411826327470514
30
0
11
5.5389312895710319
21
-35.411826327470507
31
0
0
LINE
5
134
100
AcDbEntity
8
0
100
AcDbLine
10
5.5389312895710319
20
-35.411826327470507
30
0
11
25.054031843193982
21
-35.411826327470507
31
0
0
LWPOLYLINE
5
135
100
AcDbEntity
8
0
100
AcDbPolyline
90
2
43
0.0
10
35.25042431334815
20
-27.33501608158491
10
35.34158303053432
20
-26.361806339332098
0
LINE
5
136
100
AcDbEntity
8
0
100
AcDbLine
10
35.341583030534323
20
-26.361806339332098
30
0
11
35.50443090183569
21
-24.619561327470496
31
0
0
LINE
5
137
100
AcDbEntity
8
0
100
AcDbLine
10
35.50443090183569
20
-24.619561327470496
30
0
11
35.68491490183569
21
-22.939766327470519
31
0
0
LINE
5
138
100
AcDbEntity
8
0
100
AcDbLine
10
35.68491490183569
20
-22.939766327470519
30
0
11
35.904791901835694
21
-21.383714327470518
31
0
0
LINE
5
139
100
AcDbEntity
8
0
100
AcDbLine
10
35.904791901835694
20
-21.383714327470518
30
0
11
36.036044901835695
21
-20.670579327470506
31
0
0
LINE
5
140
100
AcDbEntity
8
0
100
AcDbLine
10
36.036044901835695
20
-20.670579327470506
30
0
11
36.184815901835698
21
-20.010078327470513
31
0
0
LINE
5
141
100
AcDbEntity
8
0
100
AcDbLine
10
36.184815901835698
20
-20.010078327470513
30
0
11
36.353438901835695
21
-19.408836327470507
31
0
0
LINE
5
142
100
AcDbEntity
8
0
100
AcDbLine
10
36.353438901835695
20
-19.408836327470507
30
0
11
36.544101901835688
21
-18.873080327470504
31
0
0
LINE
5
143
100
AcDbEntity
8
0
100
AcDbLine
10
36.544101901835688
20
-18.873080327470504
30
0
11
36.758830901835694
21
-18.408579327470509
31
0
0
LINE
5
144
100
AcDbEntity
8
0
100
AcDbLine
10
36.758830901835694
20
-18.408579327470509
30
0
11
36.999456901835693
21
-18.020555327470511
31
0
0
LINE
5
145
100
AcDbEntity
8
0
100
AcDbLine
10
36.999456901835693
20
-18.020555327470511
30
0
11
37.267575901835698
21
-17.713565327470508
31
0
0
LINE
5
146
100
AcDbEntity
8
0
100
AcDbLine
10
37.267575901835698
20
-17.713565327470508
30
0
11
37.564503901835693
21
-17.491376327470505
31
0
0
LINE
5
147
100
AcDbEntity
8
0
100
AcDbLine
10
37.564503901835693
20
-17.491376327470505
30
0
11
37.891238901835692
21
-17.356844327470505
31
0
0
LINE
5
148
100
AcDbEntity
8
0
100
AcDbLine
10
37.891238901835692
20
-17.356844327470505
30
0
11
38.248414901835687
21
-17.311786327470511
31
0
0
LINE
5
149
100
AcDbEntity
8
0
100
AcDbLine
10
38.248414901835687
20
-17.311786327470511
30
0
11
46.000000685453401
21
-17.311786327470529
31
0
0
LINE
5
150
100
AcDbEntity
8
0
100
AcDbLine
10
46.000000685453401
20
-17.311786327470529
30
0
11
46.000000685453401
21
-16.311786327470521
31
0
0
ARC
5
151
100
AcDbEntity
8
0
100
AcDbCircle
10
47.000000685453401
20
-16.311786327470529
30
0
40
0.99999999999999867
210
0
220
-0
230
1
100
AcDbArc
50
90
51
180
0
LINE
5
152
100
AcDbEntity
8
0
100
AcDbLine
10
47.000000685453401
20
-15.311786327470529
30
0
11
52.048234901835698
21
-15.311786327470536
31
0
0
LWPOLYLINE
5
153
100
AcDbEntity
8
0
100
AcDbPolyline
90
2
43
0.0
10
52.048234901835684
20
-15.311786327470537
10
52.12840303029117
20
-15.308723606150307
0
LWPOLYLINE
5
154
100
AcDbEntity
8
0
100
AcDbPolyline
90
3
43
0.0
10
52.12840303029118
20
-15.308723606150302
10
52.537773113446676
20
-15.357304131843247
10
52.89334722519572
20
-15.567429018212454
0
LINE
5
155
100
AcDbEntity
8
0
100
AcDbLine
10
52.893347225195726
20
-15.567429018212454
30
0
11
53.034520798608789
21
-15.696784747993107
31
0
0
LWPOLYLINE
5
156
100
AcDbEntity
8
0
100
AcDbPolyline
90
5
43
0.0
10
53.03452079860879
20
-15.696784747993108
10
53.37921811960779
20
-15.9031660674821
10
53.777311720172335
20
-15.957230076850685
10
54.164547948174665
20
-15.850261922982472
10
54.47844305944353
20
-15.599522658384172
0
LWPOLYLINE
5
157
100
AcDbEntity
8
0
100
AcDbPolyline
90
2
43
0.0
10
54.47844305944352
20
-15.59952265838417
10
54.623164901835686
20
-14.736856327470537
0
LINE
5
158
100
AcDbEntity
8
0
100
AcDbLine
10
54.623164901835686
20
-14.736856327470537
30
0
11
54.623164901835693
21
37.063141672529454
31
0
0
LWPOLYLINE
5
159
100
AcDbEntity
8
0
100
AcDbPolyline
90
7
43
0.0
10
54.623164901835686
20
37.063141672529454
10
54.57039132546609
20
37.59737500270056
10
54.417899881054026
20
38.078649719384806
10
53.86647751689895
20
38.881384287592226
10
53.06374294869102
20
39.43280665174723
10
52.58246823200676
20
39.585298096159654
10
52.04823490183568
20
39.638071672529456
0
LINE
5
160
100
AcDbEntity
8
0
100
AcDbLine
10
52.048234901835677
20
39.638071672529456
30
0
11
45.426246426189522
21
39.638071672529456
31
0
0
ARC
5
161
100
AcDbEntity
8
0
100
AcDbCircle
10
45.862136320543584
20
38.73807167252945
30
0
40
1.0000000000000044
210
0
220
0
230
1
100
AcDbArc
50
115.84193276316674
51
180
0
LINE
5
162
100
AcDbEntity
8
0
100
AcDbLine
10
44.862136320543584
20
38.738071672529458
30
0
11
44.862136320543584
21
38.638071672529449
31
0
0
ARC
5
163
100
AcDbEntity
8
0
100
AcDbCircle
10
43.862136320543584
20
38.638071672529449
30
0
40
1.0000000000000009
210
0
220
0
230
1
100
AcDbArc
50
-90
51
0
0
LINE
5
164
100
AcDbEntity
8
0
100
AcDbLine
10
43.862136320543584
20
37.638071672529449
30
0
11
39.86213632054357
21
37.638071672529449
31
0
0
ARC
5
165
100
AcDbEntity
8
0
100
AcDbCircle
10
39.862136320543577
20
38.638071672529456
30
0
40
1.0000000000000009
210
0
220
0
230
1
100
AcDbArc
50
180
51
269.9999999999996
0
LINE
5
166
100
AcDbEntity
8
0
100
AcDbLine
10
38.862136320543577
20
38.638071672529456
30
0
11
38.862136320543577
21
39.638071672529456
31
0
0
LINE
5
167
100
AcDbEntity
8
0
100
AcDbLine
10
38.862136320543577
20
39.638071672529456
30
0
11
38.248414901835652
21
39.638071672529456
31
0
0
LWPOLYLINE
5
168
100
AcDbEntity
8
0
100
AcDbPolyline
90
8
43
0.0
10
38.248414901835645
20
39.638071672529456
10
37.510917486536115
20
39.519256302348765
10
36.91572960809397
20
39.16915628028281
10
36.45244234234683
20
38.60513284517445
10
36.105671157643805
20
37.852904995241005
10
35.85653933778444
20
36.944119402967395
10
35.68371500594863
20
35.914649012412646
10
35.47402094226727
20
33.650656669614946
0
LINE
5
169
100
AcDbEntity
8
0
100
AcDbLine
10
35.474020942267273
20
33.650656669614946
30
0
11
35.28460590183569
21
31.386664672529498
31
0
0
LINE
5
170
100
AcDbEntity
8
0
100
AcDbLine
10
35.28460590183569
20
31.386664672529498
30
0
11
35.137469901835694
21
30.357193672529501
31
0
0
LINE
5
171
100
AcDbEntity
8
0
100
AcDbLine
10
35.137469901835694
20
30.357193672529501
30
0
11
34.924908901835693
21
29.448408672529496
31
0
0
LINE
5
172
100
AcDbEntity
8
0
100
AcDbLine
10
34.924908901835693
20
29.448408672529496
30
0
11
34.626125901835692
21
28.696180672529501
31
0
0
LINE
5
173
100
AcDbEntity
8
0
100
AcDbLine
10
34.626125901835692
20
28.696180672529501
30
0
11
34.43856490183569
21
28.388870672529496
31
0
0
LINE
5
174
100
AcDbEntity
8
0
100
AcDbLine
10
34.43856490183569
20
28.388870672529496
30
0
11
34.22283190183569
21
28.132156672529494
31
0
0
LINE
5
175
100
AcDbEntity
8
0
100
AcDbLine
10
34.22283190183569
20
28.132156672529494
30
0
11
33.977190901835698
21
27.929054672529496
31
0
0
LINE
5
176
100
AcDbEntity
8
0
100
AcDbLine
10
33.977190901835698
20
27.929054672529496
30
0
11
33.700207901835682
21
27.782056672529496
31
0
0
LINE
5
177
100
AcDbEntity
8
0
100
AcDbLine
10
33.700207901835682
20
27.782056672529496
30
0
11
33.39079790183569
21
27.693051672529492
31
0
0
LINE
5
178
100
AcDbEntity
8
0
100
AcDbLine
10
33.39079790183569
20
27.693051672529492
30
0
11
33.048272901835688
21
27.663241672529502
31
0
0
LINE
5
179
100
AcDbEntity
8
0
100
AcDbLine
10
33.048272901835688
20
27.663241672529502
30
0
11
28.40628574372003
21
27.663241672529495
31
0
0
ARC
5
180
100
AcDbEntity
8
0
100
AcDbCircle
10
28.842175638074096
20
26.763241672529496
30
0
40
0.99999999999999856
210
0
220
0
230
1
100
AcDbArc
50
115.84193276316709
51
180
0
LINE
5
181
100
AcDbEntity
8
0
100
AcDbLine
10
27.842175638074096
20
26.763241672529496
30
0
11
27.842175638074096
21
26.663241672529487
31
0
0
ARC
5
182
100
AcDbEntity
8
0
100
AcDbCircle
10
26.842175638074096
20
26.663241672529491
30
0
40
1.0000000000000053
210
0
220
0
230
1
100
AcDbArc
50
270
51
360
0
LINE
5
183
100
AcDbEntity
8
0
100
AcDbLine
10
26.842175638074096
20
25.663241672529487
30
0
11
22.842175638074096
21
25.663241672529477
31
0
0
ARC
5
184
100
AcDbEntity
8
0
100
AcDbCircle
10
22.842175638074099
20
26.663241672529484
30
0
40
1.0000000000000053
210
0
220
0
230
1
100
AcDbArc
50
180
51
269.99999999999983
0
LINE
5
185
100
AcDbEntity
8
0
100
AcDbLine
10
21.842175638074096
20
26.66324167252948
30
0
11
21.842175638074099
21
27.66324167252948
31
0
0
LINE
5
186
100
AcDbEntity
8
0
100
AcDbLine
10
21.842175638074099
20
27.66324167252948
30
0
11
17.68378717764277
21
27.66324167252947
31
0
0
LWPOLYLINE
5
187
100
AcDbEntity
8
0
100
AcDbPolyline
90
2
43
0.0
10
9.540117113887996
20
31.646032266809446
10
9.509070750344934
20
32.23315451306737
0
LINE
5
188
100
AcDbEntity
8
0
100
AcDbLine
10
9.5090707503449359
20
32.233154513067362
30
0
11
9.5090707503449323
21
33.55238831728758
31
0
0
ARC
5
189
100
AcDbEntity
8
0
100
AcDbCircle
10
8.6090707503449355
20
33.11649842293351
30
0
40
0.99999999999999845
210
0
220
-0
230
1
100
AcDbArc
50
25.841932763167318
51
90
0
LINE
5
190
100
AcDbEntity
8
0
100
AcDbLine
10
8.6090707503449355
20
34.11649842293351
30
0
11
8.5090707503449359
21
34.11649842293351
31
0
0
ARC
5
191
100
AcDbEntity
8
0
100
AcDbCircle
10
8.5090707503449323
20
35.116498422933503
30
0
40
0.99999999999999645
210
0
220
0
230
1
100
AcDbArc
50
180
51
270.00000000000023
0
LINE
5
192
100
AcDbEntity
8
0
100
AcDbLine
10
7.5090707503449359
20
35.11649842293351
30
0
11
7.5090707503449394
21
38.116498422933518
31
0
0
ARC
5
193
100
AcDbEntity
8
0
100
AcDbCircle
10
8.5090707503449341
20
38.116498422933518
30
0
40
0.99999999999999645
210
0
220
-0
230
1
100
AcDbArc
50
89.999999999999901
51
180
0
LINE
5
194
100
AcDbEntity
8
0
100
AcDbLine
10
8.5090707503449359
20
39.11649842293351
30
0
11
9.5090707503449323
21
39.11649842293351
31
0
0
LINE
5
195
100
AcDbEntity
8
0
100
AcDbLine
10
9.5090707503449323
20
39.11649842293351
30
0
11
9.5090707503449323
21
42.385467036053932
31
0
0
LWPOLYLINE
5
196
100
AcDbEntity
8
0
100
AcDbPolyline
90
9
43
0.0
10
9.509070750344936
20
42.385467036053925
10
9.421112177624517
20
43.17826402244711
10
9.16790333530147
20
43.85997903151193
10
8.773733747809178
20
44.43957983559483
10
8.26597807995558
20
44.92408308987804
10
7.668793015563471
20
45.314985470001055
10
7.000067588875859
20
45.60722364446587
10
6.270669150769015
20
45.79053696285001
10
5.485393698254703
20
45.85349038502746
0
LINE
5
197
100
AcDbEntity
8
0
100
AcDbLine
10
5.485393698254704
20
45.85349038502747
30
0
11
-5.3844317507416317
21
45.85349038502747
31
0
0
LWPOLYLINE
5
198
100
AcDbEntity
8
0
100
AcDbPolyline
90
4
43
0.0
10
-5.384431750741632
20
45.85349038502746
10
-8.062501137901972
20
46.01395734341183
10
-10.70281831244538
20
46.43397927974681
10
-15.921342007862451
20
47.672347333993386
0
LINE
5
199
100
AcDbEntity
8
0
100
AcDbLine
10
-15.921342007862451
20
47.672347333993386
30
0
11
-25.305577098164314
21
50.186849672529505
31
0
0
LINE
5
200
100
AcDbEntity
8
0
100
AcDbLine
10
-25.305577098164314
20
50.186849672529505
30
0
11
-26.56989209816431
21
50.616712672529509
31
0
0
LINE
5
201
100
AcDbEntity
8
0
100
AcDbLine
10
-26.56989209816431
20
50.616712672529509
30
0
11
-27.776792098164307
21
51.176311672529486
31
0
0
LINE
5
202
100
AcDbEntity
8
0
100
AcDbLine
10
-27.776792098164307
20
51.176311672529486
30
0
11
-30.113604098164313
21
52.468726672529499
31
0
0
LINE
5
203
100
AcDbEntity
8
0
100
AcDbLine
10
-30.113604098164313
20
52.468726672529499
30
0
11
-35.433243002217274
21
55.539966951818812
31
0
0
ARC
5
204
100
AcDbEntity
8
0
100
AcDbCircle
10
-35.505743592389194
20
54.542598582346073
30
0
40
0.99999999999999634
210
0
220
-0
230
1
100
AcDbArc
50
85.842374419216966
51
150.00044165605004
0
LINE
5
205
100
AcDbEntity
8
0
100
AcDbLine
10
-36.371772850324021
20
55.042591906702363
30
0
11
-36.421772182759653
21
54.955988980908863
31
0
0
ARC
5
206
100
AcDbEntity
8
0
100
AcDbCircle
10
-37.287801440694487
20
55.455982305265167
30
0
40
1.0000000000000071
210
0
220
0
230
1
100
AcDbArc
50
240.00044165605021
51
330.00044165604953
0
LINE
5
207
100
AcDbEntity
8
0
100
AcDbLine
10
-37.787794765050776
20
54.589953047330333
30
0
11
-41.251911796790068
21
56.58992634475549
31
0
0
ARC
5
208
100
AcDbEntity
8
0
100
AcDbCircle
10
-40.7519184724338
20
57.455955602690317
30
0
40
0.99999999999999378
210
0
220
0
230
1
100
AcDbArc
50
150.00044165604962
51
240.00044165605104
0
LINE
5
209
100
AcDbEntity
8
0
100
AcDbLine
10
-41.617947730368613
20
57.955948927046606
30
0
11
-41.117954406012331
21
58.821978184981432
31
0
0
LINE
5
210
100
AcDbEntity
8
0
100
AcDbLine
10
25.054031843193982
20
-35.411826327470507
30
0
11
24.582709107210562
21
-31.590333501486949
31
0
0
ARC
5
211
100
AcDbEntity
8
0
100
AcDbCircle
10
29.545108901835665
20
-30.978297327470496
30
0
40
4.9999999999999964
210
0
220
-0
230
1
100
AcDbArc
50
74.947088799537028
51
187.03105138620759
0
LINE
5
212
100
AcDbEntity
8
0
100
AcDbLine
10
30.843663615025175
20
-26.149865319369599
30
0
11
35.250424313348148
21
-27.335016081584911
31
0
0
LINE
5
213
100
AcDbEntity
8
0
100
AcDbLine
10
17.68378717764277
20
27.66324167252947
30
0
11
13.115568524929849
21
21.742850270538266
31
0
0
ARC
5
214
100
AcDbEntity
8
0
100
AcDbCircle
10
9.1569999018356718
20
24.797311672529503
30
0
40
4.9999999999999982
210
0
220
0
230
1
100
AcDbArc
50
130.00196877542876
51
322.34595135367431
0
LINE
5
215
100
AcDbEntity
8
0
100
AcDbLine
10
5.9429302426851294
20
28.627423449766283
30
0
11
9.5401171138879963
21
31.646032266809449
31
0
0
LWPOLYLINE
5
216
100
AcDbEntity
8
0
100
AcDbPolyline
90
9
43
0.0
10
-50.697148150925614
20
49.56717412222888
10
-51.268369638369904
20
48.27116671270492
10
-51.51271501909222
20
46.964523384464286
10
-51.46835635950664
20
45.66398133536564
10
-51.17416823620452
20
44.39477473534249
10
-50.65815613065748
20
43.188851546854124
10
-49.93277901454378
20
42.08259494340973
10
-48.99596611254353
20
41.112920255515604
10
-47.83753702479002
20
40.31035899213941
0
LINE
5
217
100
AcDbEntity
8
0
100
AcDbLine
10
-47.837537024790024
20
40.310358992139413
30
0
11
-41.556068439123209
21
36.792736584166015
31
0
0
LWPOLYLINE
5
218
100
AcDbEntity
8
0
100
AcDbPolyline
90
8
43
0.0
10
-41.55606843912321
20
36.792736584166015
10
-40.79586202494587
20
36.29966921558595
10
-40.17488505658031
20
35.75264859940785
10
-39.685153358679614
20
35.154666295077796
10
-39.31515746645279
20
34.5100174412499
10
-38.87842579672194
20
33.10145389810341
10
-38.74456557571779
20
31.57109069897877
10
-39.07842451623489
20
25.00000037252903
0
LINE
5
219
100
AcDbEntity
8
0
100
AcDbLine
10
-39.07842451623489
20
25.00000037252903
30
0
11
-39.07842451623489
21
-23.196768601799693
31
0
0
LWPOLYLINE
5
220
100
AcDbEntity
8
0
100
AcDbPolyline
90
9
43
0.0
10
-39.07842451623489
20
-23.196768601799693
10
-38.970290422017065
20
-24.241151737664836
10
-38.65829055881695
20
-25.189477367709813
10
-38.17025903328073
20
-26.04085946138664
10
-37.5366704055223
20
-26.787999187322555
10
-36.78305714848578
20
-27.414883183888413
10
-35.9265398219595
20
-27.897069979674324
10
-34.97543825493203
20
-28.205063354600757
10
-33.93142397784276
20
-28.31176432747051
0
ENDSEC
0
SECTION
2
OBJECTS
0
DICTIONARY
5
C
100
AcDbDictionary
3
ACAD_GROUP
350
D
3
ACAD_MLINESTYLE
350
17
0
DICTIONARY
5
D
100
AcDbDictionary
0
DICTIONARY
5
1A
330
C
100
AcDbDictionary
0
DICTIONARY
5
17
100
AcDbDictionary
0
ENDSEC
0
EOF
