  0
SECTION
  2
HEADER
  9
$ANGBASE
  50
0.0
  9
$ANGDIR
  70
1
  9
$MEASUREMENT
  70
0
  0
ENDSEC
  0
SECTION
  2
TABLES
  0
TABLE
  2
LTYPE
  70
4
  0
LTYPE
  5
40F
  2
CONTINUOUS
  70
0
  3
Solid line
  72
65
  73
0
  40
0.0
  0
LTYPE
  5
410
  2
DASHDOT
 70
0
  3
Dash Dot ____ _ ____ _
 72
65
 73
4
 40
2.0
 49
1.25
 49
-0.25
 49
0.25
 49
-0.25
  0
LTYPE
  5
411
  2
DASHED
 70
0
  3
Dashed __ __ __ __ __
 72
65
 73
2
 40
0.75
 49
0.5
 49
-0.25
  0
LTYPE
  5
43B
  2
DOTTED
 70
0
  3
Dotted .  .  .  .
 72
65
 73
2
 40
0.2
 49
0.0
 49
-0.2
  0
ENDTAB
  0
TABLE
  2
STYLE
  70
4
  0
STYLE
  2
KICAD
  70
0
  40
0
  41
1
  42
1
  50
0
  71
0
  3
isocp.shx
  0
STYLE
  2
KICADB
  70
0
  40
0
  41
1
  42
1
  50
0
  71
0
  3
isocp.shx
  0
STYLE
  2
KICADI
  70
0
  40
0
  41
1
  42
1
  50
15
  71
0
  3
isocp.shx
  0
STYLE
  2
KICADBI
  70
0
  40
0
  41
1
  42
1
  50
15
  71
0
  3
isocp.shx
  0
ENDTAB
  0
TABLE
  2
LAYER
  70
1
  0
LAYER
  2
BLACK
  70
0
  62
7
  6
CONTINUOUS
  0
ENDTAB
  0
ENDSEC
  0
SECTION
  2
ENTITIES
0
LINE
8
BLACK
6
CONTINUOUS
10
6.08209
20
-1.36752
11
6.08209
21
-1.61161
0
LINE
8
BLACK
6
CONTINUOUS
10
6.08209
20
-1.61161
11
6.08199
21
-1.61185
0
LINE
8
BLACK
6
CONTINUOUS
10
6.08199
20
-1.61185
11
6.08253
21
-1.61424
0
LINE
8
BLACK
6
CONTINUOUS
10
6.08253
20
-1.61424
11
6.08422
21
-1.61635
0
LINE
8
BLACK
6
CONTINUOUS
10
6.08422
20
-1.61635
11
6.08664
21
-1.61752
0
LINE
8
BLACK
6
CONTINUOUS
10
6.08664
20
-1.61752
11
6.08934
21
-1.61752
0
LINE
8
BLACK
6
CONTINUOUS
10
6.08934
20
-1.61752
11
6.09177
21
-1.61635
0
LINE
8
BLACK
6
CONTINUOUS
10
6.09177
20
-1.61635
11
6.09345
21
-1.61424
0
LINE
8
BLACK
6
CONTINUOUS
10
6.09345
20
-1.61424
11
6.094
21
-1.61185
0
LINE
8
BLACK
6
CONTINUOUS
10
6.094
20
-1.61185
11
6.0939
21
-1.61161
0
LINE
8
BLACK
6
CONTINUOUS
10
6.0939
20
-1.61161
11
6.09447
21
-1.61022
0
LINE
8
BLACK
6
CONTINUOUS
10
6.09447
20
-1.61022
11
6.09587
21
-1.60965
0
LINE
8
BLACK
6
CONTINUOUS
10
6.09587
20
-1.60965
11
6.42815
21
-1.60965
0
LINE
8
BLACK
6
CONTINUOUS
10
6.42815
20
-1.60965
11
6.42954
21
-1.61022
0
LINE
8
BLACK
6
CONTINUOUS
10
6.42954
20
-1.61022
11
6.43012
21
-1.61161
0
LINE
8
BLACK
6
CONTINUOUS
10
6.43012
20
-1.61161
11
6.43002
21
-1.61185
0
LINE
8
BLACK
6
CONTINUOUS
10
6.43002
20
-1.61185
11
6.43057
21
-1.61424
0
LINE
8
BLACK
6
CONTINUOUS
10
6.43057
20
-1.61424
11
6.43225
21
-1.61635
0
LINE
8
BLACK
6
CONTINUOUS
10
6.43225
20
-1.61635
11
6.43468
21
-1.61752
0
LINE
8
BLACK
6
CONTINUOUS
10
6.43468
20
-1.61752
11
6.43737
21
-1.61752
0
LINE
8
BLACK
6
CONTINUOUS
10
6.43737
20
-1.61752
11
6.4398
21
-1.61635
0
LINE
8
BLACK
6
CONTINUOUS
10
6.4398
20
-1.61635
11
6.44148
21
-1.61424
0
LINE
8
BLACK
6
CONTINUOUS
10
6.44148
20
-1.61424
11
6.44203
21
-1.61185
0
LINE
8
BLACK
6
CONTINUOUS
10
6.44203
20
-1.61185
11
6.44193
21
-1.61161
0
LINE
8
BLACK
6
CONTINUOUS
10
6.44193
20
-1.61161
11
6.44193
21
-1.36752
0
LINE
8
BLACK
6
CONTINUOUS
10
6.44193
20
-1.36752
11
6.44251
21
-1.36613
0
LINE
8
BLACK
6
CONTINUOUS
10
6.44251
20
-1.36613
11
6.4439
21
-1.36555
0
LINE
8
BLACK
6
CONTINUOUS
10
6.4439
20
-1.36555
11
6.55881
21
-1.36555
0
LINE
8
BLACK
6
CONTINUOUS
10
6.55881
20
-1.36555
11
6.55967
21
-1.36435
0
LINE
8
BLACK
6
CONTINUOUS
10
6.55967
20
-1.36435
11
6.56197
21
-1.36358
0
LINE
8
BLACK
6
CONTINUOUS
10
6.56197
20
-1.36358
11
6.83186
21
-1.36131
0
LINE
8
BLACK
6
CONTINUOUS
10
6.83186
20
-1.36131
11
6.83187
21
-1.36132
0
LINE
8
BLACK
6
CONTINUOUS
10
6.83187
20
-1.36132
11
6.83189
21
-1.36131
0
LINE
8
BLACK
6
CONTINUOUS
10
6.83189
20
-1.36131
11
6.84816
21
-1.36204
0
LINE
8
BLACK
6
CONTINUOUS
10
6.84816
20
-1.36204
11
6.86429
21
-1.36423
0
LINE
8
BLACK
6
CONTINUOUS
10
6.86429
20
-1.36423
11
6.88017
21
-1.36786
0
LINE
8
BLACK
6
CONTINUOUS
10
6.88017
20
-1.36786
11
6.89565
21
-1.3729
0
LINE
8
BLACK
6
CONTINUOUS
10
6.89565
20
-1.3729
11
6.91062
21
-1.37931
0
LINE
8
BLACK
6
CONTINUOUS
10
6.91062
20
-1.37931
11
6.92496
21
-1.38703
0
LINE
8
BLACK
6
CONTINUOUS
10
6.92496
20
-1.38703
11
6.93854
21
-1.39601
0
LINE
8
BLACK
6
CONTINUOUS
10
6.93854
20
-1.39601
11
6.95127
21
-1.40617
0
LINE
8
BLACK
6
CONTINUOUS
10
6.95127
20
-1.40617
11
6.96303
21
-1.41744
0
LINE
8
BLACK
6
CONTINUOUS
10
6.96303
20
-1.41744
11
6.97373
21
-1.42971
0
LINE
8
BLACK
6
CONTINUOUS
10
6.97373
20
-1.42971
11
6.98329
21
-1.4429
0
LINE
8
BLACK
6
CONTINUOUS
10
6.98329
20
-1.4429
11
6.99162
21
-1.45688
0
LINE
8
BLACK
6
CONTINUOUS
10
6.99162
20
-1.45688
11
6.99867
21
-1.47157
0
LINE
8
BLACK
6
CONTINUOUS
10
6.99867
20
-1.47157
11
7.00437
21
-1.48682
0
LINE
8
BLACK
6
CONTINUOUS
10
7.00437
20
-1.48682
11
7.00868
21
-1.50252
0
LINE
8
BLACK
6
CONTINUOUS
10
7.00868
20
-1.50252
11
7.01156
21
-1.51855
0
LINE
8
BLACK
6
CONTINUOUS
10
7.01156
20
-1.51855
11
7.01299
21
-1.53477
0
LINE
8
BLACK
6
CONTINUOUS
10
7.01299
20
-1.53477
11
7.01296
21
-1.53486
0
LINE
8
BLACK
6
CONTINUOUS
10
7.01296
20
-1.53486
11
7.01299
21
-1.53494
0
LINE
8
BLACK
6
CONTINUOUS
10
7.01299
20
-1.53494
11
7.01299
21
-3.36565
0
LINE
8
BLACK
6
CONTINUOUS
10
7.01299
20
-3.36565
11
7.0128
21
-3.36624
0
LINE
8
BLACK
6
CONTINUOUS
10
7.0128
20
-3.36624
11
7.0128
21
-3.36687
0
LINE
8
BLACK
6
CONTINUOUS
10
7.0128
20
-3.36687
11
7.01243
21
-3.36737
0
LINE
8
BLACK
6
CONTINUOUS
10
7.01243
20
-3.36737
11
7.01224
21
-3.36796
0
LINE
8
BLACK
6
CONTINUOUS
10
7.01224
20
-3.36796
11
7.01174
21
-3.36833
0
LINE
8
BLACK
6
CONTINUOUS
10
7.01174
20
-3.36833
11
7.01137
21
-3.36883
0
LINE
8
BLACK
6
CONTINUOUS
10
7.01137
20
-3.36883
11
7.01078
21
-3.36903
0
LINE
8
BLACK
6
CONTINUOUS
10
7.01078
20
-3.36903
11
7.01027
21
-3.36939
0
LINE
8
BLACK
6
CONTINUOUS
10
7.01027
20
-3.36939
11
7.00965
21
-3.36939
0
LINE
8
BLACK
6
CONTINUOUS
10
7.00965
20
-3.36939
11
7.00906
21
-3.36959
0
LINE
8
BLACK
6
CONTINUOUS
10
7.00906
20
-3.36959
11
6.2927
21
-3.36959
0
LINE
8
BLACK
6
CONTINUOUS
10
6.2927
20
-3.36959
11
6.27
21
-3.37138
0
LINE
8
BLACK
6
CONTINUOUS
10
6.27
20
-3.37138
11
6.24897
21
-3.37667
0
LINE
8
BLACK
6
CONTINUOUS
10
6.24897
20
-3.37667
11
6.22937
21
-3.38543
0
LINE
8
BLACK
6
CONTINUOUS
10
6.22937
20
-3.38543
11
6.21111
21
-3.39757
0
LINE
8
BLACK
6
CONTINUOUS
10
6.21111
20
-3.39757
11
6.19412
21
-3.41301
0
LINE
8
BLACK
6
CONTINUOUS
10
6.19412
20
-3.41301
11
6.17834
21
-3.43163
0
LINE
8
BLACK
6
CONTINUOUS
10
6.17834
20
-3.43163
11
6.16372
21
-3.45324
0
LINE
8
BLACK
6
CONTINUOUS
10
6.16372
20
-3.45324
11
6.15021
21
-3.47766
0
LINE
8
BLACK
6
CONTINUOUS
10
6.15021
20
-3.47766
11
6.13775
21
-3.50466
0
LINE
8
BLACK
6
CONTINUOUS
10
6.13775
20
-3.50466
11
6.12626
21
-3.534
0
LINE
8
BLACK
6
CONTINUOUS
10
6.12626
20
-3.534
11
6.11566
21
-3.56542
0
LINE
8
BLACK
6
CONTINUOUS
10
6.11566
20
-3.56542
11
6.10589
21
-3.59866
0
LINE
8
BLACK
6
CONTINUOUS
10
6.10589
20
-3.59866
11
6.08841
21
-3.66963
0
LINE
8
BLACK
6
CONTINUOUS
10
6.08841
20
-3.66963
11
6.07314
21
-3.74469
0
LINE
8
BLACK
6
CONTINUOUS
10
6.07314
20
-3.74469
11
6.04637
21
-3.89874
0
LINE
8
BLACK
6
CONTINUOUS
10
6.04637
20
-3.89874
11
6.04637
21
-3.89874
0
LINE
8
BLACK
6
CONTINUOUS
10
6.04637
20
-3.89874
11
6.03355
21
-3.97358
0
LINE
8
BLACK
6
CONTINUOUS
10
6.03355
20
-3.97358
11
6.03353
21
-3.97361
0
LINE
8
BLACK
6
CONTINUOUS
10
6.03353
20
-3.97361
11
6.03354
21
-3.97364
0
LINE
8
BLACK
6
CONTINUOUS
10
6.03354
20
-3.97364
11
6.02029
21
-4.04444
0
LINE
8
BLACK
6
CONTINUOUS
10
6.02029
20
-4.04444
11
6.02026
21
-4.0445
0
LINE
8
BLACK
6
CONTINUOUS
10
6.02026
20
-4.0445
11
6.02027
21
-4.04456
0
LINE
8
BLACK
6
CONTINUOUS
10
6.02027
20
-4.04456
11
6.00606
21
-4.10961
0
LINE
8
BLACK
6
CONTINUOUS
10
6.00606
20
-4.10961
11
6.00602
21
-4.10967
0
LINE
8
BLACK
6
CONTINUOUS
10
6.00602
20
-4.10967
11
6.00603
21
-4.10975
0
LINE
8
BLACK
6
CONTINUOUS
10
6.00603
20
-4.10975
11
5.99842
21
-4.13964
0
LINE
8
BLACK
6
CONTINUOUS
10
5.99842
20
-4.13964
11
5.99838
21
-4.13969
0
LINE
8
BLACK
6
CONTINUOUS
10
5.99838
20
-4.13969
11
5.99838
21
-4.13975
0
LINE
8
BLACK
6
CONTINUOUS
10
5.99838
20
-4.13975
11
5.99037
21
-4.16767
0
LINE
8
BLACK
6
CONTINUOUS
10
5.99037
20
-4.16767
11
5.99033
21
-4.16773
0
LINE
8
BLACK
6
CONTINUOUS
10
5.99033
20
-4.16773
11
5.99033
21
-4.16781
0
LINE
8
BLACK
6
CONTINUOUS
10
5.99033
20
-4.16781
11
5.98188
21
-4.19361
0
LINE
8
BLACK
6
CONTINUOUS
10
5.98188
20
-4.19361
11
5.98182
21
-4.19369
0
LINE
8
BLACK
6
CONTINUOUS
10
5.98182
20
-4.19369
11
5.98182
21
-4.19378
0
LINE
8
BLACK
6
CONTINUOUS
10
5.98182
20
-4.19378
11
5.97289
21
-4.21735
0
LINE
8
BLACK
6
CONTINUOUS
10
5.97289
20
-4.21735
11
5.97281
21
-4.21744
0
LINE
8
BLACK
6
CONTINUOUS
10
5.97281
20
-4.21744
11
5.9728
21
-4.21755
0
LINE
8
BLACK
6
CONTINUOUS
10
5.9728
20
-4.21755
11
5.96337
21
-4.2388
0
LINE
8
BLACK
6
CONTINUOUS
10
5.96337
20
-4.2388
11
5.96328
21
-4.2389
0
LINE
8
BLACK
6
CONTINUOUS
10
5.96328
20
-4.2389
11
5.96326
21
-4.23904
0
LINE
8
BLACK
6
CONTINUOUS
10
5.96326
20
-4.23904
11
5.95331
21
-4.25792
0
LINE
8
BLACK
6
CONTINUOUS
10
5.95331
20
-4.25792
11
5.95325
21
-4.25797
0
LINE
8
BLACK
6
CONTINUOUS
10
5.95325
20
-4.25797
11
5.95323
21
-4.25805
0
LINE
8
BLACK
6
CONTINUOUS
10
5.95323
20
-4.25805
11
5.68157
21
-4.72856
0
LINE
8
BLACK
6
CONTINUOUS
10
5.68157
20
-4.72856
11
5.68142
21
-4.7287
0
LINE
8
BLACK
6
CONTINUOUS
10
5.68142
20
-4.7287
11
5.68136
21
-4.72889
0
LINE
8
BLACK
6
CONTINUOUS
10
5.68136
20
-4.72889
11
5.66905
21
-4.74606
0
LINE
8
BLACK
6
CONTINUOUS
10
5.66905
20
-4.74606
11
5.66871
21
-4.74631
0
LINE
8
BLACK
6
CONTINUOUS
10
5.66871
20
-4.74631
11
5.6685
21
-4.74668
0
LINE
8
BLACK
6
CONTINUOUS
10
5.6685
20
-4.74668
11
5.65383
21
-4.76008
0
LINE
8
BLACK
6
CONTINUOUS
10
5.65383
20
-4.76008
11
5.65346
21
-4.76025
0
LINE
8
BLACK
6
CONTINUOUS
10
5.65346
20
-4.76025
11
5.65319
21
-4.76056
0
LINE
8
BLACK
6
CONTINUOUS
10
5.65319
20
-4.76056
11
5.63659
21
-4.77047
0
LINE
8
BLACK
6
CONTINUOUS
10
5.63659
20
-4.77047
11
5.63623
21
-4.77055
0
LINE
8
BLACK
6
CONTINUOUS
10
5.63623
20
-4.77055
11
5.63593
21
-4.77078
0
LINE
8
BLACK
6
CONTINUOUS
10
5.63593
20
-4.77078
11
5.61793
21
-4.77739
0
LINE
8
BLACK
6
CONTINUOUS
10
5.61793
20
-4.77739
11
5.61757
21
-4.7774
0
LINE
8
BLACK
6
CONTINUOUS
10
5.61757
20
-4.7774
11
5.61725
21
-4.77757
0
LINE
8
BLACK
6
CONTINUOUS
10
5.61725
20
-4.77757
11
5.59835
21
-4.78085
0
LINE
8
BLACK
6
CONTINUOUS
10
5.59835
20
-4.78085
11
5.59798
21
-4.7808
0
LINE
8
BLACK
6
CONTINUOUS
10
5.59798
20
-4.7808
11
5.59762
21
-4.78091
0
LINE
8
BLACK
6
CONTINUOUS
10
5.59762
20
-4.78091
11
5.57829
21
-4.78063
0
LINE
8
BLACK
6
CONTINUOUS
10
5.57829
20
-4.78063
11
5.57791
21
-4.7805
0
LINE
8
BLACK
6
CONTINUOUS
10
5.57791
20
-4.7805
11
5.5775
21
-4.78054
0
LINE
8
BLACK
6
CONTINUOUS
10
5.5775
20
-4.78054
11
5.55809
21
-4.77626
0
LINE
8
BLACK
6
CONTINUOUS
10
5.55809
20
-4.77626
11
5.55773
21
-4.77605
0
LINE
8
BLACK
6
CONTINUOUS
10
5.55773
20
-4.77605
11
5.55731
21
-4.776
0
LINE
8
BLACK
6
CONTINUOUS
10
5.55731
20
-4.776
11
5.53806
21
-4.76729
0
LINE
8
BLACK
6
CONTINUOUS
10
5.53806
20
-4.76729
11
5.53791
21
-4.76715
0
LINE
8
BLACK
6
CONTINUOUS
10
5.53791
20
-4.76715
11
5.53772
21
-4.76711
0
LINE
8
BLACK
6
CONTINUOUS
10
5.53772
20
-4.76711
11
5.06723
21
-4.49548
0
LINE
8
BLACK
6
CONTINUOUS
10
5.06723
20
-4.49548
11
4.97538
21
-4.44468
0
LINE
8
BLACK
6
CONTINUOUS
10
4.97538
20
-4.44468
11
4.92818
21
-4.4228
0
LINE
8
BLACK
6
CONTINUOUS
10
4.92818
20
-4.4228
11
4.87873
21
-4.40598
0
LINE
8
BLACK
6
CONTINUOUS
10
4.87873
20
-4.40598
11
4.35976
21
-4.26692
0
LINE
8
BLACK
6
CONTINUOUS
10
4.35976
20
-4.26692
11
4.35961
21
-4.26683
0
LINE
8
BLACK
6
CONTINUOUS
10
4.35961
20
-4.26683
11
4.35943
21
-4.26682
0
LINE
8
BLACK
6
CONTINUOUS
10
4.35943
20
-4.26682
11
4.33978
21
-4.25966
0
LINE
8
BLACK
6
CONTINUOUS
10
4.33978
20
-4.25966
11
4.33949
21
-4.25943
0
LINE
8
BLACK
6
CONTINUOUS
10
4.33949
20
-4.25943
11
4.33913
21
-4.25935
0
LINE
8
BLACK
6
CONTINUOUS
10
4.33913
20
-4.25935
11
4.32202
21
-4.24927
0
LINE
8
BLACK
6
CONTINUOUS
10
4.32202
20
-4.24927
11
4.32178
21
-4.249
0
LINE
8
BLACK
6
CONTINUOUS
10
4.32178
20
-4.249
11
4.32144
21
-4.24886
0
LINE
8
BLACK
6
CONTINUOUS
10
4.32144
20
-4.24886
11
4.30686
21
-4.23625
0
LINE
8
BLACK
6
CONTINUOUS
10
4.30686
20
-4.23625
11
4.30667
21
-4.23595
0
LINE
8
BLACK
6
CONTINUOUS
10
4.30667
20
-4.23595
11
4.30638
21
-4.23576
0
LINE
8
BLACK
6
CONTINUOUS
10
4.30638
20
-4.23576
11
4.29442
21
-4.22105
0
LINE
8
BLACK
6
CONTINUOUS
10
4.29442
20
-4.22105
11
4.29428
21
-4.22071
0
LINE
8
BLACK
6
CONTINUOUS
10
4.29428
20
-4.22071
11
4.29402
21
-4.22046
0
LINE
8
BLACK
6
CONTINUOUS
10
4.29402
20
-4.22046
11
4.285
21
-4.204
0
LINE
8
BLACK
6
CONTINUOUS
10
4.285
20
-4.204
11
4.28492
21
-4.2036
0
LINE
8
BLACK
6
CONTINUOUS
10
4.28492
20
-4.2036
11
4.28469
21
-4.20327
0
LINE
8
BLACK
6
CONTINUOUS
10
4.28469
20
-4.20327
11
4.27913
21
-4.18528
0
LINE
8
BLACK
6
CONTINUOUS
10
4.27913
20
-4.18528
11
4.27914
21
-4.18483
0
LINE
8
BLACK
6
CONTINUOUS
10
4.27914
20
-4.18483
11
4.27896
21
-4.18441
0
LINE
8
BLACK
6
CONTINUOUS
10
4.27896
20
-4.18441
11
4.27752
21
-4.16501
0
LINE
8
BLACK
6
CONTINUOUS
10
4.27752
20
-4.16501
11
4.27763
21
-4.16456
0
LINE
8
BLACK
6
CONTINUOUS
10
4.27763
20
-4.16456
11
4.27755
21
-4.1641
0
LINE
8
BLACK
6
CONTINUOUS
10
4.27755
20
-4.1641
11
4.28083
21
-4.14328
0
LINE
8
BLACK
6
CONTINUOUS
10
4.28083
20
-4.14328
11
4.28092
21
-4.14309
0
LINE
8
BLACK
6
CONTINUOUS
10
4.28092
20
-4.14309
11
4.28091
21
-4.14288
0
LINE
8
BLACK
6
CONTINUOUS
10
4.28091
20
-4.14288
11
4.4215
21
-3.61821
0
LINE
8
BLACK
6
CONTINUOUS
10
4.4215
20
-3.61821
11
4.42503
21
-3.6004
0
LINE
8
BLACK
6
CONTINUOUS
10
4.42503
20
-3.6004
11
4.42585
21
-3.58382
0
LINE
8
BLACK
6
CONTINUOUS
10
4.42585
20
-3.58382
11
4.42415
21
-3.56828
0
LINE
8
BLACK
6
CONTINUOUS
10
4.42415
20
-3.56828
11
4.42011
21
-3.5537
0
LINE
8
BLACK
6
CONTINUOUS
10
4.42011
20
-3.5537
11
4.41395
21
-3.54002
0
LINE
8
BLACK
6
CONTINUOUS
10
4.41395
20
-3.54002
11
4.40593
21
-3.52729
0
LINE
8
BLACK
6
CONTINUOUS
10
4.40593
20
-3.52729
11
4.38486
21
-3.50425
0
LINE
8
BLACK
6
CONTINUOUS
10
4.38486
20
-3.50425
11
4.35883
21
-3.48522
0
LINE
8
BLACK
6
CONTINUOUS
10
4.35883
20
-3.48522
11
4.32924
21
-3.47073
0
LINE
8
BLACK
6
CONTINUOUS
10
4.32924
20
-3.47073
11
4.29711
21
-3.46155
0
LINE
8
BLACK
6
CONTINUOUS
10
4.29711
20
-3.46155
11
4.26282
21
-3.45836
0
LINE
8
BLACK
6
CONTINUOUS
10
4.26282
20
-3.45836
11
4.07854
21
-3.45836
0
LINE
8
BLACK
6
CONTINUOUS
10
4.07854
20
-3.45836
11
4.07836
21
-3.4583
0
LINE
8
BLACK
6
CONTINUOUS
10
4.07836
20
-3.4583
11
4.07817
21
-3.45835
0
LINE
8
BLACK
6
CONTINUOUS
10
4.07817
20
-3.45835
11
4.05904
21
-3.45656
0
LINE
8
BLACK
6
CONTINUOUS
10
4.05904
20
-3.45656
11
4.05865
21
-3.45639
0
LINE
8
BLACK
6
CONTINUOUS
10
4.05865
20
-3.45639
11
4.05823
21
-3.45639
0
LINE
8
BLACK
6
CONTINUOUS
10
4.05823
20
-3.45639
11
4.04145
21
-3.45113
0
LINE
8
BLACK
6
CONTINUOUS
10
4.04145
20
-3.45113
11
4.04109
21
-3.45087
0
LINE
8
BLACK
6
CONTINUOUS
10
4.04109
20
-3.45087
11
4.04065
21
-3.45078
0
LINE
8
BLACK
6
CONTINUOUS
10
4.04065
20
-3.45078
11
4.02605
21
-3.44229
0
LINE
8
BLACK
6
CONTINUOUS
10
4.02605
20
-3.44229
11
4.02577
21
-3.44199
0
LINE
8
BLACK
6
CONTINUOUS
10
4.02577
20
-3.44199
11
4.0254
21
-3.44183
0
LINE
8
BLACK
6
CONTINUOUS
10
4.0254
20
-3.44183
11
4.01271
21
-3.43051
0
LINE
8
BLACK
6
CONTINUOUS
10
4.01271
20
-3.43051
11
4.01254
21
-3.43023
0
LINE
8
BLACK
6
CONTINUOUS
10
4.01254
20
-3.43023
11
4.01227
21
-3.43006
0
LINE
8
BLACK
6
CONTINUOUS
10
4.01227
20
-3.43006
11
4.00117
21
-3.41639
0
LINE
8
BLACK
6
CONTINUOUS
10
4.00117
20
-3.41639
11
4.00108
21
-3.41617
0
LINE
8
BLACK
6
CONTINUOUS
10
4.00108
20
-3.41617
11
4.0009
21
-3.41602
0
LINE
8
BLACK
6
CONTINUOUS
10
4.0009
20
-3.41602
11
3.99102
21
-3.40054
0
LINE
8
BLACK
6
CONTINUOUS
10
3.99102
20
-3.40054
11
3.99098
21
-3.40036
0
LINE
8
BLACK
6
CONTINUOUS
10
3.99098
20
-3.40036
11
3.99085
21
-3.40023
0
LINE
8
BLACK
6
CONTINUOUS
10
3.99085
20
-3.40023
11
3.97317
21
-3.36618
0
LINE
8
BLACK
6
CONTINUOUS
10
3.97317
20
-3.36618
11
3.95558
21
-3.33228
0
LINE
8
BLACK
6
CONTINUOUS
10
3.95558
20
-3.33228
11
3.94591
21
-3.31713
0
LINE
8
BLACK
6
CONTINUOUS
10
3.94591
20
-3.31713
11
3.93515
21
-3.30389
0
LINE
8
BLACK
6
CONTINUOUS
10
3.93515
20
-3.30389
11
3.92299
21
-3.29305
0
LINE
8
BLACK
6
CONTINUOUS
10
3.92299
20
-3.29305
11
3.90911
21
-3.28498
0
LINE
8
BLACK
6
CONTINUOUS
10
3.90911
20
-3.28498
11
3.89314
21
-3.27997
0
LINE
8
BLACK
6
CONTINUOUS
10
3.89314
20
-3.27997
11
3.87461
21
-3.27824
0
LINE
8
BLACK
6
CONTINUOUS
10
3.87461
20
-3.27824
11
3.3317
21
-3.27824
0
LINE
8
BLACK
6
CONTINUOUS
10
3.3317
20
-3.27824
11
3.30893
21
-3.28057
0
LINE
8
BLACK
6
CONTINUOUS
10
3.30893
20
-3.28057
11
3.29033
21
-3.28727
0
LINE
8
BLACK
6
CONTINUOUS
10
3.29033
20
-3.28727
11
3.27522
21
-3.29803
0
LINE
8
BLACK
6
CONTINUOUS
10
3.27522
20
-3.29803
11
3.26299
21
-3.3125
0
LINE
8
BLACK
6
CONTINUOUS
10
3.26299
20
-3.3125
11
3.25315
21
-3.33024
0
LINE
8
BLACK
6
CONTINUOUS
10
3.25315
20
-3.33024
11
3.24519
21
-3.35054
0
LINE
8
BLACK
6
CONTINUOUS
10
3.24519
20
-3.35054
11
3.23243
21
-3.39594
0
LINE
8
BLACK
6
CONTINUOUS
10
3.23243
20
-3.39594
11
3.23243
21
-3.39594
0
LINE
8
BLACK
6
CONTINUOUS
10
3.23243
20
-3.39594
11
3.21962
21
-3.44154
0
LINE
8
BLACK
6
CONTINUOUS
10
3.21962
20
-3.44154
11
3.21951
21
-3.44171
0
LINE
8
BLACK
6
CONTINUOUS
10
3.21951
20
-3.44171
11
3.2195
21
-3.44191
0
LINE
8
BLACK
6
CONTINUOUS
10
3.2195
20
-3.44191
11
3.21137
21
-3.46264
0
LINE
8
BLACK
6
CONTINUOUS
10
3.21137
20
-3.46264
11
3.2112
21
-3.46285
0
LINE
8
BLACK
6
CONTINUOUS
10
3.2112
20
-3.46285
11
3.21115
21
-3.46311
0
LINE
8
BLACK
6
CONTINUOUS
10
3.21115
20
-3.46311
11
3.20099
21
-3.48142
0
LINE
8
BLACK
6
CONTINUOUS
10
3.20099
20
-3.48142
11
3.2007
21
-3.48168
0
LINE
8
BLACK
6
CONTINUOUS
10
3.2007
20
-3.48168
11
3.20055
21
-3.48205
0
LINE
8
BLACK
6
CONTINUOUS
10
3.20055
20
-3.48205
11
3.18776
21
-3.49719
0
LINE
8
BLACK
6
CONTINUOUS
10
3.18776
20
-3.49719
11
3.18733
21
-3.49746
0
LINE
8
BLACK
6
CONTINUOUS
10
3.18733
20
-3.49746
11
3.18704
21
-3.49786
0
LINE
8
BLACK
6
CONTINUOUS
10
3.18704
20
-3.49786
11
3.17108
21
-3.50922
0
LINE
8
BLACK
6
CONTINUOUS
10
3.17108
20
-3.50922
11
3.17056
21
-3.50938
0
LINE
8
BLACK
6
CONTINUOUS
10
3.17056
20
-3.50938
11
3.17013
21
-3.50972
0
LINE
8
BLACK
6
CONTINUOUS
10
3.17013
20
-3.50972
11
3.15057
21
-3.51677
0
LINE
8
BLACK
6
CONTINUOUS
10
3.15057
20
-3.51677
11
3.15008
21
-3.51678
0
LINE
8
BLACK
6
CONTINUOUS
10
3.15008
20
-3.51678
11
3.14963
21
-3.51698
0
LINE
8
BLACK
6
CONTINUOUS
10
3.14963
20
-3.51698
11
3.12619
21
-3.51937
0
LINE
8
BLACK
6
CONTINUOUS
10
3.12619
20
-3.51937
11
3.12598
21
-3.51933
0
LINE
8
BLACK
6
CONTINUOUS
10
3.12598
20
-3.51933
11
3.12579
21
-3.51939
0
LINE
8
BLACK
6
CONTINUOUS
10
3.12579
20
-3.51939
11
2.58265
21
-3.51939
0
LINE
8
BLACK
6
CONTINUOUS
10
2.58265
20
-3.51939
11
2.56971
21
-3.52052
0
LINE
8
BLACK
6
CONTINUOUS
10
2.56971
20
-3.52052
11
2.55829
21
-3.5238
0
LINE
8
BLACK
6
CONTINUOUS
10
2.55829
20
-3.5238
11
2.5481
21
-3.52921
0
LINE
8
BLACK
6
CONTINUOUS
10
2.5481
20
-3.52921
11
2.53902
21
-3.53672
0
LINE
8
BLACK
6
CONTINUOUS
10
2.53902
20
-3.53672
11
2.53095
21
-3.54633
0
LINE
8
BLACK
6
CONTINUOUS
10
2.53095
20
-3.54633
11
2.52389
21
-3.55789
0
LINE
8
BLACK
6
CONTINUOUS
10
2.52389
20
-3.55789
11
2.51236
21
-3.58692
0
LINE
8
BLACK
6
CONTINUOUS
10
2.51236
20
-3.58692
11
2.5041
21
-3.62224
0
LINE
8
BLACK
6
CONTINUOUS
10
2.5041
20
-3.62224
11
2.49835
21
-3.66249
0
LINE
8
BLACK
6
CONTINUOUS
10
2.49835
20
-3.66249
11
2.4909
21
-3.7515
0
LINE
8
BLACK
6
CONTINUOUS
10
2.4909
20
-3.7515
11
2.48735
21
-3.79687
0
LINE
8
BLACK
6
CONTINUOUS
10
2.48735
20
-3.79687
11
2.48733
21
-3.79692
0
LINE
8
BLACK
6
CONTINUOUS
10
2.48733
20
-3.79692
11
2.48734
21
-3.79698
0
LINE
8
BLACK
6
CONTINUOUS
10
2.48734
20
-3.79698
11
2.48263
21
-3.84073
0
LINE
8
BLACK
6
CONTINUOUS
10
2.48263
20
-3.84073
11
2.48258
21
-3.84085
0
LINE
8
BLACK
6
CONTINUOUS
10
2.48258
20
-3.84085
11
2.4826
21
-3.84097
0
LINE
8
BLACK
6
CONTINUOUS
10
2.4826
20
-3.84097
11
2.4758
21
-3.8815
0
LINE
8
BLACK
6
CONTINUOUS
10
2.4758
20
-3.8815
11
2.4757
21
-3.88168
0
LINE
8
BLACK
6
CONTINUOUS
10
2.4757
20
-3.88168
11
2.47571
21
-3.88188
0
LINE
8
BLACK
6
CONTINUOUS
10
2.47571
20
-3.88188
11
2.4659
21
-3.91766
0
LINE
8
BLACK
6
CONTINUOUS
10
2.4659
20
-3.91766
11
2.46577
21
-3.91786
0
LINE
8
BLACK
6
CONTINUOUS
10
2.46577
20
-3.91786
11
2.46576
21
-3.91809
0
LINE
8
BLACK
6
CONTINUOUS
10
2.46576
20
-3.91809
11
2.45946
21
-3.93375
0
LINE
8
BLACK
6
CONTINUOUS
10
2.45946
20
-3.93375
11
2.45933
21
-3.93391
0
LINE
8
BLACK
6
CONTINUOUS
10
2.45933
20
-3.93391
11
2.45929
21
-3.93412
0
LINE
8
BLACK
6
CONTINUOUS
10
2.45929
20
-3.93412
11
2.45194
21
-3.94807
0
LINE
8
BLACK
6
CONTINUOUS
10
2.45194
20
-3.94807
11
2.45175
21
-3.94825
0
LINE
8
BLACK
6
CONTINUOUS
10
2.45175
20
-3.94825
11
2.45167
21
-3.9485
0
LINE
8
BLACK
6
CONTINUOUS
10
2.45167
20
-3.9485
11
2.44317
21
-3.9606
0
LINE
8
BLACK
6
CONTINUOUS
10
2.44317
20
-3.9606
11
2.44292
21
-3.96079
0
LINE
8
BLACK
6
CONTINUOUS
10
2.44292
20
-3.96079
11
2.44278
21
-3.96107
0
LINE
8
BLACK
6
CONTINUOUS
10
2.44278
20
-3.96107
11
2.43305
21
-3.97118
0
LINE
8
BLACK
6
CONTINUOUS
10
2.43305
20
-3.97118
11
2.43273
21
-3.97134
0
LINE
8
BLACK
6
CONTINUOUS
10
2.43273
20
-3.97134
11
2.43252
21
-3.97163
0
LINE
8
BLACK
6
CONTINUOUS
10
2.43252
20
-3.97163
11
2.42149
21
-3.97963
0
LINE
8
BLACK
6
CONTINUOUS
10
2.42149
20
-3.97963
11
2.42112
21
-3.97975
0
LINE
8
BLACK
6
CONTINUOUS
10
2.42112
20
-3.97975
11
2.42084
21
-3.98001
0
LINE
8
BLACK
6
CONTINUOUS
10
2.42084
20
-3.98001
11
2.40845
21
-3.98579
0
LINE
8
BLACK
6
CONTINUOUS
10
2.40845
20
-3.98579
11
2.40807
21
-3.98584
0
LINE
8
BLACK
6
CONTINUOUS
10
2.40807
20
-3.98584
11
2.40775
21
-3.98604
0
LINE
8
BLACK
6
CONTINUOUS
10
2.40775
20
-3.98604
11
2.39395
21
-3.98955
0
LINE
8
BLACK
6
CONTINUOUS
10
2.39395
20
-3.98955
11
2.3936
21
-3.98952
0
LINE
8
BLACK
6
CONTINUOUS
10
2.3936
20
-3.98952
11
2.39328
21
-3.98966
0
LINE
8
BLACK
6
CONTINUOUS
10
2.39328
20
-3.98966
11
2.37805
21
-3.99083
0
LINE
8
BLACK
6
CONTINUOUS
10
2.37805
20
-3.99083
11
2.3779
21
-3.99079
0
LINE
8
BLACK
6
CONTINUOUS
10
2.3779
20
-3.99079
11
2.37775
21
-3.99084
0
LINE
8
BLACK
6
CONTINUOUS
10
2.37775
20
-3.99084
11
1.83445
21
-3.99084
0
LINE
8
BLACK
6
CONTINUOUS
10
1.83445
20
-3.99084
11
1.83426
21
-3.99078
0
LINE
8
BLACK
6
CONTINUOUS
10
1.83426
20
-3.99078
11
1.83406
21
-3.99082
0
LINE
8
BLACK
6
CONTINUOUS
10
1.83406
20
-3.99082
11
1.81303
21
-3.98875
0
LINE
8
BLACK
6
CONTINUOUS
10
1.81303
20
-3.98875
11
1.81264
21
-3.98858
0
LINE
8
BLACK
6
CONTINUOUS
10
1.81264
20
-3.98858
11
1.81222
21
-3.98858
0
LINE
8
BLACK
6
CONTINUOUS
10
1.81222
20
-3.98858
11
1.79328
21
-3.98258
0
LINE
8
BLACK
6
CONTINUOUS
10
1.79328
20
-3.98258
11
1.79295
21
-3.98234
0
LINE
8
BLACK
6
CONTINUOUS
10
1.79295
20
-3.98234
11
1.79255
21
-3.98226
0
LINE
8
BLACK
6
CONTINUOUS
10
1.79255
20
-3.98226
11
1.77566
21
-3.97284
0
LINE
8
BLACK
6
CONTINUOUS
10
1.77566
20
-3.97284
11
1.77541
21
-3.97257
0
LINE
8
BLACK
6
CONTINUOUS
10
1.77541
20
-3.97257
11
1.77506
21
-3.97243
0
LINE
8
BLACK
6
CONTINUOUS
10
1.77506
20
-3.97243
11
1.76034
21
-3.96014
0
LINE
8
BLACK
6
CONTINUOUS
10
1.76034
20
-3.96014
11
1.76015
21
-3.95983
0
LINE
8
BLACK
6
CONTINUOUS
10
1.76015
20
-3.95983
11
1.75984
21
-3.95964
0
LINE
8
BLACK
6
CONTINUOUS
10
1.75984
20
-3.95964
11
1.74755
21
-3.94492
0
LINE
8
BLACK
6
CONTINUOUS
10
1.74755
20
-3.94492
11
1.74741
21
-3.94457
0
LINE
8
BLACK
6
CONTINUOUS
10
1.74741
20
-3.94457
11
1.74713
21
-3.94431
0
LINE
8
BLACK
6
CONTINUOUS
10
1.74713
20
-3.94431
11
1.73771
21
-3.92743
0
LINE
8
BLACK
6
CONTINUOUS
10
1.73771
20
-3.92743
11
1.73764
21
-3.92703
0
LINE
8
BLACK
6
CONTINUOUS
10
1.73764
20
-3.92703
11
1.7374
21
-3.9267
0
LINE
8
BLACK
6
CONTINUOUS
10
1.7374
20
-3.9267
11
1.7314
21
-3.90775
0
LINE
8
BLACK
6
CONTINUOUS
10
1.7314
20
-3.90775
11
1.7314
21
-3.90733
0
LINE
8
BLACK
6
CONTINUOUS
10
1.7314
20
-3.90733
11
1.73123
21
-3.90695
0
LINE
8
BLACK
6
CONTINUOUS
10
1.73123
20
-3.90695
11
1.72915
21
-3.88592
0
LINE
8
BLACK
6
CONTINUOUS
10
1.72915
20
-3.88592
11
1.7292
21
-3.88572
0
LINE
8
BLACK
6
CONTINUOUS
10
1.7292
20
-3.88572
11
1.72913
21
-3.88553
0
LINE
8
BLACK
6
CONTINUOUS
10
1.72913
20
-3.88553
11
1.72913
21
-1.84616
0
LINE
8
BLACK
6
CONTINUOUS
10
1.72913
20
-1.84616
11
1.7292
21
-1.84597
0
LINE
8
BLACK
6
CONTINUOUS
10
1.7292
20
-1.84597
11
1.72915
21
-1.84577
0
LINE
8
BLACK
6
CONTINUOUS
10
1.72915
20
-1.84577
11
1.73123
21
-1.82474
0
LINE
8
BLACK
6
CONTINUOUS
10
1.73123
20
-1.82474
11
1.7314
21
-1.82436
0
LINE
8
BLACK
6
CONTINUOUS
10
1.7314
20
-1.82436
11
1.7314
21
-1.82394
0
LINE
8
BLACK
6
CONTINUOUS
10
1.7314
20
-1.82394
11
1.7374
21
-1.80499
0
LINE
8
BLACK
6
CONTINUOUS
10
1.7374
20
-1.80499
11
1.73764
21
-1.80466
0
LINE
8
BLACK
6
CONTINUOUS
10
1.73764
20
-1.80466
11
1.73771
21
-1.80426
0
LINE
8
BLACK
6
CONTINUOUS
10
1.73771
20
-1.80426
11
1.74713
21
-1.78738
0
LINE
8
BLACK
6
CONTINUOUS
10
1.74713
20
-1.78738
11
1.74741
21
-1.78712
0
LINE
8
BLACK
6
CONTINUOUS
10
1.74741
20
-1.78712
11
1.74755
21
-1.78677
0
LINE
8
BLACK
6
CONTINUOUS
10
1.74755
20
-1.78677
11
1.75984
21
-1.77205
0
LINE
8
BLACK
6
CONTINUOUS
10
1.75984
20
-1.77205
11
1.76015
21
-1.77186
0
LINE
8
BLACK
6
CONTINUOUS
10
1.76015
20
-1.77186
11
1.76034
21
-1.77155
0
LINE
8
BLACK
6
CONTINUOUS
10
1.76034
20
-1.77155
11
1.77506
21
-1.75926
0
LINE
8
BLACK
6
CONTINUOUS
10
1.77506
20
-1.75926
11
1.77541
21
-1.75912
0
LINE
8
BLACK
6
CONTINUOUS
10
1.77541
20
-1.75912
11
1.77566
21
-1.75885
0
LINE
8
BLACK
6
CONTINUOUS
10
1.77566
20
-1.75885
11
1.79255
21
-1.74943
0
LINE
8
BLACK
6
CONTINUOUS
10
1.79255
20
-1.74943
11
1.79295
21
-1.74935
0
LINE
8
BLACK
6
CONTINUOUS
10
1.79295
20
-1.74935
11
1.79328
21
-1.74911
0
LINE
8
BLACK
6
CONTINUOUS
10
1.79328
20
-1.74911
11
1.81222
21
-1.74311
0
LINE
8
BLACK
6
CONTINUOUS
10
1.81222
20
-1.74311
11
1.81264
21
-1.74311
0
LINE
8
BLACK
6
CONTINUOUS
10
1.81264
20
-1.74311
11
1.81303
21
-1.74294
0
LINE
8
BLACK
6
CONTINUOUS
10
1.81303
20
-1.74294
11
1.83406
21
-1.74087
0
LINE
8
BLACK
6
CONTINUOUS
10
1.83406
20
-1.74087
11
1.83426
21
-1.74091
0
LINE
8
BLACK
6
CONTINUOUS
10
1.83426
20
-1.74091
11
1.83445
21
-1.74085
0
LINE
8
BLACK
6
CONTINUOUS
10
1.83445
20
-1.74085
11
2.3775
21
-1.74085
0
LINE
8
BLACK
6
CONTINUOUS
10
2.3775
20
-1.74085
11
2.39079
21
-1.73917
0
LINE
8
BLACK
6
CONTINUOUS
10
2.39079
20
-1.73917
11
2.40271
21
-1.73426
0
LINE
8
BLACK
6
CONTINUOUS
10
2.40271
20
-1.73426
11
2.41367
21
-1.72606
0
LINE
8
BLACK
6
CONTINUOUS
10
2.41367
20
-1.72606
11
2.42374
21
-1.71453
0
LINE
8
BLACK
6
CONTINUOUS
10
2.42374
20
-1.71453
11
2.43292
21
-1.69973
0
LINE
8
BLACK
6
CONTINUOUS
10
2.43292
20
-1.69973
11
2.4412
21
-1.68183
0
LINE
8
BLACK
6
CONTINUOUS
10
2.4412
20
-1.68183
11
2.4486
21
-1.66103
0
LINE
8
BLACK
6
CONTINUOUS
10
2.4486
20
-1.66103
11
2.45517
21
-1.63759
0
LINE
8
BLACK
6
CONTINUOUS
10
2.45517
20
-1.63759
11
2.46099
21
-1.61176
0
LINE
8
BLACK
6
CONTINUOUS
10
2.46099
20
-1.61176
11
2.46613
21
-1.58384
0
LINE
8
BLACK
6
CONTINUOUS
10
2.46613
20
-1.58384
11
2.47476
21
-1.52273
0
LINE
8
BLACK
6
CONTINUOUS
10
2.47476
20
-1.52273
11
2.48186
21
-1.45668
0
LINE
8
BLACK
6
CONTINUOUS
10
2.48186
20
-1.45668
11
2.48827
21
-1.38812
0
LINE
8
BLACK
6
CONTINUOUS
10
2.48827
20
-1.38812
11
2.48827
21
-1.38811
0
LINE
8
BLACK
6
CONTINUOUS
10
2.48827
20
-1.38811
11
2.48827
21
-1.38811
0
LINE
8
BLACK
6
CONTINUOUS
10
2.48827
20
-1.38811
11
2.49486
21
-1.31952
0
LINE
8
BLACK
6
CONTINUOUS
10
2.49486
20
-1.31952
11
2.49488
21
-1.31948
0
LINE
8
BLACK
6
CONTINUOUS
10
2.49488
20
-1.31948
11
2.49487
21
-1.31944
0
LINE
8
BLACK
6
CONTINUOUS
10
2.49487
20
-1.31944
11
2.50253
21
-1.25331
0
LINE
8
BLACK
6
CONTINUOUS
10
2.50253
20
-1.25331
11
2.50256
21
-1.25323
0
LINE
8
BLACK
6
CONTINUOUS
10
2.50256
20
-1.25323
11
2.50255
21
-1.25315
0
LINE
8
BLACK
6
CONTINUOUS
10
2.50255
20
-1.25315
11
2.51213
21
-1.19189
0
LINE
8
BLACK
6
CONTINUOUS
10
2.51213
20
-1.19189
11
2.51217
21
-1.1918
0
LINE
8
BLACK
6
CONTINUOUS
10
2.51217
20
-1.1918
11
2.51216
21
-1.1917
0
LINE
8
BLACK
6
CONTINUOUS
10
2.51216
20
-1.1917
11
2.51794
21
-1.16363
0
LINE
8
BLACK
6
CONTINUOUS
10
2.51794
20
-1.16363
11
2.51798
21
-1.16355
0
LINE
8
BLACK
6
CONTINUOUS
10
2.51798
20
-1.16355
11
2.51798
21
-1.16346
0
LINE
8
BLACK
6
CONTINUOUS
10
2.51798
20
-1.16346
11
2.52454
21
-1.13745
0
LINE
8
BLACK
6
CONTINUOUS
10
2.52454
20
-1.13745
11
2.52461
21
-1.13735
0
LINE
8
BLACK
6
CONTINUOUS
10
2.52461
20
-1.13735
11
2.52461
21
-1.13723
0
LINE
8
BLACK
6
CONTINUOUS
10
2.52461
20
-1.13723
11
2.53206
21
-1.11356
0
LINE
8
BLACK
6
CONTINUOUS
10
2.53206
20
-1.11356
11
2.53215
21
-1.11344
0
LINE
8
BLACK
6
CONTINUOUS
10
2.53215
20
-1.11344
11
2.53216
21
-1.11329
0
LINE
8
BLACK
6
CONTINUOUS
10
2.53216
20
-1.11329
11
2.54058
21
-1.09219
0
LINE
8
BLACK
6
CONTINUOUS
10
2.54058
20
-1.09219
11
2.54071
21
-1.09204
0
LINE
8
BLACK
6
CONTINUOUS
10
2.54071
20
-1.09204
11
2.54074
21
-1.09184
0
LINE
8
BLACK
6
CONTINUOUS
10
2.54074
20
-1.09184
11
2.55022
21
-1.07355
0
LINE
8
BLACK
6
CONTINUOUS
10
2.55022
20
-1.07355
11
2.55041
21
-1.07337
0
LINE
8
BLACK
6
CONTINUOUS
10
2.55041
20
-1.07337
11
2.55048
21
-1.07312
0
LINE
8
BLACK
6
CONTINUOUS
10
2.55048
20
-1.07312
11
2.56109
21
-1.05784
0
LINE
8
BLACK
6
CONTINUOUS
10
2.56109
20
-1.05784
11
2.56136
21
-1.05764
0
LINE
8
BLACK
6
CONTINUOUS
10
2.56136
20
-1.05764
11
2.56151
21
-1.05734
0
LINE
8
BLACK
6
CONTINUOUS
10
2.56151
20
-1.05734
11
2.57332
21
-1.04525
0
LINE
8
BLACK
6
CONTINUOUS
10
2.57332
20
-1.04525
11
2.57368
21
-1.04506
0
LINE
8
BLACK
6
CONTINUOUS
10
2.57368
20
-1.04506
11
2.57394
21
-1.04473
0
LINE
8
BLACK
6
CONTINUOUS
10
2.57394
20
-1.04473
11
2.587
21
-1.03598
0
LINE
8
BLACK
6
CONTINUOUS
10
2.587
20
-1.03598
11
2.58745
21
-1.03586
0
LINE
8
BLACK
6
CONTINUOUS
10
2.58745
20
-1.03586
11
2.58782
21
-1.03556
0
LINE
8
BLACK
6
CONTINUOUS
10
2.58782
20
-1.03556
11
2.60217
21
-1.03027
0
LINE
8
BLACK
6
CONTINUOUS
10
2.60217
20
-1.03027
11
2.60265
21
-1.03025
0
LINE
8
BLACK
6
CONTINUOUS
10
2.60265
20
-1.03025
11
2.60309
21
-1.03005
0
LINE
8
BLACK
6
CONTINUOUS
10
2.60309
20
-1.03005
11
2.61875
21
-1.02827
0
LINE
8
BLACK
6
CONTINUOUS
10
2.61875
20
-1.02827
11
2.61898
21
-1.02832
0
LINE
8
BLACK
6
CONTINUOUS
10
2.61898
20
-1.02832
11
2.6192
21
-1.02825
0
LINE
8
BLACK
6
CONTINUOUS
10
2.6192
20
-1.02825
11
3.8748
21
-1.02825
0
LINE
8
BLACK
6
CONTINUOUS
10
3.8748
20
-1.02825
11
3.87498
21
-1.02831
0
LINE
8
BLACK
6
CONTINUOUS
10
3.87498
20
-1.02831
11
3.87516
21
-1.02826
0
LINE
8
BLACK
6
CONTINUOUS
10
3.87516
20
-1.02826
11
3.89429
21
-1.03005
0
LINE
8
BLACK
6
CONTINUOUS
10
3.89429
20
-1.03005
11
3.89468
21
-1.03022
0
LINE
8
BLACK
6
CONTINUOUS
10
3.89468
20
-1.03022
11
3.8951
21
-1.03022
0
LINE
8
BLACK
6
CONTINUOUS
10
3.8951
20
-1.03022
11
3.91188
21
-1.03548
0
LINE
8
BLACK
6
CONTINUOUS
10
3.91188
20
-1.03548
11
3.91224
21
-1.03574
0
LINE
8
BLACK
6
CONTINUOUS
10
3.91224
20
-1.03574
11
3.91268
21
-1.03583
0
LINE
8
BLACK
6
CONTINUOUS
10
3.91268
20
-1.03583
11
3.92729
21
-1.04432
0
LINE
8
BLACK
6
CONTINUOUS
10
3.92729
20
-1.04432
11
3.92756
21
-1.04462
0
LINE
8
BLACK
6
CONTINUOUS
10
3.92756
20
-1.04462
11
3.92793
21
-1.04478
0
LINE
8
BLACK
6
CONTINUOUS
10
3.92793
20
-1.04478
11
3.94062
21
-1.0561
0
LINE
8
BLACK
6
CONTINUOUS
10
3.94062
20
-1.0561
11
3.94079
21
-1.05638
0
LINE
8
BLACK
6
CONTINUOUS
10
3.94079
20
-1.05638
11
3.94106
21
-1.05655
0
LINE
8
BLACK
6
CONTINUOUS
10
3.94106
20
-1.05655
11
3.95217
21
-1.07022
0
LINE
8
BLACK
6
CONTINUOUS
10
3.95217
20
-1.07022
11
3.95225
21
-1.07044
0
LINE
8
BLACK
6
CONTINUOUS
10
3.95225
20
-1.07044
11
3.95243
21
-1.07059
0
LINE
8
BLACK
6
CONTINUOUS
10
3.95243
20
-1.07059
11
3.96231
21
-1.08607
0
LINE
8
BLACK
6
CONTINUOUS
10
3.96231
20
-1.08607
11
3.96235
21
-1.08625
0
LINE
8
BLACK
6
CONTINUOUS
10
3.96235
20
-1.08625
11
3.96248
21
-1.08638
0
LINE
8
BLACK
6
CONTINUOUS
10
3.96248
20
-1.08638
11
3.98016
21
-1.12043
0
LINE
8
BLACK
6
CONTINUOUS
10
3.98016
20
-1.12043
11
3.99776
21
-1.15433
0
LINE
8
BLACK
6
CONTINUOUS
10
3.99776
20
-1.15433
11
4.00742
21
-1.16948
0
LINE
8
BLACK
6
CONTINUOUS
10
4.00742
20
-1.16948
11
4.01818
21
-1.18272
0
LINE
8
BLACK
6
CONTINUOUS
10
4.01818
20
-1.18272
11
4.03034
21
-1.19356
0
LINE
8
BLACK
6
CONTINUOUS
10
4.03034
20
-1.19356
11
4.04423
21
-1.20163
0
LINE
8
BLACK
6
CONTINUOUS
10
4.04423
20
-1.20163
11
4.06019
21
-1.20664
0
LINE
8
BLACK
6
CONTINUOUS
10
4.06019
20
-1.20664
11
4.07872
21
-1.20837
0
LINE
8
BLACK
6
CONTINUOUS
10
4.07872
20
-1.20837
11
4.62185
21
-1.20837
0
LINE
8
BLACK
6
CONTINUOUS
10
4.62185
20
-1.20837
11
4.62197
21
-1.20841
0
LINE
8
BLACK
6
CONTINUOUS
10
4.62197
20
-1.20841
11
4.62211
21
-1.20838
0
LINE
8
BLACK
6
CONTINUOUS
10
4.62211
20
-1.20838
11
4.637
21
-1.20936
0
LINE
8
BLACK
6
CONTINUOUS
10
4.637
20
-1.20936
11
4.63725
21
-1.20947
0
LINE
8
BLACK
6
CONTINUOUS
10
4.63725
20
-1.20947
11
4.63753
21
-1.20943
0
LINE
8
BLACK
6
CONTINUOUS
10
4.63753
20
-1.20943
11
4.65165
21
-1.21234
0
LINE
8
BLACK
6
CONTINUOUS
10
4.65165
20
-1.21234
11
4.65199
21
-1.21253
0
LINE
8
BLACK
6
CONTINUOUS
10
4.65199
20
-1.21253
11
4.65237
21
-1.21256
0
LINE
8
BLACK
6
CONTINUOUS
10
4.65237
20
-1.21256
11
4.67856
21
-1.22349
0
LINE
8
BLACK
6
CONTINUOUS
10
4.67856
20
-1.22349
11
4.67886
21
-1.22374
0
LINE
8
BLACK
6
CONTINUOUS
10
4.67886
20
-1.22374
11
4.67923
21
-1.22385
0
LINE
8
BLACK
6
CONTINUOUS
10
4.67923
20
-1.22385
11
4.70335
21
-1.23994
0
LINE
8
BLACK
6
CONTINUOUS
10
4.70335
20
-1.23994
11
4.70347
21
-1.24009
0
LINE
8
BLACK
6
CONTINUOUS
10
4.70347
20
-1.24009
11
4.70366
21
-1.24016
0
LINE
8
BLACK
6
CONTINUOUS
10
4.70366
20
-1.24016
11
4.72669
21
-1.25896
0
LINE
8
BLACK
6
CONTINUOUS
10
4.72669
20
-1.25896
11
4.72669
21
-1.25896
0
LINE
8
BLACK
6
CONTINUOUS
10
4.72669
20
-1.25896
11
4.74959
21
-1.27763
0
LINE
8
BLACK
6
CONTINUOUS
10
4.74959
20
-1.27763
11
4.77323
21
-1.29341
0
LINE
8
BLACK
6
CONTINUOUS
10
4.77323
20
-1.29341
11
4.79872
21
-1.30404
0
LINE
8
BLACK
6
CONTINUOUS
10
4.79872
20
-1.30404
11
4.81221
21
-1.30682
0
LINE
8
BLACK
6
CONTINUOUS
10
4.81221
20
-1.30682
11
4.8267
21
-1.30778
0
LINE
8
BLACK
6
CONTINUOUS
10
4.8267
20
-1.30778
11
5.36988
21
-1.30778
0
LINE
8
BLACK
6
CONTINUOUS
10
5.36988
20
-1.30778
11
5.37003
21
-1.30783
0
LINE
8
BLACK
6
CONTINUOUS
10
5.37003
20
-1.30783
11
5.37019
21
-1.30779
0
LINE
8
BLACK
6
CONTINUOUS
10
5.37019
20
-1.30779
11
5.39672
21
-1.30989
0
LINE
8
BLACK
6
CONTINUOUS
10
5.39672
20
-1.30989
11
5.397
21
-1.31
0
LINE
8
BLACK
6
CONTINUOUS
10
5.397
20
-1.31
11
5.39729
21
-1.30997
0
LINE
8
BLACK
6
CONTINUOUS
10
5.39729
20
-1.30997
11
5.42299
21
-1.31586
0
LINE
8
BLACK
6
CONTINUOUS
10
5.42299
20
-1.31586
11
5.42322
21
-1.316
0
LINE
8
BLACK
6
CONTINUOUS
10
5.42322
20
-1.316
11
5.4235
21
-1.31601
0
LINE
8
BLACK
6
CONTINUOUS
10
5.4235
20
-1.31601
11
5.47333
21
-1.3348
0
LINE
8
BLACK
6
CONTINUOUS
10
5.47333
20
-1.3348
11
5.52291
21
-1.35349
0
LINE
8
BLACK
6
CONTINUOUS
10
5.52291
20
-1.35349
11
5.54807
21
-1.35925
0
LINE
8
BLACK
6
CONTINUOUS
10
5.54807
20
-1.35925
11
5.57432
21
-1.36133
0
LINE
8
BLACK
6
CONTINUOUS
10
5.57432
20
-1.36133
11
5.57656
21
-1.36226
0
LINE
8
BLACK
6
CONTINUOUS
10
5.57656
20
-1.36226
11
5.5772
21
-1.3633
0
LINE
8
BLACK
6
CONTINUOUS
10
5.5772
20
-1.3633
11
5.96201
21
-1.36555
0
LINE
8
BLACK
6
CONTINUOUS
10
5.96201
20
-1.36555
11
6.08012
21
-1.36555
0
LINE
8
BLACK
6
CONTINUOUS
10
6.08012
20
-1.36555
11
6.08151
21
-1.36613
0
LINE
8
BLACK
6
CONTINUOUS
10
6.08151
20
-1.36613
11
6.08209
21
-1.36752
0
LINE
8
BLACK
6
CONTINUOUS
10
1.73903
20
-3.90577
11
1.74478
21
-3.92394
0
LINE
8
BLACK
6
CONTINUOUS
10
1.74478
20
-3.92394
11
1.75383
21
-3.94015
0
LINE
8
BLACK
6
CONTINUOUS
10
1.75383
20
-3.94015
11
1.76566
21
-3.95432
0
LINE
8
BLACK
6
CONTINUOUS
10
1.76566
20
-3.95432
11
1.77982
21
-3.96615
0
LINE
8
BLACK
6
CONTINUOUS
10
1.77982
20
-3.96615
11
1.79604
21
-3.97519
0
LINE
8
BLACK
6
CONTINUOUS
10
1.79604
20
-3.97519
11
1.81421
21
-3.98095
0
LINE
8
BLACK
6
CONTINUOUS
10
1.81421
20
-3.98095
11
1.83464
21
-3.98297
0
LINE
8
BLACK
6
CONTINUOUS
10
1.83464
20
-3.98297
11
2.37759
21
-3.98297
0
LINE
8
BLACK
6
CONTINUOUS
10
2.37759
20
-3.98297
11
2.39234
21
-3.98183
0
LINE
8
BLACK
6
CONTINUOUS
10
2.39234
20
-3.98183
11
2.40545
21
-3.9785
0
LINE
8
BLACK
6
CONTINUOUS
10
2.40545
20
-3.9785
11
2.41717
21
-3.97303
0
LINE
8
BLACK
6
CONTINUOUS
10
2.41717
20
-3.97303
11
2.42762
21
-3.96546
0
LINE
8
BLACK
6
CONTINUOUS
10
2.42762
20
-3.96546
11
2.4369
21
-3.95582
0
LINE
8
BLACK
6
CONTINUOUS
10
2.4369
20
-3.95582
11
2.44509
21
-3.94418
0
LINE
8
BLACK
6
CONTINUOUS
10
2.44509
20
-3.94418
11
2.45223
21
-3.93063
0
LINE
8
BLACK
6
CONTINUOUS
10
2.45223
20
-3.93063
11
2.45837
21
-3.91536
0
LINE
8
BLACK
6
CONTINUOUS
10
2.45837
20
-3.91536
11
2.46806
21
-3.88
0
LINE
8
BLACK
6
CONTINUOUS
10
2.46806
20
-3.88
11
2.47482
21
-3.83978
0
LINE
8
BLACK
6
CONTINUOUS
10
2.47482
20
-3.83978
11
2.4795
21
-3.7962
0
LINE
8
BLACK
6
CONTINUOUS
10
2.4795
20
-3.7962
11
2.48305
21
-3.75087
0
LINE
8
BLACK
6
CONTINUOUS
10
2.48305
20
-3.75087
11
2.48305
21
-3.75086
0
LINE
8
BLACK
6
CONTINUOUS
10
2.48305
20
-3.75086
11
2.48305
21
-3.75085
0
LINE
8
BLACK
6
CONTINUOUS
10
2.48305
20
-3.75085
11
2.49051
21
-3.66172
0
LINE
8
BLACK
6
CONTINUOUS
10
2.49051
20
-3.66172
11
2.49055
21
-3.66161
0
LINE
8
BLACK
6
CONTINUOUS
10
2.49055
20
-3.66161
11
2.49053
21
-3.66149
0
LINE
8
BLACK
6
CONTINUOUS
10
2.49053
20
-3.66149
11
2.49633
21
-3.62096
0
LINE
8
BLACK
6
CONTINUOUS
10
2.49633
20
-3.62096
11
2.49641
21
-3.6208
0
LINE
8
BLACK
6
CONTINUOUS
10
2.49641
20
-3.6208
11
2.49639
21
-3.62062
0
LINE
8
BLACK
6
CONTINUOUS
10
2.49639
20
-3.62062
11
2.50476
21
-3.58484
0
LINE
8
BLACK
6
CONTINUOUS
10
2.50476
20
-3.58484
11
2.50491
21
-3.58458
0
LINE
8
BLACK
6
CONTINUOUS
10
2.50491
20
-3.58458
11
2.50493
21
-3.58428
0
LINE
8
BLACK
6
CONTINUOUS
10
2.50493
20
-3.58428
11
2.5167
21
-3.55467
0
LINE
8
BLACK
6
CONTINUOUS
10
2.5167
20
-3.55467
11
2.51692
21
-3.5544
0
LINE
8
BLACK
6
CONTINUOUS
10
2.51692
20
-3.5544
11
2.517
21
-3.55407
0
LINE
8
BLACK
6
CONTINUOUS
10
2.517
20
-3.55407
11
2.52438
21
-3.54197
0
LINE
8
BLACK
6
CONTINUOUS
10
2.52438
20
-3.54197
11
2.52461
21
-3.54177
0
LINE
8
BLACK
6
CONTINUOUS
10
2.52461
20
-3.54177
11
2.52473
21
-3.54149
0
LINE
8
BLACK
6
CONTINUOUS
10
2.52473
20
-3.54149
11
2.53322
21
-3.53138
0
LINE
8
BLACK
6
CONTINUOUS
10
2.53322
20
-3.53138
11
2.53353
21
-3.53119
0
LINE
8
BLACK
6
CONTINUOUS
10
2.53353
20
-3.53119
11
2.53372
21
-3.53088
0
LINE
8
BLACK
6
CONTINUOUS
10
2.53372
20
-3.53088
11
2.5434
21
-3.52289
0
LINE
8
BLACK
6
CONTINUOUS
10
2.5434
20
-3.52289
11
2.54378
21
-3.52274
0
LINE
8
BLACK
6
CONTINUOUS
10
2.54378
20
-3.52274
11
2.54406
21
-3.52244
0
LINE
8
BLACK
6
CONTINUOUS
10
2.54406
20
-3.52244
11
2.55496
21
-3.51666
0
LINE
8
BLACK
6
CONTINUOUS
10
2.55496
20
-3.51666
11
2.55537
21
-3.51658
0
LINE
8
BLACK
6
CONTINUOUS
10
2.55537
20
-3.51658
11
2.55572
21
-3.51635
0
LINE
8
BLACK
6
CONTINUOUS
10
2.55572
20
-3.51635
11
2.5679
21
-3.51285
0
LINE
8
BLACK
6
CONTINUOUS
10
2.5679
20
-3.51285
11
2.56829
21
-3.51286
0
LINE
8
BLACK
6
CONTINUOUS
10
2.56829
20
-3.51286
11
2.56865
21
-3.51271
0
LINE
8
BLACK
6
CONTINUOUS
10
2.56865
20
-3.51271
11
2.58213
21
-3.51153
0
LINE
8
BLACK
6
CONTINUOUS
10
2.58213
20
-3.51153
11
2.58231
21
-3.51157
0
LINE
8
BLACK
6
CONTINUOUS
10
2.58231
20
-3.51157
11
2.58248
21
-3.51152
0
LINE
8
BLACK
6
CONTINUOUS
10
2.58248
20
-3.51152
11
3.12559
21
-3.51152
0
LINE
8
BLACK
6
CONTINUOUS
10
3.12559
20
-3.51152
11
3.14835
21
-3.50919
0
LINE
8
BLACK
6
CONTINUOUS
10
3.14835
20
-3.50919
11
3.16695
21
-3.50249
0
LINE
8
BLACK
6
CONTINUOUS
10
3.16695
20
-3.50249
11
3.18207
21
-3.49173
0
LINE
8
BLACK
6
CONTINUOUS
10
3.18207
20
-3.49173
11
3.19429
21
-3.47726
0
LINE
8
BLACK
6
CONTINUOUS
10
3.19429
20
-3.47726
11
3.20414
21
-3.45952
0
LINE
8
BLACK
6
CONTINUOUS
10
3.20414
20
-3.45952
11
3.2121
21
-3.43922
0
LINE
8
BLACK
6
CONTINUOUS
10
3.2121
20
-3.43922
11
3.22485
21
-3.39382
0
LINE
8
BLACK
6
CONTINUOUS
10
3.22485
20
-3.39382
11
3.23766
21
-3.34822
0
LINE
8
BLACK
6
CONTINUOUS
10
3.23766
20
-3.34822
11
3.23777
21
-3.34805
0
LINE
8
BLACK
6
CONTINUOUS
10
3.23777
20
-3.34805
11
3.23778
21
-3.34785
0
LINE
8
BLACK
6
CONTINUOUS
10
3.23778
20
-3.34785
11
3.24591
21
-3.32712
0
LINE
8
BLACK
6
CONTINUOUS
10
3.24591
20
-3.32712
11
3.24608
21
-3.32691
0
LINE
8
BLACK
6
CONTINUOUS
10
3.24608
20
-3.32691
11
3.24614
21
-3.32665
0
LINE
8
BLACK
6
CONTINUOUS
10
3.24614
20
-3.32665
11
3.25629
21
-3.30834
0
LINE
8
BLACK
6
CONTINUOUS
10
3.25629
20
-3.30834
11
3.25658
21
-3.30808
0
LINE
8
BLACK
6
CONTINUOUS
10
3.25658
20
-3.30808
11
3.25673
21
-3.30771
0
LINE
8
BLACK
6
CONTINUOUS
10
3.25673
20
-3.30771
11
3.26952
21
-3.29257
0
LINE
8
BLACK
6
CONTINUOUS
10
3.26952
20
-3.29257
11
3.26995
21
-3.2923
0
LINE
8
BLACK
6
CONTINUOUS
10
3.26995
20
-3.2923
11
3.27025
21
-3.2919
0
LINE
8
BLACK
6
CONTINUOUS
10
3.27025
20
-3.2919
11
3.28621
21
-3.28054
0
LINE
8
BLACK
6
CONTINUOUS
10
3.28621
20
-3.28054
11
3.28672
21
-3.28038
0
LINE
8
BLACK
6
CONTINUOUS
10
3.28672
20
-3.28038
11
3.28715
21
-3.28004
0
LINE
8
BLACK
6
CONTINUOUS
10
3.28715
20
-3.28004
11
3.30671
21
-3.27299
0
LINE
8
BLACK
6
CONTINUOUS
10
3.30671
20
-3.27299
11
3.3072
21
-3.27298
0
LINE
8
BLACK
6
CONTINUOUS
10
3.3072
20
-3.27298
11
3.30765
21
-3.27278
0
LINE
8
BLACK
6
CONTINUOUS
10
3.30765
20
-3.27278
11
3.3311
21
-3.27039
0
LINE
8
BLACK
6
CONTINUOUS
10
3.3311
20
-3.27039
11
3.3313
21
-3.27043
0
LINE
8
BLACK
6
CONTINUOUS
10
3.3313
20
-3.27043
11
3.3315
21
-3.27037
0
LINE
8
BLACK
6
CONTINUOUS
10
3.3315
20
-3.27037
11
3.8748
21
-3.27037
0
LINE
8
BLACK
6
CONTINUOUS
10
3.8748
20
-3.27037
11
3.87498
21
-3.27043
0
LINE
8
BLACK
6
CONTINUOUS
10
3.87498
20
-3.27043
11
3.87516
21
-3.27039
0
LINE
8
BLACK
6
CONTINUOUS
10
3.87516
20
-3.27039
11
3.89429
21
-3.27217
0
LINE
8
BLACK
6
CONTINUOUS
10
3.89429
20
-3.27217
11
3.89468
21
-3.27234
0
LINE
8
BLACK
6
CONTINUOUS
10
3.89468
20
-3.27234
11
3.8951
21
-3.27234
0
LINE
8
BLACK
6
CONTINUOUS
10
3.8951
20
-3.27234
11
3.91188
21
-3.2776
0
LINE
8
BLACK
6
CONTINUOUS
10
3.91188
20
-3.2776
11
3.91224
21
-3.27786
0
LINE
8
BLACK
6
CONTINUOUS
10
3.91224
20
-3.27786
11
3.91268
21
-3.27795
0
LINE
8
BLACK
6
CONTINUOUS
10
3.91268
20
-3.27795
11
3.92729
21
-3.28644
0
LINE
8
BLACK
6
CONTINUOUS
10
3.92729
20
-3.28644
11
3.92756
21
-3.28674
0
LINE
8
BLACK
6
CONTINUOUS
10
3.92756
20
-3.28674
11
3.92793
21
-3.2869
0
LINE
8
BLACK
6
CONTINUOUS
10
3.92793
20
-3.2869
11
3.94062
21
-3.29822
0
LINE
8
BLACK
6
CONTINUOUS
10
3.94062
20
-3.29822
11
3.94079
21
-3.2985
0
LINE
8
BLACK
6
CONTINUOUS
10
3.94079
20
-3.2985
11
3.94106
21
-3.29867
0
LINE
8
BLACK
6
CONTINUOUS
10
3.94106
20
-3.29867
11
3.95217
21
-3.31234
0
LINE
8
BLACK
6
CONTINUOUS
10
3.95217
20
-3.31234
11
3.95225
21
-3.31256
0
LINE
8
BLACK
6
CONTINUOUS
10
3.95225
20
-3.31256
11
3.95243
21
-3.31271
0
LINE
8
BLACK
6
CONTINUOUS
10
3.95243
20
-3.31271
11
3.96231
21
-3.32819
0
LINE
8
BLACK
6
CONTINUOUS
10
3.96231
20
-3.32819
11
3.96235
21
-3.32837
0
LINE
8
BLACK
6
CONTINUOUS
10
3.96235
20
-3.32837
11
3.96248
21
-3.3285
0
LINE
8
BLACK
6
CONTINUOUS
10
3.96248
20
-3.3285
11
3.98016
21
-3.36255
0
LINE
8
BLACK
6
CONTINUOUS
10
3.98016
20
-3.36255
11
3.99776
21
-3.39645
0
LINE
8
BLACK
6
CONTINUOUS
10
3.99776
20
-3.39645
11
4.00742
21
-3.4116
0
LINE
8
BLACK
6
CONTINUOUS
10
4.00742
20
-3.4116
11
4.01818
21
-3.42485
0
LINE
8
BLACK
6
CONTINUOUS
10
4.01818
20
-3.42485
11
4.03034
21
-3.43568
0
LINE
8
BLACK
6
CONTINUOUS
10
4.03034
20
-3.43568
11
4.04423
21
-3.44375
0
LINE
8
BLACK
6
CONTINUOUS
10
4.04423
20
-3.44375
11
4.06019
21
-3.44876
0
LINE
8
BLACK
6
CONTINUOUS
10
4.06019
20
-3.44876
11
4.07872
21
-3.45049
0
LINE
8
BLACK
6
CONTINUOUS
10
4.07872
20
-3.45049
11
4.263
21
-3.45049
0
LINE
8
BLACK
6
CONTINUOUS
10
4.263
20
-3.45049
11
4.26318
21
-3.45055
0
LINE
8
BLACK
6
CONTINUOUS
10
4.26318
20
-3.45055
11
4.26336
21
-3.45051
0
LINE
8
BLACK
6
CONTINUOUS
10
4.26336
20
-3.45051
11
4.2982
21
-3.45374
0
LINE
8
BLACK
6
CONTINUOUS
10
4.2982
20
-3.45374
11
4.29855
21
-3.45389
0
LINE
8
BLACK
6
CONTINUOUS
10
4.29855
20
-3.45389
11
4.29892
21
-3.45388
0
LINE
8
BLACK
6
CONTINUOUS
10
4.29892
20
-3.45388
11
4.33174
21
-3.46326
0
LINE
8
BLACK
6
CONTINUOUS
10
4.33174
20
-3.46326
11
4.33203
21
-3.46346
0
LINE
8
BLACK
6
CONTINUOUS
10
4.33203
20
-3.46346
11
4.33238
21
-3.46351
0
LINE
8
BLACK
6
CONTINUOUS
10
4.33238
20
-3.46351
11
4.36261
21
-3.4783
0
LINE
8
BLACK
6
CONTINUOUS
10
4.36261
20
-3.4783
11
4.36286
21
-3.47855
0
LINE
8
BLACK
6
CONTINUOUS
10
4.36286
20
-3.47855
11
4.3632
21
-3.47866
0
LINE
8
BLACK
6
CONTINUOUS
10
4.3632
20
-3.47866
11
4.38982
21
-3.49813
0
LINE
8
BLACK
6
CONTINUOUS
10
4.38982
20
-3.49813
11
4.39005
21
-3.49845
0
LINE
8
BLACK
6
CONTINUOUS
10
4.39005
20
-3.49845
11
4.3904
21
-3.49865
0
LINE
8
BLACK
6
CONTINUOUS
10
4.3904
20
-3.49865
11
4.41198
21
-3.52224
0
LINE
8
BLACK
6
CONTINUOUS
10
4.41198
20
-3.52224
11
4.41213
21
-3.52257
0
LINE
8
BLACK
6
CONTINUOUS
10
4.41213
20
-3.52257
11
4.41241
21
-3.5228
0
LINE
8
BLACK
6
CONTINUOUS
10
4.41241
20
-3.5228
11
4.42076
21
-3.53605
0
LINE
8
BLACK
6
CONTINUOUS
10
4.42076
20
-3.53605
11
4.42083
21
-3.53632
0
LINE
8
BLACK
6
CONTINUOUS
10
4.42083
20
-3.53632
11
4.42102
21
-3.53653
0
LINE
8
BLACK
6
CONTINUOUS
10
4.42102
20
-3.53653
11
4.42741
21
-3.55074
0
LINE
8
BLACK
6
CONTINUOUS
10
4.42741
20
-3.55074
11
4.42745
21
-3.55105
0
LINE
8
BLACK
6
CONTINUOUS
10
4.42745
20
-3.55105
11
4.42762
21
-3.55131
0
LINE
8
BLACK
6
CONTINUOUS
10
4.42762
20
-3.55131
11
4.43182
21
-3.56649
0
LINE
8
BLACK
6
CONTINUOUS
10
4.43182
20
-3.56649
11
4.4318
21
-3.56681
0
LINE
8
BLACK
6
CONTINUOUS
10
4.4318
20
-3.56681
11
4.43194
21
-3.56711
0
LINE
8
BLACK
6
CONTINUOUS
10
4.43194
20
-3.56711
11
4.43371
21
-3.58327
0
LINE
8
BLACK
6
CONTINUOUS
10
4.43371
20
-3.58327
11
4.43365
21
-3.58359
0
LINE
8
BLACK
6
CONTINUOUS
10
4.43365
20
-3.58359
11
4.43373
21
-3.5839
0
LINE
8
BLACK
6
CONTINUOUS
10
4.43373
20
-3.5839
11
4.43288
21
-3.60108
0
LINE
8
BLACK
6
CONTINUOUS
10
4.43288
20
-3.60108
11
4.43278
21
-3.60136
0
LINE
8
BLACK
6
CONTINUOUS
10
4.43278
20
-3.60136
11
4.43281
21
-3.60165
0
LINE
8
BLACK
6
CONTINUOUS
10
4.43281
20
-3.60165
11
4.4292
21
-3.61987
0
LINE
8
BLACK
6
CONTINUOUS
10
4.4292
20
-3.61987
11
4.42913
21
-3.61999
0
LINE
8
BLACK
6
CONTINUOUS
10
4.42913
20
-3.61999
11
4.42914
21
-3.62012
0
LINE
8
BLACK
6
CONTINUOUS
10
4.42914
20
-3.62012
11
4.28857
21
-4.14471
0
LINE
8
BLACK
6
CONTINUOUS
10
4.28857
20
-4.14471
11
4.2854
21
-4.16488
0
LINE
8
BLACK
6
CONTINUOUS
10
4.2854
20
-4.16488
11
4.28678
21
-4.18338
0
LINE
8
BLACK
6
CONTINUOUS
10
4.28678
20
-4.18338
11
4.29209
21
-4.20056
0
LINE
8
BLACK
6
CONTINUOUS
10
4.29209
20
-4.20056
11
4.30075
21
-4.21636
0
LINE
8
BLACK
6
CONTINUOUS
10
4.30075
20
-4.21636
11
4.31227
21
-4.23052
0
LINE
8
BLACK
6
CONTINUOUS
10
4.31227
20
-4.23052
11
4.32632
21
-4.24267
0
LINE
8
BLACK
6
CONTINUOUS
10
4.32632
20
-4.24267
11
4.34281
21
-4.25238
0
LINE
8
BLACK
6
CONTINUOUS
10
4.34281
20
-4.25238
11
4.36197
21
-4.25936
0
LINE
8
BLACK
6
CONTINUOUS
10
4.36197
20
-4.25936
11
4.88089
21
-4.39841
0
LINE
8
BLACK
6
CONTINUOUS
10
4.88089
20
-4.39841
11
4.881
21
-4.39848
0
LINE
8
BLACK
6
CONTINUOUS
10
4.881
20
-4.39848
11
4.88114
21
-4.39848
0
LINE
8
BLACK
6
CONTINUOUS
10
4.88114
20
-4.39848
11
4.93092
21
-4.41541
0
LINE
8
BLACK
6
CONTINUOUS
10
4.93092
20
-4.41541
11
4.93109
21
-4.41554
0
LINE
8
BLACK
6
CONTINUOUS
10
4.93109
20
-4.41554
11
4.9313
21
-4.41556
0
LINE
8
BLACK
6
CONTINUOUS
10
4.9313
20
-4.41556
11
4.97882
21
-4.43759
0
LINE
8
BLACK
6
CONTINUOUS
10
4.97882
20
-4.43759
11
4.97893
21
-4.43769
0
LINE
8
BLACK
6
CONTINUOUS
10
4.97893
20
-4.43769
11
4.97907
21
-4.43772
0
LINE
8
BLACK
6
CONTINUOUS
10
4.97907
20
-4.43772
11
5.07107
21
-4.4886
0
LINE
8
BLACK
6
CONTINUOUS
10
5.07107
20
-4.4886
11
5.0711
21
-4.48863
0
LINE
8
BLACK
6
CONTINUOUS
10
5.0711
20
-4.48863
11
5.07113
21
-4.48864
0
LINE
8
BLACK
6
CONTINUOUS
10
5.07113
20
-4.48864
11
5.54148
21
-4.76019
0
LINE
8
BLACK
6
CONTINUOUS
10
5.54148
20
-4.76019
11
5.56019
21
-4.76866
0
LINE
8
BLACK
6
CONTINUOUS
10
5.56019
20
-4.76866
11
5.57881
21
-4.77276
0
LINE
8
BLACK
6
CONTINUOUS
10
5.57881
20
-4.77276
11
5.59737
21
-4.77303
0
LINE
8
BLACK
6
CONTINUOUS
10
5.59737
20
-4.77303
11
5.61555
21
-4.76987
0
LINE
8
BLACK
6
CONTINUOUS
10
5.61555
20
-4.76987
11
5.63287
21
-4.76352
0
LINE
8
BLACK
6
CONTINUOUS
10
5.63287
20
-4.76352
11
5.64881
21
-4.754
0
LINE
8
BLACK
6
CONTINUOUS
10
5.64881
20
-4.754
11
5.66289
21
-4.74114
0
LINE
8
BLACK
6
CONTINUOUS
10
5.66289
20
-4.74114
11
5.67485
21
-4.72446
0
LINE
8
BLACK
6
CONTINUOUS
10
5.67485
20
-4.72446
11
5.94638
21
-4.25418
0
LINE
8
BLACK
6
CONTINUOUS
10
5.94638
20
-4.25418
11
5.95623
21
-4.23549
0
LINE
8
BLACK
6
CONTINUOUS
10
5.95623
20
-4.23549
11
5.96556
21
-4.21446
0
LINE
8
BLACK
6
CONTINUOUS
10
5.96556
20
-4.21446
11
5.97442
21
-4.19107
0
LINE
8
BLACK
6
CONTINUOUS
10
5.97442
20
-4.19107
11
5.98283
21
-4.16543
0
LINE
8
BLACK
6
CONTINUOUS
10
5.98283
20
-4.16543
11
5.9908
21
-4.13764
0
LINE
8
BLACK
6
CONTINUOUS
10
5.9908
20
-4.13764
11
5.99838
21
-4.10787
0
LINE
8
BLACK
6
CONTINUOUS
10
5.99838
20
-4.10787
11
6.01256
21
-4.04294
0
LINE
8
BLACK
6
CONTINUOUS
10
6.01256
20
-4.04294
11
6.02579
21
-3.97222
0
LINE
8
BLACK
6
CONTINUOUS
10
6.02579
20
-3.97222
11
6.03861
21
-3.89741
0
LINE
8
BLACK
6
CONTINUOUS
10
6.03861
20
-3.89741
11
6.03861
21
-3.89741
0
LINE
8
BLACK
6
CONTINUOUS
10
6.03861
20
-3.89741
11
6.03861
21
-3.8974
0
LINE
8
BLACK
6
CONTINUOUS
10
6.03861
20
-3.8974
11
6.06539
21
-3.74329
0
LINE
8
BLACK
6
CONTINUOUS
10
6.06539
20
-3.74329
11
6.06542
21
-3.74323
0
LINE
8
BLACK
6
CONTINUOUS
10
6.06542
20
-3.74323
11
6.06541
21
-3.74318
0
LINE
8
BLACK
6
CONTINUOUS
10
6.06541
20
-3.74318
11
6.08071
21
-3.66798
0
LINE
8
BLACK
6
CONTINUOUS
10
6.08071
20
-3.66798
11
6.08075
21
-3.66791
0
LINE
8
BLACK
6
CONTINUOUS
10
6.08075
20
-3.66791
11
6.08075
21
-3.66783
0
LINE
8
BLACK
6
CONTINUOUS
10
6.08075
20
-3.66783
11
6.09827
21
-3.59669
0
LINE
8
BLACK
6
CONTINUOUS
10
6.09827
20
-3.59669
11
6.09831
21
-3.59661
0
LINE
8
BLACK
6
CONTINUOUS
10
6.09831
20
-3.59661
11
6.09831
21
-3.59652
0
LINE
8
BLACK
6
CONTINUOUS
10
6.09831
20
-3.59652
11
6.10813
21
-3.56313
0
LINE
8
BLACK
6
CONTINUOUS
10
6.10813
20
-3.56313
11
6.10818
21
-3.56306
0
LINE
8
BLACK
6
CONTINUOUS
10
6.10818
20
-3.56306
11
6.10818
21
-3.56298
0
LINE
8
BLACK
6
CONTINUOUS
10
6.10818
20
-3.56298
11
6.11883
21
-3.53139
0
LINE
8
BLACK
6
CONTINUOUS
10
6.11883
20
-3.53139
11
6.11888
21
-3.53131
0
LINE
8
BLACK
6
CONTINUOUS
10
6.11888
20
-3.53131
11
6.11889
21
-3.53121
0
LINE
8
BLACK
6
CONTINUOUS
10
6.11889
20
-3.53121
11
6.13046
21
-3.50168
0
LINE
8
BLACK
6
CONTINUOUS
10
6.13046
20
-3.50168
11
6.13053
21
-3.50158
0
LINE
8
BLACK
6
CONTINUOUS
10
6.13053
20
-3.50158
11
6.13055
21
-3.50146
0
LINE
8
BLACK
6
CONTINUOUS
10
6.13055
20
-3.50146
11
6.14312
21
-3.47423
0
LINE
8
BLACK
6
CONTINUOUS
10
6.14312
20
-3.47423
11
6.14322
21
-3.47412
0
LINE
8
BLACK
6
CONTINUOUS
10
6.14322
20
-3.47412
11
6.14325
21
-3.47397
0
LINE
8
BLACK
6
CONTINUOUS
10
6.14325
20
-3.47397
11
6.15692
21
-3.44928
0
LINE
8
BLACK
6
CONTINUOUS
10
6.15692
20
-3.44928
11
6.15705
21
-3.44915
0
LINE
8
BLACK
6
CONTINUOUS
10
6.15705
20
-3.44915
11
6.1571
21
-3.44898
0
LINE
8
BLACK
6
CONTINUOUS
10
6.1571
20
-3.44898
11
6.17194
21
-3.42704
0
LINE
8
BLACK
6
CONTINUOUS
10
6.17194
20
-3.42704
11
6.17211
21
-3.4269
0
LINE
8
BLACK
6
CONTINUOUS
10
6.17211
20
-3.4269
11
6.17219
21
-3.4267
0
LINE
8
BLACK
6
CONTINUOUS
10
6.17219
20
-3.4267
11
6.18828
21
-3.40773
0
LINE
8
BLACK
6
CONTINUOUS
10
6.18828
20
-3.40773
11
6.1885
21
-3.40759
0
LINE
8
BLACK
6
CONTINUOUS
10
6.1885
20
-3.40759
11
6.18863
21
-3.40736
0
LINE
8
BLACK
6
CONTINUOUS
10
6.18863
20
-3.40736
11
6.20604
21
-3.39155
0
LINE
8
BLACK
6
CONTINUOUS
10
6.20604
20
-3.39155
11
6.20631
21
-3.39142
0
LINE
8
BLACK
6
CONTINUOUS
10
6.20631
20
-3.39142
11
6.2065
21
-3.39118
0
LINE
8
BLACK
6
CONTINUOUS
10
6.2065
20
-3.39118
11
6.22529
21
-3.37869
0
LINE
8
BLACK
6
CONTINUOUS
10
6.22529
20
-3.37869
11
6.22561
21
-3.3786
0
LINE
8
BLACK
6
CONTINUOUS
10
6.22561
20
-3.3786
11
6.22586
21
-3.37837
0
LINE
8
BLACK
6
CONTINUOUS
10
6.22586
20
-3.37837
11
6.24607
21
-3.36935
0
LINE
8
BLACK
6
CONTINUOUS
10
6.24607
20
-3.36935
11
6.24642
21
-3.36931
0
LINE
8
BLACK
6
CONTINUOUS
10
6.24642
20
-3.36931
11
6.24672
21
-3.36912
0
LINE
8
BLACK
6
CONTINUOUS
10
6.24672
20
-3.36912
11
6.2684
21
-3.36366
0
LINE
8
BLACK
6
CONTINUOUS
10
6.2684
20
-3.36366
11
6.26874
21
-3.36368
0
LINE
8
BLACK
6
CONTINUOUS
10
6.26874
20
-3.36368
11
6.26905
21
-3.36355
0
LINE
8
BLACK
6
CONTINUOUS
10
6.26905
20
-3.36355
11
6.29223
21
-3.36172
0
LINE
8
BLACK
6
CONTINUOUS
10
6.29223
20
-3.36172
11
6.29239
21
-3.36176
0
LINE
8
BLACK
6
CONTINUOUS
10
6.29239
20
-3.36176
11
6.29254
21
-3.36171
0
LINE
8
BLACK
6
CONTINUOUS
10
6.29254
20
-3.36171
11
7.00512
21
-3.36171
0
LINE
8
BLACK
6
CONTINUOUS
10
7.00512
20
-3.36171
11
7.00512
21
-1.53494
0
LINE
8
BLACK
6
CONTINUOUS
10
7.00512
20
-1.53494
11
7.00525
21
-1.53454
0
LINE
8
BLACK
6
CONTINUOUS
10
7.00525
20
-1.53454
11
7.00393
21
-1.51957
0
LINE
8
BLACK
6
CONTINUOUS
10
7.00393
20
-1.51957
11
7.00117
21
-1.50422
0
LINE
8
BLACK
6
CONTINUOUS
10
7.00117
20
-1.50422
11
6.99704
21
-1.48919
0
LINE
8
BLACK
6
CONTINUOUS
10
6.99704
20
-1.48919
11
6.99158
21
-1.47458
0
LINE
8
BLACK
6
CONTINUOUS
10
6.99158
20
-1.47458
11
6.98484
21
-1.46052
0
LINE
8
BLACK
6
CONTINUOUS
10
6.98484
20
-1.46052
11
6.97686
21
-1.44713
0
LINE
8
BLACK
6
CONTINUOUS
10
6.97686
20
-1.44713
11
6.9677
21
-1.4345
0
LINE
8
BLACK
6
CONTINUOUS
10
6.9677
20
-1.4345
11
6.95746
21
-1.42275
0
LINE
8
BLACK
6
CONTINUOUS
10
6.95746
20
-1.42275
11
6.9462
21
-1.41197
0
LINE
8
BLACK
6
CONTINUOUS
10
6.9462
20
-1.41197
11
6.93401
21
-1.40224
0
LINE
8
BLACK
6
CONTINUOUS
10
6.93401
20
-1.40224
11
6.92101
21
-1.39364
0
LINE
8
BLACK
6
CONTINUOUS
10
6.92101
20
-1.39364
11
6.90728
21
-1.38624
0
LINE
8
BLACK
6
CONTINUOUS
10
6.90728
20
-1.38624
11
6.89295
21
-1.38011
0
LINE
8
BLACK
6
CONTINUOUS
10
6.89295
20
-1.38011
11
6.87812
21
-1.37528
0
LINE
8
BLACK
6
CONTINUOUS
10
6.87812
20
-1.37528
11
6.86292
21
-1.37181
0
LINE
8
BLACK
6
CONTINUOUS
10
6.86292
20
-1.37181
11
6.84747
21
-1.36971
0
LINE
8
BLACK
6
CONTINUOUS
10
6.84747
20
-1.36971
11
6.83238
21
-1.36903
0
LINE
8
BLACK
6
CONTINUOUS
10
6.83238
20
-1.36903
11
6.83192
21
-1.36919
0
LINE
8
BLACK
6
CONTINUOUS
10
6.83192
20
-1.36919
11
6.56204
21
-1.37146
0
LINE
8
BLACK
6
CONTINUOUS
10
6.56204
20
-1.37146
11
6.55972
21
-1.37072
0
LINE
8
BLACK
6
CONTINUOUS
10
6.55972
20
-1.37072
11
6.55881
21
-1.36949
0
LINE
8
BLACK
6
CONTINUOUS
10
6.55881
20
-1.36949
11
6.44587
21
-1.36949
0
LINE
8
BLACK
6
CONTINUOUS
10
6.44587
20
-1.36949
11
6.44587
21
-1.61161
0
LINE
8
BLACK
6
CONTINUOUS
10
6.44587
20
-1.61161
11
6.44527
21
-1.61498
0
LINE
8
BLACK
6
CONTINUOUS
10
6.44527
20
-1.61498
11
6.44356
21
-1.61794
0
LINE
8
BLACK
6
CONTINUOUS
10
6.44356
20
-1.61794
11
6.44094
21
-1.62014
0
LINE
8
BLACK
6
CONTINUOUS
10
6.44094
20
-1.62014
11
6.43773
21
-1.62131
0
LINE
8
BLACK
6
CONTINUOUS
10
6.43773
20
-1.62131
11
6.43431
21
-1.62131
0
LINE
8
BLACK
6
CONTINUOUS
10
6.43431
20
-1.62131
11
6.4311
21
-1.62014
0
LINE
8
BLACK
6
CONTINUOUS
10
6.4311
20
-1.62014
11
6.42848
21
-1.61794
0
LINE
8
BLACK
6
CONTINUOUS
10
6.42848
20
-1.61794
11
6.42677
21
-1.61498
0
LINE
8
BLACK
6
CONTINUOUS
10
6.42677
20
-1.61498
11
6.42653
21
-1.61358
0
LINE
8
BLACK
6
CONTINUOUS
10
6.42653
20
-1.61358
11
6.09749
21
-1.61358
0
LINE
8
BLACK
6
CONTINUOUS
10
6.09749
20
-1.61358
11
6.09724
21
-1.61498
0
LINE
8
BLACK
6
CONTINUOUS
10
6.09724
20
-1.61498
11
6.09553
21
-1.61794
0
LINE
8
BLACK
6
CONTINUOUS
10
6.09553
20
-1.61794
11
6.09291
21
-1.62014
0
LINE
8
BLACK
6
CONTINUOUS
10
6.09291
20
-1.62014
11
6.0897
21
-1.62131
0
LINE
8
BLACK
6
CONTINUOUS
10
6.0897
20
-1.62131
11
6.08628
21
-1.62131
0
LINE
8
BLACK
6
CONTINUOUS
10
6.08628
20
-1.62131
11
6.08307
21
-1.62014
0
LINE
8
BLACK
6
CONTINUOUS
10
6.08307
20
-1.62014
11
6.08045
21
-1.61794
0
LINE
8
BLACK
6
CONTINUOUS
10
6.08045
20
-1.61794
11
6.07874
21
-1.61498
0
LINE
8
BLACK
6
CONTINUOUS
10
6.07874
20
-1.61498
11
6.07815
21
-1.61161
0
LINE
8
BLACK
6
CONTINUOUS
10
6.07815
20
-1.61161
11
6.07815
21
-1.36949
0
LINE
8
BLACK
6
CONTINUOUS
10
6.07815
20
-1.36949
11
5.96201
21
-1.36949
0
LINE
8
BLACK
6
CONTINUOUS
10
5.96201
20
-1.36949
11
5.962
21
-1.36949
0
LINE
8
BLACK
6
CONTINUOUS
10
5.962
20
-1.36949
11
5.962
21
-1.36949
0
LINE
8
BLACK
6
CONTINUOUS
10
5.962
20
-1.36949
11
5.57723
21
-1.36724
0
LINE
8
BLACK
6
CONTINUOUS
10
5.57723
20
-1.36724
11
5.57606
21
-1.36861
0
LINE
8
BLACK
6
CONTINUOUS
10
5.57606
20
-1.36861
11
5.5737
21
-1.36917
0
LINE
8
BLACK
6
CONTINUOUS
10
5.5737
20
-1.36917
11
5.54716
21
-1.36708
0
LINE
8
BLACK
6
CONTINUOUS
10
5.54716
20
-1.36708
11
5.54688
21
-1.36696
0
LINE
8
BLACK
6
CONTINUOUS
10
5.54688
20
-1.36696
11
5.54659
21
-1.36699
0
LINE
8
BLACK
6
CONTINUOUS
10
5.54659
20
-1.36699
11
5.52089
21
-1.36111
0
LINE
8
BLACK
6
CONTINUOUS
10
5.52089
20
-1.36111
11
5.52066
21
-1.36097
0
LINE
8
BLACK
6
CONTINUOUS
10
5.52066
20
-1.36097
11
5.52038
21
-1.36095
0
LINE
8
BLACK
6
CONTINUOUS
10
5.52038
20
-1.36095
11
5.47055
21
-1.34217
0
LINE
8
BLACK
6
CONTINUOUS
10
5.47055
20
-1.34217
11
5.42097
21
-1.32347
0
LINE
8
BLACK
6
CONTINUOUS
10
5.42097
20
-1.32347
11
5.39582
21
-1.31771
0
LINE
8
BLACK
6
CONTINUOUS
10
5.39582
20
-1.31771
11
5.36972
21
-1.31565
0
LINE
8
BLACK
6
CONTINUOUS
10
5.36972
20
-1.31565
11
4.82657
21
-1.31565
0
LINE
8
BLACK
6
CONTINUOUS
10
4.82657
20
-1.31565
11
4.82644
21
-1.31561
0
LINE
8
BLACK
6
CONTINUOUS
10
4.82644
20
-1.31561
11
4.82631
21
-1.31564
0
LINE
8
BLACK
6
CONTINUOUS
10
4.82631
20
-1.31564
11
4.81142
21
-1.31466
0
LINE
8
BLACK
6
CONTINUOUS
10
4.81142
20
-1.31466
11
4.81116
21
-1.31455
0
LINE
8
BLACK
6
CONTINUOUS
10
4.81116
20
-1.31455
11
4.81088
21
-1.31458
0
LINE
8
BLACK
6
CONTINUOUS
10
4.81088
20
-1.31458
11
4.79676
21
-1.31168
0
LINE
8
BLACK
6
CONTINUOUS
10
4.79676
20
-1.31168
11
4.79643
21
-1.31149
0
LINE
8
BLACK
6
CONTINUOUS
10
4.79643
20
-1.31149
11
4.79604
21
-1.31146
0
LINE
8
BLACK
6
CONTINUOUS
10
4.79604
20
-1.31146
11
4.76985
21
-1.30053
0
LINE
8
BLACK
6
CONTINUOUS
10
4.76985
20
-1.30053
11
4.76956
21
-1.30028
0
LINE
8
BLACK
6
CONTINUOUS
10
4.76956
20
-1.30028
11
4.76918
21
-1.30017
0
LINE
8
BLACK
6
CONTINUOUS
10
4.76918
20
-1.30017
11
4.74506
21
-1.28408
0
LINE
8
BLACK
6
CONTINUOUS
10
4.74506
20
-1.28408
11
4.74494
21
-1.28393
0
LINE
8
BLACK
6
CONTINUOUS
10
4.74494
20
-1.28393
11
4.74476
21
-1.28386
0
LINE
8
BLACK
6
CONTINUOUS
10
4.74476
20
-1.28386
11
4.72172
21
-1.26506
0
LINE
8
BLACK
6
CONTINUOUS
10
4.72172
20
-1.26506
11
4.69883
21
-1.24639
0
LINE
8
BLACK
6
CONTINUOUS
10
4.69883
20
-1.24639
11
4.67518
21
-1.23061
0
LINE
8
BLACK
6
CONTINUOUS
10
4.67518
20
-1.23061
11
4.64969
21
-1.21998
0
LINE
8
BLACK
6
CONTINUOUS
10
4.64969
20
-1.21998
11
4.63621
21
-1.2172
0
LINE
8
BLACK
6
CONTINUOUS
10
4.63621
20
-1.2172
11
4.62172
21
-1.21624
0
LINE
8
BLACK
6
CONTINUOUS
10
4.62172
20
-1.21624
11
4.07854
21
-1.21624
0
LINE
8
BLACK
6
CONTINUOUS
10
4.07854
20
-1.21624
11
4.07836
21
-1.21618
0
LINE
8
BLACK
6
CONTINUOUS
10
4.07836
20
-1.21618
11
4.07817
21
-1.21622
0
LINE
8
BLACK
6
CONTINUOUS
10
4.07817
20
-1.21622
11
4.05904
21
-1.21444
0
LINE
8
BLACK
6
CONTINUOUS
10
4.05904
20
-1.21444
11
4.05865
21
-1.21427
0
LINE
8
BLACK
6
CONTINUOUS
10
4.05865
20
-1.21427
11
4.05823
21
-1.21427
0
LINE
8
BLACK
6
CONTINUOUS
10
4.05823
20
-1.21427
11
4.04145
21
-1.20901
0
LINE
8
BLACK
6
CONTINUOUS
10
4.04145
20
-1.20901
11
4.04109
21
-1.20875
0
LINE
8
BLACK
6
CONTINUOUS
10
4.04109
20
-1.20875
11
4.04065
21
-1.20866
0
LINE
8
BLACK
6
CONTINUOUS
10
4.04065
20
-1.20866
11
4.02605
21
-1.20017
0
LINE
8
BLACK
6
CONTINUOUS
10
4.02605
20
-1.20017
11
4.02577
21
-1.19987
0
LINE
8
BLACK
6
CONTINUOUS
10
4.02577
20
-1.19987
11
4.0254
21
-1.19971
0
LINE
8
BLACK
6
CONTINUOUS
10
4.0254
20
-1.19971
11
4.01271
21
-1.18839
0
LINE
8
BLACK
6
CONTINUOUS
10
4.01271
20
-1.18839
11
4.01254
21
-1.18811
0
LINE
8
BLACK
6
CONTINUOUS
10
4.01254
20
-1.18811
11
4.01227
21
-1.18794
0
LINE
8
BLACK
6
CONTINUOUS
10
4.01227
20
-1.18794
11
4.00117
21
-1.17427
0
LINE
8
BLACK
6
CONTINUOUS
10
4.00117
20
-1.17427
11
4.00108
21
-1.17405
0
LINE
8
BLACK
6
CONTINUOUS
10
4.00108
20
-1.17405
11
4.0009
21
-1.1739
0
LINE
8
BLACK
6
CONTINUOUS
10
4.0009
20
-1.1739
11
3.99102
21
-1.15842
0
LINE
8
BLACK
6
CONTINUOUS
10
3.99102
20
-1.15842
11
3.99098
21
-1.15824
0
LINE
8
BLACK
6
CONTINUOUS
10
3.99098
20
-1.15824
11
3.99085
21
-1.15811
0
LINE
8
BLACK
6
CONTINUOUS
10
3.99085
20
-1.15811
11
3.97317
21
-1.12406
0
LINE
8
BLACK
6
CONTINUOUS
10
3.97317
20
-1.12406
11
3.95558
21
-1.09016
0
LINE
8
BLACK
6
CONTINUOUS
10
3.95558
20
-1.09016
11
3.94591
21
-1.07501
0
LINE
8
BLACK
6
CONTINUOUS
10
3.94591
20
-1.07501
11
3.93515
21
-1.06176
0
LINE
8
BLACK
6
CONTINUOUS
10
3.93515
20
-1.06176
11
3.92299
21
-1.05093
0
LINE
8
BLACK
6
CONTINUOUS
10
3.92299
20
-1.05093
11
3.90911
21
-1.04286
0
LINE
8
BLACK
6
CONTINUOUS
10
3.90911
20
-1.04286
11
3.89314
21
-1.03785
0
LINE
8
BLACK
6
CONTINUOUS
10
3.89314
20
-1.03785
11
3.87461
21
-1.03612
0
LINE
8
BLACK
6
CONTINUOUS
10
3.87461
20
-1.03612
11
2.61942
21
-1.03612
0
LINE
8
BLACK
6
CONTINUOUS
10
2.61942
20
-1.03612
11
2.60445
21
-1.03782
0
LINE
8
BLACK
6
CONTINUOUS
10
2.60445
20
-1.03782
11
2.59099
21
-1.04279
0
LINE
8
BLACK
6
CONTINUOUS
10
2.59099
20
-1.04279
11
2.57866
21
-1.05105
0
LINE
8
BLACK
6
CONTINUOUS
10
2.57866
20
-1.05105
11
2.56737
21
-1.0626
0
LINE
8
BLACK
6
CONTINUOUS
10
2.56737
20
-1.0626
11
2.55709
21
-1.0774
0
LINE
8
BLACK
6
CONTINUOUS
10
2.55709
20
-1.0774
11
2.54782
21
-1.09529
0
LINE
8
BLACK
6
CONTINUOUS
10
2.54782
20
-1.09529
11
2.53952
21
-1.11607
0
LINE
8
BLACK
6
CONTINUOUS
10
2.53952
20
-1.11607
11
2.53215
21
-1.13949
0
LINE
8
BLACK
6
CONTINUOUS
10
2.53215
20
-1.13949
11
2.52563
21
-1.1653
0
LINE
8
BLACK
6
CONTINUOUS
10
2.52563
20
-1.1653
11
2.51989
21
-1.1932
0
LINE
8
BLACK
6
CONTINUOUS
10
2.51989
20
-1.1932
11
2.51034
21
-1.25429
0
LINE
8
BLACK
6
CONTINUOUS
10
2.51034
20
-1.25429
11
2.5027
21
-1.32031
0
LINE
8
BLACK
6
CONTINUOUS
10
2.5027
20
-1.32031
11
2.49611
21
-1.38885
0
LINE
8
BLACK
6
CONTINUOUS
10
2.49611
20
-1.38885
11
2.4897
21
-1.45744
0
LINE
8
BLACK
6
CONTINUOUS
10
2.4897
20
-1.45744
11
2.48969
21
-1.45747
0
LINE
8
BLACK
6
CONTINUOUS
10
2.48969
20
-1.45747
11
2.48969
21
-1.4575
0
LINE
8
BLACK
6
CONTINUOUS
10
2.48969
20
-1.4575
11
2.48259
21
-1.52363
0
LINE
8
BLACK
6
CONTINUOUS
10
2.48259
20
-1.52363
11
2.48256
21
-1.52369
0
LINE
8
BLACK
6
CONTINUOUS
10
2.48256
20
-1.52369
11
2.48257
21
-1.52376
0
LINE
8
BLACK
6
CONTINUOUS
10
2.48257
20
-1.52376
11
2.47391
21
-1.58502
0
LINE
8
BLACK
6
CONTINUOUS
10
2.47391
20
-1.58502
11
2.47388
21
-1.5851
0
LINE
8
BLACK
6
CONTINUOUS
10
2.47388
20
-1.5851
11
2.47389
21
-1.58519
0
LINE
8
BLACK
6
CONTINUOUS
10
2.47389
20
-1.58519
11
2.46872
21
-1.61326
0
LINE
8
BLACK
6
CONTINUOUS
10
2.46872
20
-1.61326
11
2.46868
21
-1.61333
0
LINE
8
BLACK
6
CONTINUOUS
10
2.46868
20
-1.61333
11
2.46869
21
-1.61341
0
LINE
8
BLACK
6
CONTINUOUS
10
2.46869
20
-1.61341
11
2.46283
21
-1.63942
0
LINE
8
BLACK
6
CONTINUOUS
10
2.46283
20
-1.63942
11
2.46278
21
-1.63951
0
LINE
8
BLACK
6
CONTINUOUS
10
2.46278
20
-1.63951
11
2.46278
21
-1.63962
0
LINE
8
BLACK
6
CONTINUOUS
10
2.46278
20
-1.63962
11
2.45614
21
-1.66329
0
LINE
8
BLACK
6
CONTINUOUS
10
2.45614
20
-1.66329
11
2.45606
21
-1.6634
0
LINE
8
BLACK
6
CONTINUOUS
10
2.45606
20
-1.6634
11
2.45606
21
-1.66354
0
LINE
8
BLACK
6
CONTINUOUS
10
2.45606
20
-1.66354
11
2.44855
21
-1.68464
0
LINE
8
BLACK
6
CONTINUOUS
10
2.44855
20
-1.68464
11
2.44844
21
-1.68478
0
LINE
8
BLACK
6
CONTINUOUS
10
2.44844
20
-1.68478
11
2.44842
21
-1.68497
0
LINE
8
BLACK
6
CONTINUOUS
10
2.44842
20
-1.68497
11
2.43996
21
-1.70326
0
LINE
8
BLACK
6
CONTINUOUS
10
2.43996
20
-1.70326
11
2.4398
21
-1.70344
0
LINE
8
BLACK
6
CONTINUOUS
10
2.4398
20
-1.70344
11
2.43974
21
-1.70368
0
LINE
8
BLACK
6
CONTINUOUS
10
2.43974
20
-1.70368
11
2.43026
21
-1.71896
0
LINE
8
BLACK
6
CONTINUOUS
10
2.43026
20
-1.71896
11
2.43001
21
-1.71917
0
LINE
8
BLACK
6
CONTINUOUS
10
2.43001
20
-1.71917
11
2.42988
21
-1.71947
0
LINE
8
BLACK
6
CONTINUOUS
10
2.42988
20
-1.71947
11
2.41933
21
-1.73156
0
LINE
8
BLACK
6
CONTINUOUS
10
2.41933
20
-1.73156
11
2.41896
21
-1.73177
0
LINE
8
BLACK
6
CONTINUOUS
10
2.41896
20
-1.73177
11
2.41872
21
-1.73212
0
LINE
8
BLACK
6
CONTINUOUS
10
2.41872
20
-1.73212
11
2.40703
21
-1.74087
0
LINE
8
BLACK
6
CONTINUOUS
10
2.40703
20
-1.74087
11
2.40655
21
-1.74103
0
LINE
8
BLACK
6
CONTINUOUS
10
2.40655
20
-1.74103
11
2.40617
21
-1.74135
0
LINE
8
BLACK
6
CONTINUOUS
10
2.40617
20
-1.74135
11
2.39331
21
-1.74665
0
LINE
8
BLACK
6
CONTINUOUS
10
2.39331
20
-1.74665
11
2.39278
21
-1.74669
0
LINE
8
BLACK
6
CONTINUOUS
10
2.39278
20
-1.74669
11
2.3923
21
-1.74692
0
LINE
8
BLACK
6
CONTINUOUS
10
2.3923
20
-1.74692
11
2.37824
21
-1.74869
0
LINE
8
BLACK
6
CONTINUOUS
10
2.37824
20
-1.74869
11
2.37799
21
-1.74864
0
LINE
8
BLACK
6
CONTINUOUS
10
2.37799
20
-1.74864
11
2.37775
21
-1.74872
0
LINE
8
BLACK
6
CONTINUOUS
10
2.37775
20
-1.74872
11
1.83464
21
-1.74872
0
LINE
8
BLACK
6
CONTINUOUS
10
1.83464
20
-1.74872
11
1.81421
21
-1.75074
0
LINE
8
BLACK
6
CONTINUOUS
10
1.81421
20
-1.75074
11
1.79604
21
-1.7565
0
LINE
8
BLACK
6
CONTINUOUS
10
1.79604
20
-1.7565
11
1.77982
21
-1.76554
0
LINE
8
BLACK
6
CONTINUOUS
10
1.77982
20
-1.76554
11
1.76566
21
-1.77737
0
LINE
8
BLACK
6
CONTINUOUS
10
1.76566
20
-1.77737
11
1.75383
21
-1.79154
0
LINE
8
BLACK
6
CONTINUOUS
10
1.75383
20
-1.79154
11
1.74478
21
-1.80775
0
LINE
8
BLACK
6
CONTINUOUS
10
1.74478
20
-1.80775
11
1.73903
21
-1.82592
0
LINE
8
BLACK
6
CONTINUOUS
10
1.73903
20
-1.82592
11
1.73701
21
-1.84635
0
LINE
8
BLACK
6
CONTINUOUS
10
1.73701
20
-1.84635
11
1.73701
21
-3.88534
0
LINE
8
BLACK
6
CONTINUOUS
10
1.73701
20
-3.88534
11
1.73903
21
-3.90577
0
LINE
8
BLACK
6
CONTINUOUS
10
5.62951
20
-3.40887
11
5.62894
21
-3.40748
0
LINE
8
BLACK
6
CONTINUOUS
10
5.62894
20
-3.40748
11
5.62894
21
-3.30512
0
LINE
8
BLACK
6
CONTINUOUS
10
5.62894
20
-3.30512
11
5.62951
21
-3.30373
0
LINE
8
BLACK
6
CONTINUOUS
10
5.62951
20
-3.30373
11
5.63091
21
-3.30315
0
LINE
8
BLACK
6
CONTINUOUS
10
5.63091
20
-3.30315
11
6.05807
21
-3.30315
0
LINE
8
BLACK
6
CONTINUOUS
10
6.05807
20
-3.30315
11
6.05946
21
-3.30373
0
LINE
8
BLACK
6
CONTINUOUS
10
6.05946
20
-3.30373
11
6.06004
21
-3.30512
0
LINE
8
BLACK
6
CONTINUOUS
10
6.06004
20
-3.30512
11
6.06004
21
-3.40748
0
LINE
8
BLACK
6
CONTINUOUS
10
6.06004
20
-3.40748
11
6.05946
21
-3.40887
0
LINE
8
BLACK
6
CONTINUOUS
10
6.05946
20
-3.40887
11
6.05807
21
-3.40945
0
LINE
8
BLACK
6
CONTINUOUS
10
6.05807
20
-3.40945
11
5.63091
21
-3.40945
0
LINE
8
BLACK
6
CONTINUOUS
10
5.63091
20
-3.40945
11
5.62951
21
-3.40887
0
LINE
8
BLACK
6
CONTINUOUS
10
5.63287
20
-3.30709
11
5.63287
21
-3.40551
0
LINE
8
BLACK
6
CONTINUOUS
10
5.63287
20
-3.40551
11
6.0561
21
-3.40551
0
LINE
8
BLACK
6
CONTINUOUS
10
6.0561
20
-3.40551
11
6.0561
21
-3.30709
0
LINE
8
BLACK
6
CONTINUOUS
10
6.0561
20
-3.30709
11
5.63287
21
-3.30709
  0
ENDSEC
  0
EOF
