<?xml version="1.0" standalone="no"?>
 <!DOCTYPE svg PUBLIC "-//W3C//DTD SVG 1.1//EN" 
 "http://www.w3.org/Graphics/SVG/1.1/DTD/svg11.dtd"> 
<svg
  xmlns:svg="http://www.w3.org/2000/svg"
  xmlns="http://www.w3.org/2000/svg"
  xmlns:xlink="http://www.w3.org/1999/xlink"
  version="1.1"
  width="29.700220cm" height="21.000720cm" viewBox="0 0 297002200 210007200">
<title>SVG Picture created as dilemma-User_1.svg date 2022/12/07 15:24:02 </title>
  <desc>Picture generated by PCBNEW </desc>
<g style="fill:#000000; fill-opacity:1.000000;stroke:#000000; stroke-opacity:1.000000;
stroke-linecap:round; stroke-linejoin:round;"
 transform="translate(0 0) scale(1 1)">
</g>
<g style="fill:#000000; fill-opacity:0.0; 
stroke:#000000; stroke-width:0.000000; stroke-opacity:1; 
stroke-linecap:round; stroke-linejoin:round;">
</g>
<g style="fill:#000000; fill-opacity:0.0; 
stroke:#000000; stroke-width:150000.000000; stroke-opacity:1; 
stroke-linecap:round; stroke-linejoin:round;">
<path d="M154430000 34700000
L163680000 34700000
" />
<path d="M163680000 34700000
L163680000 40860000
" />
<path d="M163680000 40860000
L154430000 40860000
" />
<path d="M154430000 40860000
L154430000 34700000
" />
</g>
<g style="fill:#000000; fill-opacity:0.0; 
stroke:#000000; stroke-width:120000.000000; stroke-opacity:1; 
stroke-linecap:round; stroke-linejoin:round;">
<path d="M55425000 75347500
L51425000 75347500
" />
<path d="M51425000 75347500
L51425000 78867500
" />
<path d="M51425000 78867500
L55425000 78867500
" />
<path d="M55425000 78867500
L55425000 75347500
" />
<circle cx="57237696.000000" cy="70222500.000000" r="1093256.000000" /> 
<circle cx="48411154.000000" cy="68947500.000000" r="962461.000000" /> 
<circle cx="58505000.000000" cy="72747500.000000" r="785175.000000" /> 
<circle cx="58650000.000000" cy="76947500.000000" r="435460.000000" /> 
<circle cx="48345000.000000" cy="72747500.000000" r="791012.000000" /> 
<circle cx="50887304.000000" cy="67672500.000000" r="1082593.000000" /> 
<circle cx="53425000.000000" cy="66847500.000000" r="961301.000000" /> 
<circle cx="53425000.000000" cy="72747500.000000" r="1930104.000000" /> 
<circle cx="47925000.000000" cy="72747500.000000" r="840238.000000" /> 
<circle cx="58925000.000000" cy="72747500.000000" r="830542.000000" /> 
<path d="M112425000 42822500
L108425000 42822500
" />
<path d="M108425000 42822500
L108425000 46342500
" />
<path d="M108425000 46342500
L112425000 46342500
" />
<path d="M112425000 46342500
L112425000 42822500
" />
<circle cx="114237696.000000" cy="37697500.000000" r="1093256.000000" /> 
<circle cx="105411154.000000" cy="36422500.000000" r="962461.000000" /> 
<circle cx="115505000.000000" cy="40222500.000000" r="785175.000000" /> 
<circle cx="115650000.000000" cy="44422500.000000" r="435460.000000" /> 
<circle cx="105345000.000000" cy="40222500.000000" r="791012.000000" /> 
<circle cx="107887304.000000" cy="35147500.000000" r="1082593.000000" /> 
<circle cx="110425000.000000" cy="34322500.000000" r="961301.000000" /> 
<circle cx="110425000.000000" cy="40222500.000000" r="1930104.000000" /> 
<circle cx="104925000.000000" cy="40222500.000000" r="840238.000000" /> 
<circle cx="115925000.000000" cy="40222500.000000" r="830542.000000" /> 
<path d="M93450000 76247500
L89450000 76247500
" />
<path d="M89450000 76247500
L89450000 79767500
" />
<path d="M89450000 79767500
L93450000 79767500
" />
<path d="M93450000 79767500
L93450000 76247500
" />
<circle cx="95262696.000000" cy="71122500.000000" r="1093256.000000" /> 
<circle cx="86436154.000000" cy="69847500.000000" r="962461.000000" /> 
<circle cx="96530000.000000" cy="73647500.000000" r="785175.000000" /> 
<circle cx="96675000.000000" cy="77847500.000000" r="435460.000000" /> 
<circle cx="86370000.000000" cy="73647500.000000" r="791012.000000" /> 
<circle cx="88912304.000000" cy="68572500.000000" r="1082593.000000" /> 
<circle cx="91450000.000000" cy="67747500.000000" r="961301.000000" /> 
<circle cx="91450000.000000" cy="73647500.000000" r="1930104.000000" /> 
<circle cx="85950000.000000" cy="73647500.000000" r="840238.000000" /> 
<circle cx="96950000.000000" cy="73647500.000000" r="830542.000000" /> 
<path d="M112425000 61822500
L108425000 61822500
" />
<path d="M108425000 61822500
L108425000 65342500
" />
<path d="M108425000 65342500
L112425000 65342500
" />
<path d="M112425000 65342500
L112425000 61822500
" />
<circle cx="114237696.000000" cy="56697500.000000" r="1093256.000000" /> 
<circle cx="105411154.000000" cy="55422500.000000" r="962461.000000" /> 
<circle cx="115505000.000000" cy="59222500.000000" r="785175.000000" /> 
<circle cx="115650000.000000" cy="63422500.000000" r="435460.000000" /> 
<circle cx="105345000.000000" cy="59222500.000000" r="791012.000000" /> 
<circle cx="107887304.000000" cy="54147500.000000" r="1082593.000000" /> 
<circle cx="110425000.000000" cy="53322500.000000" r="961301.000000" /> 
<circle cx="110425000.000000" cy="59222500.000000" r="1930104.000000" /> 
<circle cx="104925000.000000" cy="59222500.000000" r="840238.000000" /> 
<circle cx="115925000.000000" cy="59222500.000000" r="830542.000000" /> 
<path d="M89439999 214754170
L93439999 214754170
" />
<path d="M93439999 214754170
L93439999 211234170
" />
<path d="M93439999 211234170
L89439999 211234170
" />
<path d="M89439999 211234170
L89439999 214754170
" />
<circle cx="87627303.000000" cy="219879170.000000" r="1093256.000000" /> 
<circle cx="96453845.000000" cy="221154170.000000" r="962461.000000" /> 
<circle cx="86359999.000000" cy="217354170.000000" r="785175.000000" /> 
<circle cx="86214999.000000" cy="213154170.000000" r="435460.000000" /> 
<circle cx="96519999.000000" cy="217354170.000000" r="791012.000000" /> 
<circle cx="93977695.000000" cy="222429170.000000" r="1082593.000000" /> 
<circle cx="91439999.000000" cy="223254170.000000" r="961301.000000" /> 
<circle cx="91439999.000000" cy="217354170.000000" r="1930104.000000" /> 
<circle cx="96939999.000000" cy="217354170.000000" r="840238.000000" /> 
<circle cx="85939999.000000" cy="217354170.000000" r="830542.000000" /> 
<path d="M70414999 208629170
L74414999 208629170
" />
<path d="M74414999 208629170
L74414999 205109170
" />
<path d="M74414999 205109170
L70414999 205109170
" />
<path d="M70414999 205109170
L70414999 208629170
" />
<circle cx="68602303.000000" cy="213754170.000000" r="1093256.000000" /> 
<circle cx="77428845.000000" cy="215029170.000000" r="962461.000000" /> 
<circle cx="67334999.000000" cy="211229170.000000" r="785175.000000" /> 
<circle cx="67189999.000000" cy="207029170.000000" r="435460.000000" /> 
<circle cx="77494999.000000" cy="211229170.000000" r="791012.000000" /> 
<circle cx="74952695.000000" cy="216304170.000000" r="1082593.000000" /> 
<circle cx="72414999.000000" cy="217129170.000000" r="961301.000000" /> 
<circle cx="72414999.000000" cy="211229170.000000" r="1930104.000000" /> 
<circle cx="77914999.000000" cy="211229170.000000" r="840238.000000" /> 
<circle cx="66914999.000000" cy="211229170.000000" r="830542.000000" /> 
<path d="M74425000 82372500
L70425000 82372500
" />
<path d="M70425000 82372500
L70425000 85892500
" />
<path d="M70425000 85892500
L74425000 85892500
" />
<path d="M74425000 85892500
L74425000 82372500
" />
<circle cx="76237696.000000" cy="77247500.000000" r="1093256.000000" /> 
<circle cx="67411154.000000" cy="75972500.000000" r="962461.000000" /> 
<circle cx="77505000.000000" cy="79772500.000000" r="785175.000000" /> 
<circle cx="77650000.000000" cy="83972500.000000" r="435460.000000" /> 
<circle cx="67345000.000000" cy="79772500.000000" r="791012.000000" /> 
<circle cx="69887304.000000" cy="74697500.000000" r="1082593.000000" /> 
<circle cx="72425000.000000" cy="73872500.000000" r="961301.000000" /> 
<circle cx="72425000.000000" cy="79772500.000000" r="1930104.000000" /> 
<circle cx="66925000.000000" cy="79772500.000000" r="840238.000000" /> 
<circle cx="77925000.000000" cy="79772500.000000" r="830542.000000" /> 
<path d="M51414999 158654170
L55414999 158654170
" />
<path d="M55414999 158654170
L55414999 155134170
" />
<path d="M55414999 155134170
L51414999 155134170
" />
<path d="M51414999 155134170
L51414999 158654170
" />
<circle cx="49602303.000000" cy="163779170.000000" r="1093256.000000" /> 
<circle cx="58428845.000000" cy="165054170.000000" r="962461.000000" /> 
<circle cx="48334999.000000" cy="161254170.000000" r="785175.000000" /> 
<circle cx="48189999.000000" cy="157054170.000000" r="435460.000000" /> 
<circle cx="58494999.000000" cy="161254170.000000" r="791012.000000" /> 
<circle cx="55952695.000000" cy="166329170.000000" r="1082593.000000" /> 
<circle cx="53414999.000000" cy="167154170.000000" r="961301.000000" /> 
<circle cx="53414999.000000" cy="161254170.000000" r="1930104.000000" /> 
<circle cx="58914999.000000" cy="161254170.000000" r="840238.000000" /> 
<circle cx="47914999.000000" cy="161254170.000000" r="830542.000000" /> 
<path d="M70414999 189629170
L74414999 189629170
" />
<path d="M74414999 189629170
L74414999 186109170
" />
<path d="M74414999 186109170
L70414999 186109170
" />
<path d="M70414999 186109170
L70414999 189629170
" />
<circle cx="68602303.000000" cy="194754170.000000" r="1093256.000000" /> 
<circle cx="77428845.000000" cy="196029170.000000" r="962461.000000" /> 
<circle cx="67334999.000000" cy="192229170.000000" r="785175.000000" /> 
<circle cx="67189999.000000" cy="188029170.000000" r="435460.000000" /> 
<circle cx="77494999.000000" cy="192229170.000000" r="791012.000000" /> 
<circle cx="74952695.000000" cy="197304170.000000" r="1082593.000000" /> 
<circle cx="72414999.000000" cy="198129170.000000" r="961301.000000" /> 
<circle cx="72414999.000000" cy="192229170.000000" r="1930104.000000" /> 
<circle cx="77914999.000000" cy="192229170.000000" r="840238.000000" /> 
<circle cx="66914999.000000" cy="192229170.000000" r="830542.000000" /> 
<path d="M131425000 64347500
L127425000 64347500
" />
<path d="M127425000 64347500
L127425000 67867500
" />
<path d="M127425000 67867500
L131425000 67867500
" />
<path d="M131425000 67867500
L131425000 64347500
" />
<circle cx="133237696.000000" cy="59222500.000000" r="1093256.000000" /> 
<circle cx="124411154.000000" cy="57947500.000000" r="962461.000000" /> 
<circle cx="134505000.000000" cy="61747500.000000" r="785175.000000" /> 
<circle cx="134650000.000000" cy="65947500.000000" r="435460.000000" /> 
<circle cx="124345000.000000" cy="61747500.000000" r="791012.000000" /> 
<circle cx="126887304.000000" cy="56672500.000000" r="1082593.000000" /> 
<circle cx="129425000.000000" cy="55847500.000000" r="961301.000000" /> 
<circle cx="129425000.000000" cy="61747500.000000" r="1930104.000000" /> 
<circle cx="123925000.000000" cy="61747500.000000" r="840238.000000" /> 
<circle cx="134925000.000000" cy="61747500.000000" r="830542.000000" /> 
<path d="M89439999 195754170
L93439999 195754170
" />
<path d="M93439999 195754170
L93439999 192234170
" />
<path d="M93439999 192234170
L89439999 192234170
" />
<path d="M89439999 192234170
L89439999 195754170
" />
<circle cx="87627303.000000" cy="200879170.000000" r="1093256.000000" /> 
<circle cx="96453845.000000" cy="202154170.000000" r="962461.000000" /> 
<circle cx="86359999.000000" cy="198354170.000000" r="785175.000000" /> 
<circle cx="86214999.000000" cy="194154170.000000" r="435460.000000" /> 
<circle cx="96519999.000000" cy="198354170.000000" r="791012.000000" /> 
<circle cx="93977695.000000" cy="203429170.000000" r="1082593.000000" /> 
<circle cx="91439999.000000" cy="204254170.000000" r="961301.000000" /> 
<circle cx="91439999.000000" cy="198354170.000000" r="1930104.000000" /> 
<circle cx="96939999.000000" cy="198354170.000000" r="840238.000000" /> 
<circle cx="85939999.000000" cy="198354170.000000" r="830542.000000" /> 
<path d="M139832051 112549166
L136367949 110549166
" />
<path d="M136367949 110549166
L134607949 113597575
" />
<path d="M134607949 113597575
L138072051 115597575
" />
<path d="M138072051 115597575
L139832051 112549166
" />
<circle cx="143964392.000000" cy="109017134.000000" r="1093257.000000" /> 
<circle cx="136957882.000000" cy="103499680.000000" r="962461.000000" /> 
<circle cx="143799409.000000" cy="111837500.000000" r="785175.000000" /> 
<circle cx="141824983.000000" cy="115547307.000000" r="435460.000000" /> 
<circle cx="135000591.000000" cy="106757500.000000" r="791012.000000" /> 
<circle cx="139739791.000000" cy="103633573.000000" r="1082593.000000" /> 
<circle cx="142350000.000000" cy="104187950.000000" r="961301.000000" /> 
<circle cx="139400000.000000" cy="109297500.000000" r="1930103.000000" /> 
<circle cx="134636860.000000" cy="106547500.000000" r="840238.000000" /> 
<circle cx="144163140.000000" cy="112047500.000000" r="830542.000000" /> 
<path d="M74425000 44372500
L70425000 44372500
" />
<path d="M70425000 44372500
L70425000 47892500
" />
<path d="M70425000 47892500
L74425000 47892500
" />
<path d="M74425000 47892500
L74425000 44372500
" />
<circle cx="76237696.000000" cy="39247500.000000" r="1093256.000000" /> 
<circle cx="67411154.000000" cy="37972500.000000" r="962461.000000" /> 
<circle cx="77505000.000000" cy="41772500.000000" r="785175.000000" /> 
<circle cx="77650000.000000" cy="45972500.000000" r="435460.000000" /> 
<circle cx="67345000.000000" cy="41772500.000000" r="791012.000000" /> 
<circle cx="69887304.000000" cy="36697500.000000" r="1082593.000000" /> 
<circle cx="72425000.000000" cy="35872500.000000" r="961301.000000" /> 
<circle cx="72425000.000000" cy="41772500.000000" r="1930104.000000" /> 
<circle cx="66925000.000000" cy="41772500.000000" r="840238.000000" /> 
<circle cx="77925000.000000" cy="41772500.000000" r="830542.000000" /> 
<path d="M127414999 169654170
L131414999 169654170
" />
<path d="M131414999 169654170
L131414999 166134170
" />
<path d="M131414999 166134170
L127414999 166134170
" />
<path d="M127414999 166134170
L127414999 169654170
" />
<circle cx="125602303.000000" cy="174779170.000000" r="1093256.000000" /> 
<circle cx="134428845.000000" cy="176054170.000000" r="962461.000000" /> 
<circle cx="124334999.000000" cy="172254170.000000" r="785175.000000" /> 
<circle cx="124189999.000000" cy="168054170.000000" r="435460.000000" /> 
<circle cx="134494999.000000" cy="172254170.000000" r="791012.000000" /> 
<circle cx="131952695.000000" cy="177329170.000000" r="1082593.000000" /> 
<circle cx="129414999.000000" cy="178154170.000000" r="961301.000000" /> 
<circle cx="129414999.000000" cy="172254170.000000" r="1930104.000000" /> 
<circle cx="134914999.000000" cy="172254170.000000" r="840238.000000" /> 
<circle cx="123914999.000000" cy="172254170.000000" r="830542.000000" /> 
<path d="M51414999 196654170
L55414999 196654170
" />
<path d="M55414999 196654170
L55414999 193134170
" />
<path d="M55414999 193134170
L51414999 193134170
" />
<path d="M51414999 193134170
L51414999 196654170
" />
<circle cx="49602303.000000" cy="201779170.000000" r="1093256.000000" /> 
<circle cx="58428845.000000" cy="203054170.000000" r="962461.000000" /> 
<circle cx="48334999.000000" cy="199254170.000000" r="785175.000000" /> 
<circle cx="48189999.000000" cy="195054170.000000" r="435460.000000" /> 
<circle cx="58494999.000000" cy="199254170.000000" r="791012.000000" /> 
<circle cx="55952695.000000" cy="204329170.000000" r="1082593.000000" /> 
<circle cx="53414999.000000" cy="205154170.000000" r="961301.000000" /> 
<circle cx="53414999.000000" cy="199254170.000000" r="1930104.000000" /> 
<circle cx="58914999.000000" cy="199254170.000000" r="840238.000000" /> 
<circle cx="47914999.000000" cy="199254170.000000" r="830542.000000" /> 
<path d="M127414999 207654170
L131414999 207654170
" />
<path d="M131414999 207654170
L131414999 204134170
" />
<path d="M131414999 204134170
L127414999 204134170
" />
<path d="M127414999 204134170
L127414999 207654170
" />
<circle cx="125602303.000000" cy="212779170.000000" r="1093256.000000" /> 
<circle cx="134428845.000000" cy="214054170.000000" r="962461.000000" /> 
<circle cx="124334999.000000" cy="210254170.000000" r="785175.000000" /> 
<circle cx="124189999.000000" cy="206054170.000000" r="435460.000000" /> 
<circle cx="134494999.000000" cy="210254170.000000" r="791012.000000" /> 
<circle cx="131952695.000000" cy="215329170.000000" r="1082593.000000" /> 
<circle cx="129414999.000000" cy="216154170.000000" r="961301.000000" /> 
<circle cx="129414999.000000" cy="210254170.000000" r="1930104.000000" /> 
<circle cx="134914999.000000" cy="210254170.000000" r="840238.000000" /> 
<circle cx="123914999.000000" cy="210254170.000000" r="830542.000000" /> 
<path d="M117085218 150010401
L120948921 148975125
" />
<path d="M120948921 148975125
L120037878 145575066
" />
<path d="M120037878 145575066
L116174175 146610342
" />
<path d="M116174175 146610342
L117085218 150010401
" />
<circle cx="116660736.000000" cy="155429931.000000" r="1093256.000000" /> 
<circle cx="125516515.000000" cy="154377009.000000" r="962460.000000" /> 
<circle cx="114783096.000000" cy="153318971.000000" r="785175.000000" /> 
<circle cx="113555997.000000" cy="149299611.000000" r="435459.000000" /> 
<circle cx="124596902.000000" cy="150689369.000000" r="791012.000000" /> 
<circle cx="123454732.000000" cy="156249440.000000" r="1082593.000000" /> 
<circle cx="121217031.000000" cy="157703132.000000" r="961301.000000" /> 
<circle cx="119689999.000000" cy="152004170.000000" r="1930103.000000" /> 
<circle cx="125002591.000000" cy="150580665.000000" r="840238.000000" /> 
<circle cx="114377407.000000" cy="153427675.000000" r="830542.000000" /> 
<path d="M131425000 83347500
L127425000 83347500
" />
<path d="M127425000 83347500
L127425000 86867500
" />
<path d="M127425000 86867500
L131425000 86867500
" />
<path d="M131425000 86867500
L131425000 83347500
" />
<circle cx="133237696.000000" cy="78222500.000000" r="1093256.000000" /> 
<circle cx="124411154.000000" cy="76947500.000000" r="962461.000000" /> 
<circle cx="134505000.000000" cy="80747500.000000" r="785175.000000" /> 
<circle cx="134650000.000000" cy="84947500.000000" r="435460.000000" /> 
<circle cx="124345000.000000" cy="80747500.000000" r="791012.000000" /> 
<circle cx="126887304.000000" cy="75672500.000000" r="1082593.000000" /> 
<circle cx="129425000.000000" cy="74847500.000000" r="961301.000000" /> 
<circle cx="129425000.000000" cy="80747500.000000" r="1930104.000000" /> 
<circle cx="123925000.000000" cy="80747500.000000" r="840238.000000" /> 
<circle cx="134925000.000000" cy="80747500.000000" r="830542.000000" /> 
<path d="M55425000 56347500
L51425000 56347500
" />
<path d="M51425000 56347500
L51425000 59867500
" />
<path d="M51425000 59867500
L55425000 59867500
" />
<path d="M55425000 59867500
L55425000 56347500
" />
<circle cx="57237696.000000" cy="51222500.000000" r="1093256.000000" /> 
<circle cx="48411154.000000" cy="49947500.000000" r="962461.000000" /> 
<circle cx="58505000.000000" cy="53747500.000000" r="785175.000000" /> 
<circle cx="58650000.000000" cy="57947500.000000" r="435460.000000" /> 
<circle cx="48345000.000000" cy="53747500.000000" r="791012.000000" /> 
<circle cx="50887304.000000" cy="48672500.000000" r="1082593.000000" /> 
<circle cx="53425000.000000" cy="47847500.000000" r="961301.000000" /> 
<circle cx="53425000.000000" cy="53747500.000000" r="1930104.000000" /> 
<circle cx="47925000.000000" cy="53747500.000000" r="840238.000000" /> 
<circle cx="58925000.000000" cy="53747500.000000" r="830542.000000" /> 
<path d="M112425000 80822500
L108425000 80822500
" />
<path d="M108425000 80822500
L108425000 84342500
" />
<path d="M108425000 84342500
L112425000 84342500
" />
<path d="M112425000 84342500
L112425000 80822500
" />
<circle cx="114237696.000000" cy="75697500.000000" r="1093256.000000" /> 
<circle cx="105411154.000000" cy="74422500.000000" r="962461.000000" /> 
<circle cx="115505000.000000" cy="78222500.000000" r="785175.000000" /> 
<circle cx="115650000.000000" cy="82422500.000000" r="435460.000000" /> 
<circle cx="105345000.000000" cy="78222500.000000" r="791012.000000" /> 
<circle cx="107887304.000000" cy="73147500.000000" r="1082593.000000" /> 
<circle cx="110425000.000000" cy="72322500.000000" r="961301.000000" /> 
<circle cx="110425000.000000" cy="78222500.000000" r="1930104.000000" /> 
<circle cx="104925000.000000" cy="78222500.000000" r="840238.000000" /> 
<circle cx="115925000.000000" cy="78222500.000000" r="830542.000000" /> 
<path d="M89439999 176754170
L93439999 176754170
" />
<path d="M93439999 176754170
L93439999 173234170
" />
<path d="M93439999 173234170
L89439999 173234170
" />
<path d="M89439999 173234170
L89439999 176754170
" />
<circle cx="87627303.000000" cy="181879170.000000" r="1093256.000000" /> 
<circle cx="96453845.000000" cy="183154170.000000" r="962461.000000" /> 
<circle cx="86359999.000000" cy="179354170.000000" r="785175.000000" /> 
<circle cx="86214999.000000" cy="175154170.000000" r="435460.000000" /> 
<circle cx="96519999.000000" cy="179354170.000000" r="791012.000000" /> 
<circle cx="93977695.000000" cy="184429170.000000" r="1082593.000000" /> 
<circle cx="91439999.000000" cy="185254170.000000" r="961301.000000" /> 
<circle cx="91439999.000000" cy="179354170.000000" r="1930104.000000" /> 
<circle cx="96939999.000000" cy="179354170.000000" r="840238.000000" /> 
<circle cx="85939999.000000" cy="179354170.000000" r="830542.000000" /> 
<path d="M70414999 170629170
L74414999 170629170
" />
<path d="M74414999 170629170
L74414999 167109170
" />
<path d="M74414999 167109170
L70414999 167109170
" />
<path d="M70414999 167109170
L70414999 170629170
" />
<circle cx="68602303.000000" cy="175754170.000000" r="1093256.000000" /> 
<circle cx="77428845.000000" cy="177029170.000000" r="962461.000000" /> 
<circle cx="67334999.000000" cy="173229170.000000" r="785175.000000" /> 
<circle cx="67189999.000000" cy="169029170.000000" r="435460.000000" /> 
<circle cx="77494999.000000" cy="173229170.000000" r="791012.000000" /> 
<circle cx="74952695.000000" cy="178304170.000000" r="1082593.000000" /> 
<circle cx="72414999.000000" cy="179129170.000000" r="961301.000000" /> 
<circle cx="72414999.000000" cy="173229170.000000" r="1930104.000000" /> 
<circle cx="77914999.000000" cy="173229170.000000" r="840238.000000" /> 
<circle cx="66914999.000000" cy="173229170.000000" r="830542.000000" /> 
<path d="M93450000 57247500
L89450000 57247500
" />
<path d="M89450000 57247500
L89450000 60767500
" />
<path d="M89450000 60767500
L93450000 60767500
" />
<path d="M93450000 60767500
L93450000 57247500
" />
<circle cx="95262696.000000" cy="52122500.000000" r="1093256.000000" /> 
<circle cx="86436154.000000" cy="50847500.000000" r="962461.000000" /> 
<circle cx="96530000.000000" cy="54647500.000000" r="785175.000000" /> 
<circle cx="96675000.000000" cy="58847500.000000" r="435460.000000" /> 
<circle cx="86370000.000000" cy="54647500.000000" r="791012.000000" /> 
<circle cx="88912304.000000" cy="49572500.000000" r="1082593.000000" /> 
<circle cx="91450000.000000" cy="48747500.000000" r="961301.000000" /> 
<circle cx="91450000.000000" cy="54647500.000000" r="1930104.000000" /> 
<circle cx="85950000.000000" cy="54647500.000000" r="840238.000000" /> 
<circle cx="96950000.000000" cy="54647500.000000" r="830542.000000" /> 
<path d="M55425000 94347500
L51425000 94347500
" />
<path d="M51425000 94347500
L51425000 97867500
" />
<path d="M51425000 97867500
L55425000 97867500
" />
<path d="M55425000 97867500
L55425000 94347500
" />
<circle cx="57237696.000000" cy="89222500.000000" r="1093256.000000" /> 
<circle cx="48411154.000000" cy="87947500.000000" r="962461.000000" /> 
<circle cx="58505000.000000" cy="91747500.000000" r="785175.000000" /> 
<circle cx="58650000.000000" cy="95947500.000000" r="435460.000000" /> 
<circle cx="48345000.000000" cy="91747500.000000" r="791012.000000" /> 
<circle cx="50887304.000000" cy="86672500.000000" r="1082593.000000" /> 
<circle cx="53425000.000000" cy="85847500.000000" r="961301.000000" /> 
<circle cx="53425000.000000" cy="91747500.000000" r="1930104.000000" /> 
<circle cx="47925000.000000" cy="91747500.000000" r="840238.000000" /> 
<circle cx="58925000.000000" cy="91747500.000000" r="830542.000000" /> 
<path d="M100800000 100560000
L96800000 100560000
" />
<path d="M96800000 100560000
L96800000 104080000
" />
<path d="M96800000 104080000
L100800000 104080000
" />
<path d="M100800000 104080000
L100800000 100560000
" />
<circle cx="102612696.000000" cy="95435000.000000" r="1093256.000000" /> 
<circle cx="93786154.000000" cy="94160000.000000" r="962461.000000" /> 
<circle cx="103880000.000000" cy="97960000.000000" r="785175.000000" /> 
<circle cx="104025000.000000" cy="102160000.000000" r="435460.000000" /> 
<circle cx="93720000.000000" cy="97960000.000000" r="791012.000000" /> 
<circle cx="96262304.000000" cy="92885000.000000" r="1082593.000000" /> 
<circle cx="98800000.000000" cy="92060000.000000" r="961301.000000" /> 
<circle cx="98800000.000000" cy="97960000.000000" r="1930104.000000" /> 
<circle cx="93300000.000000" cy="97960000.000000" r="840238.000000" /> 
<circle cx="104300000.000000" cy="97960000.000000" r="830542.000000" /> 
<path d="M127414999 188654170
L131414999 188654170
" />
<path d="M131414999 188654170
L131414999 185134170
" />
<path d="M131414999 185134170
L127414999 185134170
" />
<path d="M127414999 185134170
L127414999 188654170
" />
<circle cx="125602303.000000" cy="193779170.000000" r="1093256.000000" /> 
<circle cx="134428845.000000" cy="195054170.000000" r="962461.000000" /> 
<circle cx="124334999.000000" cy="191254170.000000" r="785175.000000" /> 
<circle cx="124189999.000000" cy="187054170.000000" r="435460.000000" /> 
<circle cx="134494999.000000" cy="191254170.000000" r="791012.000000" /> 
<circle cx="131952695.000000" cy="196329170.000000" r="1082593.000000" /> 
<circle cx="129414999.000000" cy="197154170.000000" r="961301.000000" /> 
<circle cx="129414999.000000" cy="191254170.000000" r="1930104.000000" /> 
<circle cx="134914999.000000" cy="191254170.000000" r="840238.000000" /> 
<circle cx="123914999.000000" cy="191254170.000000" r="830542.000000" /> 
<path d="M120958922 104026545
L117095219 102991269
" />
<path d="M117095219 102991269
L116184176 106391328
" />
<path d="M116184176 106391328
L120047879 107426604
" />
<path d="M120047879 107426604
L120958922 104026545
" />
<circle cx="124036300.000000" cy="99545336.000000" r="1093257.000000" /> 
<circle cx="115840509.000000" cy="96029303.000000" r="962461.000000" /> 
<circle cx="124606903.000000" cy="102312301.000000" r="785175.000000" /> 
<circle cx="123659922.000000" cy="106406718.000000" r="435459.000000" /> 
<circle cx="114793097.000000" cy="99682699.000000" r="791012.000000" /> 
<circle cx="118562281.000000" cy="95438622.000000" r="1082593.000000" /> 
<circle cx="121227032.000000" cy="95298538.000000" r="961300.000000" /> 
<circle cx="119700000.000000" cy="100997500.000000" r="1930103.000000" /> 
<circle cx="114387408.000000" cy="99573995.000000" r="840238.000000" /> 
<circle cx="125012592.000000" cy="102421005.000000" r="830542.000000" /> 
<path d="M74425000 63372500
L70425000 63372500
" />
<path d="M70425000 63372500
L70425000 66892500
" />
<path d="M70425000 66892500
L74425000 66892500
" />
<path d="M74425000 66892500
L74425000 63372500
" />
<circle cx="76237696.000000" cy="58247500.000000" r="1093256.000000" /> 
<circle cx="67411154.000000" cy="56972500.000000" r="962461.000000" /> 
<circle cx="77505000.000000" cy="60772500.000000" r="785175.000000" /> 
<circle cx="77650000.000000" cy="64972500.000000" r="435460.000000" /> 
<circle cx="67345000.000000" cy="60772500.000000" r="791012.000000" /> 
<circle cx="69887304.000000" cy="55697500.000000" r="1082593.000000" /> 
<circle cx="72425000.000000" cy="54872500.000000" r="961301.000000" /> 
<circle cx="72425000.000000" cy="60772500.000000" r="1930104.000000" /> 
<circle cx="66925000.000000" cy="60772500.000000" r="840238.000000" /> 
<circle cx="77925000.000000" cy="60772500.000000" r="830542.000000" /> 
<path d="M136357948 142452504
L139822050 140452504
" />
<path d="M139822050 140452504
L138062050 137404095
" />
<path d="M138062050 137404095
L134597949 139404095
" />
<path d="M134597949 139404095
L136357948 142452504
" />
<circle cx="137350607.000000" cy="147797232.000000" r="1093257.000000" /> 
<circle cx="145632117.000000" cy="144488144.000000" r="962461.000000" /> 
<circle cx="134990590.000000" cy="146244170.000000" r="785175.000000" /> 
<circle cx="132765016.000000" cy="142679363.000000" r="435459.000000" /> 
<circle cx="143789408.000000" cy="141164170.000000" r="791012.000000" /> 
<circle cx="144125208.000000" cy="146830401.000000" r="1082593.000000" /> 
<circle cx="142339999.000000" cy="148813720.000000" r="961301.000000" /> 
<circle cx="139389999.000000" cy="143704170.000000" r="1930104.000000" /> 
<circle cx="144153139.000000" cy="140954170.000000" r="840238.000000" /> 
<circle cx="134626859.000000" cy="146454170.000000" r="830542.000000" /> 
<path d="M108414999 210179170
L112414999 210179170
" />
<path d="M112414999 210179170
L112414999 206659170
" />
<path d="M112414999 206659170
L108414999 206659170
" />
<path d="M108414999 206659170
L108414999 210179170
" />
<circle cx="106602303.000000" cy="215304170.000000" r="1093256.000000" /> 
<circle cx="115428845.000000" cy="216579170.000000" r="962461.000000" /> 
<circle cx="105334999.000000" cy="212779170.000000" r="785175.000000" /> 
<circle cx="105189999.000000" cy="208579170.000000" r="435460.000000" /> 
<circle cx="115494999.000000" cy="212779170.000000" r="791012.000000" /> 
<circle cx="112952695.000000" cy="217854170.000000" r="1082593.000000" /> 
<circle cx="110414999.000000" cy="218679170.000000" r="961301.000000" /> 
<circle cx="110414999.000000" cy="212779170.000000" r="1930104.000000" /> 
<circle cx="115914999.000000" cy="212779170.000000" r="840238.000000" /> 
<circle cx="104914999.000000" cy="212779170.000000" r="830542.000000" /> 
<path d="M93450000 38247500
L89450000 38247500
" />
<path d="M89450000 38247500
L89450000 41767500
" />
<path d="M89450000 41767500
L93450000 41767500
" />
<path d="M93450000 41767500
L93450000 38247500
" />
<circle cx="95262696.000000" cy="33122500.000000" r="1093256.000000" /> 
<circle cx="86436154.000000" cy="31847500.000000" r="962461.000000" /> 
<circle cx="96530000.000000" cy="35647500.000000" r="785175.000000" /> 
<circle cx="96675000.000000" cy="39847500.000000" r="435460.000000" /> 
<circle cx="86370000.000000" cy="35647500.000000" r="791012.000000" /> 
<circle cx="88912304.000000" cy="30572500.000000" r="1082593.000000" /> 
<circle cx="91450000.000000" cy="29747500.000000" r="961301.000000" /> 
<circle cx="91450000.000000" cy="35647500.000000" r="1930104.000000" /> 
<circle cx="85950000.000000" cy="35647500.000000" r="840238.000000" /> 
<circle cx="96950000.000000" cy="35647500.000000" r="830542.000000" /> 
<path d="M108414999 191179170
L112414999 191179170
" />
<path d="M112414999 191179170
L112414999 187659170
" />
<path d="M112414999 187659170
L108414999 187659170
" />
<path d="M108414999 187659170
L108414999 191179170
" />
<circle cx="106602303.000000" cy="196304170.000000" r="1093256.000000" /> 
<circle cx="115428845.000000" cy="197579170.000000" r="962461.000000" /> 
<circle cx="105334999.000000" cy="193779170.000000" r="785175.000000" /> 
<circle cx="105189999.000000" cy="189579170.000000" r="435460.000000" /> 
<circle cx="115494999.000000" cy="193779170.000000" r="791012.000000" /> 
<circle cx="112952695.000000" cy="198854170.000000" r="1082593.000000" /> 
<circle cx="110414999.000000" cy="199679170.000000" r="961301.000000" /> 
<circle cx="110414999.000000" cy="193779170.000000" r="1930104.000000" /> 
<circle cx="115914999.000000" cy="193779170.000000" r="840238.000000" /> 
<circle cx="104914999.000000" cy="193779170.000000" r="830542.000000" /> 
<path d="M108414999 172179170
L112414999 172179170
" />
<path d="M112414999 172179170
L112414999 168659170
" />
<path d="M112414999 168659170
L108414999 168659170
" />
<path d="M108414999 168659170
L108414999 172179170
" />
<circle cx="106602303.000000" cy="177304170.000000" r="1093256.000000" /> 
<circle cx="115428845.000000" cy="178579170.000000" r="962461.000000" /> 
<circle cx="105334999.000000" cy="174779170.000000" r="785175.000000" /> 
<circle cx="105189999.000000" cy="170579170.000000" r="435460.000000" /> 
<circle cx="115494999.000000" cy="174779170.000000" r="791012.000000" /> 
<circle cx="112952695.000000" cy="179854170.000000" r="1082593.000000" /> 
<circle cx="110414999.000000" cy="180679170.000000" r="961301.000000" /> 
<circle cx="110414999.000000" cy="174779170.000000" r="1930104.000000" /> 
<circle cx="115914999.000000" cy="174779170.000000" r="840238.000000" /> 
<circle cx="104914999.000000" cy="174779170.000000" r="830542.000000" /> 
<path d="M96789999 152441670
L100789999 152441670
" />
<path d="M100789999 152441670
L100789999 148921670
" />
<path d="M100789999 148921670
L96789999 148921670
" />
<path d="M96789999 148921670
L96789999 152441670
" />
<circle cx="94977303.000000" cy="157566670.000000" r="1093256.000000" /> 
<circle cx="103803845.000000" cy="158841670.000000" r="962461.000000" /> 
<circle cx="93709999.000000" cy="155041670.000000" r="785175.000000" /> 
<circle cx="93564999.000000" cy="150841670.000000" r="435460.000000" /> 
<circle cx="103869999.000000" cy="155041670.000000" r="791012.000000" /> 
<circle cx="101327695.000000" cy="160116670.000000" r="1082593.000000" /> 
<circle cx="98789999.000000" cy="160941670.000000" r="961301.000000" /> 
<circle cx="98789999.000000" cy="155041670.000000" r="1930104.000000" /> 
<circle cx="104289999.000000" cy="155041670.000000" r="840238.000000" /> 
<circle cx="93289999.000000" cy="155041670.000000" r="830542.000000" /> 
<path d="M51414999 177654170
L55414999 177654170
" />
<path d="M55414999 177654170
L55414999 174134170
" />
<path d="M55414999 174134170
L51414999 174134170
" />
<path d="M51414999 174134170
L51414999 177654170
" />
<circle cx="49602303.000000" cy="182779170.000000" r="1093256.000000" /> 
<circle cx="58428845.000000" cy="184054170.000000" r="962461.000000" /> 
<circle cx="48334999.000000" cy="180254170.000000" r="785175.000000" /> 
<circle cx="48189999.000000" cy="176054170.000000" r="435460.000000" /> 
<circle cx="58494999.000000" cy="180254170.000000" r="791012.000000" /> 
<circle cx="55952695.000000" cy="185329170.000000" r="1082593.000000" /> 
<circle cx="53414999.000000" cy="186154170.000000" r="961301.000000" /> 
<circle cx="53414999.000000" cy="180254170.000000" r="1930104.000000" /> 
<circle cx="58914999.000000" cy="180254170.000000" r="840238.000000" /> 
<circle cx="47914999.000000" cy="180254170.000000" r="830542.000000" /> 
<path d="M131425000 45347500
L127425000 45347500
" />
<path d="M127425000 45347500
L127425000 48867500
" />
<path d="M127425000 48867500
L131425000 48867500
" />
<path d="M131425000 48867500
L131425000 45347500
" />
<circle cx="133237696.000000" cy="40222500.000000" r="1093256.000000" /> 
<circle cx="124411154.000000" cy="38947500.000000" r="962461.000000" /> 
<circle cx="134505000.000000" cy="42747500.000000" r="785175.000000" /> 
<circle cx="134650000.000000" cy="46947500.000000" r="435460.000000" /> 
<circle cx="124345000.000000" cy="42747500.000000" r="791012.000000" /> 
<circle cx="126887304.000000" cy="37672500.000000" r="1082593.000000" /> 
<circle cx="129425000.000000" cy="36847500.000000" r="961301.000000" /> 
<circle cx="129425000.000000" cy="42747500.000000" r="1930104.000000" /> 
<circle cx="123925000.000000" cy="42747500.000000" r="840238.000000" /> 
<circle cx="134925000.000000" cy="42747500.000000" r="830542.000000" /> 
<g >
</g>
<g >
</g>
<g >
</g>
<g >
</g>
<g >
</g>
<g >
</g>
<g >
</g>
<g >
</g>
<g >
</g>
<g >
</g>
<g >
</g>
<g >
</g>
<g >
</g>
<g >
</g>
<g >
</g>
<g >
</g>
<g >
</g>
<g >
</g>
<g >
</g>
<g >
</g>
<g >
</g>
<g >
</g>
<g >
</g>
<g >
</g>
<g >
</g>
<g >
</g>
<g >
</g>
<g >
</g>
<g >
</g>
<g >
</g>
<g >
</g>
<g >
</g>
<g >
</g>
<g >
</g>
<g >
</g>
<g >
</g>
<g >
</g>
<g >
</g>
<g >
</g>
<g >
</g>
<g >
</g>
<g >
</g>
<g >
</g>
<g >
</g>
<g >
</g>
<g >
</g>
<g >
</g>
<g >
</g>
<g >
</g>
<g >
</g>
<g >
</g>
<g >
</g>
<g >
</g>
<g >
</g>
<g >
</g>
<g >
</g>
<g >
</g>
<g >
</g>
<g >
</g>
<g >
</g>
<g >
</g>
<g >
</g>
<g >
</g>
<g >
</g>
<g >
</g>
<g >
</g>
<g >
</g>
<g >
</g>
<g >
</g>
<g >
</g>
<g >
</g>
<g >
</g>
<g >
</g>
<g >
</g>
<g >
</g>
<g >
</g>
<g >
</g>
<g >
</g>
<g >
</g>
<g >
</g>
<g >
</g>
<g >
</g>
<g >
</g>
<g >
</g>
<g >
</g>
<g >
</g>
<g >
</g>
<g >
</g>
<g >
</g>
<g >
</g>
<g >
</g>
<g >
</g>
<g >
</g>
<g >
</g>
<g >
</g>
<g >
</g>
<g >
</g>
<g >
</g>
<g >
</g>
<g >
</g>
<g >
</g>
<g >
</g>
<g >
</g>
<g >
</g>
<g >
</g>
<g >
</g>
<g >
</g>
<g >
</g>
<g >
</g>
<g >
</g>
<g >
</g>
<g >
</g>
<g >
</g>
<g >
</g>
<g >
</g>
<g >
</g>
<g >
</g>
<g >
</g>
<g >
</g>
<g >
</g>
<g >
</g>
<g >
</g>
<g >
</g>
<g >
</g>
<g >
</g>
<g >
</g>
<g >
</g>
<g >
</g>
<g >
</g>
<g >
</g>
<g >
</g>
<g >
</g>
<g >
</g>
<g >
</g>
<g >
</g>
<g >
</g>
<g >
</g>
<g >
</g>
<g >
</g>
<g >
</g>
<g >
</g>
<g >
</g>
<g >
</g>
<g >
</g>
<g >
</g>
<g >
</g>
<g >
</g>
<g >
</g>
<g >
</g>
<g >
</g>
<g >
</g>
<g >
</g>
<g >
</g>
<g >
</g>
<g >
</g>
<g >
</g>
<g >
</g>
<g >
</g>
<g >
</g>
<g >
</g>
<g >
</g>
<g >
</g>
<g >
</g>
<g >
</g>
<g >
</g>
<g >
</g>
<g >
</g>
<g >
</g>
<g >
</g>
<g >
</g>
<g >
</g>
<g >
</g>
<g >
</g>
<g >
</g>
<g >
</g>
<g >
</g>
<g >
</g>
<g >
</g>
<g >
</g>
<g >
</g>
<g >
</g>
<g >
</g>
<g >
</g>
<g >
</g>
<g >
</g>
<g >
</g>
<g >
</g>
<g >
</g>
<g >
</g>
<g >
</g>
<g >
</g>
<g >
</g>
<g >
</g>
<g >
</g>
<g >
</g>
<g >
</g>
<g >
</g>
<g >
</g>
<g >
</g>
<g >
</g>
<g >
</g>
<g >
</g>
<g >
</g>
<g >
</g>
<g >
</g>
<g >
</g>
<g >
</g>
<g >
</g>
<g >
</g>
<g >
</g>
<g >
</g>
<g >
</g>
<g >
</g>
<g >
</g>
<g >
</g>
<g >
</g>
<g >
</g>
<g >
</g>
<g >
</g>
<g >
</g>
<g >
</g>
<g >
</g>
<g >
</g>
<g >
</g>
<g >
</g>
<g >
</g>
<g >
</g>
<g >
</g>
<g >
</g>
<g >
</g>
<g >
</g>
<g >
</g>
<g >
</g>
<g >
</g>
<g >
</g>
<g >
</g>
<g >
</g>
<g >
</g>
<g >
</g>
<g >
</g>
<g >
</g>
<g >
</g>
<g >
</g>
<g >
</g>
<g >
</g>
<g >
</g>
<g >
</g>
<g >
</g>
<g >
</g>
<g >
</g>
<g >
</g>
<g >
</g>
<g >
</g>
<g >
</g>
<g >
</g>
</g> 
</svg>
