0
SECTION
2
HEADER
9
$INSUNITS
70
4
9
$ACADVER
1
AC1014
9
$HANDSEED
5
FFFF
0
ENDSEC
0
SECTION
2
TABLES
0
TABLE
2
VPORT
5
8
100
AcDbSymbolTable
0
ENDTAB
0
TABLE
2
LTYPE
5
5
100
AcDbSymbolTable
0
LTYPE
5
14
100
AcDbSymbolTableRecord
100
AcDbLinetypeTableRecord
2
BYBLOCK
70
0
0
LTYPE
5
15
100
AcDbSymbolTableRecord
100
AcDbLinetypeTableRecord
2
BYLAYER
70
0
0
LTYPE
5
16
100
AcDbSymbolTableRecord
100
AcDbLinetypeTableRecord
2
DASHED
70
0
3
Dashed __ __ __ __ __ __ __ __ __ __ __ __ __ _
72
65
73
2
40
0.75
49
0.5
74
0
49
-0.25
74
0
0
ENDTAB
0
TABLE
2
LAYER
5
2
100
AcDbSymbolTable
70
3
0
LAYER
5
50
100
AcDbSymbolTableRecord
100
AcDbLayerTableRecord
2
1
70
0
62
7
6
DASHED
0
LAYER
5
51
100
AcDbSymbolTableRecord
100
AcDbLayerTableRecord
2
0
70
0
62
7
6
CONTINUOUS
0
ENDTAB
0
TABLE
2
STYLE
5
3
100
AcDbSymbolTable
70
1
0
STYLE
5
11
100
AcDbSymbolTableRecord
100
AcDbTextStyleTableRecord
2
STANDARD
70
0
0
ENDTAB
0
TABLE
2
VIEW
5
6
100
AcDbSymbolTable
70
0
0
ENDTAB
0
TABLE
2
UCS
5
7
100
AcDbSymbolTable
70
0
0
ENDTAB
0
TABLE
2
APPID
5
9
100
AcDbSymbolTable
70
2
0
APPID
5
12
100
AcDbSymbolTableRecord
100
AcDbRegAppTableRecord
2
ACAD
70
0
0
ENDTAB
0
TABLE
2
DIMSTYLE
5
A
100
AcDbSymbolTable
70
1
0
ENDTAB
0
TABLE
2
BLOCK_RECORD
5
1
100
AcDbSymbolTable
70
1
0
BLOCK_RECORD
5
1F
100
AcDbSymbolTableRecord
100
AcDbBlockTableRecord
2
*MODEL_SPACE
0
BLOCK_RECORD
5
1B
100
AcDbSymbolTableRecord
100
AcDbBlockTableRecord
2
*PAPER_SPACE
0
ENDTAB
0
ENDSEC
0
SECTION
2
BLOCKS
0
BLOCK
5
20
100
AcDbEntity
100
AcDbBlockBegin
2
*MODEL_SPACE
0
ENDBLK
5
21
100
AcDbEntity
100
AcDbBlockEnd
0
BLOCK
5
1C
100
AcDbEntity
100
AcDbBlockBegin
2
*PAPER_SPACE
0
ENDBLK
5
1D
100
AcDbEntity
100
AcDbBlockEnd
0
ENDSEC
0
SECTION
2
ENTITIES
0
LWPOLYLINE
5
100
100
AcDbEntity
8
0
100
AcDbPolyline
90
6
70
1
43
0.0
10
58.653143115185607
20
-38.288071672529753
10
55.593186688480543
20
-38.288071672529746
10
54.063208475128029
20
-35.638071672529705
10
55.593186688480614
20
-32.988071672529678
10
58.653143115185614
20
-32.988071672529671
10
60.183121328538142
20
-35.638071672529712
0
LWPOLYLINE
5
101
100
AcDbEntity
8
0
100
AcDbPolyline
90
6
70
1
43
0.0
10
-47.414857311516847
20
20.308979327470485
10
-48.944835524869376
20
22.958979327470495
10
-47.414857311516869
20
25.608979327470507
10
-44.35490088481184
20
25.608979327470514
10
-42.824922671459305
20
22.958979327470502
10
-44.354900884811826
20
20.308979327470492
0
LWPOLYLINE
5
102
100
AcDbEntity
8
0
100
AcDbPolyline
90
6
70
1
43
0.0
10
7.6270216884831541
20
-22.147311672529497
10
10.686978115188184
20
-22.147311672529497
10
12.2169563285407
20
-24.797311672529499
10
10.686978115188188
20
-27.447311672529512
10
7.6270216884831648
20
-27.447311672529509
10
6.0970434751306453
20
-24.797311672529506
0
LWPOLYLINE
5
103
100
AcDbEntity
8
0
100
AcDbPolyline
90
6
70
1
43
0.0
10
31.075087115188175
20
28.328297327470494
10
28.015130688483154
20
28.328297327470501
10
26.485152475130647
20
30.978297327470514
10
28.015130688483168
20
33.628297327470513
10
31.075087115188186
20
33.628297327470506
10
32.60506532854069
20
30.978297327470493
0
LWPOLYLINE
5
104
100
AcDbEntity
8
0
100
AcDbPolyline
90
6
70
1
43
0.0
10
-53.734869311516832
20
-25.941702672529484
10
-50.674912884811818
20
-25.941702672529495
10
-49.144934671459318
20
-28.5917026725295
10
-50.674912884811846
20
-31.241702672529499
10
-53.73486931151686
20
-31.241702672529485
10
-55.264847524869353
20
-28.591702672529486
0
LWPOLYLINE
5
105
100
AcDbEntity
8
0
100
AcDbPolyline
90
11
70
1
43
0.0
10
-47.103897098460578
20
17.084118042729063
10
-47.103897098460578
20
-18.845941531654642
42
0.17884162047868554
10
-54.666414289789259
20
-17.87065311676805
42
0.13915022317089359
10
-61.757757247243639
20
-15.858161770073277
10
-70.020172527807432
20
-15.858161770569215
42
-0.2312689545617797
10
-72.387012792405272
20
-14.701546473427186
10
-72.387619544103501
20
16.233074803932098
42
-0.47034111127307304
10
-68.827687450863536
20
19.180416470897235
42
0.046970756141615076
10
-66.401315044323042
20
18.951975379064194
10
-54.424562403621167
20
18.951975379064187
42
0.071350714428922088
10
-50.770513468324303
20
19.476081568260252
42
0.18892081311529726
0
LWPOLYLINE
5
106
100
AcDbEntity
8
0
100
AcDbPolyline
90
6
70
1
43
0.0
10
58.653143115188215
20
10.661786422818654
10
55.5931866884832
20
10.661786422818654
10
54.063208475130708
20
13.311786422818647
10
55.593188012606269
20
15.961785658334946
10
58.653143115187447
20
15.961784893852595
10
60.183121328540707
20
13.311786422818646
0
LWPOLYLINE
5
107
100
AcDbEntity
8
0
100
AcDbPolyline
90
6
70
1
43
0.0
10
-72.354902884815559
20
20.308978327476986
10
-75.414859311513084
20
20.308978327476986
10
-76.944837524861853
20
22.958978327470504
10
-75.414859311513098
20
25.608978327464015
10
-72.354902884815559
20
25.608978327464015
10
-70.824924671466789
20
22.958978327470511
0
ARC
5
108
100
AcDbEntity
8
0
100
AcDbCircle
10
59.623164901835722
20
15.811786422820514
30
0
40
3.4999999999999787
210
-0
220
0
230
1
100
AcDbArc
50
0
51
90
0
LINE
5
109
100
AcDbEntity
8
0
100
AcDbLine
10
59.623164901835722
20
19.311786422820493
30
0
11
44.060360341666971
21
19.311786422820504
31
0
0
ARC
5
110
100
AcDbEntity
8
0
100
AcDbCircle
10
44.060360341666978
20
22.8117864228205
30
0
40
3.499999998555352
210
0
220
0
230
1
100
AcDbArc
50
194.41674946244501
51
269.99999999999989
0
LINE
5
111
100
AcDbEntity
8
0
100
AcDbLine
10
40.670573875112296
20
21.940380833528032
30
0
11
40.188161599919241
21
23.82097240159359
31
0
0
LINE
5
112
100
AcDbEntity
8
0
100
AcDbLine
10
40.188161599919241
20
23.82097240159359
30
0
11
37.376554475675896
21
34.781493406852519
31
0
0
ARC
5
113
100
AcDbEntity
8
0
100
AcDbCircle
10
33.98632153918048
20
33.911826438236552
30
0
40
3.5000000000000031
210
0
220
-0
230
1
100
AcDbArc
50
14.387364400420832
51
90
0
LINE
5
114
100
AcDbEntity
8
0
100
AcDbLine
10
33.98632153918048
20
37.411826438236552
30
0
11
0.22334488712771439
21
37.41182643823656
31
0
0
LINE
5
115
100
AcDbEntity
8
0
100
AcDbLine
10
0.22334488712771439
20
37.41182643823656
30
0
11
-14.764661397164662
21
37.411532463503661
31
0
0
ARC
5
116
100
AcDbEntity
8
0
100
AcDbCircle
10
-14.764573685628362
20
31.411532464145068
30
0
40
5.9999999999997078
210
0
220
0
230
1
100
AcDbArc
50
90.000837583474137
51
110.08471618479022
0
ARC
5
117
100
AcDbEntity
8
0
100
AcDbCircle
10
-15.269075746528531
20
33.911522569248099
30
0
40
3.5000000000000417
210
0
220
0
230
1
100
AcDbArc
50
116.39506314086474
51
140.0011237993335
0
LINE
5
118
100
AcDbEntity
8
0
100
AcDbLine
10
-17.950275423652499
20
36.161226614537313
30
0
11
-21.809279426902599
21
31.562061533601454
31
0
0
ARC
5
119
100
AcDbEntity
8
0
100
AcDbCircle
10
-24.490479104026544
20
33.811765578890622
30
0
40
3.5000000000000053
210
-0
220
0
230
1
100
AcDbArc
50
270.00000000000006
51
320.00112379933381
0
LINE
5
120
100
AcDbEntity
8
0
100
AcDbLine
10
-24.490479104026541
20
30.311765578890618
30
0
11
-37.751689209638364
21
30.31176557889065
31
0
0
LINE
5
121
100
AcDbEntity
8
0
100
AcDbLine
10
-37.751689209638364
20
30.31176557889065
30
0
11
-51.912829819062544
21
30.311487822370616
31
0
0
ARC
5
122
100
AcDbEntity
8
0
100
AcDbCircle
10
-54.424562403621167
20
31.95197537906418
30
0
40
2.9999999999999938
210
-0
220
0
230
1
100
AcDbArc
50
270
51
326.85024738210609
0
LINE
5
123
100
AcDbEntity
8
0
100
AcDbLine
10
-54.424562403621167
20
28.951975379064187
30
0
11
-66.401315044323042
21
28.951975379064191
31
0
0
ARC
5
124
100
AcDbEntity
8
0
100
AcDbCircle
10
-66.401315044323042
20
31.951975379064187
30
0
40
2.9999999999999978
210
0
220
0
230
1
100
AcDbArc
50
213.15735908535041
51
270
0
LINE
5
125
100
AcDbEntity
8
0
100
AcDbLine
10
-68.912829819062523
20
30.311154384480908
30
0
11
-75.387865204983314
21
30.311027383101504
31
0
0
ARC
5
126
100
AcDbEntity
8
0
100
AcDbCircle
10
-75.387777985656058
20
24.311027383737386
30
0
40
5.9999999999980522
210
0
220
0
230
1
100
AcDbArc
50
90.000832883223978
51
94.781315646240103
0
ARC
5
127
100
AcDbEntity
8
0
100
AcDbCircle
10
-76.387777985463458
20
24.311007769745284
30
0
40
5.9999999999967706
210
0
220
-0
230
1
100
AcDbArc
50
85.220931951840001
51
90.000953479605798
0
LINE
5
128
100
AcDbEntity
8
0
100
AcDbLine
10
-76.387877833614283
20
30.31100776891126
30
0
11
-78.887895668966181
21
30.310958733519499
31
0
0
ARC
5
129
100
AcDbEntity
8
0
100
AcDbCircle
10
-78.8878270199817
20
26.810958734192742
30
0
40
3.4999999999999973
210
0
220
0
230
1
100
AcDbArc
50
90.001123799165399
51
180.001123799325
0
LINE
5
130
100
AcDbEntity
8
0
100
AcDbLine
10
-82.38782701930846
20
26.810890085194146
30
0
11
-82.387012320200924
21
-14.725719403928395
31
0
0
LINE
5
131
100
AcDbEntity
8
0
100
AcDbLine
10
-82.387012320200924
20
-14.725719403928395
30
0
11
-82.347749710100672
21
-22.879947672453621
31
0
0
ARC
5
132
100
AcDbEntity
8
0
100
AcDbCircle
10
-78.886862616794104
20
-22.358161770589632
30
0
40
3.499999999999996
210
0
220
0
230
1
100
AcDbArc
50
188.57371269365095
51
270
0
LINE
5
133
100
AcDbEntity
8
0
100
AcDbLine
10
-78.886862616794104
20
-25.858161770589629
30
0
11
-76.386911651851136
21
-25.858161770951355
31
0
0
LINE
5
134
100
AcDbEntity
8
0
100
AcDbLine
10
-76.386911651851136
20
-25.858161770951355
30
0
11
-61.757757247243646
21
-25.858161770073291
31
0
0
ARC
5
135
100
AcDbEntity
8
0
100
AcDbCircle
10
-61.757757247243639
20
-29.358161770073288
30
0
40
3.4999999999999876
210
-0
220
0
230
1
100
AcDbArc
50
0
51
90.000000000000114
0
SPLINE
5
136
100
AcDbEntity
8
0
100
AcDbSpline
70
0
71
3
72
14
73
10
74
0
42
0.000000001
43
0.0000000001
44
0.0000000001
40
0
40
0
40
0
40
0
40
0.77730790317861254
40
0.77730790317861254
40
1.2548098389884608
40
1.2548098389884608
40
1.9589655611580277
40
1.9589655611580277
40
2.9165975797713339
40
2.9165975797713339
40
2.9165975797713339
40
2.9165975797713339
10
-52.459030183102982
20
-50.515506728066072
30
0
10
-53.754582491069087
20
-48.271634687985298
30
0
10
-54.391075670769958
20
-46.828657029889762
30
0
10
-55.217365223159888
20
-44.657772295034263
30
0
10
-55.416028968730942
20
-44.046380798134884
30
0
10
-56.282227061658858
20
-41.928892742507962
30
0
10
-56.830248099718105
20
-40.85819464198515
30
0
10
-57.939688021749951
20
-36.675284732084179
30
0
10
-58.257757357390226
20
-33.635459723769131
30
0
10
-58.257757247243646
20
-29.358161770073291
30
0
0
LINE
5
137
100
AcDbEntity
8
0
100
AcDbLine
10
-52.459030183102982
20
-50.515506728066072
30
0
11
-46.608955883764629
21
-60.64772452580889
31
0
0
ARC
5
138
100
AcDbEntity
8
0
100
AcDbCircle
10
-43.577897493067361
20
-58.897671660269211
30
0
40
3.4999999999999942
210
0
220
0
230
1
100
AcDbArc
50
210.00099930673193
51
301.55732358759303
0
ARC
5
139
100
AcDbEntity
8
0
100
AcDbCircle
10
6.831621324081258
20
-140.97409438913041
30
0
40
92.820604002171692
210
0
220
-0
230
1
100
AcDbArc
50
89.299583264429913
51
121.557323587594
0
ARC
5
140
100
AcDbEntity
8
0
100
AcDbCircle
10
8.0090707503448826
20
-44.660687387863092
30
0
40
3.5000000000000102
210
0
220
0
230
1
100
AcDbArc
50
269.29958326443119
51
345.59951889437104
0
LINE
5
141
100
AcDbEntity
8
0
100
AcDbLine
10
11.399104505410964
20
-45.531130458668173
30
0
11
14.798116025634185
21
-32.29285462741575
31
0
0
ARC
5
142
100
AcDbEntity
8
0
100
AcDbCircle
10
18.188164165660844
20
-33.16324167252948
30
0
40
3.5000000000000009
210
0
220
0
230
1
100
AcDbArc
50
90.000000000000398
51
165.60046579610707
0
LINE
5
143
100
AcDbEntity
8
0
100
AcDbLine
10
18.188164165660819
20
-29.663241672529477
30
0
11
27.73749732117151
21
-29.663241672529477
31
0
0
ARC
5
144
100
AcDbEntity
8
0
100
AcDbCircle
10
27.73749732117151
20
-33.16324167252948
30
0
40
3.5
210
0
220
-0
230
1
100
AcDbArc
50
14.387364400420756
51
90
0
LINE
5
145
100
AcDbEntity
8
0
100
AcDbLine
10
31.127730257666926
20
-32.293574703913521
30
0
11
32.850056335980298
21
-39.007738641145416
31
0
0
ARC
5
146
100
AcDbEntity
8
0
100
AcDbCircle
10
36.240289272475707
20
-38.138071672529477
30
0
40
3.4999999999999836
210
0
220
0
230
1
100
AcDbArc
50
194.38736440042041
51
270.00000000000034
0
LINE
5
147
100
AcDbEntity
8
0
100
AcDbLine
10
36.240289272475728
20
-41.63807167252947
30
0
11
59.623164901835722
21
-41.638071672529449
31
0
0
ARC
5
148
100
AcDbEntity
8
0
100
AcDbCircle
10
59.623164901835736
20
-38.138071672529477
30
0
40
3.4999999999999742
210
0
220
0
230
1
100
AcDbArc
50
-90.000000000000256
51
0
0
LINE
5
149
100
AcDbEntity
8
0
100
AcDbLine
10
63.123164901835707
20
-38.138071672529435
30
0
11
63.1231649018357
21
15.811786422820511
31
0
0
ENDSEC
0
SECTION
2
OBJECTS
0
DICTIONARY
5
C
100
AcDbDictionary
3
ACAD_GROUP
350
D
3
ACAD_MLINESTYLE
350
17
0
DICTIONARY
5
D
100
AcDbDictionary
0
DICTIONARY
5
1A
330
C
100
AcDbDictionary
0
DICTIONARY
5
17
100
AcDbDictionary
0
ENDSEC
0
EOF
