0
SECTION
2
HEADER
9
$INSUNITS
70
4
9
$ACADVER
1
AC1014
9
$HANDSEED
5
FFFF
0
ENDSEC
0
SECTION
2
TABLES
0
TABLE
2
VPORT
5
8
100
AcDbSymbolTable
0
ENDTAB
0
TABLE
2
LTYPE
5
5
100
AcDbSymbolTable
0
LTYPE
5
14
100
AcDbSymbolTableRecord
100
AcDbLinetypeTableRecord
2
BYBLOCK
70
0
0
LTYPE
5
15
100
AcDbSymbolTableRecord
100
AcDbLinetypeTableRecord
2
BYLAYER
70
0
0
ENDTAB
0
TABLE
2
LAYER
5
2
100
AcDbSymbolTable
70
2
0
LAYER
5
50
100
AcDbSymbolTableRecord
100
AcDbLayerTableRecord
2
0
70
0
6
CONTINUOUS
0
ENDTAB
0
TABLE
2
STYLE
5
3
100
AcDbSymbolTable
70
1
0
STYLE
5
11
100
AcDbSymbolTableRecord
100
AcDbTextStyleTableRecord
2
STANDARD
70
0
0
ENDTAB
0
TABLE
2
VIEW
5
6
100
AcDbSymbolTable
70
0
0
ENDTAB
0
TABLE
2
UCS
5
7
100
AcDbSymbolTable
70
0
0
ENDTAB
0
TABLE
2
APPID
5
9
100
AcDbSymbolTable
70
2
0
APPID
5
12
100
AcDbSymbolTableRecord
100
AcDbRegAppTableRecord
2
ACAD
70
0
0
ENDTAB
0
TABLE
2
DIMSTYLE
5
A
100
AcDbSymbolTable
70
1
0
ENDTAB
0
TABLE
2
BLOCK_RECORD
5
1
100
AcDbSymbolTable
70
1
0
BLOCK_RECORD
5
1F
100
AcDbSymbolTableRecord
100
AcDbBlockTableRecord
2
*MODEL_SPACE
0
BLOCK_RECORD
5
1B
100
AcDbSymbolTableRecord
100
AcDbBlockTableRecord
2
*PAPER_SPACE
0
ENDTAB
0
ENDSEC
0
SECTION
2
BLOCKS
0
BLOCK
5
20
100
AcDbEntity
100
AcDbBlockBegin
2
*MODEL_SPACE
0
ENDBLK
5
21
100
AcDbEntity
100
AcDbBlockEnd
0
BLOCK
5
1C
100
AcDbEntity
100
AcDbBlockBegin
2
*PAPER_SPACE
0
ENDBLK
5
1D
100
AcDbEntity
100
AcDbBlockEnd
0
ENDSEC
0
SECTION
2
ENTITIES
0
SPLINE
5
100
100
AcDbEntity
8
0
100
AcDbSpline
70
4
71
5
72
16
73
10
74
0
42
0.000000001
43
0.0000000001
44
0.0000000001
40
-1
40
-1
40
-1
40
-1
40
-1
40
-1
40
-0.80000000000000004
40
-0.60000000000000009
40
-0.40000000000000002
40
-0.20000000000000001
40
0
40
0
40
0
40
0
40
0
40
0
41
1
41
1
41
1
41
1
41
1
41
1
41
1
41
1
41
1
41
1
10
-37.97307512326681
20
15.311786422820488
30
0
10
-38.349492777429987
20
15.311786422820488
30
0
10
-39.075302552260105
20
15.285316707328072
30
0
10
-40.083002233667258
20
15.166255451284076
30
0
10
-41.277129739400465
20
14.854267867090094
30
0
10
-42.534653421943396
20
14.178075700235045
30
0
10
-43.323343714607248
20
13.325764285727608
30
0
10
-43.756394037238444
20
12.440871150881875
30
0
10
-43.965429350136006
20
11.725699097076664
30
0
10
-44.050013863120753
20
11.336774756707417
30
0
0
ARC
5
101
100
AcDbEntity
8
0
100
AcDbCircle
10
-50.157249604241372
20
12.664995974117632
30
0
40
6.2499999999999751
210
0
220
0
230
1
100
AcDbArc
50
269.01900635113674
51
347.73019833018071
0
SPLINE
5
102
100
AcDbEntity
8
0
100
AcDbSpline
70
4
71
5
72
14
73
8
74
0
42
0.000000001
43
0.0000000001
44
0.0000000001
40
0
40
0
40
0
40
0
40
0
40
0
40
0.20000000000000001
40
0.40000000000000002
40
0.47770900792135235
40
0.47770900792135235
40
0.47770900792135235
40
0.47770900792135235
40
0.47770900792135235
40
0.47770900792135235
41
1
41
1
41
1
41
1
41
1
41
1
41
1
41
1
10
-50.264254182991913
20
6.4159120396416212
30
0
10
-50.67055585749911
20
6.4228692416862954
30
0
10
-51.381054152581378
20
6.3593589366311329
30
0
10
-51.985927996229293
20
6.0987495689178477
30
0
10
-52.344284751843553
20
5.6506566304268624
30
0
10
-52.536391547845994
20
5.0742256084917372
30
0
10
-52.606494973333469
20
4.7063745033108573
30
0
10
-52.623164901835686
20
4.6011008781684097
30
0
0
LINE
5
103
100
AcDbEntity
8
0
100
AcDbLine
10
-52.623164901835686
20
4.6011008781684097
30
0
11
-52.623164901835686
21
-26.857214629907851
31
0
0
SPLINE
5
104
100
AcDbEntity
8
0
100
AcDbSpline
70
4
71
5
72
13
73
7
74
0
42
0.000000001
43
0.0000000001
44
0.0000000001
40
-0.33217797044279584
40
-0.33217797044279584
40
-0.33217797044279584
40
-0.33217797044279584
40
-0.33217797044279584
40
-0.33217797044279584
40
-0.20000000000000001
40
0
40
0
40
0
40
0
40
0
40
0
41
1
41
1
41
1
41
1
41
1
41
1
41
1
10
-52.623164901835686
20
-26.857214629907872
30
0
10
-52.527563773179715
20
-27.117801998680321
30
0
10
-52.232654206954301
20
-27.730770245325832
30
0
10
-51.783242922418182
20
-28.224294788213712
30
0
10
-51.137135523449466
20
-28.563917259005201
30
0
10
-50.265080179530976
20
-28.72609943582929
30
0
10
-49.658041865357241
20
-28.759362403159329
30
0
0
ARC
5
105
100
AcDbEntity
8
0
100
AcDbCircle
10
-50.000000745058053
20
-35.000000521540628
30
0
40
6.2499999999999956
210
-0
220
0
230
1
100
AcDbArc
50
2.2424097753222911
51
86.863585738993791
0
LINE
5
106
100
AcDbEntity
8
0
100
AcDbLine
10
-40.757084132416061
20
-37.638071672529449
30
0
11
-38.248414901835652
21
-37.638071672529463
31
0
0
SPLINE
5
107
100
AcDbEntity
8
0
100
AcDbSpline
70
0
71
3
72
8
73
4
74
0
42
0.000000001
43
0.0000000001
44
0.0000000001
40
0
40
0
40
0
40
0
40
0.033130984299425043
40
0.033130984299425043
40
0.033130984299425043
40
0.033130984299425043
10
-38.248414901835652
20
-37.638071672529463
30
0
10
-38.24477664995679
20
-37.638071672529463
30
0
10
-38.225407547795818
20
-37.636990469808914
30
0
10
-38.207039410325173
20
-37.633678349078622
30
0
0
LINE
5
108
100
AcDbEntity
8
0
100
AcDbLine
10
-37.468011778442211
20
-33.495313575078349
30
0
11
-37.27276464525572
21
-31.16161322065804
31
0
0
LINE
5
109
100
AcDbEntity
8
0
100
AcDbLine
10
-37.27276464525572
20
-31.16161322065804
30
0
11
-37.10491951554517
21
-29.987246012576755
31
0
0
LINE
5
110
100
AcDbEntity
8
0
100
AcDbLine
10
-37.10491951554517
20
-29.987246012576755
30
0
11
-36.838506238728229
21
-28.848220557426984
31
0
0
LINE
5
111
100
AcDbEntity
8
0
100
AcDbLine
10
-36.838506238728229
20
-28.848220557426984
30
0
11
-36.325163780286481
21
-27.555809105541496
31
0
0
ARC
5
112
100
AcDbEntity
8
0
100
AcDbCircle
10
-33.537047371387033
20
-28.663241672529498
30
0
40
2.9999999999999982
210
0
220
0
230
1
100
AcDbArc
50
90
51
158.33715311328808
0
LINE
5
113
100
AcDbEntity
8
0
100
AcDbLine
10
-33.537047371387033
20
-25.663241672529502
30
0
11
-19.749263071049601
21
-25.663241672529473
31
0
0
ARC
5
114
100
AcDbEntity
8
0
100
AcDbCircle
10
2.0000000298023179
20
-3.0000000447034836
30
0
40
27.999999999999989
210
0
220
0
230
1
100
AcDbArc
50
115.86029430347847
51
223.53319550618312
0
ARC
5
115
100
AcDbEntity
8
0
100
AcDbCircle
10
-2.0000000298023268
20
31.000000461935983
30
0
40
6.2499999999999867
210
0
220
0
230
1
100
AcDbArc
50
183.55325025815242
51
202.49682019354648
0
SPLINE
5
116
100
AcDbEntity
8
0
100
AcDbSpline
70
4
71
5
72
13
73
7
74
0
42
0.000000001
43
0.0000000001
44
0.0000000001
40
-1
40
-1
40
-1
40
-1
40
-1
40
-1
40
-0.80000000000000004
40
-0.72598098491773921
40
-0.72598098491773921
40
-0.72598098491773921
40
-0.72598098491773921
40
-0.72598098491773921
40
-0.72598098491773921
41
1
41
1
41
1
41
1
41
1
41
1
41
1
10
-8.2379852129649596
20
30.612649387788405
30
0
10
-8.2777165351214386
20
31.252491163017719
30
0
10
-8.4226244467048055
20
32.00617480996393
30
0
10
-8.6913702333549949
20
32.591550114957442
30
0
10
-9.0704240272465846
20
33.026766728495637
30
0
10
-9.5410934952374724
20
33.336727571160935
30
0
10
-9.6745333977889523
20
33.411826438236545
30
0
0
LINE
5
117
100
AcDbEntity
8
0
100
AcDbLine
10
-9.6745333977889523
20
33.411826438236545
30
0
11
-23.845509223570829
21
33.411826438236545
31
0
0
SPLINE
5
118
100
AcDbEntity
8
0
100
AcDbSpline
70
4
71
5
72
16
73
10
74
0
42
0.000000001
43
0.0000000001
44
0.0000000001
40
-1
40
-1
40
-1
40
-1
40
-1
40
-1
40
-0.80000000000000004
40
-0.60000000000000009
40
-0.40000000000000002
40
-0.20000000000000001
40
0
40
0
40
0
40
0
40
0
40
0
41
1
41
1
41
1
41
1
41
1
41
1
41
1
41
1
41
1
41
1
10
-23.845509223570829
20
33.411826438236552
30
0
10
-23.999291815285456
20
33.411826438236552
30
0
10
-24.296324575559311
20
33.388307017685534
30
0
10
-24.710296687368949
20
33.282530750944012
30
0
10
-25.200734487674271
20
33.01791955282836
30
0
10
-25.695400364861705
20
32.535679530319051
30
0
10
-25.959317801197507
20
32.054401821323395
30
0
10
-26.052229641012417
20
31.641531712349703
30
0
10
-26.060537204304445
20
31.341846917803984
30
0
10
-26.051270753584809
20
31.185890665097176
30
0
0
ARC
5
119
100
AcDbEntity
8
0
100
AcDbCircle
10
-29.545108901835665
20
30.978297327470493
30
0
40
3.4999999999999947
210
0
220
0
230
1
100
AcDbArc
50
-112.45358426979047
51
3.400344874698201
0
SPLINE
5
120
100
AcDbEntity
8
0
100
AcDbSpline
70
4
71
5
72
16
73
10
74
0
42
0.000000001
43
0.0000000001
44
0.0000000001
40
-1
40
-1
40
-1
40
-1
40
-1
40
-1
40
-0.80000000000000004
40
-0.60000000000000009
40
-0.40000000000000002
40
-0.20000000000000001
40
0
40
0
40
0
40
0
40
0
40
0
41
1
41
1
41
1
41
1
41
1
41
1
41
1
41
1
41
1
41
1
10
-30.881880930403849
20
27.743634973585984
30
0
10
-31.074944556507795
20
27.823421370703993
30
0
10
-31.434499425649392
20
27.931152872778089
30
0
10
-31.894186292686527
20
27.937366156685236
30
0
10
-32.369785149073536
20
27.677752509201596
30
0
10
-32.811942279816051
20
27.056025483154748
30
0
10
-33.090904444867498
20
26.41278421220909
30
0
10
-33.271886878898762
20
25.875260116504801
30
0
10
-33.380806589041974
20
25.494015884958952
30
0
10
-33.432331398644095
20
25.297667653115738
30
0
0
LINE
5
121
100
AcDbEntity
8
0
100
AcDbLine
10
-33.432331398652586
20
25.297667653031247
30
0
11
-33.514399078216627
21
24.419657985414531
31
0
0
LINE
5
122
100
AcDbEntity
8
0
100
AcDbLine
10
-33.514399078216627
20
24.419657985414531
30
0
11
-33.69992319297755
21
22.692953788054112
31
0
0
LINE
5
123
100
AcDbEntity
8
0
100
AcDbLine
10
-33.69992319297755
20
22.692953788054112
30
0
11
-33.930292292870213
21
21.062650033563433
31
0
0
LINE
5
124
100
AcDbEntity
8
0
100
AcDbLine
10
-33.930292292870213
20
21.062650033563433
30
0
11
-34.076239449483396
21
20.269677487935045
31
0
0
LINE
5
125
100
AcDbEntity
8
0
100
AcDbLine
10
-34.076239449483396
20
20.269677487935045
30
0
11
-34.245102155557127
21
19.519975017531504
31
0
0
LINE
5
126
100
AcDbEntity
8
0
100
AcDbLine
10
-34.245102155557127
20
19.519975017531504
30
0
11
-34.446236803337101
21
18.802809518753016
31
0
0
LINE
5
127
100
AcDbEntity
8
0
100
AcDbLine
10
-34.446236803337101
20
18.802809518753016
30
0
11
-34.690435205909701
21
18.116621011445993
31
0
0
LINE
5
128
100
AcDbEntity
8
0
100
AcDbLine
10
-34.690435205909701
20
18.116621011445993
30
0
11
-34.994711625763777
21
17.458411355094814
31
0
0
LINE
5
129
100
AcDbEntity
8
0
100
AcDbLine
10
-34.994711625763777
20
17.458411355094814
30
0
11
-35.739282736250075
21
16.257745339886778
31
0
0
LINE
5
130
100
AcDbEntity
8
0
100
AcDbLine
10
60.273398234592008
20
-21.924056951212147
30
0
11
61.108587375239395
21
-21.858161770589639
31
0
0
SPLINE
5
131
100
AcDbEntity
8
0
100
AcDbSpline
70
4
71
5
72
16
73
10
74
0
42
0.000000001
43
0.0000000001
44
0.0000000001
40
-1
40
-1
40
-1
40
-1
40
-1
40
-1
40
-0.80000000000000004
40
-0.60000000000000009
40
-0.40000000000000002
40
-0.20000000000000001
40
0
40
0
40
0
40
0
40
0
40
0
41
1
41
1
41
1
41
1
41
1
41
1
41
1
41
1
41
1
41
1
10
61.108587375239395
20
-21.858161770589639
30
0
10
61.471068272188198
20
-21.858161770589639
30
0
10
62.201891063407842
20
-21.836852991544124
30
0
10
63.315667131790754
20
-21.740998544513822
30
0
10
64.809054772839858
20
-21.483608096667616
30
0
10
66.530137022726478
20
-20.880609524856112
30
0
10
67.607683201760111
20
-20.057961352959545
30
0
10
68.132063374067059
20
-19.160934792965943
30
0
10
68.332850340121041
20
-18.419142676961414
30
0
10
68.396009131993821
20
-18.012270954614316
30
0
0
ARC
5
132
100
AcDbEntity
8
0
100
AcDbCircle
10
74.572041910849322
20
-18.970977955998055
30
0
40
6.2499999999999911
210
0
220
0
230
1
100
AcDbArc
50
100.60721739634934
51
171.17638562477012
0
SPLINE
5
133
100
AcDbEntity
8
0
100
AcDbSpline
70
4
71
5
72
16
73
10
74
0
42
0.000000001
43
0.0000000001
44
0.0000000001
40
0
40
0
40
0
40
0
40
0
40
0
40
0.20000000000000001
40
0.40000000000000002
40
0.60000000000000009
40
0.80000000000000004
40
1
40
1
40
1
40
1
40
1
40
1
41
1
41
1
41
1
41
1
41
1
41
1
41
1
41
1
41
1
41
1
10
73.421572117760817
20
-12.827776896681282
30
0
10
73.775371875505925
20
-12.761518942536924
30
0
10
74.426007568150567
20
-12.587060988171675
30
0
10
75.231223370351273
20
-12.199661109972119
30
0
10
76.010474931416653
20
-11.466385823191459
30
0
10
76.657961568326471
20
-10.309334858845006
30
0
10
77.015678575158418
20
-9.2656867632720203
30
0
10
77.223429335959096
20
-8.4383777454951829
30
0
10
77.336772729262137
20
-7.8683154013703192
30
0
10
77.387152502085272
20
-7.5786515318179628
30
0
0
LINE
5
134
100
AcDbEntity
8
0
100
AcDbLine
10
77.387152502085272
20
-7.5786515318179628
30
0
11
77.387526407690927
21
11.484554817381195
31
0
0
SPLINE
5
135
100
AcDbEntity
8
0
100
AcDbSpline
70
4
71
5
72
15
73
9
74
0
42
0.000000001
43
0.0000000001
44
0.0000000001
40
-0.65008129656533487
40
-0.65008129656533487
40
-0.65008129656533487
40
-0.65008129656533487
40
-0.65008129656533487
40
-0.65008129656533487
40
-0.60000000000000009
40
-0.40000000000000002
40
-0.20000000000000001
40
0
40
0
40
0
40
0
40
0
40
0
41
1
41
1
41
1
41
1
41
1
41
1
41
1
41
1
41
1
10
77.387526407690927
20
11.484554817381195
30
0
10
77.376042983386398
20
11.595345457246394
30
0
10
77.313717543123332
20
12.144385748094775
30
0
10
77.155155601959081
20
13.093472307990389
30
0
10
76.782737636146237
20
14.343618143369476
30
0
10
76.11862092607565
20
15.348274277714754
30
0
10
75.132367964279254
20
15.961369984391231
30
0
10
74.282405854278551
20
16.208128619674952
30
0
10
73.809266442771758
20
16.290978518613805
30
0
0
ARC
5
136
100
AcDbEntity
8
0
100
AcDbCircle
10
74.887281098164266
20
22.447307327470458
30
0
40
6.24999999999996
210
0
220
0
230
1
100
AcDbArc
50
197.57215974441675
51
260.06782069346946
0
SPLINE
5
137
100
AcDbEntity
8
0
100
AcDbSpline
70
4
71
5
72
15
73
9
74
0
42
0.000000001
43
0.0000000001
44
0.0000000001
40
-1
40
-1
40
-1
40
-1
40
-1
40
-1
40
-0.80000000000000004
40
-0.60000000000000009
40
-0.40000000000000002
40
-0.38183897362593822
40
-0.38183897362593822
40
-0.38183897362593822
40
-0.38183897362593822
40
-0.38183897362593822
40
-0.38183897362593822
41
1
41
1
41
1
41
1
41
1
41
1
41
1
41
1
41
1
10
68.928921860422349
20
20.560390478742097
30
0
10
68.710172912495523
20
21.251138889571351
30
0
10
68.184108540027154
20
22.466833012928706
30
0
10
67.129556925990642
20
23.793428287895296
30
0
10
65.693023136212148
20
24.507984018792964
30
0
10
64.032083393067694
20
24.818341207332182
30
0
10
62.842685411085171
20
24.918406326620456
30
0
10
62.208447330745074
20
24.949525922715821
30
0
10
62.155556929907021
20
24.951975379064177
30
0
0
LINE
5
138
100
AcDbEntity
8
0
100
AcDbLine
10
62.155556929907014
20
24.951975379064177
30
0
11
54.306040758693626
21
24.951975379064187
31
0
0
LINE
5
139
100
AcDbEntity
8
0
100
AcDbLine
10
36.81407258794016
20
26.311765578890643
30
0
11
23.885436403666954
21
26.311765578890633
31
0
0
LINE
5
140
100
AcDbEntity
8
0
100
AcDbLine
10
23.885436403666954
20
26.311765578890633
30
0
11
23.304459324618584
21
26.350254453925594
31
0
0
LINE
5
141
100
AcDbEntity
8
0
100
AcDbLine
10
23.304459324618584
20
26.350254453925594
30
0
11
22.622680657347018
21
26.490589339704584
31
0
0
LINE
5
142
100
AcDbEntity
8
0
100
AcDbLine
10
22.622680657347018
20
26.490589339704584
30
0
11
21.600770826686897
21
26.916938754806367
31
0
0
LINE
5
143
100
AcDbEntity
8
0
100
AcDbLine
10
21.600770826686897
20
26.916938754806367
30
0
11
20.747056091704511
21
27.486410747747865
31
0
0
LINE
5
144
100
AcDbEntity
8
0
100
AcDbLine
10
20.747056091704511
20
27.486410747747865
30
0
11
20.075233667942598
21
28.034480004487925
31
0
0
SPLINE
5
145
100
AcDbEntity
8
0
100
AcDbSpline
70
0
71
3
72
17
73
13
74
0
42
0.000000001
43
0.0000000001
44
0.0000000001
40
-0.50256527266916662
40
-0.50256527266916662
40
-0.50256527266916662
40
-0.50256527266916662
40
-0.49741186752331074
40
-0.49741186752331074
40
-0.49741186752331074
40
-0.24343269681469407
40
-0.24343269681469407
40
-0.24343269681469407
40
-0.028566565343351086
40
-0.028566565343351086
40
-0.028566565343351086
40
0
40
0
40
0
40
0
10
20.075233667942598
20
28.034480004487925
30
0
10
20.067213546359753
20
28.041235630045662
30
0
10
20.05919342477689
20
28.047991255603421
30
0
10
20.051173303194023
20
28.054746881161179
30
0
10
19.611794425986389
20
28.424850892894007
30
0
10
19.399299147171828
20
28.594702484763847
30
0
10
19.167720979449022
20
28.720151558036036
30
0
10
19.105585819438559
20
28.753811027396129
30
0
10
18.85898276085555
20
28.830201423093349
30
0
10
18.776026322626219
20
28.835840798647901
30
0
10
18.764997220472694
20
28.836590556597987
30
0
10
18.756703318114475
20
28.836778529995783
30
0
10
18.751725740062117
20
28.836778529995783
30
0
0
LINE
5
146
100
AcDbEntity
8
0
100
AcDbLine
10
18.751725740062117
20
28.836778529995783
30
0
11
13.377179005003759
21
28.836778529995769
31
0
0
ARC
5
147
100
AcDbEntity
8
0
100
AcDbCircle
10
2.0000000298023179
20
-3.0000000447034836
30
0
40
28
210
-0
220
0
230
1
100
AcDbArc
50
-71.84537313847855
51
68.468926334425475
0
SPLINE
5
148
100
AcDbEntity
8
0
100
AcDbSpline
70
4
71
5
72
16
73
10
74
0
42
0.000000001
43
0.0000000001
44
0.0000000001
40
0
40
0
40
0
40
0
40
0
40
0
40
0.20000000000000001
40
0.40000000000000002
40
0.60000000000000009
40
0.80000000000000004
40
1
40
1
40
1
40
1
40
1
40
1
41
1
41
1
41
1
41
1
41
1
41
1
41
1
41
1
41
1
41
1
10
10.724310804336735
20
-29.606134704013595
30
0
10
10.376325871413499
20
-29.720241045973921
30
0
10
9.7167428563542089
20
-29.988254082103325
30
0
10
8.8364424837001128
20
-30.509570051095587
30
0
10
7.8609740990811883
20
-31.41273465469947
30
0
10
6.9338536579966226
20
-32.789498823920972
30
0
10
6.4418329065853888
20
-34.037475940797627
30
0
10
6.2467505244591806
20
-35.04751441296154
30
0
10
6.2033748590718405
20
-35.755029042113328
30
0
10
6.2033748590718405
20
-36.117330950791548
30
0
0
LINE
5
149
100
AcDbEntity
8
0
100
AcDbLine
10
6.2033748590718414
20
-36.117330950791548
30
0
11
6.2033748590719107
21
-41.117205767729203
31
0
0
SPLINE
5
150
100
AcDbEntity
8
0
100
AcDbSpline
70
0
71
3
72
11
73
7
74
0
42
0.000000001
43
0.0000000001
44
0.0000000001
40
0.29494339223743965
40
0.29494339223743965
40
0.29494339223743965
40
0.29494339223743965
40
0.63973645502945742
40
0.63973645502945742
40
0.63973645502945742
40
1
40
1
40
1
40
1
10
8.8087871139303218
20
-44.091142638509091
30
0
10
10.107977591954969
20
-44.263521765406537
30
0
10
11.369304150963906
20
-44.514153962799732
30
0
10
12.604219336579996
20
-44.790424775895787
30
0
10
13.892745945457612
20
-45.078689345055594
30
0
10
15.175029999226696
20
-45.401820657551923
30
0
10
16.438980977850193
20
-45.740495919292172
30
0
0
LINE
5
151
100
AcDbEntity
8
0
100
AcDbLine
10
16.438980977850189
20
-45.740495919292172
30
0
11
25.886928150245101
21
-48.27206988677564
31
0
0
LINE
5
152
100
AcDbEntity
8
0
100
AcDbLine
10
25.886928150245101
20
-48.27206988677564
30
0
11
27.314547677857913
21
-48.757455896589846
31
0
0
LINE
5
153
100
AcDbEntity
8
0
100
AcDbLine
10
27.314547677857913
20
-48.757455896589846
30
0
11
28.68256164416437
21
-49.39175803225239
31
0
0
LINE
5
154
100
AcDbEntity
8
0
100
AcDbLine
10
28.68256164416437
20
-49.39175803225239
30
0
11
31.097659041863643
21
-50.727470149122524
31
0
0
LINE
5
155
100
AcDbEntity
8
0
100
AcDbLine
10
31.097659041863643
20
-50.727470149122524
30
0
11
33.287272013464609
21
-51.991621283387076
31
0
0
ARC
5
156
100
AcDbEntity
8
0
100
AcDbCircle
10
42.500000633299344
20
-54.500000812113278
30
0
40
6.2499999999999911
210
0
220
-0
230
1
100
AcDbArc
50
62.276698914685127
51
146.49219880569032
0
LINE
5
157
100
AcDbEntity
8
0
100
AcDbLine
10
49.401169920036772
20
-47.811904405404633
30
0
11
50.731012453818032
21
-45.508642344186384
31
0
0
LINE
5
158
100
AcDbEntity
8
0
100
AcDbLine
10
50.731012453818032
20
-45.508642344186384
30
0
11
50.934316559665405
21
-45.122842039611029
31
0
0
LINE
5
159
100
AcDbEntity
8
0
100
AcDbLine
10
50.934316559665405
20
-45.122842039611029
30
0
11
51.124056321479927
21
-44.695326441490344
31
0
0
LINE
5
160
100
AcDbEntity
8
0
100
AcDbLine
10
51.124056321479927
20
-44.695326441490344
30
0
11
51.315083223658569
21
-44.191179904412948
31
0
0
LINE
5
161
100
AcDbEntity
8
0
100
AcDbLine
10
51.315083223658569
20
-44.191179904412948
30
0
11
51.504057670082091
21
-43.614481357212455
31
0
0
LINE
5
162
100
AcDbEntity
8
0
100
AcDbLine
10
51.504057670082091
20
-43.614481357212455
30
0
11
51.68895287470982
21
-42.970189865887384
31
0
0
LINE
5
163
100
AcDbEntity
8
0
100
AcDbLine
10
51.68895287470982
20
-42.970189865887384
30
0
11
51.866338210855588
21
-42.273329456902061
31
0
0
LINE
5
164
100
AcDbEntity
8
0
100
AcDbLine
10
51.866338210855588
20
-42.273329456902061
30
0
11
52.213541904153416
21
-40.683758718856964
31
0
0
LINE
5
165
100
AcDbEntity
8
0
100
AcDbLine
10
52.213541904153416
20
-40.683758718856964
30
0
11
52.54170546214133
21
-38.929945583078108
31
0
0
LINE
5
166
100
AcDbEntity
8
0
100
AcDbLine
10
52.54170546214133
20
-38.929945583078108
30
0
11
52.865102685894385
21
-37.041750318801057
31
0
0
LINE
5
167
100
AcDbEntity
8
0
100
AcDbLine
10
52.865102685894385
20
-37.041750318801057
30
0
11
53.074093945631674
21
-35.839100469821027
31
0
0
SPLINE
5
168
100
AcDbEntity
8
0
100
AcDbSpline
70
4
71
5
72
16
73
10
74
0
42
0.000000001
43
0.0000000001
44
0.0000000001
40
-1
40
-1
40
-1
40
-1
40
-1
40
-1
40
-0.80000000000000004
40
-0.60000000000000009
40
-0.40000000000000002
40
-0.20000000000000001
40
0
40
0
40
0
40
0
40
0
40
0
41
1
41
1
41
1
41
1
41
1
41
1
41
1
41
1
41
1
41
1
10
53.074093945630416
20
-35.839100469820806
30
0
10
52.931433938258039
20
-35.631414999002146
30
0
10
52.64570368450908
20
-35.216341262254431
30
0
10
52.215878104311173
20
-34.594621896934264
30
0
10
51.640145953629606
20
-33.767569090761192
30
0
10
50.913949580255967
20
-32.738484715342366
30
0
10
50.324475216503615
20
-31.921387698050118
30
0
10
49.875172011474334
20
-31.313779241922116
30
0
10
49.571925790923757
20
-30.911395256575638
30
0
10
49.41937415772837
20
-30.710875948725711
30
0
0
ARC
5
169
100
AcDbEntity
8
0
100
AcDbCircle
10
52.204891098164339
20
-28.591702672529493
30
0
40
3.4999999999999956
210
0
220
-0
230
1
100
AcDbArc
50
73.205946802572186
51
217.26325192348676
0
SPLINE
5
170
100
AcDbEntity
8
0
100
AcDbSpline
70
4
71
5
72
16
73
10
74
0
42
0.000000001
43
0.0000000001
44
0.0000000001
40
0
40
0
40
0
40
0
40
0
40
0
40
0.20000000000000001
40
0.40000000000000002
40
0.60000000000000009
40
0.80000000000000004
40
1
40
1
40
1
40
1
40
1
40
1
41
1
41
1
41
1
41
1
41
1
41
1
41
1
41
1
41
1
41
1
10
53.216154617049447
20
-25.240979452779445
30
0
10
53.398824101460249
20
-25.296109934613746
30
0
10
53.757055450429185
20
-25.371110976706717
30
0
10
54.273098796095439
20
-25.377927933237132
30
0
10
54.924426847499575
20
-25.204806021463991
30
0
10
55.697838400832744
20
-24.786255890435228
30
0
10
56.296569782687271
20
-24.352209156888524
30
0
10
56.738064859334898
20
-23.989202434961825
30
0
10
57.029255949716642
20
-23.731626002590342
30
0
10
57.174066424656246
20
-23.598943161190491
30
0
0
LINE
5
171
100
AcDbEntity
8
0
100
AcDbLine
10
57.174066424656253
20
-23.598943161190483
30
0
11
57.824165716787277
21
-23.008203990160538
31
0
0
LINE
5
172
100
AcDbEntity
8
0
100
AcDbLine
10
57.824165716787277
20
-23.008203990160538
30
0
11
58.566165210981318
21
-22.514763796786195
31
0
0
LINE
5
173
100
AcDbEntity
8
0
100
AcDbLine
10
58.566165210981318
20
-22.514763796786195
30
0
11
59.390823628972775
21
-22.146397651915983
31
0
0
LINE
5
174
100
AcDbEntity
8
0
100
AcDbLine
10
59.390823628972775
20
-22.146397651915983
30
0
11
60.273398234592008
21
-21.924056951212147
31
0
0
LINE
5
175
100
AcDbEntity
8
0
100
AcDbLine
10
41.064825093036006
20
-61.100695309852398
30
0
11
29.129549151070641
21
-54.20998319977496
31
0
0
LINE
5
176
100
AcDbEntity
8
0
100
AcDbLine
10
29.129549151070641
20
-54.20998319977496
30
0
11
26.871022546734267
21
-52.960865315519221
31
0
0
LINE
5
177
100
AcDbEntity
8
0
100
AcDbLine
10
26.871022546734267
20
-52.960865315519221
30
0
11
25.825236512698879
21
-52.475969451023275
31
0
0
LINE
5
178
100
AcDbEntity
8
0
100
AcDbLine
10
25.825236512698879
20
-52.475969451023275
30
0
11
24.724226042792456
21
-52.101629461680901
31
0
0
LINE
5
179
100
AcDbEntity
8
0
100
AcDbLine
10
24.724226042792456
20
-52.101629461680901
30
0
11
15.403703035583158
21
-49.604198752359878
31
0
0
SPLINE
5
180
100
AcDbEntity
8
0
100
AcDbSpline
70
0
71
3
72
11
73
7
74
0
42
0.000000001
43
0.0000000001
44
0.0000000001
40
0
40
0
40
0
40
0
40
0.63973645502945742
40
0.63973645502945742
40
0.63973645502945742
40
1
40
1
40
1
40
1
10
5.3844317495958558
20
-47.853490386860116
30
0
10
7.4764482536036656
20
-47.853490386860116
30
0
10
9.5671969560683507
20
-48.209869000973669
30
0
10
11.730940219284211
20
-48.693933912979375
30
0
10
12.949438574792779
20
-48.966532011499488
30
0
10
14.17890233256766
20
-49.276013794486609
30
0
10
15.403703035583158
20
-49.604198752359864
30
0
0
LINE
5
181
100
AcDbEntity
8
0
100
AcDbLine
10
5.3844317495958558
20
-47.853490386860116
30
0
11
-5.4853936982546561
21
-47.853490386860145
31
0
0
SPLINE
5
182
100
AcDbEntity
8
0
100
AcDbSpline
70
0
71
3
72
14
73
10
74
0
42
0.000000001
43
0.0000000001
44
0.0000000001
40
-1
40
-1
40
-1
40
-1
40
-0.78339299450493849
40
-0.78339299450493849
40
-0.78339299450493849
40
-0.44403774290613346
40
-0.44403774290613346
40
-0.44403774290613346
40
0
40
0
40
0
40
0
10
-11.509070750344899
20
-42.385467037886599
30
0
10
-11.509070750344897
20
-43.118644786443056
30
0
10
-11.363315301116586
20
-43.853654599707852
30
0
10
-11.080479356730887
20
-44.495121911119469
30
0
10
-10.63736412669101
20
-45.500100029712513
30
0
10
-9.9150989104565834
20
-46.243122896913817
30
0
10
-9.1182654972097144
20
-46.774635259758846
30
0
10
-8.0756291784158893
20
-47.470105710893705
30
0
10
-6.8180474510939328
20
-47.853490386860138
30
0
10
-5.4853936982546561
20
-47.853490386860138
30
0
0
LINE
5
183
100
AcDbEntity
8
0
100
AcDbLine
10
-11.509070750344899
20
-42.385467037886599
30
0
11
-11.509070750344936
21
-32.233154513067369
31
0
0
SPLINE
5
184
100
AcDbEntity
8
0
100
AcDbSpline
70
0
71
3
72
14
73
10
74
0
42
0.000000001
43
0.0000000001
44
0.0000000001
40
-1
40
-1
40
-1
40
-1
40
-0.71620156968718063
40
-0.71620156968718063
40
-0.71620156968718063
40
-0.37657120804009803
40
-0.37657120804009803
40
-0.37657120804009803
40
0
40
0
40
0
40
0
10
-13.11556852492985
20
-29.663241672529459
30
0
10
-12.782616839352023
20
-29.663241672529459
30
0
10
-12.684374681854653
20
-29.713723663895586
30
0
10
-12.520789833744224
20
-29.827738014765572
30
0
10
-12.325022785059392
20
-29.964182515801916
30
0
10
-12.059945557545554
20
-30.275142330769278
30
0
10
-11.86003356250713
20
-30.692856978925356
30
0
10
-11.638377580078945
20
-31.156005529335676
30
0
10
-11.509070750344934
20
-31.682219598629004
30
0
10
-11.509070750344934
20
-32.233154513067369
30
0
0
LINE
5
185
100
AcDbEntity
8
0
100
AcDbLine
10
-13.11556852492985
20
-29.663241672529459
30
0
11
-32.858249518122697
21
-29.663241672529502
31
0
0
LINE
5
186
100
AcDbEntity
8
0
100
AcDbLine
10
-32.858249518122697
20
-29.663241672529502
30
0
11
-33.011311564943178
21
-30.048596787632
31
0
0
LINE
5
187
100
AcDbEntity
8
0
100
AcDbLine
10
-33.011311564943178
20
-30.048596787632
30
0
11
-33.170020288126203
21
-30.727141332482152
31
0
0
LINE
5
188
100
AcDbEntity
8
0
100
AcDbLine
10
-33.170020288126203
20
-30.727141332482152
30
0
11
-33.29644715841566
21
-31.611716124400861
31
0
0
LINE
5
189
100
AcDbEntity
8
0
100
AcDbLine
10
-33.29644715841566
20
-31.611716124400861
30
0
11
-33.480026438776818
21
-33.805955930390368
31
0
0
SPLINE
5
190
100
AcDbEntity
8
0
100
AcDbSpline
70
0
71
3
72
17
73
13
74
0
42
0.000000001
43
0.0000000001
44
0.0000000001
40
0
40
0
40
0
40
0
40
0.10578295448134356
40
0.10578295448134356
40
0.10578295448134356
40
0.22775791249421251
40
0.22775791249421251
40
0.22775791249421251
40
0.4284304221412179
40
0.4284304221412179
40
0.4284304221412179
40
0.49938484952750917
40
0.49938484952750917
40
0.49938484952750917
40
0.49938484952750917
10
-38.248414901835652
20
-41.638071672529463
30
0
10
-37.458694379176563
20
-41.638071672529463
30
0
10
-36.613507681867382
20
-41.407639894881136
30
0
10
-35.945112405294964
20
-40.944565991243813
30
0
10
-35.17440708518312
20
-40.410610211411822
30
0
10
-34.689036622842522
20
-39.658865410769707
30
0
10
-34.37611889179162
20
-38.922410625652205
30
0
10
-33.86130841408351
20
-37.710799386929885
30
0
10
-33.706939939808457
20
-36.434906292427549
30
0
10
-33.587737491047875
20
-35.153343178339171
30
0
10
-33.545589508198965
20
-34.700203996098971
30
0
10
-33.511925288530527
20
-34.248196509061572
30
0
10
-33.480026438776818
20
-33.805955930390368
30
0
0
LINE
5
191
100
AcDbEntity
8
0
100
AcDbLine
10
-38.248414901835652
20
-41.638071672529463
30
0
11
-52.048234901835684
21
-41.638071672529463
31
0
0
SPLINE
5
192
100
AcDbEntity
8
0
100
AcDbSpline
70
0
71
3
72
14
73
10
74
0
42
0.000000001
43
0.0000000001
44
0.0000000001
40
0
40
0
40
0
40
0
40
0.36681648646529869
40
0.36681648646529869
40
0.36681648646529869
40
0.78385658629394173
40
0.78385658629394173
40
0.78385658629394173
40
1
40
1
40
1
40
1
10
-56.623164901835693
20
-37.063141672529454
30
0
10
-56.623164901835693
20
-37.984177425338849
30
0
10
-56.326824266517292
20
-38.898179529114074
30
0
10
-55.855756692307345
20
-39.597926008039231
30
0
10
-55.320191701574196
20
-40.393480058070438
30
0
10
-54.586410426319183
20
-41.004882048777922
30
0
10
-53.634637147986652
20
-41.358232140393781
30
0
10
-53.14135238822967
20
-41.541366316379694
30
0
10
-52.590947181962839
20
-41.638071672529463
30
0
10
-52.048234901835684
20
-41.638071672529463
30
0
0
LINE
5
193
100
AcDbEntity
8
0
100
AcDbLine
10
-56.623164901835693
20
-37.063141672529454
30
0
11
-56.623164901835693
21
14.736856422820521
31
0
0
SPLINE
5
194
100
AcDbEntity
8
0
100
AcDbSpline
70
0
71
3
72
14
73
10
74
0
42
0.000000001
43
0.0000000001
44
0.0000000001
40
-1
40
-1
40
-1
40
-1
40
-0.78385658629536703
40
-0.78385658629536703
40
-0.78385658629536703
40
-0.36681648646438042
40
-0.36681648646438042
40
-0.36681648646438042
40
0
40
0
40
0
40
0
10
-52.048234901835684
20
19.311786422820521
30
0
10
-52.590947181959706
20
19.311786422820521
30
0
10
-53.141352388223375
20
19.215081066671623
30
0
10
-53.634637147977656
20
19.031946890687571
30
0
10
-54.586410426316604
20
18.678596799070984
30
0
10
-55.320191701575389
20
18.067194808359272
30
0
10
-55.855756692309875
20
17.271640758324299
30
0
10
-56.326824266517178
20
16.571894279401523
30
0
10
-56.623164901835693
20
15.65789217562849
30
0
10
-56.623164901835693
20
14.736856422820523
30
0
0
LINE
5
195
100
AcDbEntity
8
0
100
AcDbLine
10
-52.048234901835684
20
19.311786422820521
30
0
11
-38.55207376433286
21
19.311786422820489
31
0
0
LINE
5
196
100
AcDbEntity
8
0
100
AcDbLine
10
-38.55207376433286
20
19.311786422820489
30
0
11
-38.522951672782696
21
19.358747559404517
31
0
0
LINE
5
197
100
AcDbEntity
8
0
100
AcDbLine
10
-38.522951672782696
20
19.358747559404517
30
0
11
-38.397770219289612
21
19.629539629078316
31
0
0
LINE
5
198
100
AcDbEntity
8
0
100
AcDbLine
10
-38.397770219289612
20
19.629539629078316
30
0
11
-38.260642680286452
21
20.014862957601292
31
0
0
LINE
5
199
100
AcDbEntity
8
0
100
AcDbLine
10
-38.260642680286452
20
20.014862957601292
30
0
11
-38.12453135310902
21
20.500181369530939
31
0
0
LINE
5
200
100
AcDbEntity
8
0
100
AcDbLine
10
-38.12453135310902
20
20.500181369530939
30
0
11
-37.995852067680985
21
21.071480861397653
31
0
0
LINE
5
201
100
AcDbEntity
8
0
100
AcDbLine
10
-37.995852067680985
20
21.071480861397653
30
0
11
-37.879293267075965
21
21.704778083323824
31
0
0
LINE
5
202
100
AcDbEntity
8
0
100
AcDbLine
10
-37.879293267075965
20
21.704778083323824
30
0
11
-37.669908368538486
21
23.186578317723132
31
0
0
LINE
5
203
100
AcDbEntity
8
0
100
AcDbLine
10
-37.669908368538486
20
23.186578317723132
30
0
11
-37.494464444911614
21
24.819464477653153
31
0
0
LINE
5
204
100
AcDbEntity
8
0
100
AcDbLine
10
-37.494464444911614
20
24.819464477653153
30
0
11
-37.333156189795019
21
26.545237744464227
31
0
0
SPLINE
5
205
100
AcDbEntity
8
0
100
AcDbSpline
70
0
71
3
72
17
73
13
74
0
42
0.000000001
43
0.0000000001
44
0.0000000001
40
-1
40
-1
40
-1
40
-1
40
-0.95225311905491172
40
-0.95225311905491172
40
-0.95225311905491172
40
-0.8632715481419635
40
-0.8632715481419635
40
-0.8632715481419635
40
-0.7265430962839271
40
-0.7265430962839271
40
-0.7265430962839271
40
-0.50000000042296866
40
-0.50000000042296866
40
-0.50000000042296866
40
-0.50000000042296866
10
-32.115571491470185
20
37.411826438236552
30
0
10
-32.548420079294559
20
37.411826438236552
30
0
10
-32.998186475982443
20
37.335616628655508
30
0
10
-33.41574673009778
20
37.178119419207448
30
0
10
-34.193916248745985
20
36.884606024537526
30
0
10
-34.807970734578554
20
36.329578531277775
30
0
10
-35.235507992008344
20
35.737351824642325
30
0
10
-35.892458714728164
20
34.827340460306374
30
0
10
-36.227550359952211
20
33.80625163621157
30
0
10
-36.495044037602497
20
32.688374427922383
30
0
10
-36.938249859321658
20
30.836182290025718
30
0
10
-37.137533656788463
20
28.669172280780629
30
0
10
-37.333156189795019
20
26.545237744464227
30
0
0
LINE
5
206
100
AcDbEntity
8
0
100
AcDbLine
10
-32.115571491470185
20
37.411826438236552
30
0
11
-0.22334488712771439
21
37.41182643823656
31
0
0
SPLINE
5
207
100
AcDbEntity
8
0
100
AcDbSpline
70
0
71
3
72
14
73
10
74
0
42
0.000000001
43
0.0000000001
44
0.0000000001
40
-0.4971415872734562
40
-0.4971415872734562
40
-0.4971415872734562
40
-0.4971415872734562
40
-0.38543933736415675
40
-0.38543933736415675
40
-0.38543933736415675
40
-0.17356515820368781
40
-0.17356515820368781
40
-0.17356515820368781
40
0
40
0
40
0
40
0
10
4.1496728656393245
20
34.025651806251048
30
0
10
4.0193721554647883
20
34.291175635755231
30
0
10
3.8743448877216204
20
34.588267533260975
30
0
10
3.6961244562095965
20
34.903773736143378
30
0
10
3.3580801673354186
20
35.502218421098483
30
0
10
2.88669424455132
20
36.207009909540467
30
0
10
2.0884848213756539
20
36.737518309879043
30
0
10
1.4345998347193489
20
37.172105359598838
30
0
10
0.58179109008226493
20
37.411826438236552
30
0
10
-0.22334488712771561
20
37.411826438236552
30
0
0
LINE
5
208
100
AcDbEntity
8
0
100
AcDbLine
10
4.1496728656393245
20
34.025651806251048
30
0
11
4.5471625975798791
21
33.259896013389572
31
0
0
LINE
5
209
100
AcDbEntity
8
0
100
AcDbLine
10
4.5471625975798791
20
33.259896013389572
30
0
11
4.6885693162481523
21
33.038261597656003
31
0
0
LINE
5
210
100
AcDbEntity
8
0
100
AcDbLine
10
4.6885693162481523
20
33.038261597656003
30
0
11
4.7969908250396465
21
32.904804188265985
31
0
0
LINE
5
211
100
AcDbEntity
8
0
100
AcDbLine
10
4.7969908250396465
20
32.904804188265985
30
0
11
4.8481813548903752
21
32.859180120730201
31
0
0
LINE
5
212
100
AcDbEntity
8
0
100
AcDbLine
10
4.8481813548903752
20
32.859180120730201
30
0
11
4.8512830611296565
21
32.85737857553368
31
0
0
LINE
5
213
100
AcDbEntity
8
0
100
AcDbLine
10
4.8512830611296565
20
32.85737857553368
30
0
11
4.8626781140006692
21
32.853802259311173
31
0
0
LINE
5
214
100
AcDbEntity
8
0
100
AcDbLine
10
4.8626781140006692
20
32.853802259311173
30
0
11
5.0448808454845917
21
32.836778529995748
31
0
0
LINE
5
215
100
AcDbEntity
8
0
100
AcDbLine
10
5.0448808454845917
20
32.836778529995748
30
0
11
18.751725740062096
21
32.836778529995783
31
0
0
SPLINE
5
216
100
AcDbEntity
8
0
100
AcDbSpline
70
0
71
3
72
11
73
7
74
0
42
0.000000001
43
0.0000000001
44
0.0000000001
40
-0.49741186752331074
40
-0.49741186752331074
40
-0.49741186752331074
40
-0.49741186752331074
40
-0.24343269681469407
40
-0.24343269681469407
40
-0.24343269681469407
40
0
40
0
40
0
40
0
10
22.628126689938757
20
31.114046023537561
30
0
10
22.232864960859171
20
31.446988636861409
30
0
10
21.742811125906773
20
31.874394221880618
30
0
10
21.07298155271236
20
32.237250099158857
30
0
10
20.430966623086402
20
32.585038402091158
30
0
10
19.592541906680161
20
32.836778529995783
30
0
10
18.751725740062096
20
32.836778529995783
30
0
0
LINE
5
217
100
AcDbEntity
8
0
100
AcDbLine
10
22.628126689938757
20
31.114046023537561
30
0
11
23.126640193264691
21
30.707361287245412
31
0
0
LINE
5
218
100
AcDbEntity
8
0
100
AcDbLine
10
23.126640193264691
20
30.707361287245412
30
0
11
23.498316281799774
21
30.459434064961801
31
0
0
LINE
5
219
100
AcDbEntity
8
0
100
AcDbLine
10
23.498316281799774
20
30.459434064961801
30
0
11
23.806891607011046
21
30.330693832241185
31
0
0
LINE
5
220
100
AcDbEntity
8
0
100
AcDbLine
10
23.806891607011046
20
30.330693832241185
30
0
11
23.842400787387604
21
30.323384749379745
31
0
0
LINE
5
221
100
AcDbEntity
8
0
100
AcDbLine
10
23.842400787387604
20
30.323384749379745
30
0
11
24.017788395510671
21
30.311765578890633
31
0
0
LINE
5
222
100
AcDbEntity
8
0
100
AcDbLine
10
24.017788395510671
20
30.311765578890633
30
0
11
37.751689209638364
21
30.311765578890636
31
0
0
SPLINE
5
223
100
AcDbEntity
8
0
100
AcDbSpline
70
0
71
3
72
11
73
7
74
0
42
0.000000001
43
0.0000000001
44
0.0000000001
40
-0.49324351738496663
40
-0.49324351738496663
40
-0.49324351738496663
40
-0.49324351738496663
40
-0.36480504183951701
40
-0.36480504183951701
40
-0.36480504183951701
40
0
40
0
40
0
40
0
10
41.084192060844501
20
29.49027850189097
30
0
10
40.867405804782742
20
29.581259131614527
30
0
10
40.632473234525214
20
29.679748775697
30
0
10
40.377409142357024
20
29.777159631237971
30
0
10
39.652948139374715
20
30.053836624485783
30
0
10
38.726619548926116
20
30.311765578890647
30
0
10
37.751689209638364
20
30.311765578890643
30
0
0
LINE
5
224
100
AcDbEntity
8
0
100
AcDbLine
10
41.084192060844501
20
29.49027850189097
30
0
11
42.188495174815131
21
29.073948530954237
31
0
0
LINE
5
225
100
AcDbEntity
8
0
100
AcDbLine
10
42.188495174815131
20
29.073948530954237
30
0
11
42.566118482212204
21
28.987470414437198
31
0
0
LINE
5
226
100
AcDbEntity
8
0
100
AcDbLine
10
42.566118482212204
20
28.987470414437198
30
0
11
43.015457619040774
21
28.951975379064187
31
0
0
LINE
5
227
100
AcDbEntity
8
0
100
AcDbLine
10
43.015457619040774
20
28.951975379064187
30
0
11
74.886735928642366
21
28.951975379064187
31
0
0
ARC
5
228
100
AcDbEntity
8
0
100
AcDbCircle
10
74.887281098164266
20
22.447307327470458
30
0
40
6.5046680744396141
210
0
220
-0
230
1
100
AcDbArc
50
2.0598526440856109
51
90.004802076355503
0
LINE
5
229
100
AcDbEntity
8
0
100
AcDbLine
10
81.387746017574926
20
22.681107648567981
30
0
11
81.386852809448555
21
-22.858222514472718
31
0
0
ARC
5
230
100
AcDbEntity
8
0
100
AcDbCircle
10
78.386854711965483
20
-22.858163672529503
30
0
40
2.9999980980601304
210
0
220
0
230
1
100
AcDbArc
50
269.99999999999972
51
359.99887620099935
0
LINE
5
231
100
AcDbEntity
8
0
100
AcDbLine
10
78.386854711965469
20
-25.858161770589632
30
0
11
61.266139590419463
21
-25.858161770589639
31
0
0
LINE
5
232
100
AcDbEntity
8
0
100
AcDbLine
10
61.266139590419463
20
-25.858161770589639
30
0
11
60.923868426372692
21
-25.885166456210019
31
0
0
LINE
5
233
100
AcDbEntity
8
0
100
AcDbLine
10
60.923868426372692
20
-25.885166456210019
30
0
11
60.704945806565703
21
-25.940318064219014
31
0
0
LINE
5
234
100
AcDbEntity
8
0
100
AcDbLine
10
60.704945806565703
20
-25.940318064219014
30
0
11
60.502791149940329
21
-26.030618399368713
31
0
0
LINE
5
235
100
AcDbEntity
8
0
100
AcDbLine
10
60.502791149940329
20
-26.030618399368713
30
0
11
60.290665815772968
21
-26.171684756866483
31
0
0
LINE
5
236
100
AcDbEntity
8
0
100
AcDbLine
10
60.290665815772968
20
-26.171684756866483
30
0
11
60.056714527946944
21
-26.384274112838089
31
0
0
LINE
5
237
100
AcDbEntity
8
0
100
AcDbLine
10
60.056714527946944
20
-26.384274112838089
30
0
11
59.802634708605552
21
-26.683940174380684
31
0
0
LINE
5
238
100
AcDbEntity
8
0
100
AcDbLine
10
59.802634708605552
20
-26.683940174380684
30
0
11
59.536754644804347
21
-27.077087725560425
31
0
0
LINE
5
239
100
AcDbEntity
8
0
100
AcDbLine
10
59.536754644804347
20
-27.077087725560425
30
0
11
59.268208971144595
21
-27.562473001010559
31
0
0
LINE
5
240
100
AcDbEntity
8
0
100
AcDbLine
10
59.268208971144595
20
-27.562473001010559
30
0
11
59.004233970451345
21
-28.134262473934434
31
0
0
LINE
5
241
100
AcDbEntity
8
0
100
AcDbLine
10
59.004233970451345
20
-28.134262473934434
30
0
11
58.749611941240502
21
-28.784430310369959
31
0
0
LINE
5
242
100
AcDbEntity
8
0
100
AcDbLine
10
58.749611941240502
20
-28.784430310369959
30
0
11
58.507016493923786
21
-29.504130615784799
31
0
0
LINE
5
243
100
AcDbEntity
8
0
100
AcDbLine
10
58.507016493923786
20
-29.504130615784799
30
0
11
58.281197775674045
21
-30.271985238122628
31
0
0
LINE
5
244
100
AcDbEntity
8
0
100
AcDbLine
10
58.281197775674045
20
-30.271985238122628
30
0
11
57.856590909690269
21
-31.996135232778297
31
0
0
LINE
5
245
100
AcDbEntity
8
0
100
AcDbLine
10
57.856590909690269
20
-31.996135232778297
30
0
11
57.481789837527216
21
-33.837961994275346
31
0
0
LINE
5
246
100
AcDbEntity
8
0
100
AcDbLine
10
57.481789837527216
20
-33.837961994275346
30
0
11
56.806873196014926
21
-37.72180095491062
31
0
0
LINE
5
247
100
AcDbEntity
8
0
100
AcDbLine
10
56.806873196014926
20
-37.72180095491062
30
0
11
56.479114401760199
21
-39.635461795769217
31
0
0
LINE
5
248
100
AcDbEntity
8
0
100
AcDbLine
10
56.479114401760199
20
-39.635461795769217
30
0
11
56.134241948425576
21
-41.478572720501589
31
0
0
LINE
5
249
100
AcDbEntity
8
0
100
AcDbLine
10
56.134241948425576
20
-41.478572720501589
30
0
11
55.759601643781991
21
-43.193753973031896
31
0
0
LINE
5
250
100
AcDbEntity
8
0
100
AcDbLine
10
55.759601643781991
20
-43.193753973031896
30
0
11
55.55043299166995
21
-44.015475517917281
31
0
0
LINE
5
251
100
AcDbEntity
8
0
100
AcDbLine
10
55.55043299166995
20
-44.015475517917281
30
0
11
55.328350197548062
21
-44.789352022235036
31
0
0
LINE
5
252
100
AcDbEntity
8
0
100
AcDbLine
10
55.328350197548062
20
-44.789352022235036
30
0
11
55.087844647365493
21
-45.523309464677276
31
0
0
LINE
5
253
100
AcDbEntity
8
0
100
AcDbLine
10
55.087844647365493
20
-45.523309464677276
30
0
11
54.825195556305168
21
-46.216476909756594
31
0
0
LINE
5
254
100
AcDbEntity
8
0
100
AcDbLine
10
54.825195556305168
20
-46.216476909756594
30
0
11
54.535799330148919
21
-46.868535284532051
31
0
0
LINE
5
255
100
AcDbEntity
8
0
100
AcDbLine
10
54.535799330148919
20
-46.868535284532051
30
0
11
54.233713475913049
21
-47.441788904208565
31
0
0
LINE
5
256
100
AcDbEntity
8
0
100
AcDbLine
10
54.233713475913049
20
-47.441788904208565
30
0
11
47.31423210896768
21
-59.42619947233473
31
0
0
SPLINE
5
257
100
AcDbEntity
8
0
100
AcDbSpline
70
0
71
3
72
14
73
10
74
0
42
0.000000001
43
0.0000000001
44
0.0000000001
40
0
40
0
40
0
40
0
40
0.36681963961014408
40
0.36681963961014408
40
0.36681963961014408
40
0.78386341854905495
40
0.78386341854905495
40
0.78386341854905495
40
1
40
1
40
1
40
1
10
41.064825093036006
20
-61.100695309852398
30
0
10
41.86246501250303
20
-61.561204713198705
30
0
10
42.802180058003138
20
-61.761559298905667
30
0
10
43.643706585521997
20
-61.703472443939347
30
0
10
44.600453076758946
20
-61.637432464379984
30
0
10
45.496827810728163
20
-61.307659601899466
30
0
10
46.278720358360431
20
-60.66007772978309
30
0
10
46.683943001261824
20
-60.324462767716142
30
0
10
47.042880700938071
20
-59.896174996122191
30
0
10
47.31423210896768
20
-59.426199472334737
30
0
0
CIRCLE
5
258
100
AcDbEntity
8
0
100
AcDbCircle
10
-29.545108901835668
20
30.9782973274705
30
0
40
1.4999999999999991
210
0
220
-0
230
1
0
CIRCLE
5
259
100
AcDbEntity
8
0
100
AcDbCircle
10
73.884881098164328
20
22.958978327470501
30
0
40
1.5000000000000036
210
0
220
-0
230
1
0
CIRCLE
5
260
100
AcDbEntity
8
0
100
AcDbCircle
10
52.204891098164339
20
-28.591702672529493
30
0
40
1.5000000000000036
210
0
220
-0
230
1
0
CIRCLE
5
261
100
AcDbEntity
8
0
100
AcDbCircle
10
-9.1569999018356718
20
-24.797311672529503
30
0
40
1.5000000000000002
210
0
220
-0
230
1
0
ARC
5
262
100
AcDbEntity
8
0
100
AcDbCircle
10
-40.757084132416061
20
-34.638071672529449
30
0
40
2.9999999999999964
210
0
220
0
230
1
100
AcDbArc
50
182.24240977532259
51
270
0
SPLINE
5
263
100
AcDbEntity
8
0
100
AcDbSpline
70
0
71
3
72
14
73
10
74
0
42
0.000000001
43
0.0000000001
44
0.0000000001
40
0
40
0
40
0
40
0
40
0.11719334201607796
40
0.11719334201607796
40
0.23438668403215662
40
0.23438668403215662
40
0.33361802215681607
40
0.33361802215681607
40
0.4328493602814753
40
0.4328493602814753
40
0.4328493602814753
40
0.4328493602814753
10
8.8087871139303235
20
-44.091142638509091
30
0
10
8.4215364463397329
20
-44.039761464540497
30
0
10
8.0480239920227064
20
-43.913232856045127
30
0
10
7.3705233020346714
20
-43.524124601934858
30
0
10
7.0730123422263542
20
-43.265265043309647
30
0
10
6.6306728285603231
20
-42.695373629749199
30
0
10
6.4724628569985976
20
-42.402324118482603
30
0
10
6.2580796283275273
20
-41.776482297165522
30
0
10
6.2033748590719124
20
-41.447976894811404
30
0
10
6.2033748590719124
20
-41.117205767729203
30
0
0
ARC
5
264
100
AcDbEntity
8
0
100
AcDbCircle
10
34.787251986533654
20
-49.393533509582703
30
0
40
3.0000000000000009
210
0
220
0
230
1
100
AcDbArc
50
240.00044165604606
51
326.49219880569018
0
ARC
5
265
100
AcDbEntity
8
0
100
AcDbCircle
10
46.803119870867675
20
-46.311859092084894
30
0
40
3.000000000000012
210
0
220
0
230
1
100
AcDbArc
50
242.2766989146852
51
329.99900069326799
0
ARC
5
266
100
AcDbEntity
8
0
100
AcDbCircle
10
-37.438987826990207
20
17.311786422820486
30
0
40
1.9999999999999996
210
0
220
0
230
1
100
AcDbArc
50
270
51
328.19563502724276
0
LINE
5
267
100
AcDbEntity
8
0
100
AcDbLine
10
-37.438987826990207
20
15.311786422820486
30
0
11
-37.97307512326681
21
15.311786422820488
31
0
0
SPLINE
5
268
100
AcDbEntity
8
0
100
AcDbSpline
70
0
71
3
72
20
73
16
74
0
42
0.000000001
43
0.0000000001
44
0.0000000001
40
0.16439452424451528
40
0.16439452424451528
40
0.16439452424451528
40
0.16439452424451528
40
0.22775791249421251
40
0.22775791249421251
40
0.22775791249421251
40
0.41448967577036383
40
0.41448967577036383
40
0.41448967577036383
40
0.4284304221412179
40
0.4284304221412179
40
0.4284304221412179
40
0.49938484952750917
40
0.49938484952750917
40
0.49938484952750917
40
0.50060794196744685
40
0.50060794196744685
40
0.50060794196744685
40
0.50060794196744685
10
-38.207039410325173
20
-37.633678349078707
30
0
10
-38.174043864527832
20
-37.590144750789918
30
0
10
-38.116726134981143
20
-37.497372456513546
30
0
10
-38.057578508377873
20
-37.358167968183558
30
0
10
-37.84159368027607
20
-36.849845670069747
30
0
10
-37.699998340494545
20
-36.109049569871573
30
0
10
-37.594076649045924
20
-35.029678042773327
30
0
10
-37.586168902609266
20
-34.949095904870276
30
0
10
-37.578353262984137
20
-34.866825924534282
30
0
10
-37.570546001897895
20
-34.782888908690879
30
0
10
-37.532925294265041
20
-34.378423130265418
30
0
10
-37.501102378974068
20
-33.954076396959856
30
0
10
-37.469661368612151
20
-33.518183230785624
30
0
10
-37.469111505222173
20
-33.510560012216601
30
0
10
-37.468561641832203
20
-33.502936793647571
30
0
10
-37.468011778442218
20
-33.495313575078349
30
0
0
SPLINE
5
269
100
AcDbEntity
8
0
100
AcDbSpline
70
4
71
5
72
16
73
10
74
0
42
0.000000001
43
0.0000000001
44
0.0000000001
40
-1
40
-1
40
-1
40
-1
40
-1
40
-1
40
-0.80000000000000004
40
-0.60000000000000009
40
-0.40000000000000002
40
-0.20000000000000001
40
0
40
0
40
0
40
0
40
0
40
0
41
1
41
1
41
1
41
1
41
1
41
1
41
1
41
1
41
1
41
1
10
54.306040758693626
20
24.951975379064187
30
0
10
53.990078135490485
20
24.951975379064187
30
0
10
53.385346117468792
20
24.903120040631283
30
0
10
52.559754221045182
20
24.683404436742755
30
0
10
51.599345907847251
20
24.139344337185925
30
0
10
50.553556250359804
20
23.190305780624531
30
0
10
49.791355832190803
20
22.313221573960501
30
0
10
49.246695325662266
20
21.621491849420984
30
0
10
48.894601139104708
20
21.148160542296853
30
0
10
48.721308282633075
20
20.908450253915554
30
0
0
ARC
5
270
100
AcDbEntity
8
0
100
AcDbCircle
10
45.884879098164348
20
22.958979327470495
30
0
40
3.499999999999992
210
0
220
0
230
1
100
AcDbArc
50
197.69930030125045
51
324.13584638792292
0
SPLINE
5
271
100
AcDbEntity
8
0
100
AcDbSpline
70
4
71
5
72
16
73
10
74
0
42
0.000000001
43
0.0000000001
44
0.0000000001
40
0
40
0
40
0
40
0
40
0
40
0
40
0.20000000000000001
40
0.40000000000000002
40
0.60000000000000009
40
0.80000000000000004
40
1
40
1
40
1
40
1
40
1
40
1
41
1
41
1
41
1
41
1
41
1
41
1
41
1
41
1
41
1
41
1
10
42.550550918994368
20
21.894904333124202
30
0
10
42.450553211201338
20
22.208251772654592
30
0
10
42.217295379883765
20
22.809245584957978
30
0
10
41.76770684978159
20
23.633688962263889
30
0
10
40.992634815666577
20
24.58842326844383
30
0
10
39.802601271117972
20
25.538805554603961
30
0
10
38.703257158814665
20
26.058213317361183
30
0
10
37.794059259387119
20
26.265643477892354
30
0
10
37.147480885890218
20
26.311765578890643
30
0
10
36.81407258794016
20
26.311765578890643
30
0
0
ARC
5
272
100
AcDbEntity
8
0
100
AcDbCircle
10
13.377179005003764
20
25.836778529995776
30
0
40
2.9999999999999938
210
0
220
0
230
1
100
AcDbArc
50
90.000000000000099
51
248.46892633442545
0
CIRCLE
5
273
100
AcDbEntity
8
0
100
AcDbCircle
10
45.884879098164348
20
22.958979327470498
30
0
40
1.5000000000000036
210
0
220
-0
230
1
0
ARC
5
274
100
AcDbEntity
8
0
100
AcDbCircle
10
2.0000000298023179
20
-3.0000000447034836
30
0
40
22
210
0
220
0
230
1
100
AcDbArc
50
-113.92860729015086
51
239.71714242168687
0
ARC
5
275
100
AcDbEntity
8
0
100
AcDbCircle
10
-19.749263071049604
20
-23.663241672529477
30
0
40
1.9999999999999973
210
-0
220
0
230
1
100
AcDbArc
50
-89.999999999999901
51
43.53319550618302
0
ARC
5
276
100
AcDbEntity
8
0
100
AcDbCircle
10
-12.393883684302356
20
26.695388681912512
30
0
40
5.0000000000000098
210
-0
220
0
230
1
100
AcDbArc
50
-64.139705696521645
51
22.496820193546494
0
CIRCLE
5
277
100
AcDbEntity
8
0
100
AcDbCircle
10
2.0000000298023224
20
-3.0000000447034836
30
0
40
22
210
0
220
0
230
1
0
ENDSEC
0
SECTION
2
OBJECTS
0
DICTIONARY
5
C
100
AcDbDictionary
3
ACAD_GROUP
350
D
3
ACAD_MLINESTYLE
350
17
0
DICTIONARY
5
D
100
AcDbDictionary
0
DICTIONARY
5
1A
330
C
100
AcDbDictionary
0
DICTIONARY
5
17
100
AcDbDictionary
0
ENDSEC
0
EOF
