0
SECTION
2
HEADER
9
$INSUNITS
70
4
9
$ACADVER
1
AC1014
9
$HANDSEED
5
FFFF
0
ENDSEC
0
SECTION
2
TABLES
0
TABLE
2
VPORT
5
8
100
AcDbSymbolTable
0
ENDTAB
0
TABLE
2
LTYPE
5
5
100
AcDbSymbolTable
0
LTYPE
5
14
100
AcDbSymbolTableRecord
100
AcDbLinetypeTableRecord
2
BYBLOCK
70
0
0
LTYPE
5
15
100
AcDbSymbolTableRecord
100
AcDbLinetypeTableRecord
2
BYLAYER
70
0
0
ENDTAB
0
TABLE
2
LAYER
5
2
100
AcDbSymbolTable
70
2
0
LAYER
5
50
100
AcDbSymbolTableRecord
100
AcDbLayerTableRecord
2
0
70
0
6
CONTINUOUS
0
ENDTAB
0
TABLE
2
STYLE
5
3
100
AcDbSymbolTable
70
1
0
STYLE
5
11
100
AcDbSymbolTableRecord
100
AcDbTextStyleTableRecord
2
STANDARD
70
0
0
ENDTAB
0
TABLE
2
VIEW
5
6
100
AcDbSymbolTable
70
0
0
ENDTAB
0
TABLE
2
UCS
5
7
100
AcDbSymbolTable
70
0
0
ENDTAB
0
TABLE
2
APPID
5
9
100
AcDbSymbolTable
70
2
0
APPID
5
12
100
AcDbSymbolTableRecord
100
AcDbRegAppTableRecord
2
ACAD
70
0
0
ENDTAB
0
TABLE
2
DIMSTYLE
5
A
100
AcDbSymbolTable
70
1
0
ENDTAB
0
TABLE
2
BLOCK_RECORD
5
1
100
AcDbSymbolTable
70
1
0
BLOCK_RECORD
5
1F
100
AcDbSymbolTableRecord
100
AcDbBlockTableRecord
2
*MODEL_SPACE
0
BLOCK_RECORD
5
1B
100
AcDbSymbolTableRecord
100
AcDbBlockTableRecord
2
*PAPER_SPACE
0
ENDTAB
0
ENDSEC
0
SECTION
2
BLOCKS
0
BLOCK
5
20
100
AcDbEntity
100
AcDbBlockBegin
2
*MODEL_SPACE
0
ENDBLK
5
21
100
AcDbEntity
100
AcDbBlockEnd
0
BLOCK
5
1C
100
AcDbEntity
100
AcDbBlockBegin
2
*PAPER_SPACE
0
ENDBLK
5
1D
100
AcDbEntity
100
AcDbBlockEnd
0
ENDSEC
0
SECTION
2
ENTITIES
0
LWPOLYLINE
5
100
100
AcDbEntity
8
0
100
AcDbPolyline
90
6
70
1
43
0.0
10
53.879206878817392
20
-31.491702672537862
10
50.530575317506191
20
-31.491702672534938
10
48.856259536856548
20
-28.591702672523631
10
50.530575317511278
20
-25.691702672516232
10
53.879206878822465
20
-25.691702672518172
10
55.553522659475533
20
-28.591702672529475
0
LWPOLYLINE
5
101
100
AcDbEntity
8
0
100
AcDbPolyline
90
6
70
1
43
0.0
10
-5.8083683405329465
20
-24.797311672529499
10
-7.4826841211843149
20
-27.697311672532013
10
-10.831315682487045
20
-27.697311672532017
10
-12.505631463138416
20
-24.797311672529503
10
-10.83131568248705
20
-21.897311672526982
10
-7.4826841211843176
20
-21.897311672526982
0
LWPOLYLINE
5
102
100
AcDbEntity
8
0
100
AcDbPolyline
90
6
70
1
43
0.0
10
77.118042605626187
20
22.958978327470501
10
75.501461851895243
20
20.158978327470525
10
72.268300344433371
20
20.158978327470525
10
70.651719590702442
20
22.958978327470501
10
72.268300344433371
20
25.758978327470473
10
75.501461851895243
20
25.758978327470473
0
LWPOLYLINE
5
103
100
AcDbEntity
8
0
100
AcDbPolyline
90
6
70
1
43
0.0
10
-31.21942468248691
20
28.078297327468206
10
-32.893740463138251
20
30.978297327470415
10
-31.219424682486896
20
33.878297327473028
10
-27.870793121184487
20
33.878297327472936
10
-26.196477340533107
20
30.978297327470624
10
-27.870793121184306
20
28.078297327468199
0
LWPOLYLINE
5
104
100
AcDbEntity
8
0
100
AcDbPolyline
90
6
70
1
43
0.0
10
42.536247536868565
20
22.958979327470498
10
44.210563317513021
20
25.858979327472905
10
47.559194878815632
20
25.858979327472905
10
49.233510659460109
20
22.958979327470498
10
47.559194878819071
20
20.058979327474024
10
44.21056331751646
20
20.058979327474024
0
SPLINE
5
105
100
AcDbEntity
8
0
100
AcDbSpline
70
0
71
3
72
8
73
4
74
0
42
0.000000001
43
0.0000000001
44
0.0000000001
40
-0.72504108888030527
40
-0.72504108888030527
40
-0.72504108888030527
40
-0.72504108888030527
40
-0.50000000042296866
40
-0.50000000042296866
40
-0.50000000042296866
40
-0.50000000042296866
10
-36.503827460687511
20
32.651492259528695
30
0
10
-36.940892248468472
20
30.807449120453775
30
0
10
-37.138830657219124
20
28.655090344687046
30
0
10
-37.333156189795041
20
26.545237744464224
30
0
0
LINE
5
106
100
AcDbEntity
8
0
100
AcDbLine
10
-37.333156189795041
20
26.545237744464224
30
0
11
-37.494464444911614
21
24.819464477653153
31
0
0
LINE
5
107
100
AcDbEntity
8
0
100
AcDbLine
10
-37.494464444911614
20
24.819464477653153
30
0
11
-37.669908368538493
21
23.186578317723132
31
0
0
LINE
5
108
100
AcDbEntity
8
0
100
AcDbLine
10
-37.669908368538493
20
23.186578317723132
30
0
11
-37.879293267075965
21
21.704778083323824
31
0
0
LINE
5
109
100
AcDbEntity
8
0
100
AcDbLine
10
-37.879293267075965
20
21.704778083323824
30
0
11
-37.995852067680993
21
21.071480861397653
31
0
0
LINE
5
110
100
AcDbEntity
8
0
100
AcDbLine
10
-37.995852067680993
20
21.071480861397653
30
0
11
-38.124531353109035
21
20.500181369530939
31
0
0
LINE
5
111
100
AcDbEntity
8
0
100
AcDbLine
10
-38.124531353109035
20
20.500181369530939
30
0
11
-38.260642680286459
21
20.014862957601292
31
0
0
LINE
5
112
100
AcDbEntity
8
0
100
AcDbLine
10
-38.260642680286459
20
20.014862957601292
30
0
11
-38.397770219289612
21
19.629539629078316
31
0
0
LINE
5
113
100
AcDbEntity
8
0
100
AcDbLine
10
-38.397770219289612
20
19.629539629078316
30
0
11
-38.522951672782696
21
19.358747559404517
31
0
0
LINE
5
114
100
AcDbEntity
8
0
100
AcDbLine
10
-38.522951672782696
20
19.358747559404517
30
0
11
-38.552073764332874
21
19.311786422820489
31
0
0
LINE
5
115
100
AcDbEntity
8
0
100
AcDbLine
10
-38.552073764332874
20
19.311786422820489
30
0
11
-52.048234901835698
21
19.311786422820525
31
0
0
SPLINE
5
116
100
AcDbEntity
8
0
100
AcDbSpline
70
0
71
3
72
14
73
10
74
0
42
0.000000001
43
0.0000000001
44
0.0000000001
40
-1
40
-1
40
-1
40
-1
40
-0.78385658629536703
40
-0.78385658629536703
40
-0.78385658629536703
40
-0.36681648646438042
40
-0.36681648646438042
40
-0.36681648646438042
40
0
40
0
40
0
40
0
10
-52.048234901835706
20
19.311786422820518
30
0
10
-52.59094718195972
20
19.311786422820518
30
0
10
-53.141352388223389
20
19.215081066671615
30
0
10
-53.634637147977671
20
19.031946890687564
30
0
10
-54.586410426316618
20
18.678596799070981
30
0
10
-55.320191701575403
20
18.067194808359265
30
0
10
-55.855756692309896
20
17.271640758324292
30
0
10
-56.326824266517193
20
16.571894279401516
30
0
10
-56.623164901835707
20
15.657892175628483
30
0
10
-56.623164901835707
20
14.736856422820516
30
0
0
LINE
5
117
100
AcDbEntity
8
0
100
AcDbLine
10
-56.623164901835707
20
14.736856422820519
30
0
11
-56.6231649018357
21
-37.063141672529454
31
0
0
SPLINE
5
118
100
AcDbEntity
8
0
100
AcDbSpline
70
0
71
3
72
14
73
10
74
0
42
0.000000001
43
0.0000000001
44
0.0000000001
40
0
40
0
40
0
40
0
40
0.36681648646529869
40
0.36681648646529869
40
0.36681648646529869
40
0.78385658629394173
40
0.78385658629394173
40
0.78385658629394173
40
1
40
1
40
1
40
1
10
-56.6231649018357
20
-37.063141672529468
30
0
10
-56.6231649018357
20
-37.984177425338856
30
0
10
-56.326824266517299
20
-38.898179529114081
30
0
10
-55.855756692307352
20
-39.597926008039238
30
0
10
-55.320191701574203
20
-40.393480058070452
30
0
10
-54.58641042631919
20
-41.00488204877793
30
0
10
-53.634637147986659
20
-41.358232140393795
30
0
10
-53.141352388229677
20
-41.541366316379708
30
0
10
-52.590947181962846
20
-41.63807167252947
30
0
10
-52.048234901835698
20
-41.63807167252947
30
0
0
LINE
5
119
100
AcDbEntity
8
0
100
AcDbLine
10
-52.048234901835698
20
-41.63807167252947
30
0
11
-38.248414901835666
21
-41.638071672529463
31
0
0
SPLINE
5
120
100
AcDbEntity
8
0
100
AcDbSpline
70
0
71
3
72
17
73
13
74
0
42
0.000000001
43
0.0000000001
44
0.0000000001
40
0
40
0
40
0
40
0
40
0.10578295448134356
40
0.10578295448134356
40
0.10578295448134356
40
0.22775791249421251
40
0.22775791249421251
40
0.22775791249421251
40
0.4284304221412179
40
0.4284304221412179
40
0.4284304221412179
40
0.49938484952750917
40
0.49938484952750917
40
0.49938484952750917
40
0.49938484952750917
10
-38.248414901835666
20
-41.63807167252947
30
0
10
-37.458694379176578
20
-41.63807167252947
30
0
10
-36.613507681867397
20
-41.407639894881143
30
0
10
-35.945112405294978
20
-40.944565991243813
30
0
10
-35.174407085183134
20
-40.410610211411822
30
0
10
-34.689036622842536
20
-39.658865410769714
30
0
10
-34.376118891791634
20
-38.922410625652212
30
0
10
-33.861308414083524
20
-37.710799386929892
30
0
10
-33.706939939808471
20
-36.434906292427556
30
0
10
-33.587737491047889
20
-35.153343178339178
30
0
10
-33.545589508198979
20
-34.700203996098978
30
0
10
-33.511925288530541
20
-34.248196509061572
30
0
10
-33.480026438776832
20
-33.805955930390368
30
0
0
LINE
5
121
100
AcDbEntity
8
0
100
AcDbLine
10
-33.480026438776832
20
-33.805955930390368
30
0
11
-33.29644715841566
21
-31.611716124400861
31
0
0
LINE
5
122
100
AcDbEntity
8
0
100
AcDbLine
10
-33.29644715841566
20
-31.611716124400861
30
0
11
-33.17002028812621
21
-30.727141332482152
31
0
0
LINE
5
123
100
AcDbEntity
8
0
100
AcDbLine
10
-33.17002028812621
20
-30.727141332482152
30
0
11
-33.011311564943185
21
-30.048596787632
31
0
0
LINE
5
124
100
AcDbEntity
8
0
100
AcDbLine
10
-33.011311564943185
20
-30.048596787632
30
0
11
-32.858249518122712
21
-29.663241672529502
31
0
0
LINE
5
125
100
AcDbEntity
8
0
100
AcDbLine
10
-32.858249518122712
20
-29.663241672529502
30
0
11
-13.115568524929859
21
-29.663241672529459
31
0
0
SPLINE
5
126
100
AcDbEntity
8
0
100
AcDbSpline
70
0
71
3
72
11
73
7
74
0
42
0.000000001
43
0.0000000001
44
0.0000000001
40
-1
40
-1
40
-1
40
-1
40
-0.71620156968718063
40
-0.71620156968718063
40
-0.71620156968718063
40
-0.59905019219633304
40
-0.59905019219633304
40
-0.59905019219633304
40
-0.59905019219633304
10
-13.115568524929863
20
-29.663241672529459
30
0
10
-12.782616839352038
20
-29.663241672529459
30
0
10
-12.684374681854667
20
-29.713723663895586
30
0
10
-12.520789833744237
20
-29.827738014765572
30
0
10
-12.453262362673858
20
-29.874802891915948
30
0
10
-12.377488218050292
20
-29.942631974964158
30
0
10
-12.298986465485164
20
-30.028444275657662
30
0
0
SPLINE
5
127
100
AcDbEntity
8
0
100
AcDbSpline
70
0
71
3
72
11
73
7
74
0
42
0.000000001
43
0.0000000001
44
0.0000000001
40
-0.59905019219627098
40
-0.59905019219627098
40
-0.59905019219627098
40
-0.59905019219627098
40
-0.37657120804009803
40
-0.37657120804009803
40
-0.37657120804009803
40
0
40
0
40
0
40
0
10
-12.29898646548504
20
-30.028444275657797
30
0
10
-12.149905929351061
20
-30.191408074251548
30
0
10
-11.990988337460387
20
-30.419227936638826
30
0
10
-11.860033562507144
20
-30.692856978925356
30
0
10
-11.638377580078958
20
-31.156005529335676
30
0
10
-11.509070750344947
20
-31.682219598629004
30
0
10
-11.509070750344947
20
-32.233154513067369
30
0
0
LINE
5
128
100
AcDbEntity
8
0
100
AcDbLine
10
-11.50907075034495
20
-32.233154513067369
30
0
11
-11.509070750344909
21
-42.385467037886599
31
0
0
SPLINE
5
129
100
AcDbEntity
8
0
100
AcDbSpline
70
0
71
3
72
14
73
10
74
0
42
0.000000001
43
0.0000000001
44
0.0000000001
40
-1
40
-1
40
-1
40
-1
40
-0.78339299450493849
40
-0.78339299450493849
40
-0.78339299450493849
40
-0.44403774290613346
40
-0.44403774290613346
40
-0.44403774290613346
40
0
40
0
40
0
40
0
10
-11.509070750344911
20
-42.385467037886599
30
0
10
-11.509070750344909
20
-43.118644786443056
30
0
10
-11.363315301116598
20
-43.853654599707852
30
0
10
-11.080479356730901
20
-44.495121911119469
30
0
10
-10.63736412669102
20
-45.500100029712513
30
0
10
-9.9150989104565959
20
-46.243122896913817
30
0
10
-9.1182654972097268
20
-46.774635259758846
30
0
10
-8.0756291784159018
20
-47.470105710893705
30
0
10
-6.8180474510939444
20
-47.853490386860138
30
0
10
-5.4853936982546685
20
-47.853490386860138
30
0
0
LINE
5
130
100
AcDbEntity
8
0
100
AcDbLine
10
-5.4853936982546685
20
-47.853490386860145
30
0
11
5.3844317495958469
21
-47.853490386860116
31
0
0
SPLINE
5
131
100
AcDbEntity
8
0
100
AcDbSpline
70
0
71
3
72
11
73
7
74
0
42
0.000000001
43
0.0000000001
44
0.0000000001
40
0
40
0
40
0
40
0
40
0.63973645502945742
40
0.63973645502945742
40
0.63973645502945742
40
1
40
1
40
1
40
1
10
5.3844317495958443
20
-47.853490386860116
30
0
10
7.4764482536036532
20
-47.853490386860116
30
0
10
9.5671969560683383
20
-48.209869000973669
30
0
10
11.7309402192842
20
-48.693933912979375
30
0
10
12.949438574792769
20
-48.966532011499488
30
0
10
14.178902332567649
20
-49.276013794486609
30
0
10
15.403703035583147
20
-49.604198752359864
30
0
0
LINE
5
132
100
AcDbEntity
8
0
100
AcDbLine
10
15.403703035583147
20
-49.604198752359878
30
0
11
24.724226042792445
21
-52.101629461680901
31
0
0
LINE
5
133
100
AcDbEntity
8
0
100
AcDbLine
10
24.724226042792445
20
-52.101629461680901
30
0
11
25.825236512698872
21
-52.475969451023275
31
0
0
LINE
5
134
100
AcDbEntity
8
0
100
AcDbLine
10
25.825236512698872
20
-52.475969451023275
30
0
11
26.87102254673426
21
-52.960865315519221
31
0
0
LINE
5
135
100
AcDbEntity
8
0
100
AcDbLine
10
26.87102254673426
20
-52.960865315519221
30
0
11
29.129549151070631
21
-54.20998319977496
31
0
0
LINE
5
136
100
AcDbEntity
8
0
100
AcDbLine
10
29.129549151070631
20
-54.20998319977496
30
0
11
41.064825093035999
21
-61.100695309852391
31
0
0
SPLINE
5
137
100
AcDbEntity
8
0
100
AcDbSpline
70
0
71
3
72
14
73
10
74
0
42
0.000000001
43
0.0000000001
44
0.0000000001
40
0
40
0
40
0
40
0
40
0.36681963961014408
40
0.36681963961014408
40
0.36681963961014408
40
0.78386341854905495
40
0.78386341854905495
40
0.78386341854905495
40
1
40
1
40
1
40
1
10
41.064825093035999
20
-61.100695309852391
30
0
10
41.862465012503023
20
-61.561204713198698
30
0
10
42.802180058003131
20
-61.761559298905659
30
0
10
43.643706585521983
20
-61.70347244393934
30
0
10
44.600453076758939
20
-61.63743246437997
30
0
10
45.496827810728149
20
-61.307659601899459
30
0
10
46.278720358360424
20
-60.660077729783083
30
0
10
46.683943001261817
20
-60.324462767716128
30
0
10
47.042880700938063
20
-59.896174996122184
30
0
10
47.314232108967673
20
-59.42619947233473
30
0
0
LINE
5
138
100
AcDbEntity
8
0
100
AcDbLine
10
47.314232108967673
20
-59.426199472334716
30
0
11
54.233713475913035
21
-47.441788904208565
31
0
0
LINE
5
139
100
AcDbEntity
8
0
100
AcDbLine
10
54.233713475913035
20
-47.441788904208565
30
0
11
54.535799330148905
21
-46.868535284532051
31
0
0
LINE
5
140
100
AcDbEntity
8
0
100
AcDbLine
10
54.535799330148905
20
-46.868535284532051
30
0
11
54.825195556305161
21
-46.216476909756594
31
0
0
LINE
5
141
100
AcDbEntity
8
0
100
AcDbLine
10
54.825195556305161
20
-46.216476909756594
30
0
11
55.087844647365486
21
-45.523309464677276
31
0
0
LINE
5
142
100
AcDbEntity
8
0
100
AcDbLine
10
55.087844647365486
20
-45.523309464677276
30
0
11
55.328350197548055
21
-44.789352022235036
31
0
0
LINE
5
143
100
AcDbEntity
8
0
100
AcDbLine
10
55.328350197548055
20
-44.789352022235036
30
0
11
55.550432991669936
21
-44.015475517917281
31
0
0
LINE
5
144
100
AcDbEntity
8
0
100
AcDbLine
10
55.550432991669936
20
-44.015475517917281
30
0
11
55.759601643781984
21
-43.193753973031896
31
0
0
LINE
5
145
100
AcDbEntity
8
0
100
AcDbLine
10
55.759601643781984
20
-43.193753973031896
30
0
11
56.134241948425569
21
-41.478572720501589
31
0
0
LINE
5
146
100
AcDbEntity
8
0
100
AcDbLine
10
56.134241948425569
20
-41.478572720501589
30
0
11
56.479114401760185
21
-39.635461795769217
31
0
0
LINE
5
147
100
AcDbEntity
8
0
100
AcDbLine
10
56.479114401760185
20
-39.635461795769217
30
0
11
56.806873196014919
21
-37.72180095491062
31
0
0
LINE
5
148
100
AcDbEntity
8
0
100
AcDbLine
10
56.806873196014919
20
-37.72180095491062
30
0
11
57.481789837527195
21
-33.837961994275346
31
0
0
LINE
5
149
100
AcDbEntity
8
0
100
AcDbLine
10
57.481789837527195
20
-33.837961994275346
30
0
11
57.856590909690262
21
-31.996135232778297
31
0
0
LINE
5
150
100
AcDbEntity
8
0
100
AcDbLine
10
57.856590909690262
20
-31.996135232778297
30
0
11
58.28119777567403
21
-30.271985238122628
31
0
0
LINE
5
151
100
AcDbEntity
8
0
100
AcDbLine
10
58.28119777567403
20
-30.271985238122628
30
0
11
58.507016493923778
21
-29.504130615784799
31
0
0
LINE
5
152
100
AcDbEntity
8
0
100
AcDbLine
10
58.507016493923778
20
-29.504130615784799
30
0
11
58.749611941240488
21
-28.784430310369959
31
0
0
LINE
5
153
100
AcDbEntity
8
0
100
AcDbLine
10
58.749611941240488
20
-28.784430310369959
30
0
11
59.004233970451338
21
-28.134262473934434
31
0
0
LINE
5
154
100
AcDbEntity
8
0
100
AcDbLine
10
59.004233970451338
20
-28.134262473934434
30
0
11
59.268208971144588
21
-27.562473001010559
31
0
0
LINE
5
155
100
AcDbEntity
8
0
100
AcDbLine
10
59.268208971144588
20
-27.562473001010559
30
0
11
59.53675464480434
21
-27.077087725560425
31
0
0
LINE
5
156
100
AcDbEntity
8
0
100
AcDbLine
10
59.53675464480434
20
-27.077087725560425
30
0
11
59.802634708605538
21
-26.683940174380684
31
0
0
LINE
5
157
100
AcDbEntity
8
0
100
AcDbLine
10
59.802634708605538
20
-26.683940174380684
30
0
11
60.056714527946937
21
-26.384274112838089
31
0
0
LINE
5
158
100
AcDbEntity
8
0
100
AcDbLine
10
60.056714527946937
20
-26.384274112838089
30
0
11
60.290665815772961
21
-26.171684756866483
31
0
0
LINE
5
159
100
AcDbEntity
8
0
100
AcDbLine
10
60.290665815772961
20
-26.171684756866483
30
0
11
60.502791149940322
21
-26.030618399368713
31
0
0
LINE
5
160
100
AcDbEntity
8
0
100
AcDbLine
10
60.502791149940322
20
-26.030618399368713
30
0
11
60.704945806565689
21
-25.940318064219014
31
0
0
LINE
5
161
100
AcDbEntity
8
0
100
AcDbLine
10
60.704945806565689
20
-25.940318064219014
30
0
11
60.923868426372685
21
-25.885166456210019
31
0
0
LINE
5
162
100
AcDbEntity
8
0
100
AcDbLine
10
60.923868426372685
20
-25.885166456210019
30
0
11
61.266139590419456
21
-25.858161770589639
31
0
0
LINE
5
163
100
AcDbEntity
8
0
100
AcDbLine
10
61.266139590419456
20
-25.858161770589639
30
0
11
78.386854711965469
21
-25.858161770589632
31
0
0
ARC
5
164
100
AcDbEntity
8
0
100
AcDbCircle
10
78.386854711965469
20
-22.858163672529503
30
0
40
2.9999980980601304
210
0
220
0
230
1
100
AcDbArc
50
270
51
359.99887620099935
0
LINE
5
165
100
AcDbEntity
8
0
100
AcDbLine
10
81.386852809448541
20
-22.858222514472718
30
0
11
81.387746017574926
21
22.681107648567981
31
0
0
ARC
5
166
100
AcDbEntity
8
0
100
AcDbCircle
10
74.887281098164308
20
22.447307327470504
30
0
40
6.5046680744395777
210
0
220
-0
230
1
100
AcDbArc
50
2.0598526440850797
51
90.004802076355986
0
LINE
5
167
100
AcDbEntity
8
0
100
AcDbLine
10
74.886735928642352
20
28.951975379064187
30
0
11
43.015457619040767
21
28.951975379064187
31
0
0
LINE
5
168
100
AcDbEntity
8
0
100
AcDbLine
10
43.015457619040767
20
28.951975379064187
30
0
11
42.566118482212197
21
28.987470414437198
31
0
0
LINE
5
169
100
AcDbEntity
8
0
100
AcDbLine
10
42.566118482212197
20
28.987470414437198
30
0
11
42.188495174815124
21
29.073948530954237
31
0
0
LINE
5
170
100
AcDbEntity
8
0
100
AcDbLine
10
42.188495174815124
20
29.073948530954237
30
0
11
41.084192060844494
21
29.49027850189097
31
0
0
SPLINE
5
171
100
AcDbEntity
8
0
100
AcDbSpline
70
0
71
3
72
11
73
7
74
0
42
0.000000001
43
0.0000000001
44
0.0000000001
40
-0.49324351738496663
40
-0.49324351738496663
40
-0.49324351738496663
40
-0.49324351738496663
40
-0.36480504183951701
40
-0.36480504183951701
40
-0.36480504183951701
40
-0.04867239860408254
40
-0.04867239860408254
40
-0.04867239860408254
40
-0.04867239860408254
10
41.084192060844487
20
29.490278501890973
30
0
10
40.86740580478272
20
29.58125913161453
30
0
10
40.632473234525193
20
29.679748775697004
30
0
10
40.37740914235701
20
29.777159631237975
30
0
10
39.749605944684795
20
30.016922296679262
30
0
10
38.9702081879961
20
30.242605927856093
30
0
10
38.138956224560737
20
30.298559474357965
30
0
0
SPLINE
5
172
100
AcDbEntity
8
0
100
AcDbSpline
70
0
71
3
72
8
73
4
74
0
42
0.000000001
43
0.0000000001
44
0.0000000001
40
-0.048672398604081415
40
-0.048672398604081415
40
-0.048672398604081415
40
-0.048672398604081415
40
0
40
0
40
0
40
0
10
38.138956224560729
20
30.298559474357969
30
0
10
38.010975050295784
20
30.307174191556353
30
0
10
37.881764709268907
20
30.311765578890647
30
0
10
37.751689209638343
20
30.311765578890647
30
0
0
LINE
5
173
100
AcDbEntity
8
0
100
AcDbLine
10
37.751689209638343
20
30.311765578890647
30
0
11
24.017788395510664
21
30.311765578890633
31
0
0
LINE
5
174
100
AcDbEntity
8
0
100
AcDbLine
10
24.017788395510664
20
30.311765578890633
30
0
11
23.842400787387596
21
30.323384749379745
31
0
0
LINE
5
175
100
AcDbEntity
8
0
100
AcDbLine
10
23.842400787387596
20
30.323384749379745
30
0
11
23.806891607011039
21
30.330693832241185
31
0
0
LINE
5
176
100
AcDbEntity
8
0
100
AcDbLine
10
23.806891607011039
20
30.330693832241185
30
0
11
23.498316281799767
21
30.459434064961801
31
0
0
LINE
5
177
100
AcDbEntity
8
0
100
AcDbLine
10
23.498316281799767
20
30.459434064961801
30
0
11
23.126640193264684
21
30.707361287245412
31
0
0
LINE
5
178
100
AcDbEntity
8
0
100
AcDbLine
10
23.126640193264684
20
30.707361287245412
30
0
11
22.628126689938746
21
31.114046023537565
31
0
0
SPLINE
5
179
100
AcDbEntity
8
0
100
AcDbSpline
70
0
71
3
72
11
73
7
74
0
42
0.000000001
43
0.0000000001
44
0.0000000001
40
-0.49741186752331074
40
-0.49741186752331074
40
-0.49741186752331074
40
-0.49741186752331074
40
-0.24343269681469407
40
-0.24343269681469407
40
-0.24343269681469407
40
0
40
0
40
0
40
0
10
22.628126689938735
20
31.114046023537565
30
0
10
22.23286496085915
20
31.446988636861413
30
0
10
21.742811125906751
20
31.874394221880621
30
0
10
21.072981552712339
20
32.237250099158857
30
0
10
20.43096662308638
20
32.585038402091165
30
0
10
19.59254190668014
20
32.83677852999579
30
0
10
18.751725740062074
20
32.836778529995783
30
0
0
LINE
5
180
100
AcDbEntity
8
0
100
AcDbLine
10
18.751725740062074
20
32.836778529995783
30
0
11
5.0448808454845828
21
32.836778529995748
31
0
0
LINE
5
181
100
AcDbEntity
8
0
100
AcDbLine
10
5.0448808454845828
20
32.836778529995748
30
0
11
4.8626781140006594
21
32.853802259311173
31
0
0
LINE
5
182
100
AcDbEntity
8
0
100
AcDbLine
10
4.8626781140006594
20
32.853802259311173
30
0
11
4.8512830611296485
21
32.85737857553368
31
0
0
LINE
5
183
100
AcDbEntity
8
0
100
AcDbLine
10
4.8512830611296485
20
32.85737857553368
30
0
11
4.8481813548903627
21
32.859180120730201
31
0
0
LINE
5
184
100
AcDbEntity
8
0
100
AcDbLine
10
4.8481813548903627
20
32.859180120730201
30
0
11
4.7969908250396411
21
32.904804188265985
31
0
0
LINE
5
185
100
AcDbEntity
8
0
100
AcDbLine
10
4.7969908250396411
20
32.904804188265985
30
0
11
4.6885693162481443
21
33.038261597656003
31
0
0
LINE
5
186
100
AcDbEntity
8
0
100
AcDbLine
10
4.6885693162481443
20
33.038261597656003
30
0
11
4.5471625975798693
21
33.259896013389572
31
0
0
LINE
5
187
100
AcDbEntity
8
0
100
AcDbLine
10
4.5471625975798693
20
33.259896013389572
30
0
11
4.1496728656393165
21
34.025651806251048
31
0
0
SPLINE
5
188
100
AcDbEntity
8
0
100
AcDbSpline
70
0
71
3
72
14
73
10
74
0
42
0.000000001
43
0.0000000001
44
0.0000000001
40
-0.4971415872734562
40
-0.4971415872734562
40
-0.4971415872734562
40
-0.4971415872734562
40
-0.38543933736415675
40
-0.38543933736415675
40
-0.38543933736415675
40
-0.17356515820368781
40
-0.17356515820368781
40
-0.17356515820368781
40
0
40
0
40
0
40
0
10
4.1496728656393023
20
34.025651806251048
30
0
10
4.0193721554647661
20
34.291175635755231
30
0
10
3.8743448877215982
20
34.588267533260975
30
0
10
3.6961244562095743
20
34.903773736143378
30
0
10
3.3580801673353964
20
35.502218421098483
30
0
10
2.8866942445512977
20
36.207009909540467
30
0
10
2.0884848213756317
20
36.737518309879043
30
0
10
1.4345998347193267
20
37.172105359598838
30
0
10
0.58179109008224261
20
37.411826438236552
30
0
10
-0.22334488712773795
20
37.411826438236552
30
0
0
LINE
5
189
100
AcDbEntity
8
0
100
AcDbLine
10
-0.22334488712773826
20
37.41182643823656
30
0
11
-32.115571491470192
21
37.411826438236545
31
0
0
SPLINE
5
190
100
AcDbEntity
8
0
100
AcDbSpline
70
0
71
3
72
17
73
13
74
0
42
0.000000001
43
0.0000000001
44
0.0000000001
40
-1
40
-1
40
-1
40
-1
40
-0.95225311905491172
40
-0.95225311905491172
40
-0.95225311905491172
40
-0.8632715481419635
40
-0.8632715481419635
40
-0.8632715481419635
40
-0.7265430962839271
40
-0.7265430962839271
40
-0.7265430962839271
40
-0.72504108888030538
40
-0.72504108888030538
40
-0.72504108888030538
40
-0.72504108888030538
10
-32.115571491470206
20
37.411826438236545
30
0
10
-32.54842007929458
20
37.411826438236545
30
0
10
-32.998186475982465
20
37.335616628655501
30
0
10
-33.415746730097801
20
37.178119419207448
30
0
10
-34.193916248746007
20
36.884606024537518
30
0
10
-34.807970734578575
20
36.329578531277768
30
0
10
-35.235507992008365
20
35.737351824642325
30
0
10
-35.892458714728185
20
34.827340460306374
30
0
10
-36.227550359952232
20
33.80625163621157
30
0
10
-36.495044037602526
20
32.688374427922383
30
0
10
-36.497982544393118
20
32.676094175931127
30
0
10
-36.500910328746798
20
32.663800085030587
30
0
10
-36.503827460687496
20
32.651492259528702
30
0
0
ENDSEC
0
SECTION
2
OBJECTS
0
DICTIONARY
5
C
100
AcDbDictionary
3
ACAD_GROUP
350
D
3
ACAD_MLINESTYLE
350
17
0
DICTIONARY
5
D
100
AcDbDictionary
0
DICTIONARY
5
1A
330
C
100
AcDbDictionary
0
DICTIONARY
5
17
100
AcDbDictionary
0
ENDSEC
0
EOF
