0
SECTION
2
HEADER
9
$INSUNITS
70
4
9
$ACADVER
1
AC1014
9
$HANDSEED
5
FFFF
0
ENDSEC
0
SECTION
2
TABLES
0
TABLE
2
VPORT
5
8
100
AcDbSymbolTable
0
ENDTAB
0
TABLE
2
LTYPE
5
5
100
AcDbSymbolTable
0
LTYPE
5
14
100
AcDbSymbolTableRecord
100
AcDbLinetypeTableRecord
2
BYBLOCK
70
0
0
LTYPE
5
15
100
AcDbSymbolTableRecord
100
AcDbLinetypeTableRecord
2
BYLAYER
70
0
0
ENDTAB
0
TABLE
2
LAYER
5
2
100
AcDbSymbolTable
70
2
0
LAYER
5
50
100
AcDbSymbolTableRecord
100
AcDbLayerTableRecord
2
0
70
0
6
CONTINUOUS
0
ENDTAB
0
TABLE
2
STYLE
5
3
100
AcDbSymbolTable
70
1
0
STYLE
5
11
100
AcDbSymbolTableRecord
100
AcDbTextStyleTableRecord
2
STANDARD
70
0
0
ENDTAB
0
TABLE
2
VIEW
5
6
100
AcDbSymbolTable
70
0
0
ENDTAB
0
TABLE
2
UCS
5
7
100
AcDbSymbolTable
70
0
0
ENDTAB
0
TABLE
2
APPID
5
9
100
AcDbSymbolTable
70
2
0
APPID
5
12
100
AcDbSymbolTableRecord
100
AcDbRegAppTableRecord
2
ACAD
70
0
0
ENDTAB
0
TABLE
2
DIMSTYLE
5
A
100
AcDbSymbolTable
70
1
0
ENDTAB
0
TABLE
2
BLOCK_RECORD
5
1
100
AcDbSymbolTable
70
1
0
BLOCK_RECORD
5
1F
100
AcDbSymbolTableRecord
100
AcDbBlockTableRecord
2
*MODEL_SPACE
0
BLOCK_RECORD
5
1B
100
AcDbSymbolTableRecord
100
AcDbBlockTableRecord
2
*PAPER_SPACE
0
ENDTAB
0
ENDSEC
0
SECTION
2
BLOCKS
0
BLOCK
5
20
100
AcDbEntity
100
AcDbBlockBegin
2
*MODEL_SPACE
0
ENDBLK
5
21
100
AcDbEntity
100
AcDbBlockEnd
0
BLOCK
5
1C
100
AcDbEntity
100
AcDbBlockBegin
2
*PAPER_SPACE
0
ENDBLK
5
1D
100
AcDbEntity
100
AcDbBlockEnd
0
ENDSEC
0
SECTION
2
ENTITIES
0
LWPOLYLINE
5
100
100
AcDbEntity
8
0
100
AcDbPolyline
90
6
70
1
43
0.0
10
242.64311378064988
20
-34.571818999999948
10
239.29448221935013
20
-34.571818999999955
10
237.62016643870024
20
-31.671818999999999
10
239.29448221935013
20
-28.771819000000054
10
242.64311378064988
20
-28.77181900000005
10
244.31742956129978
20
-31.671818999999999
0
LWPOLYLINE
5
101
100
AcDbEntity
8
0
100
AcDbPolyline
90
6
70
1
43
0.0
10
154.57828543870025
20
-86.428109000000006
10
156.25260121935011
20
-83.528109000000072
10
159.60123278064987
20
-83.528109000000057
10
161.27554856129976
20
-86.428109000000006
10
159.60123278064992
20
-89.328108999999941
10
156.25260121935014
20
-89.328108999999955
0
LWPOLYLINE
5
102
100
AcDbEntity
8
0
100
AcDbPolyline
90
6
70
1
43
0.0
10
93.513123780649906
20
-101.5343
10
90.164492219350109
20
-101.5343
10
88.490176438700203
20
-98.634300000000025
10
90.16449221935008
20
-95.734300000000047
10
93.513123780649892
20
-95.734300000000076
10
95.187439561299811
20
-98.634300000000025
0
LWPOLYLINE
5
103
100
AcDbEntity
8
0
100
AcDbPolyline
90
6
70
1
43
0.0
10
139.21312378064985
20
-14.552499999999942
10
135.8644922193501
20
-14.552499999999942
10
134.19017643870023
20
-11.652500000000003
10
135.86449221935013
20
-8.7525000000000652
10
139.21312378064988
20
-8.7525000000000652
10
140.88743956129974
20
-11.652500000000003
0
LWPOLYLINE
5
104
100
AcDbEntity
8
0
100
AcDbPolyline
90
6
70
1
43
0.0
10
239.60315106556646
20
-118.98183446151067
10
236.25451950426674
20
-118.98183446151066
10
234.5802037236169
20
-116.08183446151074
10
236.25451950426677
20
-113.18183446151085
10
239.60315106556649
20
-113.18183446151089
10
241.2774668462163
20
-116.08183446151081
0
LWPOLYLINE
5
105
100
AcDbEntity
8
0
100
AcDbPolyline
90
6
70
1
43
0.0
10
214.64311178064989
20
-34.571817999999936
10
211.29448021935013
20
-34.571817999999936
10
209.62016443870024
20
-31.671817999999998
10
211.29448021935013
20
-28.77181800000006
10
214.64311178064989
20
-28.77181800000006
10
216.31742756129978
20
-31.671817999999998
0
LWPOLYLINE
5
106
100
AcDbEntity
8
0
100
AcDbPolyline
90
6
70
1
43
0.0
10
95.187439683148867
20
-28.63430000000001
10
93.513123902498933
20
-31.534300000000009
10
90.164492341199121
20
-31.534300000000002
10
88.490176560549187
20
-28.63430000000001
10
90.164492341199121
20
-25.734300000000001
10
93.513123902498947
20
-25.734300000000001
0
SPLINE
5
107
100
AcDbEntity
8
0
100
AcDbSpline
70
0
71
3
72
14
73
10
74
0
42
0.000000001
43
0.0000000001
44
0.0000000001
40
0
40
0
40
0
40
0
40
0.20519554732622466
40
0.20519554732622466
40
0.20519554732622466
40
0.43612716565832338
40
0.43612716565832338
40
0.43612716565832338
40
0.46887264356389202
40
0.46887264356389202
40
0.46887264356389202
40
0.46887264356389202
10
217.32950007682402
20
-22.147500000000015
30
0
10
215.91866070240536
20
-22.147500000000015
30
0
10
214.97955611487669
20
-21.807148951333719
30
0
10
214.08649187968109
20
-21.159972929768024
30
0
10
213.08141758934886
20
-20.431626686619335
30
0
10
212.14495672635093
20
-19.207149780779233
30
0
10
211.19778939892242
20
-17.698501602166804
30
0
10
211.06348363768802
20
-17.484579377237921
30
0
10
210.92876288631624
20
-17.26575937253083
30
0
10
210.79306440417406
20
-17.043172948578604
30
0
0
SPLINE
5
108
100
AcDbEntity
8
0
100
AcDbSpline
70
0
71
3
72
8
73
4
74
0
42
0.000000001
43
0.0000000001
44
0.0000000001
40
0.46887264356389236
40
0.46887264356389236
40
0.46887264356389236
40
0.46887264356389236
40
0.71416519063286266
40
0.71416519063286266
40
0.71416519063286266
40
0.71416519063286266
10
210.79306440417412
20
-17.043172948578643
30
0
10
209.77656293749689
20
-15.375804066937004
30
0
10
208.73020273370255
20
-13.491833974559666
30
0
10
207.23281109691769
20
-11.879221577158587
30
0
0
SPLINE
5
109
100
AcDbEntity
8
0
100
AcDbSpline
70
0
71
3
72
11
73
7
74
0
42
0.000000001
43
0.0000000001
44
0.0000000001
40
0.71416519063286321
40
0.71416519063286321
40
0.71416519063286321
40
0.71416519063286321
40
0.9034489763124165
40
0.9034489763124165
40
0.9034489763124165
40
1
40
1
40
1
40
1
10
207.23281109691757
20
-11.87922157715848
30
0
10
206.07732569370225
20
-10.634824292930503
30
0
10
204.59587952212135
20
-9.5607621676175309
30
0
10
202.80034599017029
20
-9.0276097275854674
30
0
10
201.88446933463493
20
-8.7556560909767036
30
0
10
200.90172835416823
20
-8.6225000000000041
30
0
10
199.8812215143258
20
-8.6225000000000041
30
0
0
LINE
5
110
100
AcDbEntity
8
0
100
AcDbLine
10
199.8812215143258
20
-8.6225000000000041
30
0
11
178.3235700407883
21
-8.6224999999999952
31
0
0
SPLINE
5
111
100
AcDbEntity
8
0
100
AcDbSpline
70
0
71
3
72
17
73
13
74
0
42
0.000000001
43
0.0000000001
44
0.0000000001
40
0
40
0
40
0
40
0
40
0.24047641642379561
40
0.24047641642379561
40
0.24047641642379561
40
0.54998240229897488
40
0.54998240229897488
40
0.54998240229897488
40
0.81376734559006447
40
0.81376734559006447
40
0.81376734559006447
40
1
40
1
40
1
40
1
10
178.3235700407883
20
-8.6225000000000041
30
0
10
177.8892709600326
20
-8.6225000000000041
30
0
10
177.64334097167406
20
-8.5407094164086956
30
0
10
177.2706530407275
20
-8.3077394449535458
30
0
10
176.7909837774925
20
-8.0078946544878331
30
0
10
176.17580167566547
20
-7.3724904200577974
30
0
10
175.40189930385733
20
-6.5978492003317033
30
0
10
174.74231983665248
20
-5.9376400297769338
30
0
10
173.94203557763123
20
-5.1748942560666134
30
0
10
172.84142012385391
20
-4.6449339531092759
30
0
10
172.06438359218441
20
-4.2707810059384945
30
0
10
171.13857088605477
20
-4.0474999999999897
30
0
10
170.20628578374635
20
-4.0474999999999897
30
0
0
LINE
5
112
100
AcDbEntity
8
0
100
AcDbLine
10
170.20628578374635
20
-4.0474999999999897
30
0
11
140.19737336584384
21
-4.0474999999999817
31
0
0
SPLINE
5
113
100
AcDbEntity
8
0
100
AcDbSpline
70
0
71
3
72
14
73
10
74
0
42
0.000000001
43
0.0000000001
44
0.0000000001
40
0
40
0
40
0
40
0
40
0.098312976752822356
40
0.098312976752822356
40
0.098312976752822356
40
0.25860929013312667
40
0.25860929013312667
40
0.25860929013312667
40
0.51721858026625334
40
0.51721858026625334
40
0.51721858026625334
40
0.51721858026625334
10
140.19737336584384
20
-4.0474999999999897
30
0
10
138.93684427780948
20
-4.0474999999999897
30
0
10
137.74118653534359
20
-4.2278696593459895
30
0
10
136.64695484691623
20
-4.6016257520962771
30
0
10
134.86284341593185
20
-5.2110236744267908
30
0
10
133.39963682873153
20
-6.3420350036271884
30
0
10
132.28539760292426
20
-7.6756808761547548
30
0
10
130.48777288437657
20
-9.8272787832448945
30
0
10
129.45800510899107
20
-12.464121383731658
30
0
10
128.43378911274294
20
-14.852478357173764
30
0
0
SPLINE
5
114
100
AcDbEntity
8
0
100
AcDbSpline
70
0
71
3
72
14
73
10
74
0
42
0.000000001
43
0.0000000001
44
0.0000000001
40
0.51721858026625367
40
0.51721858026625367
40
0.51721858026625367
40
0.51721858026625367
40
0.73771212421601251
40
0.73771212421601251
40
0.73771212421601251
40
0.90710244571083543
40
0.90710244571083543
40
0.90710244571083543
40
1
40
1
40
1
40
1
10
128.43378911274289
20
-14.852478357173922
30
0
10
127.56052963058544
20
-16.888821649483027
30
0
10
126.69285633860447
20
-18.732411144801226
30
0
10
125.68269214868748
20
-19.965230271817262
30
0
10
124.90665111897104
20
-20.912322075638045
30
0
10
124.10401074637613
20
-21.510888076146003
30
0
10
123.03434738824453
20
-21.852420559770916
30
0
10
122.4477193624739
20
-22.039724841143496
30
0
10
121.76442357295113
20
-22.147500000000019
30
0
10
120.94317771905892
20
-22.147500000000019
30
0
0
LINE
5
115
100
AcDbEntity
8
0
100
AcDbLine
10
120.94317771905894
20
-22.147500000000019
30
0
11
91.838808121849041
21
-22.147500000000004
31
0
0
ARC
5
116
100
AcDbEntity
8
0
100
AcDbCircle
10
91.838808
20
-28.247500000000013
30
0
40
6.1000000000000085
210
0
220
-0
230
1
100
AcDbArc
50
89.999998855502326
51
180
0
LINE
5
117
100
AcDbEntity
8
0
100
AcDbLine
10
85.738808000000006
20
-28.247500000000016
30
0
11
85.738807999999992
21
-98.247500000000016
31
0
0
ARC
5
118
100
AcDbEntity
8
0
100
AcDbCircle
10
91.838808
20
-98.247500000000016
30
0
40
6.1000000000000121
210
0
220
0
230
1
100
AcDbArc
50
180
51
270
0
LINE
5
119
100
AcDbEntity
8
0
100
AcDbLine
10
91.838808
20
-104.34750000000003
30
0
11
128.36380775241003
21
-104.34750000000003
31
0
0
ARC
5
120
100
AcDbEntity
8
0
100
AcDbCircle
10
128.36380800000015
20
-98.247500000000016
30
0
40
6.1000000000000174
210
0
220
0
230
1
100
AcDbArc
50
269.99999767444768
51
359.9999915480721
0
LINE
5
121
100
AcDbEntity
8
0
100
AcDbLine
10
134.46380800000011
20
-98.247500903924021
30
0
11
134.46380800000014
21
-94.272500000000065
31
0
0
ARC
5
122
100
AcDbEntity
8
0
100
AcDbCircle
10
136.36380800000015
20
-94.272500000000022
30
0
40
1.9000000000000128
210
0
220
0
230
1
100
AcDbArc
50
90
51
180
0
LINE
5
123
100
AcDbEntity
8
0
100
AcDbLine
10
136.36380800000015
20
-92.372500000000016
30
0
11
152.73880746788143
21
-92.37249999999996
31
0
0
ARC
5
124
100
AcDbEntity
8
0
100
AcDbCircle
10
152.73880800000012
20
-94.272499999999894
30
0
40
1.9000000000000159
210
0
220
0
230
1
100
AcDbArc
50
-8.4949404962772882e-06
51
90.000016046397462
0
LINE
5
125
100
AcDbEntity
8
0
100
AcDbLine
10
154.6388080000001
20
-94.272500281550009
30
0
11
154.63880800000001
21
-104.44452408715266
31
0
0
ARC
5
126
100
AcDbEntity
8
0
100
AcDbCircle
10
160.73880800000001
20
-104.44452408715267
30
0
40
6.0999999999999943
210
0
220
0
230
1
100
AcDbArc
50
180
51
269.99998517540348
0
LINE
5
127
100
AcDbEntity
8
0
100
AcDbLine
10
160.73880642169809
20
-110.54452408715247
30
0
11
165.73308172071552
21
-110.54452408715213
31
0
0
ARC
5
128
100
AcDbEntity
8
0
100
AcDbCircle
10
165.73308172071552
20
-181.70195175278997
30
0
40
71.157427665637854
210
0
220
-0
230
1
100
AcDbArc
50
40.384003338849958
51
90
0
ARC
5
129
100
AcDbEntity
8
0
100
AcDbCircle
10
224.58154998024597
20
-131.64630358978744
30
0
40
6.0999999999999837
210
0
220
0
230
1
100
AcDbArc
50
220.38400333885048
51
315.21021296102765
0
LINE
5
130
100
AcDbEntity
8
0
100
AcDbLine
10
228.91069756986869
20
-135.94380066916554
30
0
11
238.33994653615039
21
-126.44509148921445
31
0
0
SPLINE
5
131
100
AcDbEntity
8
0
100
AcDbSpline
70
0
71
3
72
17
73
13
74
0
42
0.000000001
43
0.0000000001
44
0.0000000001
40
0
40
0
40
0
40
0
40
0.12990898480630125
40
0.12990898480630125
40
0.12990898480630125
40
0.40625210544989671
40
0.40625210544989671
40
0.40625210544989671
40
0.74223385587066137
40
0.74223385587066137
40
0.74223385587066137
40
0.74241366992444169
40
0.74241366992444169
40
0.74241366992444169
40
0.74241366992444169
10
238.33994653615039
20
-126.44509148921445
30
0
10
240.02521627913353
20
-124.74740726901707
30
0
10
241.46453480354381
20
-122.9299046459944
30
0
10
242.66108295598048
20
-121.01781254575008
30
0
10
245.20638689271516
20
-116.95039951248424
30
0
10
246.63935573368553
20
-112.47604368417853
30
0
10
247.46195780105046
20
-107.89610475788172
30
0
10
248.46208865956189
20
-102.32775229195589
30
0
10
248.62065959995891
20
-96.594617520459551
30
0
10
248.66872135662422
20
-90.969325309298625
30
0
10
248.66874690441642
20
-90.96633511904227
30
0
10
248.66877245220863
20
-90.963344928786796
30
0
10
248.66879800000083
20
-90.960354738527542
30
0
0
LINE
5
132
100
AcDbEntity
8
0
100
AcDbLine
10
248.66879800000081
20
-90.960354738527542
30
0
11
248.66879800000004
21
-28.247500351713903
31
0
0
ARC
5
133
100
AcDbEntity
8
0
100
AcDbCircle
10
242.56879800000004
20
-28.247499999999995
30
0
40
6.1000000000000041
210
-0
220
0
230
1
100
AcDbArc
50
-3.306651105031444e-06
51
89.999998254639863
0
LINE
5
134
100
AcDbEntity
8
0
100
AcDbLine
10
242.56879818581996
20
-22.147499999999994
30
0
11
217.32950007682402
21
-22.147500000000015
31
0
0
ENDSEC
0
SECTION
2
OBJECTS
0
DICTIONARY
5
C
100
AcDbDictionary
3
ACAD_GROUP
350
D
3
ACAD_MLINESTYLE
350
17
0
DICTIONARY
5
D
100
AcDbDictionary
0
DICTIONARY
5
1A
330
C
100
AcDbDictionary
0
DICTIONARY
5
17
100
AcDbDictionary
0
ENDSEC
0
EOF
