0
SECTION
2
HEADER
9
$INSUNITS
70
4
9
$ACADVER
1
AC1014
9
$HANDSEED
5
FFFF
0
ENDSEC
0
SECTION
2
TABLES
0
TABLE
2
VPORT
5
8
100
AcDbSymbolTable
0
ENDTAB
0
TABLE
2
LTYPE
5
5
100
AcDbSymbolTable
0
LTYPE
5
14
100
AcDbSymbolTableRecord
100
AcDbLinetypeTableRecord
2
BYBLOCK
70
0
0
LTYPE
5
15
100
AcDbSymbolTableRecord
100
AcDbLinetypeTableRecord
2
BYLAYER
70
0
0
ENDTAB
0
TABLE
2
LAYER
5
2
100
AcDbSymbolTable
70
2
0
LAYER
5
50
100
AcDbSymbolTableRecord
100
AcDbLayerTableRecord
2
0
70
0
6
CONTINUOUS
0
ENDTAB
0
TABLE
2
STYLE
5
3
100
AcDbSymbolTable
70
1
0
STYLE
5
11
100
AcDbSymbolTableRecord
100
AcDbTextStyleTableRecord
2
STANDARD
70
0
0
ENDTAB
0
TABLE
2
VIEW
5
6
100
AcDbSymbolTable
70
0
0
ENDTAB
0
TABLE
2
UCS
5
7
100
AcDbSymbolTable
70
0
0
ENDTAB
0
TABLE
2
APPID
5
9
100
AcDbSymbolTable
70
2
0
APPID
5
12
100
AcDbSymbolTableRecord
100
AcDbRegAppTableRecord
2
ACAD
70
0
0
ENDTAB
0
TABLE
2
DIMSTYLE
5
A
100
AcDbSymbolTable
70
1
0
ENDTAB
0
TABLE
2
BLOCK_RECORD
5
1
100
AcDbSymbolTable
70
1
0
BLOCK_RECORD
5
1F
100
AcDbSymbolTableRecord
100
AcDbBlockTableRecord
2
*MODEL_SPACE
0
BLOCK_RECORD
5
1B
100
AcDbSymbolTableRecord
100
AcDbBlockTableRecord
2
*PAPER_SPACE
0
ENDTAB
0
ENDSEC
0
SECTION
2
BLOCKS
0
BLOCK
5
20
100
AcDbEntity
100
AcDbBlockBegin
2
*MODEL_SPACE
0
ENDBLK
5
21
100
AcDbEntity
100
AcDbBlockEnd
0
BLOCK
5
1C
100
AcDbEntity
100
AcDbBlockBegin
2
*PAPER_SPACE
0
ENDBLK
5
1D
100
AcDbEntity
100
AcDbBlockEnd
0
ENDSEC
0
SECTION
2
ENTITIES
0
LWPOLYLINE
5
100
100
AcDbEntity
8
0
100
AcDbPolyline
90
8
43
0.0
10
206.46657055903304
20
-13.898242012619408
10
205.18365639133438
20
-12.57322112026965
10
204.46299265332104
20
-12.02645867555208
10
203.68240970298544
20
-11.567258685635785
10
202.8373108787344
20
-11.202338444647179
10
201.92385860178356
20
-10.937305967208287
10
200.93912149660568
20
-10.776444995163699
10
199.8812215143258
20
-10.722500000000005
0
LINE
5
101
100
AcDbEntity
8
0
100
AcDbLine
10
199.8812215143258
20
-10.722500000000005
30
0
11
178.3235700407883
21
-10.722500000000004
31
0
0
LWPOLYLINE
5
102
100
AcDbEntity
8
0
100
AcDbPolyline
90
9
43
0.0
10
178.3235700407883
20
-10.722500000000004
10
177.12857838956015
20
-10.54335024019514
10
176.0822347856787
20
-10.040474656526452
10
175.1450094011135
20
-9.299961336758383
10
174.26492791227022
20
-8.435000000000045
10
173.3848464234263
20
-7.570038663241703
10
172.4476210388592
20
-6.829525343473602
10
171.4012774349755
20
-6.326649759804865
10
170.2062857837463
20
-6.147499999999991
0
LINE
5
103
100
AcDbEntity
8
0
100
AcDbLine
10
170.2062857837463
20
-6.1474999999999911
30
0
11
140.19737336584384
21
-6.1474999999999902
31
0
0
LWPOLYLINE
5
104
100
AcDbEntity
8
0
100
AcDbPolyline
90
9
43
0.0
10
140.19737336584384
20
-6.14749999999999
10
138.54507674497256
20
-6.281011962121745
10
137.08415176868206
20
-6.676167875344192
10
135.8037164438344
20
-7.318089842334748
10
134.68735361752047
20
-8.184332276850268
10
133.714470017735
20
-9.246739988682986
10
132.86140647114465
20
-10.472966077098077
10
132.1021797227506
20
-11.827486149152012
10
131.40914194298833
20
-13.272499999999933
0
LINE
5
105
100
AcDbEntity
8
0
100
AcDbLine
10
131.40914194298833
20
-13.272499999999933
30
0
11
131.36380799999998
21
-13.272500000000003
31
0
0
LINE
5
106
100
AcDbEntity
8
0
100
AcDbLine
10
131.36380799999998
20
-13.272500000000003
30
0
11
131.36380799999995
21
-13.37284240748728
31
0
0
LWPOLYLINE
5
107
100
AcDbEntity
8
0
100
AcDbPolyline
90
2
43
0.0
10
131.36380799999992
20
-13.37284240748728
10
130.36380799999998
20
-15.680141993460333
0
LWPOLYLINE
5
108
100
AcDbEntity
8
0
100
AcDbPolyline
90
9
43
0.0
10
130.36380799999995
20
-15.680141993460337
10
128.8360281935913
20
-18.953175134857887
10
127.9529073616039
20
-20.426678781836717
10
126.9387581675677
20
-21.721040014965045
10
125.75843443360161
20
-22.78820686255673
10
124.38103129419426
20
-23.585926089351457
10
122.78154566428628
20
-24.080013394017676
10
121.89288492682834
20
-24.205488165973517
10
120.94317771905892
20
-24.247500000000013
0
LINE
5
109
100
AcDbEntity
8
0
100
AcDbLine
10
120.94317771905892
20
-24.247500000000013
30
0
11
90.538808000000003
21
-24.247500000000013
31
0
0
ARC
5
110
100
AcDbEntity
8
0
100
AcDbCircle
10
90.538808000000003
20
-29.247500000000016
30
0
40
5.0000000000000044
210
0
220
-0
230
1
100
AcDbArc
50
90
51
180
0
LINE
5
111
100
AcDbEntity
8
0
100
AcDbLine
10
85.538808000000003
20
-29.247500000000016
30
0
11
85.538808000000003
21
-97.247500000000016
31
0
0
ARC
5
112
100
AcDbEntity
8
0
100
AcDbCircle
10
90.538808000000003
20
-97.247500000000016
30
0
40
5
210
0
220
0
230
1
100
AcDbArc
50
180
51
270
0
LINE
5
113
100
AcDbEntity
8
0
100
AcDbLine
10
90.538808000000003
20
-102.24750000000002
30
0
11
127.3638077223379
21
-102.24750000000002
31
0
0
ARC
5
114
100
AcDbEntity
8
0
100
AcDbCircle
10
127.36380800000001
20
-97.247500000000016
30
0
40
5.000000000000008
210
0
220
0
230
1
100
AcDbArc
50
-90.000003181773408
51
0
0
LINE
5
115
100
AcDbEntity
8
0
100
AcDbLine
10
132.36380800000001
20
-97.247500000000016
30
0
11
132.36380800000003
21
-95.27249999999998
31
0
0
ARC
5
116
100
AcDbEntity
8
0
100
AcDbCircle
10
137.36380800000003
20
-95.272500000000008
30
0
40
5.0000000000000178
210
0
220
0
230
1
100
AcDbArc
50
90
51
180
0
LINE
5
117
100
AcDbEntity
8
0
100
AcDbLine
10
137.36380800000003
20
-90.27249999999998
30
0
11
151.73880764783107
21
-90.27249999999998
31
0
0
ARC
5
118
100
AcDbEntity
8
0
100
AcDbCircle
10
151.7388079254942
20
-95.272500074505771
30
0
40
5.0000000745057882
210
0
220
0
230
1
100
AcDbArc
50
0
51
90.000003181785075
0
LINE
5
119
100
AcDbEntity
8
0
100
AcDbLine
10
156.73880800000001
20
-95.272500074505786
30
0
11
156.73880800000001
21
-103.44452408715229
31
0
0
ARC
5
120
100
AcDbEntity
8
0
100
AcDbCircle
10
161.73880800000001
20
-103.44452408715229
30
0
40
5
210
0
220
0
230
1
100
AcDbArc
50
180
51
269.99999658499758
0
LINE
5
121
100
AcDbEntity
8
0
100
AcDbLine
10
161.73880770198483
20
-108.44452408715227
30
0
11
165.7330817207154
21
-108.44452408715226
31
0
0
ARC
5
122
100
AcDbEntity
8
0
100
AcDbCircle
10
165.73308172071546
20
-181.70195175279014
30
0
40
73.257427665637834
210
0
220
-0
230
1
100
AcDbArc
50
41.180129372835346
51
90.000000000000057
0
LINE
5
123
100
AcDbEntity
8
0
100
AcDbLine
10
246.56879799999999
20
-100.27977569618243
30
0
11
246.56879799999999
21
-32.671819000000006
31
0
0
ARC
5
124
100
AcDbEntity
8
0
100
AcDbCircle
10
241.56879799999999
20
-32.671818999999999
30
0
40
5
210
-0
220
0
230
1
100
AcDbArc
50
0
51
90
0
LINE
5
125
100
AcDbEntity
8
0
100
AcDbLine
10
241.56879799999999
20
-27.671819000000003
30
0
11
219.26155498635734
21
-27.671818999999999
31
0
0
LWPOLYLINE
5
126
100
AcDbEntity
8
0
100
AcDbPolyline
90
10
43
0.0
10
219.2615549863573
20
-27.671818999999996
10
218.24233379468865
20
-27.621872287722436
10
217.29089665804167
20
-27.472869896572586
10
216.4056266481362
20
-27.227174711574573
10
215.58399453415979
20
-26.888482803656423
10
214.1176934991019
20
-25.952495261589547
10
212.85810140088546
20
-24.71443529170367
10
211.7639578885286
20
-23.23459837315955
10
210.78889033379573
20
-21.58075077000713
10
208.9958398319211
20
-18.043501246829212
0
LWPOLYLINE
5
127
100
AcDbEntity
8
0
100
AcDbPolyline
90
2
43
0.0
10
206.74046955398003
20
-14.247499999999999
10
206.46657055903304
20
-13.898242012619422
0
CIRCLE
5
128
100
AcDbEntity
8
0
100
AcDbCircle
10
219.28880800000002
20
-83.222499999999997
30
0
40
1.4999999999999858
210
0
220
0
230
1
0
CIRCLE
5
129
100
AcDbEntity
8
0
100
AcDbCircle
10
90.538808000000003
20
-28.6525
30
0
40
1.5000000000000036
210
0
220
0
230
1
0
CIRCLE
5
130
100
AcDbEntity
8
0
100
AcDbCircle
10
240.96879799999999
20
-31.671818999999999
30
0
40
1.4999999999999858
210
0
220
0
230
1
0
CIRCLE
5
131
100
AcDbEntity
8
0
100
AcDbCircle
10
212.968796
20
-31.671817999999998
30
0
40
1.4999999999999858
210
0
220
0
230
1
0
CIRCLE
5
132
100
AcDbEntity
8
0
100
AcDbCircle
10
157.926917
20
-86.428109000000006
30
0
40
1.5000000000000036
210
0
220
0
230
1
0
CIRCLE
5
133
100
AcDbEntity
8
0
100
AcDbCircle
10
242.56879800000002
20
-63.671828000000005
30
0
40
1.4999999999999858
210
0
220
0
230
1
0
CIRCLE
5
134
100
AcDbEntity
8
0
100
AcDbCircle
10
211.56879799999999
20
-63.671821000000008
30
0
40
1.4999999999999858
210
0
220
0
230
1
0
CIRCLE
5
135
100
AcDbEntity
8
0
100
AcDbCircle
10
90.538808000000003
20
-98.652500000000018
30
0
40
1.5000000000000036
210
0
220
0
230
1
0
CIRCLE
5
136
100
AcDbEntity
8
0
100
AcDbCircle
10
137.53880799999999
20
-11.652500000000002
30
0
40
1.5000000000000036
210
0
220
0
230
1
0
ARC
5
137
100
AcDbEntity
8
0
100
AcDbCircle
10
224.63301051084574
20
-130.17503283306303
30
0
40
5.0000000000000746
210
0
220
0
230
1
100
AcDbArc
50
221.18012937283527
51
315.20994737767177
0
LINE
5
138
100
AcDbEntity
8
0
100
AcDbLine
10
228.18147581360873
20
-133.69758787097049
30
0
11
249.45269596380655
21
-112.26966954782385
31
0
0
ARC
5
139
100
AcDbEntity
8
0
100
AcDbCircle
10
245.90421121650493
20
-108.74713409758809
30
0
40
4.9999999999999964
210
-0
220
0
230
1
100
AcDbArc
50
-44.789736348179481
51
45.21026382159252
0
LINE
5
140
100
AcDbEntity
8
0
100
AcDbLine
10
249.42674665622627
20
-105.1986493398489
30
0
11
248.04626227598223
21
-103.82826017170416
31
0
0
ARC
5
141
100
AcDbEntity
8
0
100
AcDbCircle
10
251.56879800000016
20
-100.27977569618236
30
0
40
5.0000000000001776
210
0
220
0
230
1
100
AcDbArc
50
180
51
225.21025923118566
0
LWPOLYLINE
5
142
100
AcDbEntity
8
0
100
AcDbPolyline
90
3
43
0.0
10
208.9958398319211
20
-18.043501246829198
10
208.20838048711872
20
-16.548357484818546
10
207.363808
20
-15.136675549971402
0
LWPOLYLINE
5
143
100
AcDbEntity
8
0
100
AcDbPolyline
90
2
43
0.0
10
207.363808
20
-15.13667554997138
10
206.74046955398003
20
-14.247500000000013
0
ENDSEC
0
SECTION
2
OBJECTS
0
DICTIONARY
5
C
100
AcDbDictionary
3
ACAD_GROUP
350
D
3
ACAD_MLINESTYLE
350
17
0
DICTIONARY
5
D
100
AcDbDictionary
0
DICTIONARY
5
1A
330
C
100
AcDbDictionary
0
DICTIONARY
5
17
100
AcDbDictionary
0
ENDSEC
0
EOF
